<svg id="Group_1368" data-name="Group 1368" xmlns="http://www.w3.org/2000/svg" width="32" height="32" viewBox="0 0 32 32">
  <rect id="Rectangle_459" data-name="Rectangle 459" width="32" height="32" fill="none"/>
  <line id="Line_69" data-name="Line 69" x2="10" transform="translate(11 29)" fill="none" stroke="#e5181e" stroke-linecap="round" stroke-linejoin="round" stroke-width="1.5"/>
  <line id="Line_70" data-name="Line 70" y1="7" transform="translate(16 18)" fill="none" stroke="#e5181e" stroke-linecap="round" stroke-linejoin="round" stroke-width="1.5"/>
  <path id="Path_2538" data-name="Path 2538" d="M96,112l4,4,4-4" transform="translate(-84 -98)" fill="none" stroke="#e5181e" stroke-linecap="round" stroke-linejoin="round" stroke-width="1.5"/>
  <path id="Path_2539" data-name="Path 2539" d="M51.838,41.876a10,10,0,1,1,12.339-.011A3.036,3.036,0,0,0,63,44.246V45a1,1,0,0,1-1,1H54a1,1,0,0,1-1-1v-.754A3.013,3.013,0,0,0,51.838,41.876Z" transform="translate(-42 -20.999)" fill="none" stroke="#e5181e" stroke-linecap="round" stroke-linejoin="round" stroke-width="1.5"/>
</svg>
