<svg xmlns="http://www.w3.org/2000/svg" width="32" height="32" viewBox="0 0 32 32"><defs><style>.a,.b{fill:none;}.a{stroke:#e5181e;stroke-linecap:round;stroke-linejoin:round;stroke-width:1.5px;}.b{opacity:0;}</style></defs><path class="a" d="M4,10.667H6.667q4,0,4-4V4q0-4-4-4H4Q0,0,0,4V6.667Q0,10.667,4,10.667Z" transform="translate(18.667 2.667)"/><path class="a" d="M4,10.667H6.667q4,0,4-4V4q0-4-4-4H4Q0,0,0,4V6.667Q0,10.667,4,10.667Z" transform="translate(2.667 18.667)"/><path class="a" d="M10.667,5.333A5.333,5.333,0,1,1,5.333,0,5.333,5.333,0,0,1,10.667,5.333Z" transform="translate(2.667 2.667)"/><path class="a" d="M10.667,5.333A5.333,5.333,0,1,1,5.333,0,5.333,5.333,0,0,1,10.667,5.333Z" transform="translate(18.667 18.667)"/><path class="b" d="M0,0H32V32H0Z"/></svg>