<svg xmlns="http://www.w3.org/2000/svg" width="32" height="32" viewBox="0 0 32 32">
  <g id="vuesax_broken_cloud-add" data-name="vuesax/broken/cloud-add" transform="translate(-300 -252)">
    <g id="cloud-add" transform="translate(300 252)">
      <g id="Group" transform="translate(2.707 3.293)">
        <path id="Vector" d="M4.68,0c-6.24.44-6.24,9.52,0,9.96H7.24" transform="translate(0 11.533)" fill="none" stroke="#e5181e" stroke-linecap="round" stroke-linejoin="round" stroke-width="1.5"/>
        <path id="Vector-2" data-name="Vector" d="M1.24,0C7.013.733,9.347,8.427,4.973,12.253A7.114,7.114,0,0,1,.12,14.12H0" transform="translate(19.347 7.373)" fill="none" stroke="#e5181e" stroke-linecap="round" stroke-linejoin="round" stroke-width="1.5"/>
        <path id="Vector-3" data-name="Vector" d="M.655,11.533C-2.718,2.16,7.762-2.787,13.375,1.64" transform="translate(4.092 0)" fill="none" stroke="#e5181e" stroke-linecap="round" stroke-linejoin="round" stroke-width="1.5"/>
      </g>
      <path id="Vector-4" data-name="Vector" d="M13.333,6.667a6.286,6.286,0,0,1-.613,2.747,5.481,5.481,0,0,1-.36.68,6.622,6.622,0,0,1-11.387,0,5.481,5.481,0,0,1-.36-.68A6.286,6.286,0,0,1,0,6.667a6.667,6.667,0,0,1,13.333,0Z" transform="translate(9.333 15.373)" fill="none" stroke="#e5181e" stroke-linecap="round" stroke-linejoin="round" stroke-width="1.5"/>
      <path id="Vector-5" data-name="Vector" d="M0,1.307l1.32,1.32L4.16,0" transform="translate(13.92 20.733)" fill="none" stroke="#e5181e" stroke-linecap="round" stroke-linejoin="round" stroke-width="1.5"/>
      <path id="Vector-6" data-name="Vector" d="M0,0H32V32H0Z" fill="none" opacity="0"/>
    </g>
  </g>
</svg>
