<svg xmlns="http://www.w3.org/2000/svg" width="32" height="32" viewBox="0 0 32 32">
  <g id="vuesax_broken_cpu-charge" data-name="vuesax/broken/cpu-charge" transform="translate(-300 -188)">
    <g id="cpu-charge" transform="translate(300 188)">
      <path id="Vector" d="M7.467,21.333h6.4c5.333,0,7.467-2.133,7.467-7.467v-6.4C21.333,2.133,19.2,0,13.867,0h-6.4C2.133,0,0,2.133,0,7.467v6.4C0,19.2,2.133,21.333,7.467,21.333Z" transform="translate(5.333 5.333)" fill="none" stroke="#e5181e" stroke-linecap="round" stroke-linejoin="round" stroke-width="1.5"/>
      <path id="Vector-2" data-name="Vector" d="M0,2.667V0" transform="translate(10.68 2.667)" fill="none" stroke="#e5181e" stroke-linecap="round" stroke-linejoin="round" stroke-width="1.5"/>
      <path id="Vector-3" data-name="Vector" d="M0,2.667V0" transform="translate(16 2.667)" fill="none" stroke="#e5181e" stroke-linecap="round" stroke-linejoin="round" stroke-width="1.5"/>
      <path id="Vector-4" data-name="Vector" d="M0,2.667V0" transform="translate(21.333 2.667)" fill="none" stroke="#e5181e" stroke-linecap="round" stroke-linejoin="round" stroke-width="1.5"/>
      <path id="Vector-5" data-name="Vector" d="M0,0H2.667" transform="translate(26.667 10.667)" fill="none" stroke="#e5181e" stroke-linecap="round" stroke-linejoin="round" stroke-width="1.5"/>
      <path id="Vector-6" data-name="Vector" d="M0,0H2.667" transform="translate(26.667 16)" fill="none" stroke="#e5181e" stroke-linecap="round" stroke-linejoin="round" stroke-width="1.5"/>
      <path id="Vector-7" data-name="Vector" d="M0,0H2.667" transform="translate(26.667 21.333)" fill="none" stroke="#e5181e" stroke-linecap="round" stroke-linejoin="round" stroke-width="1.5"/>
      <path id="Vector-8" data-name="Vector" d="M0,0V2.667" transform="translate(21.333 26.667)" fill="none" stroke="#e5181e" stroke-linecap="round" stroke-linejoin="round" stroke-width="1.5"/>
      <path id="Vector-9" data-name="Vector" d="M0,0V2.667" transform="translate(16.013 26.667)" fill="none" stroke="#e5181e" stroke-linecap="round" stroke-linejoin="round" stroke-width="1.5"/>
      <path id="Vector-10" data-name="Vector" d="M0,0V2.667" transform="translate(10.68 26.667)" fill="none" stroke="#e5181e" stroke-linecap="round" stroke-linejoin="round" stroke-width="1.5"/>
      <path id="Vector-11" data-name="Vector" d="M0,0H2.667" transform="translate(2.667 10.667)" fill="none" stroke="#e5181e" stroke-linecap="round" stroke-linejoin="round" stroke-width="1.5"/>
      <path id="Vector-12" data-name="Vector" d="M0,0H2.667" transform="translate(2.667 16)" fill="none" stroke="#e5181e" stroke-linecap="round" stroke-linejoin="round" stroke-width="1.5"/>
      <path id="Vector-13" data-name="Vector" d="M0,0H2.667" transform="translate(2.667 21.333)" fill="none" stroke="#e5181e" stroke-linecap="round" stroke-linejoin="round" stroke-width="1.5"/>
      <path id="Vector-14" data-name="Vector" d="M0,0H32V32H0Z" fill="none" opacity="0"/>
      <g id="Group" transform="translate(9.415 10.667)">
        <path id="Vector-15" data-name="Vector" d="M8.188,3.66C7.165-2.544-1.8-.19.324,5.717" transform="translate(2.031 0)" fill="none" stroke="#e5181e" stroke-linecap="round" stroke-linejoin="round" stroke-width="1.5"/>
        <path id="Vector-16" data-name="Vector" d="M2.322,0a2.48,2.48,0,0,0,0,4.95H9.659a3.548,3.548,0,0,0,2.409-.924,3.3,3.3,0,0,0,1.122-2.75" transform="translate(0 5.717)" fill="none" stroke="#e5181e" stroke-linecap="round" stroke-linejoin="round" stroke-width="1.5"/>
      </g>
    </g>
  </g>
</svg>
