<svg xmlns="http://www.w3.org/2000/svg" width="32" height="32" viewBox="0 0 32 32">
  <g id="vuesax_broken_cloud-change" data-name="vuesax/broken/cloud-change" transform="translate(-364 -444)">
    <g id="cloud-change" transform="translate(364 444)">
      <g id="Group" transform="translate(7.053 8.106)">
        <path id="Vector" d="M11.1,4.961C9.712-3.448-2.438-.257.439,7.749" transform="translate(2.753 0)" fill="none" stroke="#e5181e" stroke-linecap="round" stroke-linejoin="round" stroke-width="1.5"/>
        <path id="Vector-2" data-name="Vector" d="M3.148,0a3.361,3.361,0,0,0,0,6.709h9.944a4.809,4.809,0,0,0,3.265-1.252,4.472,4.472,0,0,0,1.521-3.727" transform="translate(0 7.749)" fill="none" stroke="#e5181e" stroke-linecap="round" stroke-linejoin="round" stroke-width="1.5"/>
      </g>
      <g id="Group-2" data-name="Group" transform="translate(2.667 2.667)">
        <path id="Vector-3" data-name="Vector" d="M0,0A9.327,9.327,0,0,0,9.333,9.333L7.933,7" transform="translate(0 17.333)" fill="none" stroke="#e5181e" stroke-linecap="round" stroke-linejoin="round" stroke-width="1.5"/>
        <path id="Vector-4" data-name="Vector" d="M9.333,9.333A9.327,9.327,0,0,0,0,0L1.4,2.333" transform="translate(17.333)" fill="none" stroke="#e5181e" stroke-linecap="round" stroke-linejoin="round" stroke-width="1.5"/>
      </g>
      <path id="Vector-5" data-name="Vector" d="M0,0H32V32H0Z" transform="translate(32 32) rotate(180)" fill="none" opacity="0"/>
    </g>
  </g>
</svg>
