<svg xmlns="http://www.w3.org/2000/svg" xmlns:xlink="http://www.w3.org/1999/xlink" width="86" height="86" viewBox="0 0 86 86"><defs><style>.a,.c{fill:#8c8c8c;}.a{stroke:#707070;}.b{clip-path:url(#a);}</style><clipPath id="a"><rect class="a" width="86" height="86" transform="translate(-278 -5190)"/></clipPath></defs><g class="b" transform="translate(278 5190)"><g transform="translate(-255 -5178)"><g transform="translate(0 0)"><path class="c" d="M49.7,64.285H19.449A4.454,4.454,0,0,1,15,59.836V6.449A4.454,4.454,0,0,1,19.449,2H49.7a4.454,4.454,0,0,1,4.449,4.449V59.836A4.454,4.454,0,0,1,49.7,64.285ZM19.449,3.78A2.669,2.669,0,0,0,16.78,6.449V59.836a2.669,2.669,0,0,0,2.669,2.669H49.7a2.669,2.669,0,0,0,2.669-2.669V6.449A2.669,2.669,0,0,0,49.7,3.78Z" transform="translate(-15 -2)"/><path class="c" d="M49.363,54.531H20.89a.89.89,0,0,1-.89-.89V11.265a.89.89,0,0,1,.89-.89H49.363a.89.89,0,0,1,.89.89V53.641A.89.89,0,0,1,49.363,54.531ZM21.78,52.751H48.473v-40.6H21.78Z" transform="translate(-15.551 -2.923)"/><path class="c" d="M36.559,68.118a3.559,3.559,0,1,1,3.559-3.559A3.559,3.559,0,0,1,36.559,68.118Zm0-5.339a1.78,1.78,0,1,0,1.78,1.78A1.78,1.78,0,0,0,36.559,62.78Z" transform="translate(-16.984 -8.502)"/><path class="c" d="M44.009,7.926H35.281a.89.89,0,1,1,0-1.78h8.728a.89.89,0,1,1,0,1.78Z" transform="translate(-17.137 -2.457)"/><path class="c" d="M30.469,7.926H28.69a.89.89,0,1,1,0-1.78h1.78a.89.89,0,0,1,0,1.78Z" transform="translate(-16.411 -2.457)"/></g><path class="c" d="M36.49,50.981a4.115,4.115,0,1,1,4.115-4.115.89.89,0,0,1-1.78,0A2.336,2.336,0,1,0,36.49,49.2a.89.89,0,1,1,0,1.78Z" transform="translate(-16.915 -20.014)"/><path class="c" d="M36.49,58.231a4.121,4.121,0,0,1-4.115-4.115.89.89,0,0,1,1.78,0A2.336,2.336,0,1,0,36.49,51.78a.89.89,0,0,1,0-1.78,4.115,4.115,0,1,1,0,8.231Z" transform="translate(-16.915 -20.813)"/><path class="c" d="M36.89,60.338a.89.89,0,0,1-.89-.89V58.14a.89.89,0,1,1,1.78,0v1.308A.89.89,0,0,1,36.89,60.338Z" transform="translate(-17.314 -21.612)"/><path class="c" d="M36.89,44.368a.89.89,0,0,1-.89-.89V42.17a.89.89,0,0,1,1.78,0v1.308A.89.89,0,0,1,36.89,44.368Z" transform="translate(-17.314 -19.852)"/></g></g></svg>