<svg xmlns="http://www.w3.org/2000/svg" xmlns:xlink="http://www.w3.org/1999/xlink" width="86" height="86" viewBox="0 0 86 86"><defs><style>.a,.c{fill:#8c8c8c;}.a{stroke:#707070;}.b{clip-path:url(#a);}.d{fill:none;}</style><clipPath id="a"><rect class="a" width="86" height="86" transform="translate(-525 -4959)"/></clipPath></defs><g class="b" transform="translate(525 4959)"><g transform="translate(-514 -4947)"><g transform="translate(0)"><path class="c" d="M12.541,51.78H9.723a.89.89,0,1,1,0-1.78h2.818a.89.89,0,1,1,0,1.78Z" transform="translate(-2.753 -7.29)"/><path class="c" d="M59.836,50.938H6.449a4.413,4.413,0,0,1-4.449-4V6.894A4.583,4.583,0,0,1,6.449,2H59.836a4.454,4.454,0,0,1,4.449,4.449V46.489A4.454,4.454,0,0,1,59.836,50.938ZM6.449,3.78A2.821,2.821,0,0,0,3.78,6.894V46.934a2.642,2.642,0,0,0,2.669,2.224H59.836a2.669,2.669,0,0,0,2.669-2.669V6.449A2.669,2.669,0,0,0,59.836,3.78Z" transform="translate(-2 -2)"/><path class="c" d="M43.906,63.9H27.89a.89.89,0,0,1-.89-.89V55.89a.89.89,0,0,1,.89-.89H43.906a.89.89,0,0,1,.89.89v7.118A.89.89,0,0,1,43.906,63.9ZM28.78,62.118H43.016V56.78H28.78Z" transform="translate(-4.755 -7.841)"/><path class="c" d="M48.194,71.008H22.39a.89.89,0,0,1-.89-.89V67.449A4.454,4.454,0,0,1,25.949,63H44.635a4.454,4.454,0,0,1,4.449,4.449v2.669A.89.89,0,0,1,48.194,71.008ZM23.28,69.229H47.3v-1.78a2.669,2.669,0,0,0-2.669-2.669H25.949a2.669,2.669,0,0,0-2.669,2.669Z" transform="translate(-4.149 -8.723)"/><path class="c" d="M63.4,46.78H2.89a.89.89,0,1,1,0-1.78H63.4a.89.89,0,0,1,0,1.78Z" transform="translate(-2 -6.739)"/></g><g transform="translate(15.126 2.669)"><g transform="translate(0 0)"><rect class="d" width="32" height="32" transform="translate(-0.126 -0.354)"/><path class="c" d="M127.9,78.48a.8.8,0,0,1-.8-.8,4.766,4.766,0,0,1,4.761-4.761h7.92a.189.189,0,0,0,.189-.189V56.891a.189.189,0,0,0-.189-.189h-7.92a3.163,3.163,0,0,0-3.159,3.159.8.8,0,1,1-1.6,0,4.766,4.766,0,0,1,4.761-4.761h7.92a1.793,1.793,0,0,1,1.791,1.791V72.73a1.793,1.793,0,0,1-1.791,1.791h-7.92A3.163,3.163,0,0,0,128.7,77.68.8.8,0,0,1,127.9,78.48Z" transform="translate(-111.885 -48.794)"/><path class="c" d="M36.77,78.48a.8.8,0,0,1-.8-.8,3.163,3.163,0,0,0-3.159-3.159h-7.92A1.793,1.793,0,0,1,23.1,72.73V56.891A1.793,1.793,0,0,1,24.891,55.1h7.92a4.766,4.766,0,0,1,4.761,4.761V77.68A.8.8,0,0,1,36.77,78.48ZM24.891,56.7a.189.189,0,0,0-.189.189V72.73a.189.189,0,0,0,.189.189h7.92a4.741,4.741,0,0,1,3.159,1.2V59.861A3.163,3.163,0,0,0,32.81,56.7Z" transform="translate(-20.754 -48.794)"/></g><path class="c" d="M-479.936-4896.854h6.242" transform="translate(485.948 4907.661)"/><path class="c" d="M-473.793-4896.152h-6.242a.8.8,0,0,1-.8-.8.8.8,0,0,1,.8-.8h6.242a.8.8,0,0,1,.8.8A.8.8,0,0,1-473.793-4896.152Z" transform="translate(486.047 4907.761)"/><path class="c" d="M-479.936-4896.854h6.242" transform="translate(499.295 4907.661)"/><path class="c" d="M-473.793-4896.152h-6.242a.8.8,0,0,1-.8-.8.8.8,0,0,1,.8-.8h6.242a.8.8,0,0,1,.8.8A.8.8,0,0,1-473.793-4896.152Z" transform="translate(499.394 4907.761)"/><path class="c" d="M-479.936-4896.854h6.242" transform="translate(485.948 4911.221)"/><path class="c" d="M-473.793-4896.152h-6.242a.8.8,0,0,1-.8-.8.8.8,0,0,1,.8-.8h6.242a.8.8,0,0,1,.8.8A.8.8,0,0,1-473.793-4896.152Z" transform="translate(486.047 4911.368)"/><path class="c" d="M-479.936-4896.854h6.242" transform="translate(499.295 4911.221)"/><path class="c" d="M-473.793-4896.152h-6.242a.8.8,0,0,1-.8-.8.8.8,0,0,1,.8-.8h6.242a.8.8,0,0,1,.8.8A.8.8,0,0,1-473.793-4896.152Z" transform="translate(499.394 4911.32)"/><path class="c" d="M-479.936-4896.854h6.242" transform="translate(485.948 4914.78)"/><path class="c" d="M-473.793-4896.152h-6.242a.8.8,0,0,1-.8-.8.8.8,0,0,1,.8-.8h6.242a.8.8,0,0,1,.8.8A.8.8,0,0,1-473.793-4896.152Z" transform="translate(486.047 4914.927)"/><path class="c" d="M-473.793-4896.152h-6.242a.8.8,0,0,1-.8-.8.8.8,0,0,1,.8-.8h6.242a.8.8,0,0,1,.8.8A.8.8,0,0,1-473.793-4896.152Z" transform="translate(486.047 4918.486)"/><path class="c" d="M-479.936-4896.854h6.242" transform="translate(499.295 4914.78)"/><path class="c" d="M-479.936-4896.854h6.242" transform="translate(485.948 4918.339)"/><path class="c" d="M-479.936-4896.854h6.242" transform="translate(499.295 4918.339)"/></g></g></g></svg>