<svg xmlns="http://www.w3.org/2000/svg" xmlns:xlink="http://www.w3.org/1999/xlink" width="86" height="86" viewBox="0 0 86 86"><defs><style>.a,.c{fill:#8c8c8c;}.a{stroke:#707070;}.b{clip-path:url(#a);}</style><clipPath id="a"><rect class="a" width="86" height="86" transform="translate(-524 -5190)"/></clipPath></defs><g class="b" transform="translate(524 5190)"><g transform="translate(-512 -5178)"><path class="c" d="M63.4,17.78H2.89a.89.89,0,0,1,0-1.78H63.4a.89.89,0,0,1,0,1.78Z" transform="translate(-2 -3.543)"/><path class="c" d="M61.616,64.285H4.669A2.669,2.669,0,0,1,2,61.616V4.669A2.669,2.669,0,0,1,4.669,2H61.616a2.669,2.669,0,0,1,2.669,2.669V61.616A2.669,2.669,0,0,1,61.616,64.285ZM4.669,3.78a.89.89,0,0,0-.89.89V61.616a.89.89,0,0,0,.89.89H61.616a.89.89,0,0,0,.89-.89V4.669a.89.89,0,0,0-.89-.89Z" transform="translate(-2 -2)"/><path class="c" d="M40.253,10.78H10.89a.89.89,0,0,1,0-1.78H40.253a.89.89,0,1,1,0,1.78Z" transform="translate(-2.882 -2.771)"/><path class="c" d="M53.669,10.78H51.89a.89.89,0,0,1,0-1.78h1.78a.89.89,0,1,1,0,1.78Z" transform="translate(-7.4 -2.771)"/><path class="c" d="M61.669,10.78H59.89a.89.89,0,1,1,0-1.78h1.78a.89.89,0,0,1,0,1.78Z" transform="translate(-8.282 -2.771)"/><path class="c" d="M54.1,42.535a4.728,4.728,0,1,1,4.727-4.728A4.729,4.729,0,0,1,54.1,42.535Zm0-7.676a2.949,2.949,0,1,0,2.948,2.948A2.949,2.949,0,0,0,54.1,34.858Z" transform="translate(-7.221 -5.425)"/><path class="c" d="M42.021,54.613a4.728,4.728,0,1,1,4.729-4.728,4.728,4.728,0,0,1-4.729,4.728Zm0-7.676a2.949,2.949,0,1,0,2.95,2.949,2.949,2.949,0,0,0-2.95-2.949Z" transform="translate(-5.89 -6.756)"/><path class="c" d="M30.807,41.672a4.728,4.728,0,1,1,4.727-4.728,4.729,4.729,0,0,1-4.727,4.728Zm0-7.676a2.949,2.949,0,1,0,2.948,2.948A2.949,2.949,0,0,0,30.807,34Z" transform="translate(-4.654 -5.33)"/><path class="c" d="M18.727,53.75a4.728,4.728,0,1,1,4.729-4.728,4.728,4.728,0,0,1-4.729,4.728Zm0-7.676a2.949,2.949,0,1,0,2.95,2.949,2.949,2.949,0,0,0-2.95-2.949Z" transform="translate(-3.323 -6.661)"/><path class="c" d="M45.567,47.558a.89.89,0,0,1-.631-1.513l5.3-5.339A.89.89,0,1,1,51.5,41.961L46.2,47.3A.89.89,0,0,1,45.567,47.558Z" transform="translate(-6.704 -6.237)"/><path class="c" d="M38.844,47.481a.89.89,0,0,1-.7-.336L33.43,41.2A.89.89,0,1,1,34.824,40.1l4.716,5.941a.89.89,0,0,1-.7,1.442Z" transform="translate(-5.441 -6.16)"/><path class="c" d="M22.282,46.725a.89.89,0,0,1-.612-1.536l5.473-5.184A.89.89,0,1,1,28.366,41.3l-5.473,5.184a.882.882,0,0,1-.611.244Z" transform="translate(-4.137 -6.162)"/></g></g></svg>