<svg xmlns="http://www.w3.org/2000/svg" xmlns:xlink="http://www.w3.org/1999/xlink" width="86" height="86" viewBox="0 0 86 86"><defs><style>.a,.c{fill:#8c8c8c;}.a{stroke:#707070;}.b{clip-path:url(#a);}</style><clipPath id="a"><rect class="a" width="86" height="86" transform="translate(-525 -5072)"/></clipPath></defs><g class="b" transform="translate(525 5072)"><g transform="translate(-514 -5057)"><path class="c" d="M10.275,62.078H3.78A1.78,1.78,0,0,1,2,60.3V40.265a1.78,1.78,0,0,1,1.78-1.78h6.5a1.78,1.78,0,0,1,1.78,1.78V60.3A1.78,1.78,0,0,1,10.275,62.078ZM3.78,40.265V60.3h6.5V40.265Z" transform="translate(-2 -8.69)"/><path class="c" d="M41.4,55.058H26.272a.89.89,0,1,1,0-1.78H41.4a2.546,2.546,0,1,0,0-5.093H33.189a.89.89,0,0,1-.6-.238A14.994,14.994,0,0,0,22.361,43.94H12.19a.89.89,0,0,1,0-1.78H22.362a16.762,16.762,0,0,1,11.171,4.247H41.4a4.326,4.326,0,1,1,0,8.652Z" transform="translate(-3.025 -9.095)"/><path class="c" d="M34.137,66.7a17.683,17.683,0,0,1-6.383-1.19l-15.881-6.14a.89.89,0,1,1,.642-1.66l15.881,6.14a15.95,15.95,0,0,0,12.931-.642L63.4,52.048A7.029,7.029,0,0,0,56.129,50.3L44.436,54.274a.89.89,0,1,1-.572-1.684l11.692-3.973a8.818,8.818,0,0,1,9.175,2.248l.14.146a1.585,1.585,0,0,1-.429,2.511L42.129,64.8A17.712,17.712,0,0,1,34.137,66.7Z" transform="translate(-3.025 -9.756)"/><path class="c" d="M64.265,33.473H23.589a2.163,2.163,0,0,1-2.16-2.161V7.161A2.163,2.163,0,0,1,23.589,5H64.265a2.164,2.164,0,0,1,2.161,2.161V31.312a2.164,2.164,0,0,1-2.161,2.161ZM23.589,6.78a.382.382,0,0,0-.381.382V31.312a.382.382,0,0,0,.381.382H64.265a.382.382,0,0,0,.382-.382V7.161a.382.382,0,0,0-.382-.382Z" transform="translate(-4.141 -5)"/><path class="c" d="M56.793,30.132H32.007a.89.89,0,0,1-.89-.89A4.517,4.517,0,0,0,26.6,24.73a.89.89,0,0,1-.89-.89V15.578a.89.89,0,0,1,.89-.89,4.517,4.517,0,0,0,4.513-4.512.89.89,0,0,1,.89-.89H56.793a.89.89,0,0,1,.89.89A4.517,4.517,0,0,0,62.2,14.688a.89.89,0,0,1,.89.89V23.84a.89.89,0,0,1-.89.89,4.517,4.517,0,0,0-4.512,4.512A.89.89,0,0,1,56.793,30.132Zm-23.959-1.78H55.969a6.307,6.307,0,0,1,5.339-5.339V16.405a6.307,6.307,0,0,1-5.339-5.339H32.834A6.31,6.31,0,0,1,27.5,16.405v6.608A6.31,6.31,0,0,1,32.834,28.352Z" transform="translate(-4.614 -5.472)"/><path class="c" d="M46.329,21.231a3.1,3.1,0,1,1,3.1-3.1.89.89,0,1,1-1.78,0,1.32,1.32,0,1,0-1.322,1.32.89.89,0,0,1,0,1.78Z" transform="translate(-6.543 -6.105)"/><path class="c" d="M46.33,26.2a3.1,3.1,0,0,1-3.1-3.1.89.89,0,0,1,1.78,0A1.322,1.322,0,1,0,46.33,21.78a.89.89,0,0,1,0-1.78,3.1,3.1,0,0,1,0,6.2Z" transform="translate(-6.544 -6.653)"/><path class="c" d="M46.6,16.691a.89.89,0,0,1-.89-.89V14.89a.89.89,0,1,1,1.78,0V15.8A.89.89,0,0,1,46.6,16.691Z" transform="translate(-6.818 -5.992)"/><path class="c" d="M46.6,27.667a.89.89,0,0,1-.89-.89v-.911a.89.89,0,1,1,1.78,0v.911A.89.89,0,0,1,46.6,27.667Z" transform="translate(-6.818 -7.202)"/><path class="c" d="M58.742,21.78h-2.58a.89.89,0,0,1,0-1.78h2.58a.89.89,0,0,1,0,1.78Z" transform="translate(-7.871 -6.653)"/><path class="c" d="M36.722,21.78H34.147a.89.89,0,1,1,0-1.78h2.575a.89.89,0,1,1,0,1.78Z" transform="translate(-5.445 -6.653)"/></g></g></svg>