<svg xmlns="http://www.w3.org/2000/svg" xmlns:xlink="http://www.w3.org/1999/xlink" width="86" height="86" viewBox="0 0 86 86"><defs><style>.a,.c{fill:#8c8c8c;}.a{stroke:#707070;}.b{clip-path:url(#a);}</style><clipPath id="a"><rect class="a" width="86" height="86" transform="translate(-400 -5190)"/></clipPath></defs><g class="b" transform="translate(400 5190)"><g transform="translate(-388 -5178)"><g transform="translate(0 0)"><path class="c" d="M33.143,64.285A31.143,31.143,0,1,1,64.285,33.143,31.143,31.143,0,0,1,33.143,64.285Zm0-60.506A29.363,29.363,0,1,0,62.506,33.143,29.363,29.363,0,0,0,33.143,3.78Z" transform="translate(-2 -2)"/><path class="c" d="M34.024,58.049A24.024,24.024,0,1,1,58.049,34.024,24.024,24.024,0,0,1,34.024,58.049Zm0-46.269A22.245,22.245,0,1,0,56.269,34.024,22.245,22.245,0,0,0,34.024,11.78Z" transform="translate(-2.882 -2.882)"/><path class="c" d="M36.89,8.323a.89.89,0,0,1-.89-.89V6.121a.89.89,0,0,1,1.78,0V7.433A.89.89,0,0,1,36.89,8.323Z" transform="translate(-5.747 -2.356)"/><path class="c" d="M36.89,68.386A.89.89,0,0,1,36,67.5V66.184a.89.89,0,1,1,1.78,0V67.5A.89.89,0,0,1,36.89,68.386Z" transform="translate(-5.747 -8.976)"/><path class="c" d="M67.5,37.78H66.184a.89.89,0,1,1,0-1.78H67.5a.89.89,0,1,1,0,1.78Z" transform="translate(-8.976 -5.747)"/><path class="c" d="M7.432,37.78H6.121a.89.89,0,0,1,0-1.78H7.432a.89.89,0,0,1,0,1.78Z" transform="translate(-2.356 -5.747)"/><path class="c" d="M67.5,37.78H66.184a.89.89,0,1,1,0-1.78H67.5a.89.89,0,1,1,0,1.78Z" transform="translate(-8.976 -5.747)"/><path class="c" d="M7.432,37.78H6.121a.89.89,0,0,1,0-1.78H7.432a.89.89,0,0,1,0,1.78Z" transform="translate(-2.356 -5.747)"/><path class="c" d="M58.531,59.421a.884.884,0,0,1-.629-.261l-.927-.927a.89.89,0,1,1,1.258-1.258l.927.927a.89.89,0,0,1-.629,1.519Z" transform="translate(-8.03 -8.03)"/><path class="c" d="M16.06,16.951a.89.89,0,0,1-.629-.261l-.927-.927A.89.89,0,1,1,15.762,14.5l.927.927a.89.89,0,0,1-.629,1.519Z" transform="translate(-3.349 -3.349)"/><path class="c" d="M57.6,16.951a.89.89,0,0,1-.629-1.519L57.9,14.5a.89.89,0,1,1,1.258,1.258l-.927.927A.89.89,0,0,1,57.6,16.951Z" transform="translate(-8.03 -3.349)"/><path class="c" d="M15.133,59.421A.89.89,0,0,1,14.5,57.9l.927-.927a.89.89,0,1,1,1.258,1.258l-.927.927a.884.884,0,0,1-.629.261Z" transform="translate(-3.349 -8.03)"/></g><path class="c" d="M16.016,25.8V16.016H25.8V11.567H16.016V1.78H11.567v9.788H1.78v4.449h9.788V25.8h4.449m1.78,1.78H9.788V17.8H0V9.788H9.788V0H17.8V9.788h9.788V17.8H17.8Z" transform="translate(17.796 17.796)"/></g></g></svg>