<svg xmlns="http://www.w3.org/2000/svg" xmlns:xlink="http://www.w3.org/1999/xlink" width="86" height="86" viewBox="0 0 86 86"><defs><style>.a,.c{fill:#8c8c8c;}.a{stroke:#707070;}.b{clip-path:url(#a);}</style><clipPath id="a"><rect class="a" width="86" height="86" transform="translate(-278 -4959)"/></clipPath></defs><g transform="translate(0)"><g class="b" transform="translate(278 4959)"><path class="c" d="M48.089,55.792H24.007a.944.944,0,0,1-1-.872V51.557a4.442,4.442,0,0,1,4.371-4.371h7.814V12.781l-.52-.118a6.4,6.4,0,0,1-4.834-4.921l-.111-.531H13.705l10.721,23.63,0,.008a.848.848,0,0,1,.081.368v0a12.272,12.272,0,0,1-12.255,12.24H12.24A12.273,12.273,0,0,1,0,31.205a1.543,1.543,0,0,1,.093-.464L11.4,5.853a.923.923,0,0,1,.823-.514H29.769l.129-.5a6.432,6.432,0,0,1,12.463,0l.128.5H60a.936.936,0,0,1,.852.554l11.32,24.933a.912.912,0,0,1,.083.39v.006a12.255,12.255,0,1,1-24.51,0,.911.911,0,0,1,.082-.377L58.552,7.211H42.531l-.113.529a6.449,6.449,0,0,1-4.837,4.923l-.517.12v34.4h7.654a4.442,4.442,0,0,1,4.371,4.371V54.92A.948.948,0,0,1,48.089,55.792ZM27.36,49.058a2.531,2.531,0,0,0-2.48,2.48V53.92H47.217V51.539a2.531,2.531,0,0,0-2.48-2.48H27.36ZM49.623,32.223l.134.78a10.478,10.478,0,0,0,3.5,6.133A10.342,10.342,0,0,0,60,41.67,10.479,10.479,0,0,0,70.232,33l.131-.778Zm-47.747,0L2.01,33a10.48,10.48,0,0,0,3.5,6.133,10.342,10.342,0,0,0,6.745,2.535A10.479,10.479,0,0,0,22.485,33l.131-.778ZM60,8.6,50.132,30.352h19.74Zm-47.746,0L2.385,30.352h19.74ZM36.129,1.872a4.547,4.547,0,1,0,4.547,4.547A4.552,4.552,0,0,0,36.129,1.872Z" transform="translate(-271 -4944)"/></g></g></svg>