<svg id="Group_1354" data-name="Group 1354" xmlns="http://www.w3.org/2000/svg" width="32" height="32" viewBox="0 0 32 32">
  <rect id="Rectangle_457" data-name="Rectangle 457" width="32" height="32" fill="none"/>
  <path id="Path_2534" data-name="Path 2534" d="M80,54.993H96a1,1,0,0,0,1-1v-13a1,1,0,0,0-1-1H82a1,1,0,0,0-1,1v1" transform="translate(-70 -34.994)" fill="none" stroke="#e5181e" stroke-linecap="round" stroke-linejoin="round" stroke-width="1.5"/>
  <path id="Path_2535" data-name="Path 2535" d="M83,136l-3,3,3,3" transform="translate(-70 -119)" fill="none" stroke="#e5181e" stroke-linecap="round" stroke-linejoin="round" stroke-width="1.5"/>
  <path id="Path_2536" data-name="Path 2536" d="M57,96H41a1,1,0,0,0-1,1v13a1,1,0,0,0,1,1H55a1,1,0,0,0,1-1v-1" transform="translate(-35 -84)" fill="none" stroke="#e5181e" stroke-linecap="round" stroke-linejoin="round" stroke-width="1.5"/>
  <path id="Path_2537" data-name="Path 2537" d="M152,77.993l3-3-3-3" transform="translate(-133 -62.994)" fill="none" stroke="#e5181e" stroke-linecap="round" stroke-linejoin="round" stroke-width="1.5"/>
</svg>
