<svg xmlns="http://www.w3.org/2000/svg" xmlns:xlink="http://www.w3.org/1999/xlink" width="86" height="86" viewBox="0 0 86 86"><defs><style>.a,.c{fill:#8c8c8c;}.a{stroke:#707070;}.b{clip-path:url(#a);}</style><clipPath id="a"><rect class="a" width="86" height="86" transform="translate(-400 -5072)"/></clipPath></defs><g transform="translate(0)"><g class="b" transform="translate(400 5072)"><g transform="translate(-386 -5060)"><path class="c" d="M61.057,71.148H5.89a.89.89,0,0,1-.89-.89V64.252a2,2,0,0,1,2-2H59.944a2,2,0,0,1,2,2v6.006A.89.89,0,0,1,61.057,71.148ZM6.78,69.368H60.167V64.252a.222.222,0,0,0-.222-.222H7a.222.222,0,0,0-.222.222Z" transform="translate(-4.112 -8.42)"/><path class="c" d="M60.457,63.368H48.89a.89.89,0,0,1-.89-.89V58.03a1.78,1.78,0,0,1,1.78-1.78h9.788a1.78,1.78,0,0,1,1.78,1.78v4.449A.89.89,0,0,1,60.457,63.368ZM49.78,61.589h9.788V58.03H49.78Z" transform="translate(-8.851 -7.758)"/><path class="c" d="M59.567,36.868H49.78A1.78,1.78,0,0,1,48,35.089V30.64a.89.89,0,0,1,.89-.89H60.457a.89.89,0,0,1,.89.89v4.449A1.78,1.78,0,0,1,59.567,36.868ZM49.78,31.53v3.559h9.788V31.53Z" transform="translate(-8.851 -4.838)"/><path class="c" d="M23.457,63.368H11.89a.89.89,0,0,1-.89-.89V58.03a1.78,1.78,0,0,1,1.78-1.78h9.788a1.78,1.78,0,0,1,1.78,1.78v4.449A.89.89,0,0,1,23.457,63.368ZM12.78,61.589h9.788V58.03H12.78Z" transform="translate(-4.774 -7.758)"/><path class="c" d="M22.567,36.868H12.78A1.78,1.78,0,0,1,11,35.089V30.64a.89.89,0,0,1,.89-.89H23.457a.89.89,0,0,1,.89.89v4.449A1.78,1.78,0,0,1,22.567,36.868ZM12.78,31.53v3.559h9.788V31.53Z" transform="translate(-4.774 -4.838)"/><path class="c" d="M61.837,28.444H4.89A.89.89,0,0,1,4.3,26.887L32.777,1.973a.89.89,0,0,1,1.173,0L62.423,26.887a.89.89,0,0,1-.586,1.557ZM7.259,26.664H59.468L33.363,3.823Z" transform="translate(-4.002 -1.752)"/><path class="c" d="M58.378,55.77H51.557a.89.89,0,0,1-.89-.89V36.64a.89.89,0,0,1,.89-.89h6.821a.89.89,0,0,1,.89.89V54.88A.89.89,0,0,1,58.378,55.77Zm-5.931-1.78h5.042V37.53H52.447Z" transform="translate(-9.145 -5.499)"/><path class="c" d="M21.378,55.77H14.557a.89.89,0,0,1-.89-.89V36.64a.89.89,0,0,1,.89-.89h6.821a.89.89,0,0,1,.89.89V54.88A.89.89,0,0,1,21.378,55.77Zm-5.931-1.78h5.042V37.53H15.447Z" transform="translate(-5.068 -5.499)"/><path class="c" d="M36.339,23.927a5.339,5.339,0,1,1,5.339-5.339A5.339,5.339,0,0,1,36.339,23.927Zm0-8.9A3.559,3.559,0,1,0,39.9,18.589,3.559,3.559,0,0,0,36.339,15.03Z" transform="translate(-6.978 -3.019)"/></g></g></g></svg>