<svg xmlns="http://www.w3.org/2000/svg" xmlns:xlink="http://www.w3.org/1999/xlink" width="86" height="86" viewBox="0 0 86 86"><defs><style>.a,.c{fill:#8c8c8c;}.a{stroke:#707070;}.b{clip-path:url(#a);}</style><clipPath id="a"><rect class="a" width="86" height="86" transform="translate(-400 -4959)"/></clipPath></defs><g class="b" transform="translate(400 4959)"><g transform="translate(-378 -4947)"><path class="c" d="M34.443,64.286a.89.89,0,0,1-.668-.3c-.808-.919-19.8-22.707-19.975-41.332a20.2,20.2,0,0,1,5.908-14.5,20.739,20.739,0,0,1,29.47,0,20.2,20.2,0,0,1,5.908,14.5c-.178,18.624-19.167,40.412-19.975,41.332a.89.89,0,0,1-.668.3Zm0-60.506A18.827,18.827,0,0,0,20.972,9.4a18.434,18.434,0,0,0-5.393,13.237C15.734,38.68,31.032,57.927,34.443,62.02c3.411-4.093,18.709-23.348,18.864-39.386A18.434,18.434,0,0,0,47.913,9.4,18.827,18.827,0,0,0,34.443,3.78Z" transform="translate(-13.799 -2.004)"/><path class="c" d="M35.126,39.253A15.126,15.126,0,1,1,50.253,24.126,15.126,15.126,0,0,1,35.126,39.253Zm0-28.473A13.347,13.347,0,1,0,48.473,24.126,13.347,13.347,0,0,0,35.126,10.78Z" transform="translate(-14.482 -2.775)"/><path class="c" d="M36.449,25.9A4.449,4.449,0,1,1,40.9,21.449a.89.89,0,1,1-1.78,0,2.669,2.669,0,1,0-2.669,2.669.89.89,0,1,1,0,1.78Z" transform="translate(-15.805 -3.657)"/><path class="c" d="M36.449,33.9A4.454,4.454,0,0,1,32,29.449a.89.89,0,1,1,1.78,0,2.669,2.669,0,1,0,2.669-2.669.89.89,0,0,1,0-1.78,4.449,4.449,0,1,1,0,8.9Z" transform="translate(-15.805 -4.539)"/><path class="c" d="M36.89,36.15a.89.89,0,0,1-.89-.89V33.89a.89.89,0,1,1,1.78,0v1.37A.89.89,0,0,1,36.89,36.15Z" transform="translate(-16.245 -5.42)"/><path class="c" d="M36.89,18.61a.89.89,0,0,1-.89-.89V16.35a.89.89,0,0,1,1.78,0v1.37A.89.89,0,0,1,36.89,18.61Z" transform="translate(-16.245 -3.487)"/></g></g></svg>