<svg xmlns="http://www.w3.org/2000/svg" xmlns:xlink="http://www.w3.org/1999/xlink" width="32" height="32" viewBox="0 0 32 32">
  <defs>
    <clipPath id="clip-path">
      <rect id="Rectangle_452" data-name="Rectangle 452" width="32" height="32" transform="translate(3302 7747)" fill="#e5181e"/>
    </clipPath>
  </defs>
  <g id="Mask_Group_111" data-name="Mask Group 111" transform="translate(-3302 -7747)" clip-path="url(#clip-path)">
    <g id="Group_1349" data-name="Group 1349" transform="translate(3305.518 7750.519)">
      <g id="Group_1348" data-name="Group 1348" transform="translate(0 0)">
        <g id="Group_1347" data-name="Group 1347">
          <g id="Path_2531" data-name="Path 2531" fill="#e5181e">
            <path d="M 9.409023284912109 25.04133796691895 L 9.38718318939209 25.04133796691895 C 6.73848295211792 24.93051910400391 4.332832813262939 24.39837837219238 2.609182834625244 23.54286956787109 C 0.8621428608894348 22.67575836181641 -0.0999971479177475 21.51788902282715 -0.0999971479177475 20.28257942199707 L -0.0999971479177475 4.680598735809326 C -0.0999971479177475 3.369678735733032 0.9912128448486328 2.156668901443481 2.972632884979248 1.265008807182312 C 4.928682804107666 0.3847687840461731 7.566922664642334 -0.1000012084841728 10.40135288238525 -0.1000012084841728 C 13.23578262329102 -0.1000012084841728 15.87401294708252 0.3847687840461731 17.83005332946777 1.265008807182312 C 19.81145286560059 2.156658887863159 20.90266227722168 3.369678735733032 20.90266227722168 4.680598735809326 L 20.90266227722168 14.89155864715576 C 20.90266227722168 15.23347854614258 20.62449264526367 15.5116491317749 20.28258323669434 15.5116491317749 C 19.94067192077637 15.5116491317749 19.66250228881836 15.23347854614258 19.66250228881836 14.89155864715576 L 19.66250228881836 12.16662788391113 C 17.86314582824707 13.71013832092285 14.34867572784424 14.6618185043335 10.40131282806396 14.6618185043335 C 6.453892230987549 14.6618185043335 2.93941593170166 13.71014213562012 1.14011287689209 12.16663265228271 L 1.14011287689209 15.0819091796875 C 1.14011287689209 15.89943885803223 2.068132877349854 16.78303909301758 3.622572898864746 17.44555854797363 C 5.363583087921143 18.18758964538574 7.722792625427246 18.60441970825195 10.26561260223389 18.6192684173584 C 10.43087291717529 18.61988830566406 10.58621311187744 18.68515968322754 10.70281314849854 18.80304908752441 C 10.81957244873047 18.92110824584961 10.88320255279541 19.07741928100586 10.88199329376221 19.24319839477539 C 10.88078308105469 19.5827579498291 10.60262298583984 19.8593692779541 10.26193332672119 19.85942840576172 C 8.236083030700684 19.84778785705566 6.305402755737305 19.59508895874023 4.674912929534912 19.12863922119141 C 3.18298077583313 18.70182991027832 1.967030167579651 18.10464477539062 1.14011287689209 17.39467430114746 L 1.14011287689209 20.28257942199707 C 1.14011287689209 21.04266929626465 1.939852833747864 21.85443878173828 3.334272861480713 22.5097484588623 C 4.89620304107666 23.24378967285156 7.062452793121338 23.70283889770508 9.433982849121094 23.80233955383301 C 9.775193214416504 23.81716918945312 10.04157257080078 24.10687828063965 10.02795314788818 24.44815826416016 C 10.01433277130127 24.78082847595215 9.742472648620605 25.04133796691895 9.409023284912109 25.04133796691895 Z M 1.14011287689209 6.965993881225586 L 1.14011287689209 9.881278991699219 C 1.14011287689209 10.6951789855957 2.093602895736694 11.58251857757568 3.690692901611328 12.2548885345459 C 5.478023052215576 13.00735855102539 7.861232757568359 13.4217586517334 10.40131282806396 13.4217586517334 C 12.94139289855957 13.4217586517334 15.32460308074951 13.00735855102539 17.1119327545166 12.2548885345459 C 18.70901298522949 11.58251857757568 19.66250228881836 10.6951789855957 19.66250228881836 9.881278991699219 L 19.66250228881836 6.965997695922852 C 17.86314582824707 8.50950813293457 14.34867572784424 9.461188316345215 10.40131282806396 9.461188316345215 C 6.453999042510986 9.461188316345215 2.939515829086304 8.509504318237305 1.14011287689209 6.965993881225586 Z M 10.40131282806396 1.140118837356567 C 7.861232757568359 1.140118837356567 5.478013038635254 1.554518818855286 3.690692901611328 2.306988716125488 C 2.093602895736694 2.979358911514282 1.14011287689209 3.86668872833252 1.14011287689209 4.680598735809326 C 1.14011287689209 5.494498729705811 2.093602895736694 6.381838798522949 3.690692901611328 7.054208755493164 C 5.478023052215576 7.806678771972656 7.861232757568359 8.221078872680664 10.40131282806396 8.221078872680664 C 12.94139289855957 8.221078872680664 15.32460308074951 7.806678771972656 17.1119327545166 7.054208755493164 C 18.70901298522949 6.381838798522949 19.66250228881836 5.494498729705811 19.66250228881836 4.680598735809326 C 19.66250228881836 3.86668872833252 18.70901298522949 2.979358911514282 17.1119327545166 2.306988716125488 C 15.32460308074951 1.554518818855286 12.94139289855957 1.140118837356567 10.40131282806396 1.140118837356567 Z" stroke="none"/>
            <path d="M 9.409023284912109 24.94133949279785 C 9.685712814331055 24.94133949279785 9.916623115539551 24.72290802001953 9.928032875061035 24.44416809082031 C 9.939493179321289 24.1570987701416 9.716873168945312 23.91472816467285 9.429792404174805 23.90224838256836 C 4.247882843017578 23.68483924865723 1.040112853050232 21.85423851013184 1.040112853050232 20.28257942199707 L 1.040112853050232 17.17051887512207 C 2.6752028465271 18.70785903930664 6.098282814025879 19.73548889160156 10.25879287719727 19.75942802429199 L 10.26191329956055 19.75942802429199 C 10.54797267913818 19.75937843322754 10.78097248077393 19.52846908569336 10.78199291229248 19.24246788024902 C 10.78409290313721 18.95538902282715 10.5521125793457 18.72033882141113 10.26503276824951 18.71926879882812 C 4.747152805328369 18.68703842163086 1.040112853050232 16.81269836425781 1.040112853050232 15.0819091796875 L 1.040112853050232 11.94278907775879 C 2.707432746887207 13.50507926940918 6.225193023681641 14.56181907653809 10.40131282806396 14.56181907653809 C 14.57742309570312 14.56181907653809 18.09518241882324 13.50502872467041 19.76250267028809 11.94278907775879 L 19.76250267028809 14.89155864715576 C 19.76250267028809 15.17863845825195 19.99550247192383 15.41164875030518 20.28258323669434 15.41164875030518 C 20.56966209411621 15.41164875030518 20.80266380310059 15.17863845825195 20.80266380310059 14.89155864715576 L 20.80266380310059 4.680598735809326 C 20.80266380310059 2.056338787078857 16.23338317871094 -1.207275431625021e-06 10.40135288238525 -1.207275431625021e-06 C 4.569333076477051 -1.207275431625021e-06 2.855224693121272e-06 2.056338787078857 2.855224693121272e-06 4.680598735809326 L 2.855224693121272e-06 20.28257942199707 C 2.855224693121272e-06 22.75393867492676 3.94730281829834 24.71354866027832 9.38718318939209 24.94133949279785 L 9.409023284912109 24.94133949279785 M 1.040112853050232 6.742158889770508 C 2.707482814788818 8.304398536682129 6.225193023681641 9.361188888549805 10.40131282806396 9.361188888549805 C 14.57742309570312 9.361188888549805 18.09518241882324 8.304398536682129 19.76250267028809 6.742158889770508 L 19.76250267028809 9.881278991699219 C 19.76250267028809 11.60270881652832 15.91817283630371 13.52175903320312 10.40131282806396 13.52175903320312 C 4.884442806243896 13.52175903320312 1.040112853050232 11.60270881652832 1.040112853050232 9.881278991699219 L 1.040112853050232 6.742158889770508 M 10.40131282806396 1.040118813514709 C 15.91817283630371 1.040118813514709 19.76250267028809 2.959158897399902 19.76250267028809 4.680598735809326 C 19.76250267028809 6.402028560638428 15.91817283630371 8.321079254150391 10.40131282806396 8.321079254150391 C 4.884442806243896 8.321079254150391 1.040112853050232 6.402028560638428 1.040112853050232 4.680598735809326 C 1.040112853050232 2.959158897399902 4.884442806243896 1.040118813514709 10.40131282806396 1.040118813514709 M 9.409023284912109 25.14133834838867 L 9.378812789916992 25.14115905761719 C 6.7206130027771 25.02984809875488 4.300652980804443 24.49404907226562 2.564722776412964 23.63244819641113 C 0.7818628549575806 22.74754905700684 -0.199997141957283 21.5578784942627 -0.199997141957283 20.28257942199707 L -0.199997141957283 4.680598735809326 C -0.199997141957283 3.327978849411011 0.9121528267860413 2.082578897476196 2.93159294128418 1.173818826675415 C 4.900272846221924 0.2878987789154053 7.553082942962646 -0.2000012099742889 10.40135288238525 -0.2000012099742889 C 13.24962329864502 -0.2000012099742889 15.90243244171143 0.2878987789154053 17.87109375 1.173818826675415 C 19.89051246643066 2.082578897476196 21.00266265869141 3.327978849411011 21.00266265869141 4.680598735809326 L 21.00266265869141 14.89155864715576 C 21.00266265869141 15.28861904144287 20.67963218688965 15.61164855957031 20.28258323669434 15.61164855957031 C 19.88553237915039 15.61164855957031 19.56250190734863 15.28861904144287 19.56250190734863 14.89155864715576 L 19.56250190734863 12.37869834899902 C 17.70114707946777 13.85678577423096 14.25421333312988 14.76181888580322 10.40131282806396 14.76181888580322 C 6.548355579376221 14.76181888580322 3.101426601409912 13.85679244995117 1.240112900733948 12.37869644165039 L 1.240112900733948 15.0819091796875 C 1.240112900733948 16.68279838562012 4.946992874145508 18.48819923400879 10.26620292663574 18.51926803588867 C 10.45802307128906 18.51998901367188 10.63848304748535 18.59579849243164 10.77391242980957 18.73272895812988 C 10.90950298309326 18.86982917785645 10.9833927154541 19.05136871337891 10.98198318481445 19.24392890930176 C 10.98058319091797 19.63804817199707 10.65757274627686 19.95935821533203 10.26194286346436 19.95942878723145 C 8.226522445678711 19.94773864746094 6.286532878875732 19.69369888305664 4.647412776947021 19.22478866577148 C 3.237844228744507 18.82153701782227 2.070913791656494 18.26633453369141 1.240112900733948 17.60680961608887 L 1.240112900733948 20.28257942199707 C 1.240112900733948 20.99172973632812 2.038872957229614 21.79048919677734 3.376802921295166 22.41924858093262 C 4.926982879638672 23.14775848388672 7.079622745513916 23.60346794128418 9.438173294067383 23.70242881774902 C 9.834432601928711 23.71964836120605 10.14369297027588 24.05596923828125 10.12787246704102 24.4521484375 C 10.11205291748047 24.83869934082031 9.796293258666992 25.14133834838867 9.409023284912109 25.14133834838867 Z M 1.240112900733948 7.178060531616211 L 1.240112900733948 9.881278991699219 C 1.240112900733948 10.65360832214355 2.170722961425781 11.50647926330566 3.729492902755737 12.16272926330566 C 5.504822731018066 12.9101390838623 7.874252796173096 13.32175922393799 10.40131282806396 13.32175922393799 C 12.92837238311768 13.32175922393799 15.29779243469238 12.9101390838623 17.07312202453613 12.16272926330566 C 18.63189315795898 11.50647926330566 19.56250190734863 10.65360832214355 19.56250190734863 9.881278991699219 L 19.56250190734863 7.178068161010742 C 17.70114707946777 8.656155586242676 14.25421333312988 9.561188697814941 10.40131282806396 9.561188697814941 C 6.548459053039551 9.561188697814941 3.101517677307129 8.656147956848145 1.240112900733948 7.178060531616211 Z M 10.40131282806396 1.240118741989136 C 7.874252796173096 1.240118741989136 5.504822731018066 1.65173876285553 3.729492902755737 2.39914870262146 C 2.170722961425781 3.055388689041138 1.240112900733948 3.908268690109253 1.240112900733948 4.680598735809326 C 1.240112900733948 5.452929019927979 2.170722961425781 6.305799007415771 3.729492902755737 6.962049007415771 C 5.504822731018066 7.709458827972412 7.874252796173096 8.121078491210938 10.40131282806396 8.121078491210938 C 12.92837238311768 8.121078491210938 15.29779243469238 7.709458827972412 17.07312202453613 6.962049007415771 C 18.63189315795898 6.305799007415771 19.56250190734863 5.452929019927979 19.56250190734863 4.680598735809326 C 19.56250190734863 3.908268690109253 18.63189315795898 3.055388689041138 17.07312202453613 2.39914870262146 C 15.29780292510986 1.65173876285553 12.92837238311768 1.240118741989136 10.40131282806396 1.240118741989136 Z" stroke="none" fill="#e5181e"/>
          </g>
          <g id="Path_2532" data-name="Path 2532" transform="translate(-202.933 -304.398)" fill="#e5181e">
            <path d="M 224.2554321289062 329.4612426757812 L 215.934326171875 329.4612426757812 C 214.4453887939453 329.4612426757812 213.2340393066406 328.2498779296875 213.2340393066406 326.7608947753906 C 213.2340393066406 325.4951477050781 214.1180877685547 324.3984985351562 215.3465881347656 324.1253662109375 C 215.4793243408203 322.9820251464844 216.0220489501953 321.9261779785156 216.8801116943359 321.1452331542969 C 217.7623901367188 320.3422546386719 218.9040679931641 319.9000244140625 220.0948486328125 319.9000244140625 C 221.6638336181641 319.9000244140625 223.1280670166016 320.679931640625 224.0236358642578 321.9893493652344 C 224.1053161621094 321.9832763671875 224.1816101074219 321.9802856445312 224.2553405761719 321.9802856445312 C 226.31787109375 321.9802856445312 227.995849609375 323.6582641601562 227.995849609375 325.7207641601562 C 227.995849609375 327.7832641601562 226.3179016113281 329.4612426757812 224.2554321289062 329.4612426757812 Z M 220.0949096679688 321.1401977539062 C 218.1426849365234 321.1401977539062 216.5544281005859 322.7284240722656 216.5544281005859 324.6806030273438 C 216.5544281005859 325.0225219726562 216.2762603759766 325.3007202148438 215.934326171875 325.3007202148438 C 215.1291656494141 325.3007202148438 214.47412109375 325.9557495117188 214.47412109375 326.7608947753906 C 214.47412109375 327.5660400390625 215.1291656494141 328.2210998535156 215.934326171875 328.2210998535156 L 224.2553405761719 328.2210998535156 C 225.6340789794922 328.2210998535156 226.7557678222656 327.0994262695312 226.7557678222656 325.7206726074219 C 226.7557678222656 324.3419799804688 225.6341400146484 323.2203369140625 224.2554626464844 323.2203369140625 C 224.09765625 323.2203369140625 223.9452972412109 323.2432861328125 223.8171081542969 323.2657165527344 C 223.7809295654297 323.2718200683594 223.7447509765625 323.2748718261719 223.708984375 323.2748718261719 C 223.4845123291016 323.2748718261719 223.277099609375 323.1539611816406 223.1676483154297 322.9593200683594 C 222.5372924804688 321.8372192382812 221.3598937988281 321.1401977539062 220.0949096679688 321.1401977539062 Z" stroke="none"/>
            <path d="M 220.0948486328125 320.0000305175781 C 217.6734313964844 320.0000305175781 215.6753540039062 321.8483276367188 215.4381713867188 324.2084350585938 C 214.240966796875 324.4403991699219 213.3340454101562 325.4971313476562 213.3340454101562 326.7608947753906 C 213.3340454101562 328.1941833496094 214.5010375976562 329.3612365722656 215.934326171875 329.3612365722656 L 224.2554321289062 329.3612365722656 C 226.2628173828125 329.3612365722656 227.8958435058594 327.7282104492188 227.8958435058594 325.7207641601562 C 227.8958435058594 323.7132263183594 226.2628173828125 322.0802917480469 224.2553405761719 322.0802917480469 C 224.1607360839844 322.0802917480469 224.0660400390625 322.0855102539062 223.9735107421875 322.0938110351562 C 223.1070251464844 320.7936401367188 221.6519165039062 320.0000305175781 220.0948486328125 320.0000305175781 M 223.708984375 323.1748657226562 C 223.7389984130859 323.1748657226562 223.7693634033203 323.17236328125 223.7998657226562 323.1672058105469 C 223.9486083984375 323.1411743164062 224.0994262695312 323.1203308105469 224.2554626464844 323.1203308105469 C 225.6887817382812 323.1203308105469 226.8557739257812 324.2874145507812 226.8557739257812 325.7206726074219 C 226.8557739257812 327.1539916992188 225.6886901855469 328.3211059570312 224.2553405761719 328.3211059570312 L 215.934326171875 328.3211059570312 C 215.0741577148438 328.3211059570312 214.3741149902344 327.6211242675781 214.3741149902344 326.7608947753906 C 214.3741149902344 325.9006958007812 215.0741577148438 325.2007141113281 215.934326171875 325.2007141113281 C 216.2214050292969 325.2007141113281 216.4544372558594 324.9677124023438 216.4544372558594 324.6806030273438 C 216.4544372558594 322.6731567382812 218.08740234375 321.0401916503906 220.0949096679688 321.0401916503906 C 221.3950805664062 321.0401916503906 222.6068115234375 321.7568054199219 223.2548217773438 322.9103088378906 C 223.3481140136719 323.0762329101562 223.5210876464844 323.1748657226562 223.708984375 323.1748657226562 M 220.0948486328125 319.8000183105469 C 221.6780242919922 319.8000183105469 223.1566314697266 320.5775451660156 224.0735778808594 321.8858032226562 C 224.1365356445312 321.8821105957031 224.1966705322266 321.8802795410156 224.2553405761719 321.8802795410156 C 226.3730010986328 321.8802795410156 228.0958404541016 323.6031188964844 228.0958404541016 325.7207641601562 C 228.0958404541016 327.8384094238281 226.373046875 329.5612487792969 224.2554321289062 329.5612487792969 L 215.934326171875 329.5612487792969 C 214.3902435302734 329.5612487792969 213.1340484619141 328.3049926757812 213.1340484619141 326.7608947753906 C 213.1340484619141 325.4720458984375 214.0178070068359 324.352294921875 215.2558746337891 324.0440063476562 C 215.4050598144531 322.9035949707031 215.9543762207031 321.8525695800781 216.8128051757812 321.0712890625 C 217.7135314941406 320.2514953613281 218.8791198730469 319.8000183105469 220.0948486328125 319.8000183105469 Z M 223.708984375 323.3748779296875 C 223.4484252929688 323.3748779296875 223.2075958251953 323.2344360351562 223.0804901123047 323.0083312988281 C 222.4677886962891 321.9176940917969 221.3238067626953 321.2402038574219 220.0949096679688 321.2402038574219 C 218.1978302001953 321.2402038574219 216.6544342041016 322.7835388183594 216.6544342041016 324.6806030273438 C 216.6544342041016 325.0776672363281 216.3313903808594 325.4007263183594 215.934326171875 325.4007263183594 C 215.1843109130859 325.4007263183594 214.5741119384766 326.0108947753906 214.5741119384766 326.7608947753906 C 214.5741119384766 327.5109252929688 215.1843109130859 328.12109375 215.934326171875 328.12109375 L 224.2553405761719 328.12109375 C 225.5789489746094 328.12109375 226.6557769775391 327.0442810058594 226.6557769775391 325.7206726074219 C 226.6557769775391 324.3971252441406 225.5790100097656 323.3203430175781 224.2554626464844 323.3203430175781 C 224.1053009033203 323.3203430175781 223.9583129882812 323.3424987792969 223.8343505859375 323.3642272949219 C 223.7921600341797 323.3713684082031 223.7503509521484 323.3748779296875 223.708984375 323.3748779296875 Z" stroke="none" fill="#e5181e"/>
          </g>
        </g>
      </g>
    </g>
  </g>
</svg>
