<svg xmlns="http://www.w3.org/2000/svg" width="32" height="32" viewBox="0 0 32 32">
  <g id="vuesax_linear_data-2" data-name="vuesax/linear/data-2" transform="translate(-684 -188)">
    <g id="data-2" transform="translate(684 188)">
      <path id="Vector" d="M5.5,6.6H2.2A2.205,2.205,0,0,1,0,4.4V2.2A2.205,2.205,0,0,1,2.2,0H5.5A2.205,2.205,0,0,1,7.7,2.2V4.4A2.205,2.205,0,0,1,5.5,6.6Z" transform="translate(5.005 5.005)" fill="none" stroke="#e5181e" stroke-linecap="round" stroke-linejoin="round" stroke-width="1.5"/>
      <path id="Vector-2" data-name="Vector" d="M5.278,4.4H1.319A1.323,1.323,0,0,1,0,3.079V1.319A1.323,1.323,0,0,1,1.319,0H5.278A1.323,1.323,0,0,1,6.6,1.319V3.079A1.323,1.323,0,0,1,5.278,4.4Z" transform="translate(20.398 6.105)" fill="none" stroke="#e5181e" stroke-linecap="round" stroke-linejoin="round" stroke-width="1.5"/>
      <path id="Vector-3" data-name="Vector" d="M5.278,4.4H1.319A1.323,1.323,0,0,1,0,3.079V1.319A1.323,1.323,0,0,1,1.319,0H5.278A1.323,1.323,0,0,1,6.6,1.319V3.079A1.323,1.323,0,0,1,5.278,4.4Z" transform="translate(20.398 14.351)" fill="none" stroke="#e5181e" stroke-linecap="round" stroke-linejoin="round" stroke-width="1.5"/>
      <path id="Vector-4" data-name="Vector" d="M0,0H7.7" transform="translate(12.702 8.304)" fill="none" stroke="#e5181e" stroke-linecap="round" stroke-linejoin="round" stroke-width="1.5"/>
      <path id="Vector-5" data-name="Vector" d="M0,0V14.293a2.205,2.205,0,0,0,2.2,2.2H3.848" transform="translate(16.55 8.304)" fill="none" stroke="#e5181e" stroke-linecap="round" stroke-linejoin="round" stroke-width="1.5"/>
      <path id="Vector-6" data-name="Vector" d="M0,0H3.848" transform="translate(16.55 16.55)" fill="none" stroke="#e5181e" stroke-linecap="round" stroke-linejoin="round" stroke-width="1.5"/>
      <path id="Vector-7" data-name="Vector" d="M5.278,4.4H1.319A1.323,1.323,0,0,1,0,3.079V1.319A1.323,1.323,0,0,1,1.319,0H5.278A1.323,1.323,0,0,1,6.6,1.319V3.079A1.323,1.323,0,0,1,5.278,4.4Z" transform="translate(20.398 22.597)" fill="none" stroke="#e5181e" stroke-linecap="round" stroke-linejoin="round" stroke-width="1.5"/>
      <path id="Vector-8" data-name="Vector" d="M0,0H32V32H0Z" fill="none" opacity="0"/>
    </g>
  </g>
</svg>
