<svg width="1121.04" height="851.8" xmlns="http://www.w3.org/2000/svg" xmlns:xlink="http://www.w3.org/1999/xlink">
 <defs>
  <linearGradient id="a631a87a-781e-44c6-95a9-52fd0c67a2fa" x1="0.500109" y1="1" x2="0.500109" y2="-0.000102">
   <stop offset="0" stop-color="gray" stop-opacity="0.25"/>
   <stop offset="0.54" stop-color="gray" stop-opacity="0.12"/>
   <stop offset="1" stop-color="gray" stop-opacity="0.1"/>
  </linearGradient>
  <linearGradient id="a15ea5fa-8dd7-4ce2-ac3d-c62a3c4696f0" x1="493.3" y1="875.74" x2="493.3" y2="319.35" gradientTransform="matrix(1, 0, 0, 1, 0, 0)" xlink:href="#a631a87a-781e-44c6-95a9-52fd0c67a2fa"/>
 </defs>
 <title>interaction design</title>
 <g>
  <title>background</title>
  <rect x="-1" y="-1" width="1123.04" height="853.8" id="canvas_background" fill="none"/>
 </g>
 <g>
  <title>Layer 1</title>
  <g opacity="0.9" id="svg_1">
   <path d="m1119.76,402.74s0,0.08 0,0.12a0.15,0.15 0 0 0 0,0.06c0,0.29 -0.08,0.58 -0.13,0.87c-0.37,2.36 -0.81,4.73 -1.34,7.1c-3.61,16.19 -11,32.23 -20.89,46.73c-0.39,0.56 -0.78,1.12 -1.18,1.67c-0.76,1.09 -1.53,2.16 -2.32,3.23c-0.55,0.73 -1.1,1.46 -1.67,2.19a156,156 0 0 1 -12.54,14.37c-2.44,2.46 -5,4.84 -7.53,7.11l-1.12,1q-2.07,1.8 -4.2,3.5c-0.61,0.49 -1.23,1 -1.85,1.45l-1.08,0.84l-0.77,0.57c-0.69,0.53 -1.39,1 -2.1,1.55l-0.5,0.35c-1.67,1.19 -3.35,2.34 -5.06,3.45a124.1,124.1 0 0 1 -11.29,6.5q-2.69,1.37 -5.41,2.57q-3.3,1.47 -6.65,2.69c-0.6,0.23 -1.21,0.44 -1.82,0.66c-1.71,0.59 -3.44,1.14 -5.16,1.64l-0.88,0.26l-0.44,0.12l0,0l-1.06,0.29a135.91,135.91 0 0 1 -15.64,3.26l-0.86,0.13l-0.45,0.07c-6.69,1 -13.36,1.5 -20,1.83a251.24,251.24 0 0 1 -27.45,0l-2.5,-0.17l-0.45,0c-1.73,-0.13 -3.46,-0.29 -5.18,-0.47c-1,-0.1 -2,-0.21 -3,-0.34c-1.52,-0.18 -3,-0.39 -4.54,-0.61l-0.07,0l-1.45,-0.23c-1.31,-0.21 -2.6,-0.43 -3.89,-0.69l-1.32,-0.24l-2,-0.41l-0.39,-0.08q-6.28,-1.35 -12.32,-3.28l-0.92,-0.31q-4.38,-1.46 -8.6,-3.25q-3.13,-1.35 -6.15,-2.87q-4.32,-2.19 -8.42,-4.71q-5.73,-3.51 -11.1,-7.56c-4.71,-3.51 -9.24,-7.29 -13.64,-11.21l-0.91,-0.82l-1.66,-1.5a269.69,269.69 0 0 1 -56.13,-71.36q-2.28,-4.26 -4.42,-8.66c-0.44,-0.9 -0.87,-1.8 -1.3,-2.71a2.14,2.14 0 0 1 -0.1,-0.22l-0.66,-1.4c-1.8,-3.88 -3.5,-7.85 -5.1,-11.87l-0.72,-1.82l-1.12,-2.94l-0.45,-1.23q-2.07,-5.6 -3.86,-11.35c-0.2,-0.66 -0.41,-1.32 -0.61,-2q-0.95,-3.12 -1.81,-6.28c-0.53,-1.94 -1,-3.91 -1.51,-5.9c-0.08,-0.31 -0.15,-0.62 -0.22,-0.94c-4,-16.88 -5.71,-35.12 -1.65,-53.63c0.27,-1.26 0.57,-2.52 0.91,-3.77c0.48,-1.87 1,-3.74 1.66,-5.61c0.14,-0.44 0.29,-0.88 0.44,-1.32l0.18,-0.48c0,-0.11 0.07,-0.23 0.11,-0.34a0.68,0.68 0 0 0 0.07,-0.2c0.35,-0.92 0.7,-1.84 1.08,-2.77s0.78,-1.85 1.19,-2.77l0,0l0.06,-0.13c0,-0.12 0.11,-0.23 0.16,-0.35c0.33,-0.72 0.67,-1.44 1,-2.14l0.36,-0.72l0.1,-0.36c0.19,-0.37 0.39,-0.75 0.59,-1.11a90,90 0 0 1 9.68,-14.69a82.9,82.9 0 0 1 6.6,-7.25a71.48,71.48 0 0 1 11.59,-9.28q1,-0.6 1.92,-1.17a47.93,47.93 0 0 1 17.37,-6.3c7.94,-1.12 15.39,0.17 22.64,1.9l0.73,0.18c1.22,0.29 2.44,0.6 3.65,0.91c4.23,1.07 8.49,2.18 12.79,3.13c4,0.89 8,1.65 12.13,2.18a85.33,85.33 0 0 0 12.55,0.7c0.62,0 1.26,0 1.89,-0.06a68.25,68.25 0 0 0 22.5,-4.94a43.33,43.33 0 0 0 14.64,-9.67a32.88,32.88 0 0 0 2.26,-2.6l0,0a30.24,30.24 0 0 0 3.18,-5c0.28,-0.53 0.55,-1.07 0.81,-1.6c0,0 0,0 0,0c0.1,-0.18 0.2,-0.38 0.3,-0.57l0,0l1.53,-3l0,0c0.06,-0.11 0.11,-0.22 0.17,-0.32c0.74,-1.43 1.48,-2.84 2.24,-4.22a80.88,80.88 0 0 1 10.82,-15.94l0,0a45.31,45.31 0 0 1 16.06,-11.53c1,-0.43 2,-0.84 3.11,-1.22a45.16,45.16 0 0 1 14.48,-2.59c0.59,0 1.16,0 1.73,0a50.55,50.55 0 0 1 14.42,2.55l0,0a74.65,74.65 0 0 1 19.81,10.26a133.59,133.59 0 0 1 24.81,22.79c0.58,0.68 1.16,1.38 1.73,2.08a172.85,172.85 0 0 1 16.59,24.47c14.46,25.62 23.94,55.63 30.78,86.19l0.33,1.46c0.16,0.72 0.32,1.44 0.47,2.15c0.32,1.48 0.64,3 0.94,4.43c0.23,1.09 0.46,2.19 0.68,3.28l0,0c0.16,0.79 0.32,1.57 0.47,2.37c0.1,0.49 0.2,1 0.29,1.49a238.63,238.63 0 0 1 3.63,24.75c0,0.31 0,0.62 0.07,0.93a136,136 0 0 1 -0.74,30.7z" fill="#007bff" opacity="0.1" id="svg_2"/>
   <path d="m1046.87,483.98c-1.1,-0.29 -3,1 -5.44,3.11c-1.18,1 -2.49,2.25 -3.91,3.61l-0.67,0.65l-0.3,0.28c-1.88,1.81 -3.94,3.81 -6.12,5.83c-1.36,1.26 -2.76,2.53 -4.21,3.78c-1.91,1.65 -3,6.18 -3.52,12.38a135.91,135.91 0 0 1 -15.64,3.26l-0.86,0.13l-0.45,0.07c-0.31,-1.86 -0.54,-3.08 -0.54,-3.08s-9,-7.51 -6.38,-16.89c1.51,-5.38 16.28,-15.45 28.61,-23.07c1.51,-0.92 3,-1.82 4.39,-2.66l0.91,-0.55c0.57,-0.34 1.11,-0.67 1.65,-1l4.1,-2.4c2.84,-1.64 4.9,-2.79 5.63,-3.2l0.3,-0.17s5.26,20.66 2.45,19.92z" fill="#3f3d56" id="svg_3"/>
   <path d="m1046.87,483.98c-1.1,-0.29 -3,1 -5.44,3.11c-1.18,1 -2.49,2.25 -3.91,3.61l-0.67,0.65l-0.3,0.28c-1.88,1.81 -3.94,3.81 -6.12,5.83c-1.36,1.26 -2.76,2.53 -4.21,3.78c-1.91,1.65 -3,6.18 -3.52,12.38a135.91,135.91 0 0 1 -15.64,3.26l-0.86,0.13l-0.45,0.07c-0.31,-1.86 -0.54,-3.08 -0.54,-3.08s-9,-7.51 -6.38,-16.89c1.51,-5.38 16.28,-15.45 28.61,-23.07c1.51,-0.92 3,-1.82 4.39,-2.66l0.91,-0.55c0.57,-0.34 1.11,-0.67 1.65,-1l4.1,-2.4c2.84,-1.64 4.9,-2.79 5.63,-3.2l0.3,-0.17s5.26,20.66 2.45,19.92z" opacity="0.1" id="svg_4"/>
   <path d="m1044.71,472.72s-1.84,1.89 -4.7,4.88c-1.2,1.25 -2.59,2.7 -4.09,4.29l-0.14,0.15l-0.78,0.81c-1.78,1.88 -3.7,3.91 -5.67,6c-10.22,10.94 -21.78,23.75 -21.78,25.79a6.64,6.64 0 0 1 -0.49,2.22l-0.86,0.13l-0.45,0.07c-6.69,1 -13.36,1.5 -20,1.83a251.24,251.24 0 0 1 -27.45,0l-2.5,-0.17l-0.45,0c-1.73,-0.13 -3.46,-0.29 -5.18,-0.47c-1,-0.1 -2,-0.21 -3,-0.34c1.18,-1.64 2.41,-3.36 3.63,-5.12c2.45,-3.52 4.88,-7.16 6.9,-10.46c0.12,-0.19 0.23,-0.38 0.35,-0.56c1.21,-2 2.26,-3.89 3.07,-5.52a14.74,14.74 0 0 0 1.63,-4.62a25.25,25.25 0 0 1 1.79,-5.73c4.41,-11.2 15.94,-34 22.38,-46.59l0.58,-1.12l0.56,-1.08c2.07,-4 3.4,-6.56 3.4,-6.56l15.75,-4.25l1,-0.27l3.48,-0.94l1.34,-0.36l7.45,-2l0.09,0l0.27,-0.08l7.86,-2.11l2.61,-0.71l3,-0.79l7.6,12.95l2.22,32.34l0.58,8.39z" fill="#3f3d56" id="svg_5"/>
   <path d="m937.27,516.32c-3.08,-4 -4.87,-6.45 -4.87,-6.45s4.37,-1.06 10.07,-2.67c2.91,-0.83 6.17,-1.79 9.37,-2.84c2,-0.67 4,-1.37 5.91,-2.08c1,-0.36 1.91,-0.74 2.8,-1.11c4.14,-1.74 7.25,-3.51 7.88,-5.09a3.29,3.29 0 0 0 -0.16,-1.89a51.24,51.24 0 0 0 -3.68,-8.34c-0.53,-1 -1.11,-2.09 -1.73,-3.22c-2,-3.65 -4.39,-7.83 -7,-12.24c-2.19,-3.68 -4.54,-7.53 -6.92,-11.39c-2.1,-3.39 -4.23,-6.8 -6.32,-10.1c-0.06,-0.1 -0.13,-0.2 -0.19,-0.31c-9.53,-15.06 -18.09,-28 -18.44,-28.49l0,0l-5.62,13.49l-0.24,0.22l-9.25,8.21l-0.22,0.21c-2.88,2.55 -6.15,5.47 -9.48,8.45c-2.47,2.21 -5,4.45 -7.35,6.61c-3.41,3.06 -6.6,5.95 -9.19,8.32a73.67,73.67 0 0 0 -6.21,6a64.9,64.9 0 0 0 -4,10.81c4.4,3.92 8.93,7.7 13.64,11.22c3.59,2.68 7.28,5.21 11.1,7.55q4.11,2.52 8.42,4.71q3,1.51 6.15,2.87q4.21,1.8 8.6,3.25l0.92,0.31q6,1.94 12.32,3.28l0.39,0.08l2,0.41l1.3,0.22z" opacity="0.1" id="svg_6"/>
   <path d="m1014.03,421.49l-0.9,1.38c-0.36,0.57 -0.83,1.3 -1.4,2.17s-1.36,2.14 -2.21,3.45l-0.62,1c-1.46,2.26 -3.16,4.91 -5,7.84c-0.23,0.35 -0.46,0.7 -0.69,1.07s-0.47,0.74 -0.71,1.11c-12,18.8 -29.74,46.66 -34.2,54.7a20.62,20.62 0 0 0 -1,1.89c-0.57,1.43 -3.14,3 -6.69,4.57c-0.79,0.36 -1.64,0.71 -2.51,1.07c-1.94,0.77 -4.06,1.52 -6.22,2.25c-3.15,1.06 -6.4,2 -9.36,2.89c-6.26,1.81 -11.24,3 -11.24,3s1.72,2.33 4.67,6.21l-2,-0.41l-0.39,-0.08q-6.28,-1.35 -12.32,-3.28l-0.92,-0.31q-4.38,-1.46 -8.6,-3.25q-3.13,-1.35 -6.15,-2.87q-4.32,-2.19 -8.42,-4.71q-5.73,-3.51 -11.1,-7.56c-4.71,-3.51 -9.24,-7.29 -13.64,-11.21l-0.91,-0.82a68.23,68.23 0 0 1 3.77,-10c0,-0.22 2.92,-3 7.22,-6.9c2.65,-2.43 5.84,-5.31 9.19,-8.32l7.35,-6.59l8.69,-7.76l0.22,-0.2l9,-8l0.24,-0.22l5.63,-13.5l1.14,0l20.47,0.32l0.1,0l2,0l1.12,0l6.42,0.1l7.64,0.11l8.89,0.14l34.85,0.54l1.13,0l6.61,0.1l0.85,0.08z" fill="#3f3d56" id="svg_7"/>
   <path d="m1014.59,282.17l-3.38,30.73s-34.62,13.79 -35.46,13.51s-23.08,-20.27 -19.42,-33.5c1.83,-6.63 2.68,-15.83 3.06,-23.34s0.32,-13.25 0.32,-13.25s50.38,-18 45.87,-5.63c-1.63,4.5 -0.9,9.89 0.71,14.92a69.75,69.75 0 0 0 8.3,16.56z" fill="#fbbebe" id="svg_8"/>
   <path d="m1006.29,265.56c-0.3,0.36 -0.62,0.7 -0.93,1a33.75,33.75 0 0 1 -46,2.92c0.38,-7.45 0.32,-13.25 0.32,-13.25s50.38,-18 45.87,-5.63c-1.6,4.54 -0.87,9.93 0.74,14.96z" opacity="0.1" id="svg_9"/>
   <path d="m1014.59,242.29a33.76,33.76 0 1 1 -33.77,-33.78a33.56,33.56 0 0 1 33.77,33.78z" fill="#fbbebe" id="svg_10"/>
   <path d="m972.93,314.02s-13.22,-29.32 -17.73,-29.32s-11.54,151.65 -11.54,151.65l69,1.09l2.82,-79.63l-14.08,-70.58s-12.7,27.87 -28.47,26.79z" opacity="0.1" id="svg_11"/>
   <path d="m972.93,316.27s-13.22,-29.32 -17.73,-29.32s-11.54,151.66 -11.54,151.66l78.25,1.18l-6.47,-79.73l-14.08,-70.57s-12.66,27.87 -28.43,26.78z" opacity="0.1" id="svg_12"/>
   <path d="m972.93,315.14s-13.22,-29.31 -17.73,-29.31s-11.54,151.65 -11.54,151.65l78.25,1.18l-6.47,-79.76l-14.08,-70.58s-12.66,27.91 -28.43,26.82z" fill="#65617d" id="svg_13"/>
   <path d="m960.1,276.62s-2.36,-3.46 -5.74,-2.33s-5.91,-2 -9.29,1.12s-16.89,7.32 -19.42,5.91s-11.54,4.79 -13.51,8.45s-8.45,13.51 -8.45,13.51s-5.62,6.75 -4.78,10.41s-2,7.88 -5.35,9.57s-10.13,18.58 -10.13,18.58s1.82,22.58 -5.78,26.52s-2,21.11 -2,21.11l35.9,-8.51l10.16,-23.06s-3.94,67.55 -8.73,73.74s-5.34,10.14 -5.34,10.14s18.57,3.94 22.51,7.31s14.36,-0.84 14.36,-0.84l10.13,-89.79s3.66,-16.88 3.66,-25.61s1.8,-56.23 1.8,-56.23z" opacity="0.1" id="svg_14"/>
   <path d="m958.98,275.62s-2.37,-3.46 -5.75,-2.33s-5.91,-2 -9.29,1.12s-16.88,7.32 -19.42,5.91s-11.54,4.79 -13.51,8.45s-8.44,13.51 -8.44,13.51s-5.63,6.75 -4.79,10.41s-2,7.88 -5.34,9.57s-10.14,18.58 -10.14,18.58s1.82,22.58 -5.78,26.52c-1.9,1 -3,3.18 -3.51,5.92c-2.18,11 6.86,21.12 18.1,20.77l19.34,-8l10.13,-29.15s-3.94,67.55 -8.72,73.74s-5.34,10.12 -5.34,10.12s18.58,3.94 22.52,7.31s14.35,-0.84 14.35,-0.84l10.13,-89.79s3.66,-16.88 3.66,-25.61s1.8,-56.21 1.8,-56.21z" fill="#f29620" id="svg_15"/>
   <path d="m896.94,325.51s3.38,9.29 12.67,8.45s-12.67,-8.45 -12.67,-8.45z" opacity="0.1" id="svg_16"/>
   <path d="m905.95,311.44s6.19,1.13 8.44,6.47s-8.44,-6.47 -8.44,-6.47z" opacity="0.1" id="svg_17"/>
   <path d="m923.4,301.9c0,1.13 3.94,20.83 0,29s-3.38,17.73 -3.38,17.73l3.38,-46.73z" opacity="0.1" id="svg_18"/>
   <path d="m1006.52,269.84s2.21,-2.59 4.46,-2.31s3.66,1.69 6.48,2.82s9.56,1.4 9.56,2.25s5.92,4.22 9.86,5.06s16.32,9.29 19.42,25.62s8.44,21.11 8.44,21.11l-29.83,14.63s23.08,97.95 25.89,105s3.1,48.69 3.1,48.69s-18.3,8.16 -23.08,10.7s-2.82,-24.21 -12.67,-39.69s-21.11,-38 -21.11,-38l-17.17,-48.13s-11,-64.17 -1.69,-76s19.14,-27.52 18.34,-31.75z" opacity="0.1" id="svg_19"/>
   <path d="m1064.96,492.12c0,0.38 0,0.58 0,0.58l-1.09,0.49l-0.77,0.34l-7.64,3.46c-4.19,1.91 -8.82,4 -11.74,5.48c-0.73,0.35 -1.35,0.67 -1.83,0.93a1.06,1.06 0 0 1 -1.14,0c-1.5,-1 -2.18,-6.08 -3.24,-12.7c-0.44,-2.74 -0.94,-5.74 -1.6,-8.81c-0.1,-0.48 -0.21,-1 -0.32,-1.44a70.75,70.75 0 0 0 -2.86,-9.62a40.28,40.28 0 0 0 -3.51,-7.12c-1.3,-2 -2.61,-4.18 -3.92,-6.38c-3.52,-5.92 -7,-12.23 -9.92,-17.64c-0.2,-0.39 -0.4,-0.76 -0.6,-1.13c-0.74,-1.38 -1.44,-2.69 -2.07,-3.91c-1.31,-2.5 -2.41,-4.62 -3.2,-6.16l-1.27,-2.51a2.34,2.34 0 0 0 -0.13,-0.26l-1.55,-4.34l-3,-8.38l-3.49,-9.79l-1.65,-4.61l-1.19,-3.35l-0.38,-1.06l-5.92,-16.61s-0.42,-2.41 -1,-6.38c-1.57,-10.44 -4.42,-31.67 -4.41,-48.3a90.08,90.08 0 0 1 0.7,-12.13c0.07,-0.44 0.13,-0.87 0.21,-1.29s0.16,-0.92 0.25,-1.36a16.18,16.18 0 0 1 2.57,-6.53c9.28,-11.82 19.18,-27.52 18.34,-31.74l0.19,-0.21a9.24,9.24 0 0 1 1.36,-1.18a5.33,5.33 0 0 1 2,-0.9a3.4,3.4 0 0 1 0.9,0l0,0c2.25,0.28 3.66,1.69 6.47,2.82s9.57,1.4 9.57,2.25s5.91,4.22 9.85,5.07s16.33,9.28 19.42,25.61c3,15.73 8.06,20.74 8.43,21.1l0,0l-1.11,0.54l-16.93,8.31l-3.63,1.77l-8.17,4s2.14,9.07 5.19,21.89c0,0.17 0.09,0.35 0.13,0.53c0.09,0.38 0.18,0.77 0.28,1.16c2.24,9.4 4.92,20.6 7.59,31.65a0,0 0 0 1 0,0l0.24,1l0.78,3.2c0.24,1 0.49,2 0.73,3l0.39,1.59c0.74,3.06 1.48,6.08 2.2,9c1.07,4.33 2.09,8.44 3,12.2c2.6,10.36 4.61,17.95 5.33,19.73c1,2.58 1.72,9.83 2.18,18c0.79,12.5 0.96,27.09 0.98,30.14z" fill="#f29620" id="svg_20"/>
   <path d="m1068.63,393.06c-0.83,0.14 -1.89,0.26 -3.12,0.38c-9,0.82 -26.71,1 -26.71,1s-13.23,-26.18 -24.49,-25.33c0,0 10.41,-11.82 14.64,-10.41c0.7,0.23 1.14,-0.29 1.36,-1.3c1.12,-5 -2.77,-22.35 -2.77,-22.35l-5.35,-23.36l31,7.6c2.82,0.56 11.54,5.07 11.54,5.07s0.28,12.1 2.53,14.91s4.79,16.33 4.51,19.71s3.09,19.14 -0.28,23.36s4.18,9.56 -2.86,10.72z" opacity="0.1" id="svg_21"/>
   <path d="m1069.76,393.06c-0.84,0.14 -1.89,0.26 -3.12,0.38c-9,0.82 -26.72,1 -26.72,1s-13.23,-26.18 -24.48,-25.33c0,0 10.41,-11.82 14.63,-10.41c0.71,0.23 1.15,-0.29 1.36,-1.3c1.13,-5 -2.77,-22.35 -2.77,-22.35l-5.34,-23.36l31,7.6c2.81,0.56 11.54,5.07 11.54,5.07s0.28,12.1 2.53,14.91s4.78,16.33 4.5,19.71s3.1,19.14 -0.28,23.36s4.18,9.56 -2.85,10.72z" fill="#f29620" id="svg_22"/>
   <path d="m1037.95,331.7s25.9,2.82 27,9.29s-27,-9.29 -27,-9.29z" opacity="0.1" id="svg_23"/>
   <path d="m1014.59,242.29a33.56,33.56 0 0 1 -9.23,23.18a0.48,0.48 0 0 1 -0.08,-0.16c-1,-2.14 -2,-4.36 -1.88,-6.71c0.09,-2.83 1.72,-5.39 2.25,-8.19c0.67,-3.54 -0.49,-7.13 -1.63,-10.54c-0.83,-2.5 -2.44,-5.53 -5.06,-5.22a6.9,6.9 0 0 1 -1.55,0.18c-1.4,-0.22 -1.68,-2 -1.83,-3.44a15.59,15.59 0 0 0 -12.73,-13.35a3.93,3.93 0 0 0 -2.23,0.15c-1,0.44 -1.5,1.49 -2.38,2.1c-2.86,2 -6.5,-1.81 -10,-1.52c-3,0.25 -4.75,3.27 -6,6s-2.74,5.77 -5.63,6.4a1.71,1.71 0 0 1 -1.37,-0.15c-0.9,-0.66 -0.28,-2 0.19,-3.07c1.18,-2.67 0.39,-4.8 -1.06,-6.71a33.76,33.76 0 0 1 60.15,21.08l0.07,-0.03z" opacity="0.1" id="svg_24"/>
   <path d="m905.57,505.9q-4.32,-2.19 -8.42,-4.71q-5.73,-3.51 -11.1,-7.56l-3.45,-28l-0.11,-0.92l-6.55,-53.28l-0.39,-3.15l10.88,-0.33l7.7,-0.23l0.52,4.53l4.38,37.55l0.11,0.9l6.43,55.2z" fill="#b2b1bb" id="svg_25"/>
   <path d="m897.15,501.17q-5.73,-3.51 -11.1,-7.56l-3.45,-28l-0.11,-0.92l-6.55,-53.28l-0.39,-3.15l10.88,-0.33l-0.47,1.74l0.27,2.19l5.45,44.51l0.11,0.92l5.36,43.88z" opacity="0.1" id="svg_26"/>
   <path d="m972.09,408.82l-0.59,4.77l-0.91,7.23l-2,15.93l-0.14,1.1l-0.14,1.13l-5.46,43.65l-1.69,13.57l-0.56,4.45l-0.06,0.52l-2.2,17.73l-2.5,-0.17l-0.45,0c-1.73,-0.13 -3.46,-0.29 -5.18,-0.47c-1,-0.1 -2,-0.21 -3,-0.34c-1.52,-0.18 -3,-0.39 -4.54,-0.61l-0.07,0l-1.45,-0.23l1.37,-9.88l0,-0.34l6.4,-47.86l2.71,-20.27l0.15,-1.12l0.15,-1.12l2.13,-15.92l0.9,-6.68l0.52,-3.94l0.65,-0.05l15.96,-1.08z" fill="#b2b1bb" id="svg_27"/>
   <path d="m962.8,411.36l-0.28,2.39l-0.82,6.93l-1.88,15.93l-0.13,1.11l-0.17,1.18l-3.72,31.54l-4,33.58l0,0.39l-1,8.38l-0.64,5.46c-1,-0.1 -2,-0.21 -3,-0.34c-1.52,-0.18 -3,-0.39 -4.54,-0.61l-0.07,0l-1.45,-0.23l1.42,-9.87l0,-0.34l6.4,-47.86l2.71,-20.27l0.15,-1.12l0.15,-1.12l2.13,-15.92l0.9,-6.68l0.52,-3.94l0.65,-0.05l6.67,1.46z" opacity="0.2" id="svg_28"/>
   <path d="m1043.73,502.47l0.43,2.91q-2.69,1.37 -5.41,2.57q-3.3,1.47 -6.65,2.69l-1.67,-13.18l-1.1,-8.59l-1.89,-14.83l-1.82,-14.32l-0.31,-2.39l-4.43,-34.76l-0.78,-6.1l-0.24,-2l-0.23,-1.8l-0.53,-4.16l0.27,0l0.09,0l7.61,-0.83l2.44,-0.25l0.76,5.09l1.08,7.24l7.14,47.7l1.52,10.15l1.42,9.49l2.22,14.86l0.08,0.51z" fill="#65617d" id="svg_29"/>
   <path d="m1043.73,502.47l0.43,2.91q-2.69,1.37 -5.41,2.57q-3.3,1.47 -6.65,2.69l-1.67,-13.18l-1.1,-8.59l-1.89,-14.83l-1.82,-14.32l-0.31,-2.39l-4.43,-34.76l-0.78,-6.1l-0.24,-2l-0.23,-1.8l-0.53,-4.16l0.27,0l0.09,0l7.61,-0.83l2.44,-0.25l0.76,5.09l1.08,7.24l7.14,47.7l1.52,10.15l1.42,9.49l2.22,14.86l0.08,0.51z" fill="#ccc" opacity="0.1" id="svg_30"/>
   <path d="m1044.16,505.38q-2.69,1.37 -5.41,2.57l-1.14,-9.94l-0.76,-6.66l-1.07,-9.31l-0.18,-1.59l-1.21,-10.6l-5.65,-49.39l-0.91,-7.91l-0.29,-2.6l-0.47,-2.28l2.44,-0.25l0.76,5.09l1.08,7.24l7.14,47.7l1.52,10.15l1.42,9.49l2.22,14.86l0.08,0.52l0.43,2.91z" fill="#b2b1bb" id="svg_31"/>
   <path d="m1068.07,407.98l-0.06,3.83l-1.2,78.86c-0.61,0.49 -1.23,1 -1.85,1.45c0,0.38 0,0.58 0,0.58l-1.09,0.49l-0.77,0.34c-0.69,0.53 -1.39,1 -2.1,1.55l-0.5,0.35c-1.67,1.19 -3.35,2.34 -5.06,3.45l0,-1.89l0,-0.52l1,-68l0.06,-4.18l0.18,-12.26l0.08,-5.45l7.58,0.95l3.73,0.45z" fill="#65617d" id="svg_32"/>
   <path d="m1068.07,407.98l-0.06,3.83l-1.2,78.86c-0.61,0.49 -1.23,1 -1.85,1.45c0,0.38 0,0.58 0,0.58l-1.09,0.49l-0.77,0.34c-0.69,0.53 -1.39,1 -2.1,1.55l-0.5,0.35c-1.67,1.19 -3.35,2.34 -5.06,3.45l0,-1.89l0,-0.52l1,-68l0.06,-4.18l0.18,-12.26l0.08,-5.45l7.58,0.95l3.73,0.45z" fill="#ccc" opacity="0.1" id="svg_33"/>
   <path d="m1068.07,407.98l-0.06,3.83l-1.2,78.86c-0.61,0.49 -1.23,1 -1.85,1.45c0,0.38 0,0.58 0,0.58l-1.09,0.49l0,-0.23l0.18,-31l0.3,-50.11l0,-4.36l3.72,0.49z" fill="#b2b1bb" id="svg_34"/>
   <path d="m1119.74,402.9a0.15,0.15 0 0 0 0,0.06c0,0.29 -0.08,0.58 -0.13,0.87c-0.37,2.36 -0.81,4.73 -1.34,7.1l-50.25,0.92l-3.65,0.07l-7.63,0.14l-3.21,0.06l-1.12,0l-22.13,0.41l-2.44,0l-8,0.15l-0.17,0l-6.14,0.12l-9.91,0.18l-1.11,0l0,0l-31,0.57l-9,0.16l-7.56,0.14l-6.59,0.12l-1.13,0l-2.37,0l-0.11,0l-5,0.09l-22.77,-1l-1.12,-0.05l-21.18,-0.91l-8.42,-0.37l-10.29,-0.45l-62.23,-2.69q-2.28,-4.26 -4.42,-8.66c-0.44,-0.9 -0.87,-1.8 -1.3,-2.71l63.34,-1l0,0l39,-0.6l0,0l7.37,-0.11l1.13,0l20,-0.31l6.85,0.38l0.12,0l3.44,0.19l1.12,0.06l13.66,0.76l0,0l33.21,1.83l1.15,0.06l15.52,0.86l4.69,0.26l0.1,0l31,1.71l1.14,0.07l0.25,0l68.63,1.52z" fill="#65617d" id="svg_35"/>
   <path d="m1119.74,402.9a0.13,0.13 0 0 1 0,0.06c0,0.29 -0.08,0.58 -0.13,0.87c-0.37,2.36 -0.81,4.73 -1.34,7.1l-50.25,0.92l-3.64,0.07l-7.64,0.14l-3.21,0.06l-1.12,0l-22.13,0.41l-2.44,0l-8,0.15l-0.17,0l-6.14,0.12l-9.91,0.18l-1.11,0l0,0l-31,0.57l-9,0.16l-7.56,0.14l-6.59,0.12l-1.13,0l-2.37,0l-0.11,0l-5,0.09l-22.78,-1l-1.12,0l-21.17,-0.92l-8.43,-0.36l-10.29,-0.44l-62.23,-2.7q-2.28,-4.26 -4.42,-8.66c-0.44,-0.9 -0.87,-1.8 -1.3,-2.71l63.34,-1l0,0l39,-0.6l0,0l7.37,-0.11l1.13,0l20,-0.31l6.85,0.38l0.13,0l3.44,0.19l1.12,0.07l13.66,0.75l0,0l33.21,1.83l1.14,0.06l15.52,0.86l4.69,0.26l0.1,0l31,1.71l1.14,0.07l0.25,0l68.64,1.47z" fill="#b2b1bb" id="svg_36"/>
   <path d="m1119.74,402.9a0.13,0.13 0 0 1 0,0.06l-68.41,0.17l-1.12,0l-31.17,0.08l-5.2,0l-13.74,0l-1.13,0l-49.38,0.12l-4.27,0l-27.25,0.07l-1.12,0l-28.45,0.07l-79.21,-3.42c-0.44,-0.9 -0.87,-1.8 -1.3,-2.71l63.34,-1l0,0l39,-0.6l0,0l7.37,-0.11l1.13,0l20,-0.31l6.85,0.38l0.13,0l3.44,0.19l1.12,0.07l13.66,0.75l0,0l33.21,1.83l1.14,0.06l15.52,0.86l4.69,0.26l0.1,0l31,1.71l1.14,0.07l0.25,0l68.66,1.4z" opacity="0.1" id="svg_37"/>
   <path d="m1053.43,357.04c1.69,0.56 11.54,3.09 13.51,9s-13.51,-9 -13.51,-9z" opacity="0.1" id="svg_38"/>
   <path d="m1024.38,366.9s-14.35,4.36 -20.83,4.36s-31.8,-0.14 -31.8,-0.14s-66.15,-22.1 -46.3,8.16s51.22,13.37 51.22,13.37s2.54,0.56 5.63,1.27s62.91,0.14 64.88,-2.25s-22.8,-24.77 -22.8,-24.77z" fill="#fbbebe" id="svg_39"/>
   <path d="m1065.52,393.44c-9,0.82 -26.71,1 -26.71,1s-13.23,-26.18 -24.49,-25.33c0,0 10.41,-11.82 14.64,-10.41c0.7,0.23 1.14,-0.29 1.36,-1.3c11,3.37 32,11.61 34.1,26.06c0.54,3.91 0.89,7.19 1.1,9.98z" opacity="0.1" id="svg_40"/>
   <path d="m1066.64,393.44c-9,0.82 -26.72,1 -26.72,1s-13.23,-26.18 -24.48,-25.33c0,0 10.41,-11.82 14.63,-10.41c0.71,0.23 1.15,-0.29 1.36,-1.3c11,3.37 32,11.61 34.11,26.06c0.55,3.91 0.9,7.19 1.1,9.98z" fill="#464353" id="svg_41"/>
   <path d="m1065.52,393.44c-9,0.83 -26.71,1 -26.71,1s-13.23,-26.18 -24.49,-25.33c0,0 10.41,-11.82 14.64,-10.42c0.7,0.24 1.14,-0.28 1.36,-1.29c11,3.37 32,11.61 34.1,26.06c0.54,3.92 0.89,7.2 1.1,9.98z" opacity="0.1" id="svg_42"/>
   <path d="m987.57,468.78s25.33,-6.2 29.27,-2.82s-29.27,2.82 -29.27,2.82z" opacity="0.1" id="svg_43"/>
   <path d="m914.95,492.98s10.7,6.19 11.82,11.26s-11.82,-11.26 -11.82,-11.26z" opacity="0.1" id="svg_44"/>
   <path d="m869.68,282.9l0,110.92c0,1.91 1,2.18 2.69,3.1c5.63,3.12 19.49,8.68 36.13,-0.12c1.71,-0.9 2.76,-1.2 2.76,-3.14l0,-110.07s-21.15,8.53 -41.58,-0.69z" fill="#333f4f" id="svg_45"/>
   <ellipse cx="890.47" cy="282.81" rx="20.79" ry="4.42" fill="#2d394a" stroke="#40868e" stroke-miterlimit="10" id="svg_46"/>
   <g opacity="0.2" id="svg_47">
    <circle cx="871.57" cy="328.95" r="0.47" id="svg_48"/>
    <circle cx="873.94" cy="329.61" r="0.47" id="svg_49"/>
    <circle cx="876.86" cy="330.54" r="0.47" id="svg_50"/>
    <circle cx="882.11" cy="331.67" r="0.47" id="svg_51"/>
    <circle cx="887.64" cy="332.34" r="0.47" id="svg_52"/>
    <circle cx="893.37" cy="332.61" r="0.47" id="svg_53"/>
    <circle cx="901.59" cy="331.48" r="0.47" id="svg_54"/>
    <circle cx="898.87" cy="332.14" r="0.47" id="svg_55"/>
    <circle cx="906.68" cy="330.54" r="0.47" id="svg_56"/>
    <circle cx="904.23" cy="331.01" r="0.47" id="svg_57"/>
    <circle cx="909.37" cy="329.61" r="0.47" id="svg_58"/>
    <circle cx="879.54" cy="331.21" r="0.47" id="svg_59"/>
    <circle cx="884.96" cy="332.14" r="0.47" id="svg_60"/>
    <circle cx="890.83" cy="332.61" r="0.47" id="svg_61"/>
    <circle cx="896.17" cy="332.61" r="0.47" id="svg_62"/>
   </g>
   <g opacity="0.2" id="svg_63">
    <circle cx="871.57" cy="331.24" r="0.47" id="svg_64"/>
    <circle cx="873.94" cy="331.91" r="0.47" id="svg_65"/>
    <circle cx="876.86" cy="332.84" r="0.47" id="svg_66"/>
    <circle cx="882.11" cy="333.97" r="0.47" id="svg_67"/>
    <circle cx="887.64" cy="334.64" r="0.47" id="svg_68"/>
    <circle cx="893.37" cy="334.9" r="0.47" id="svg_69"/>
    <circle cx="901.59" cy="333.77" r="0.47" id="svg_70"/>
    <circle cx="898.87" cy="334.44" r="0.47" id="svg_71"/>
    <circle cx="906.68" cy="332.84" r="0.47" id="svg_72"/>
    <circle cx="904.23" cy="333.31" r="0.47" id="svg_73"/>
    <circle cx="909.37" cy="331.91" r="0.47" id="svg_74"/>
    <circle cx="879.54" cy="333.5" r="0.47" id="svg_75"/>
    <circle cx="884.96" cy="334.44" r="0.47" id="svg_76"/>
    <circle cx="890.83" cy="334.9" r="0.47" id="svg_77"/>
    <circle cx="896.17" cy="334.9" r="0.47" id="svg_78"/>
   </g>
   <g opacity="0.2" id="svg_79">
    <circle cx="871.57" cy="333.54" r="0.47" id="svg_80"/>
    <circle cx="873.94" cy="334.2" r="0.47" id="svg_81"/>
    <circle cx="876.86" cy="335.14" r="0.47" id="svg_82"/>
    <circle cx="882.11" cy="336.27" r="0.47" id="svg_83"/>
    <circle cx="887.64" cy="336.94" r="0.47" id="svg_84"/>
    <circle cx="893.37" cy="337.2" r="0.47" id="svg_85"/>
    <circle cx="901.59" cy="336.07" r="0.47" id="svg_86"/>
    <circle cx="898.87" cy="336.73" r="0.47" id="svg_87"/>
    <circle cx="906.68" cy="335.14" r="0.47" id="svg_88"/>
    <circle cx="904.23" cy="335.6" r="0.47" id="svg_89"/>
    <circle cx="909.37" cy="334.2" r="0.47" id="svg_90"/>
    <circle cx="879.54" cy="335.8" r="0.47" id="svg_91"/>
    <circle cx="884.96" cy="336.73" r="0.47" id="svg_92"/>
    <circle cx="890.83" cy="337.2" r="0.47" id="svg_93"/>
    <circle cx="896.17" cy="337.2" r="0.47" id="svg_94"/>
   </g>
   <g opacity="0.2" id="svg_95">
    <circle cx="871.57" cy="335.84" r="0.47" id="svg_96"/>
    <circle cx="873.94" cy="336.5" r="0.47" id="svg_97"/>
    <circle cx="876.86" cy="337.43" r="0.47" id="svg_98"/>
    <circle cx="882.11" cy="338.56" r="0.47" id="svg_99"/>
    <circle cx="887.64" cy="339.23" r="0.47" id="svg_100"/>
    <circle cx="893.37" cy="339.49" r="0.47" id="svg_101"/>
    <circle cx="901.59" cy="338.36" r="0.47" id="svg_102"/>
    <circle cx="898.87" cy="339.03" r="0.47" id="svg_103"/>
    <circle cx="906.68" cy="337.43" r="0.47" id="svg_104"/>
    <circle cx="904.23" cy="337.9" r="0.47" id="svg_105"/>
    <circle cx="909.37" cy="336.5" r="0.47" id="svg_106"/>
    <circle cx="879.54" cy="338.09" r="0.47" id="svg_107"/>
    <circle cx="884.96" cy="339.03" r="0.47" id="svg_108"/>
    <circle cx="890.83" cy="339.49" r="0.47" id="svg_109"/>
    <circle cx="896.17" cy="339.49" r="0.47" id="svg_110"/>
   </g>
   <g opacity="0.2" id="svg_111">
    <circle cx="871.57" cy="338.13" r="0.47" id="svg_112"/>
    <circle cx="873.94" cy="338.79" r="0.47" id="svg_113"/>
    <circle cx="876.86" cy="339.73" r="0.47" id="svg_114"/>
    <circle cx="882.11" cy="340.86" r="0.47" id="svg_115"/>
    <circle cx="887.64" cy="341.53" r="0.47" id="svg_116"/>
    <circle cx="893.37" cy="341.79" r="0.47" id="svg_117"/>
    <circle cx="901.59" cy="340.66" r="0.47" id="svg_118"/>
    <circle cx="898.87" cy="341.32" r="0.47" id="svg_119"/>
    <circle cx="906.68" cy="339.73" r="0.47" id="svg_120"/>
    <circle cx="904.23" cy="340.19" r="0.47" id="svg_121"/>
    <circle cx="909.37" cy="338.79" r="0.47" id="svg_122"/>
    <circle cx="879.54" cy="340.39" r="0.47" id="svg_123"/>
    <circle cx="884.96" cy="341.32" r="0.47" id="svg_124"/>
    <circle cx="890.83" cy="341.79" r="0.47" id="svg_125"/>
    <circle cx="896.17" cy="341.79" r="0.47" id="svg_126"/>
   </g>
   <g opacity="0.2" id="svg_127">
    <circle cx="871.57" cy="340.43" r="0.47" id="svg_128"/>
    <circle cx="873.94" cy="341.09" r="0.47" id="svg_129"/>
    <circle cx="876.86" cy="342.02" r="0.47" id="svg_130"/>
    <circle cx="882.11" cy="343.15" r="0.47" id="svg_131"/>
    <circle cx="887.64" cy="343.82" r="0.47" id="svg_132"/>
    <circle cx="893.37" cy="344.09" r="0.47" id="svg_133"/>
    <circle cx="901.59" cy="342.95" r="0.47" id="svg_134"/>
    <circle cx="898.87" cy="343.62" r="0.47" id="svg_135"/>
    <circle cx="906.68" cy="342.02" r="0.47" id="svg_136"/>
    <circle cx="904.23" cy="342.49" r="0.47" id="svg_137"/>
    <circle cx="909.37" cy="341.09" r="0.47" id="svg_138"/>
    <circle cx="879.54" cy="342.69" r="0.47" id="svg_139"/>
    <circle cx="884.96" cy="343.62" r="0.47" id="svg_140"/>
    <circle cx="890.83" cy="344.09" r="0.47" id="svg_141"/>
    <circle cx="896.17" cy="344.09" r="0.47" id="svg_142"/>
   </g>
   <g opacity="0.2" id="svg_143">
    <circle cx="871.57" cy="342.72" r="0.47" id="svg_144"/>
    <circle cx="873.94" cy="343.38" r="0.47" id="svg_145"/>
    <circle cx="876.86" cy="344.32" r="0.47" id="svg_146"/>
    <circle cx="882.11" cy="345.45" r="0.47" id="svg_147"/>
    <circle cx="887.64" cy="346.12" r="0.47" id="svg_148"/>
    <circle cx="893.37" cy="346.38" r="0.47" id="svg_149"/>
    <circle cx="901.59" cy="345.25" r="0.47" id="svg_150"/>
    <circle cx="898.87" cy="345.91" r="0.47" id="svg_151"/>
    <circle cx="906.68" cy="344.32" r="0.47" id="svg_152"/>
    <circle cx="904.23" cy="344.78" r="0.47" id="svg_153"/>
    <circle cx="909.37" cy="343.38" r="0.47" id="svg_154"/>
    <circle cx="879.54" cy="344.98" r="0.47" id="svg_155"/>
    <circle cx="884.96" cy="345.91" r="0.47" id="svg_156"/>
    <circle cx="890.83" cy="346.38" r="0.47" id="svg_157"/>
    <circle cx="896.17" cy="346.38" r="0.47" id="svg_158"/>
   </g>
   <g opacity="0.2" id="svg_159">
    <circle cx="871.57" cy="345.02" r="0.47" id="svg_160"/>
    <circle cx="873.94" cy="345.68" r="0.47" id="svg_161"/>
    <circle cx="876.86" cy="346.61" r="0.47" id="svg_162"/>
    <circle cx="882.11" cy="347.74" r="0.47" id="svg_163"/>
    <circle cx="887.64" cy="348.41" r="0.47" id="svg_164"/>
    <circle cx="893.37" cy="348.68" r="0.47" id="svg_165"/>
    <circle cx="901.59" cy="347.55" r="0.47" id="svg_166"/>
    <circle cx="898.87" cy="348.21" r="0.47" id="svg_167"/>
    <circle cx="906.68" cy="346.61" r="0.47" id="svg_168"/>
    <circle cx="904.23" cy="347.08" r="0.47" id="svg_169"/>
    <circle cx="909.37" cy="345.68" r="0.47" id="svg_170"/>
    <circle cx="879.54" cy="347.28" r="0.47" id="svg_171"/>
    <circle cx="884.96" cy="348.21" r="0.47" id="svg_172"/>
    <circle cx="890.83" cy="348.68" r="0.47" id="svg_173"/>
    <circle cx="896.17" cy="348.68" r="0.47" id="svg_174"/>
   </g>
   <g opacity="0.2" id="svg_175">
    <circle cx="871.57" cy="347.31" r="0.47" id="svg_176"/>
    <circle cx="873.94" cy="347.98" r="0.47" id="svg_177"/>
    <circle cx="876.86" cy="348.91" r="0.47" id="svg_178"/>
    <circle cx="882.11" cy="350.04" r="0.47" id="svg_179"/>
    <circle cx="887.64" cy="350.71" r="0.47" id="svg_180"/>
    <circle cx="893.37" cy="350.97" r="0.47" id="svg_181"/>
    <circle cx="901.59" cy="349.84" r="0.47" id="svg_182"/>
    <circle cx="898.87" cy="350.51" r="0.47" id="svg_183"/>
    <circle cx="906.68" cy="348.91" r="0.47" id="svg_184"/>
    <circle cx="904.23" cy="349.38" r="0.47" id="svg_185"/>
    <circle cx="909.37" cy="347.98" r="0.47" id="svg_186"/>
    <circle cx="879.54" cy="349.57" r="0.47" id="svg_187"/>
    <circle cx="884.96" cy="350.51" r="0.47" id="svg_188"/>
    <circle cx="890.83" cy="350.97" r="0.47" id="svg_189"/>
    <circle cx="896.17" cy="350.97" r="0.47" id="svg_190"/>
   </g>
   <g opacity="0.2" id="svg_191">
    <circle cx="871.57" cy="349.61" r="0.47" id="svg_192"/>
    <circle cx="873.94" cy="350.27" r="0.47" id="svg_193"/>
    <circle cx="876.86" cy="351.2" r="0.47" id="svg_194"/>
    <circle cx="882.11" cy="352.33" r="0.47" id="svg_195"/>
    <circle cx="887.64" cy="353" r="0.47" id="svg_196"/>
    <circle cx="893.37" cy="353.27" r="0.47" id="svg_197"/>
    <circle cx="901.59" cy="352.14" r="0.47" id="svg_198"/>
    <circle cx="898.87" cy="352.8" r="0.47" id="svg_199"/>
    <circle cx="906.68" cy="351.2" r="0.47" id="svg_200"/>
    <circle cx="904.23" cy="351.67" r="0.47" id="svg_201"/>
    <circle cx="909.37" cy="350.27" r="0.47" id="svg_202"/>
    <circle cx="879.54" cy="351.87" r="0.47" id="svg_203"/>
    <circle cx="884.96" cy="352.8" r="0.47" id="svg_204"/>
    <circle cx="890.83" cy="353.27" r="0.47" id="svg_205"/>
    <circle cx="896.17" cy="353.27" r="0.47" id="svg_206"/>
   </g>
   <g opacity="0.2" id="svg_207">
    <circle cx="871.57" cy="351.9" r="0.47" id="svg_208"/>
    <circle cx="873.94" cy="352.57" r="0.47" id="svg_209"/>
    <circle cx="876.86" cy="353.5" r="0.47" id="svg_210"/>
    <circle cx="882.11" cy="354.63" r="0.47" id="svg_211"/>
    <circle cx="887.64" cy="355.3" r="0.47" id="svg_212"/>
    <circle cx="893.37" cy="355.56" r="0.47" id="svg_213"/>
    <circle cx="901.59" cy="354.43" r="0.47" id="svg_214"/>
    <circle cx="898.87" cy="355.1" r="0.47" id="svg_215"/>
    <circle cx="906.68" cy="353.5" r="0.47" id="svg_216"/>
    <circle cx="904.23" cy="353.97" r="0.47" id="svg_217"/>
    <circle cx="909.37" cy="352.57" r="0.47" id="svg_218"/>
    <circle cx="879.54" cy="354.16" r="0.47" id="svg_219"/>
    <circle cx="884.96" cy="355.1" r="0.47" id="svg_220"/>
    <circle cx="890.83" cy="355.56" r="0.47" id="svg_221"/>
    <circle cx="896.17" cy="355.56" r="0.47" id="svg_222"/>
   </g>
   <g opacity="0.2" id="svg_223">
    <circle cx="871.57" cy="354.2" r="0.47" id="svg_224"/>
    <circle cx="873.94" cy="354.86" r="0.47" id="svg_225"/>
    <circle cx="876.86" cy="355.8" r="0.47" id="svg_226"/>
    <circle cx="882.11" cy="356.93" r="0.47" id="svg_227"/>
    <circle cx="887.64" cy="357.6" r="0.47" id="svg_228"/>
    <circle cx="893.37" cy="357.86" r="0.47" id="svg_229"/>
    <circle cx="901.59" cy="356.73" r="0.47" id="svg_230"/>
    <circle cx="898.87" cy="357.39" r="0.47" id="svg_231"/>
    <circle cx="906.68" cy="355.8" r="0.47" id="svg_232"/>
    <circle cx="904.23" cy="356.26" r="0.47" id="svg_233"/>
    <circle cx="909.37" cy="354.86" r="0.47" id="svg_234"/>
    <circle cx="879.54" cy="356.46" r="0.47" id="svg_235"/>
    <circle cx="884.96" cy="357.39" r="0.47" id="svg_236"/>
    <circle cx="890.83" cy="357.86" r="0.47" id="svg_237"/>
    <circle cx="896.17" cy="357.86" r="0.47" id="svg_238"/>
   </g>
   <g opacity="0.2" id="svg_239">
    <circle cx="871.57" cy="356.5" r="0.47" id="svg_240"/>
    <circle cx="873.94" cy="357.16" r="0.47" id="svg_241"/>
    <circle cx="876.86" cy="358.09" r="0.47" id="svg_242"/>
    <circle cx="882.11" cy="359.22" r="0.47" id="svg_243"/>
    <circle cx="887.64" cy="359.89" r="0.47" id="svg_244"/>
    <circle cx="893.37" cy="360.15" r="0.47" id="svg_245"/>
    <circle cx="901.59" cy="359.02" r="0.47" id="svg_246"/>
    <circle cx="898.87" cy="359.69" r="0.47" id="svg_247"/>
    <circle cx="906.68" cy="358.09" r="0.47" id="svg_248"/>
    <circle cx="904.23" cy="358.56" r="0.47" id="svg_249"/>
    <circle cx="909.37" cy="357.16" r="0.47" id="svg_250"/>
    <circle cx="879.54" cy="358.75" r="0.47" id="svg_251"/>
    <circle cx="884.96" cy="359.69" r="0.47" id="svg_252"/>
    <circle cx="890.83" cy="360.15" r="0.47" id="svg_253"/>
    <circle cx="896.17" cy="360.15" r="0.47" id="svg_254"/>
   </g>
   <g opacity="0.2" id="svg_255">
    <circle cx="871.57" cy="358.79" r="0.47" id="svg_256"/>
    <circle cx="873.94" cy="359.45" r="0.47" id="svg_257"/>
    <circle cx="876.86" cy="360.39" r="0.47" id="svg_258"/>
    <circle cx="882.11" cy="361.52" r="0.47" id="svg_259"/>
    <circle cx="887.64" cy="362.19" r="0.47" id="svg_260"/>
    <circle cx="893.37" cy="362.45" r="0.47" id="svg_261"/>
    <circle cx="901.59" cy="361.32" r="0.47" id="svg_262"/>
    <circle cx="898.87" cy="361.98" r="0.47" id="svg_263"/>
    <circle cx="906.68" cy="360.39" r="0.47" id="svg_264"/>
    <circle cx="904.23" cy="360.85" r="0.47" id="svg_265"/>
    <circle cx="909.37" cy="359.45" r="0.47" id="svg_266"/>
    <circle cx="879.54" cy="361.05" r="0.47" id="svg_267"/>
    <circle cx="884.96" cy="361.98" r="0.47" id="svg_268"/>
    <circle cx="890.83" cy="362.45" r="0.47" id="svg_269"/>
    <circle cx="896.17" cy="362.45" r="0.47" id="svg_270"/>
   </g>
   <g opacity="0.2" id="svg_271">
    <circle cx="871.57" cy="361.09" r="0.47" id="svg_272"/>
    <circle cx="873.94" cy="361.75" r="0.47" id="svg_273"/>
    <circle cx="876.86" cy="362.68" r="0.47" id="svg_274"/>
    <circle cx="882.11" cy="363.81" r="0.47" id="svg_275"/>
    <circle cx="887.64" cy="364.48" r="0.47" id="svg_276"/>
    <circle cx="893.37" cy="364.75" r="0.47" id="svg_277"/>
    <circle cx="901.59" cy="363.61" r="0.47" id="svg_278"/>
    <circle cx="898.87" cy="364.28" r="0.47" id="svg_279"/>
    <circle cx="906.68" cy="362.68" r="0.47" id="svg_280"/>
    <circle cx="904.23" cy="363.15" r="0.47" id="svg_281"/>
    <circle cx="909.37" cy="361.75" r="0.47" id="svg_282"/>
    <circle cx="879.54" cy="363.35" r="0.47" id="svg_283"/>
    <circle cx="884.96" cy="364.28" r="0.47" id="svg_284"/>
    <circle cx="890.83" cy="364.75" r="0.47" id="svg_285"/>
    <circle cx="896.17" cy="364.75" r="0.47" id="svg_286"/>
   </g>
   <g opacity="0.2" id="svg_287">
    <circle cx="871.57" cy="363.38" r="0.47" id="svg_288"/>
    <circle cx="873.94" cy="364.04" r="0.47" id="svg_289"/>
    <circle cx="876.86" cy="364.98" r="0.47" id="svg_290"/>
    <circle cx="882.11" cy="366.11" r="0.47" id="svg_291"/>
    <circle cx="887.64" cy="366.78" r="0.47" id="svg_292"/>
    <circle cx="893.37" cy="367.04" r="0.47" id="svg_293"/>
    <circle cx="901.59" cy="365.91" r="0.47" id="svg_294"/>
    <circle cx="898.87" cy="366.57" r="0.47" id="svg_295"/>
    <circle cx="906.68" cy="364.98" r="0.47" id="svg_296"/>
    <circle cx="904.23" cy="365.44" r="0.47" id="svg_297"/>
    <circle cx="909.37" cy="364.04" r="0.47" id="svg_298"/>
    <circle cx="879.54" cy="365.64" r="0.47" id="svg_299"/>
    <circle cx="884.96" cy="366.57" r="0.47" id="svg_300"/>
    <circle cx="890.83" cy="367.04" r="0.47" id="svg_301"/>
    <circle cx="896.17" cy="367.04" r="0.47" id="svg_302"/>
   </g>
   <g opacity="0.2" id="svg_303">
    <circle cx="871.57" cy="365.68" r="0.47" id="svg_304"/>
    <circle cx="873.94" cy="366.34" r="0.47" id="svg_305"/>
    <circle cx="876.86" cy="367.27" r="0.47" id="svg_306"/>
    <circle cx="882.11" cy="368.4" r="0.47" id="svg_307"/>
    <circle cx="887.64" cy="369.07" r="0.47" id="svg_308"/>
    <circle cx="893.37" cy="369.34" r="0.47" id="svg_309"/>
    <circle cx="901.59" cy="368.21" r="0.47" id="svg_310"/>
    <circle cx="898.87" cy="368.87" r="0.47" id="svg_311"/>
    <circle cx="906.68" cy="367.27" r="0.47" id="svg_312"/>
    <circle cx="904.23" cy="367.74" r="0.47" id="svg_313"/>
    <circle cx="909.37" cy="366.34" r="0.47" id="svg_314"/>
    <circle cx="879.54" cy="367.94" r="0.47" id="svg_315"/>
    <circle cx="884.96" cy="368.87" r="0.47" id="svg_316"/>
    <circle cx="890.83" cy="369.34" r="0.47" id="svg_317"/>
    <circle cx="896.17" cy="369.34" r="0.47" id="svg_318"/>
   </g>
   <g opacity="0.2" id="svg_319">
    <circle cx="871.57" cy="367.97" r="0.47" id="svg_320"/>
    <circle cx="873.94" cy="368.64" r="0.47" id="svg_321"/>
    <circle cx="876.86" cy="369.57" r="0.47" id="svg_322"/>
    <circle cx="882.11" cy="370.7" r="0.47" id="svg_323"/>
    <circle cx="887.64" cy="371.37" r="0.47" id="svg_324"/>
    <circle cx="893.37" cy="371.63" r="0.47" id="svg_325"/>
    <circle cx="901.59" cy="370.5" r="0.47" id="svg_326"/>
    <circle cx="898.87" cy="371.17" r="0.47" id="svg_327"/>
    <circle cx="906.68" cy="369.57" r="0.47" id="svg_328"/>
    <circle cx="904.23" cy="370.04" r="0.47" id="svg_329"/>
    <circle cx="909.37" cy="368.64" r="0.47" id="svg_330"/>
    <circle cx="879.54" cy="370.23" r="0.47" id="svg_331"/>
    <circle cx="884.96" cy="371.17" r="0.47" id="svg_332"/>
    <circle cx="890.83" cy="371.63" r="0.47" id="svg_333"/>
    <circle cx="896.17" cy="371.63" r="0.47" id="svg_334"/>
   </g>
   <g opacity="0.2" id="svg_335">
    <circle cx="871.57" cy="370.27" r="0.47" id="svg_336"/>
    <circle cx="873.94" cy="370.93" r="0.47" id="svg_337"/>
    <circle cx="876.86" cy="371.86" r="0.47" id="svg_338"/>
    <circle cx="882.11" cy="372.99" r="0.47" id="svg_339"/>
    <circle cx="887.64" cy="373.66" r="0.47" id="svg_340"/>
    <circle cx="893.37" cy="373.93" r="0.47" id="svg_341"/>
    <circle cx="901.59" cy="372.8" r="0.47" id="svg_342"/>
    <circle cx="898.87" cy="373.46" r="0.47" id="svg_343"/>
    <circle cx="906.68" cy="371.86" r="0.47" id="svg_344"/>
    <circle cx="904.23" cy="372.33" r="0.47" id="svg_345"/>
    <circle cx="909.37" cy="370.93" r="0.47" id="svg_346"/>
    <circle cx="879.54" cy="372.53" r="0.47" id="svg_347"/>
    <circle cx="884.96" cy="373.46" r="0.47" id="svg_348"/>
    <circle cx="890.83" cy="373.93" r="0.47" id="svg_349"/>
    <circle cx="896.17" cy="373.93" r="0.47" id="svg_350"/>
   </g>
   <g opacity="0.2" id="svg_351">
    <circle cx="871.57" cy="372.56" r="0.47" id="svg_352"/>
    <circle cx="873.94" cy="373.23" r="0.47" id="svg_353"/>
    <circle cx="876.86" cy="374.16" r="0.47" id="svg_354"/>
    <circle cx="882.11" cy="375.29" r="0.47" id="svg_355"/>
    <circle cx="887.64" cy="375.96" r="0.47" id="svg_356"/>
    <circle cx="893.37" cy="376.22" r="0.47" id="svg_357"/>
    <circle cx="901.59" cy="375.09" r="0.47" id="svg_358"/>
    <circle cx="898.87" cy="375.76" r="0.47" id="svg_359"/>
    <circle cx="906.68" cy="374.16" r="0.47" id="svg_360"/>
    <circle cx="904.23" cy="374.63" r="0.47" id="svg_361"/>
    <circle cx="909.37" cy="373.23" r="0.47" id="svg_362"/>
    <circle cx="879.54" cy="374.82" r="0.47" id="svg_363"/>
    <circle cx="884.96" cy="375.76" r="0.47" id="svg_364"/>
    <circle cx="890.83" cy="376.22" r="0.47" id="svg_365"/>
    <circle cx="896.17" cy="376.22" r="0.47" id="svg_366"/>
   </g>
   <g opacity="0.2" id="svg_367">
    <circle cx="871.57" cy="374.86" r="0.47" id="svg_368"/>
    <circle cx="873.94" cy="375.52" r="0.47" id="svg_369"/>
    <circle cx="876.86" cy="376.46" r="0.47" id="svg_370"/>
    <circle cx="882.11" cy="377.59" r="0.47" id="svg_371"/>
    <circle cx="887.64" cy="378.26" r="0.47" id="svg_372"/>
    <circle cx="893.37" cy="378.52" r="0.47" id="svg_373"/>
    <circle cx="901.59" cy="377.39" r="0.47" id="svg_374"/>
    <circle cx="898.87" cy="378.05" r="0.47" id="svg_375"/>
    <circle cx="906.68" cy="376.46" r="0.47" id="svg_376"/>
    <circle cx="904.23" cy="376.92" r="0.47" id="svg_377"/>
    <circle cx="909.37" cy="375.52" r="0.47" id="svg_378"/>
    <circle cx="879.54" cy="377.12" r="0.47" id="svg_379"/>
    <circle cx="884.96" cy="378.05" r="0.47" id="svg_380"/>
    <circle cx="890.83" cy="378.52" r="0.47" id="svg_381"/>
    <circle cx="896.17" cy="378.52" r="0.47" id="svg_382"/>
   </g>
   <g opacity="0.2" id="svg_383">
    <circle cx="871.57" cy="377.16" r="0.47" id="svg_384"/>
    <circle cx="873.94" cy="377.82" r="0.47" id="svg_385"/>
    <circle cx="876.86" cy="378.75" r="0.47" id="svg_386"/>
    <circle cx="882.11" cy="379.88" r="0.47" id="svg_387"/>
    <circle cx="887.64" cy="380.55" r="0.47" id="svg_388"/>
    <circle cx="893.37" cy="380.81" r="0.47" id="svg_389"/>
    <circle cx="901.59" cy="379.68" r="0.47" id="svg_390"/>
    <circle cx="898.87" cy="380.35" r="0.47" id="svg_391"/>
    <circle cx="906.68" cy="378.75" r="0.47" id="svg_392"/>
    <circle cx="904.23" cy="379.22" r="0.47" id="svg_393"/>
    <circle cx="909.37" cy="377.82" r="0.47" id="svg_394"/>
    <circle cx="879.54" cy="379.41" r="0.47" id="svg_395"/>
    <circle cx="884.96" cy="380.35" r="0.47" id="svg_396"/>
    <circle cx="890.83" cy="380.81" r="0.47" id="svg_397"/>
    <circle cx="896.17" cy="380.81" r="0.47" id="svg_398"/>
   </g>
   <g opacity="0.2" id="svg_399">
    <circle cx="871.57" cy="379.45" r="0.47" id="svg_400"/>
    <circle cx="873.94" cy="380.11" r="0.47" id="svg_401"/>
    <circle cx="876.86" cy="381.05" r="0.47" id="svg_402"/>
    <circle cx="882.11" cy="382.18" r="0.47" id="svg_403"/>
    <circle cx="887.64" cy="382.85" r="0.47" id="svg_404"/>
    <circle cx="893.37" cy="383.11" r="0.47" id="svg_405"/>
    <circle cx="901.59" cy="381.98" r="0.47" id="svg_406"/>
    <circle cx="898.87" cy="382.64" r="0.47" id="svg_407"/>
    <circle cx="906.68" cy="381.05" r="0.47" id="svg_408"/>
    <circle cx="904.23" cy="381.51" r="0.47" id="svg_409"/>
    <circle cx="909.37" cy="380.11" r="0.47" id="svg_410"/>
    <circle cx="879.54" cy="381.71" r="0.47" id="svg_411"/>
    <circle cx="884.96" cy="382.64" r="0.47" id="svg_412"/>
    <circle cx="890.83" cy="383.11" r="0.47" id="svg_413"/>
    <circle cx="896.17" cy="383.11" r="0.47" id="svg_414"/>
   </g>
   <g opacity="0.2" id="svg_415">
    <circle cx="871.57" cy="381.75" r="0.47" id="svg_416"/>
    <circle cx="873.94" cy="382.41" r="0.47" id="svg_417"/>
    <circle cx="876.86" cy="383.34" r="0.47" id="svg_418"/>
    <circle cx="882.11" cy="384.47" r="0.47" id="svg_419"/>
    <circle cx="887.64" cy="385.14" r="0.47" id="svg_420"/>
    <circle cx="893.37" cy="385.4" r="0.47" id="svg_421"/>
    <circle cx="901.59" cy="384.27" r="0.47" id="svg_422"/>
    <circle cx="898.87" cy="384.94" r="0.47" id="svg_423"/>
    <circle cx="906.68" cy="383.34" r="0.47" id="svg_424"/>
    <circle cx="904.23" cy="383.81" r="0.47" id="svg_425"/>
    <circle cx="909.37" cy="382.41" r="0.47" id="svg_426"/>
    <circle cx="879.54" cy="384.01" r="0.47" id="svg_427"/>
    <circle cx="884.96" cy="384.94" r="0.47" id="svg_428"/>
    <circle cx="890.83" cy="385.4" r="0.47" id="svg_429"/>
    <circle cx="896.17" cy="385.4" r="0.47" id="svg_430"/>
   </g>
   <path d="m945.75,226.7s13.69,-5.12 18.24,5.43l1.28,0.33l2.87,0.74c7.25,-10.83 26.34,0 26.34,0l26.8,11.85l-1,1.67l-26.86,-9.37s-3.55,11 -8.21,13.65s-12.23,-1.47 -12.23,-1.47c-4.72,-1.89 -5.08,-10.18 -5,-14.18l-4.06,-0.81c-0.28,4 -1.76,11.71 -9,12.58c-9.85,1.18 -10.54,-7.51 -10.54,-7.51s-0.25,-11.06 1.37,-12.91z" fill="#3f3d56" id="svg_431"/>
   <path d="m955.52,226.8c-0.45,1 -1.08,2.41 -0.17,3.06a1.69,1.69 0 0 0 1.36,0.16c2.89,-0.63 4.42,-3.71 5.63,-6.41s3,-5.72 6,-6c3.47,-0.29 7.1,3.49 10,1.51c0.88,-0.6 1.41,-1.66 2.39,-2.1a3.89,3.89 0 0 1 2.22,-0.14a15.58,15.58 0 0 1 12.73,13.34c0.15,1.4 0.44,3.22 1.83,3.44a5.91,5.91 0 0 0 1.55,-0.18c2.62,-0.3 4.22,2.72 5.06,5.22c1.14,3.41 2.29,7 1.63,10.55c-0.52,2.79 -2.16,5.35 -2.25,8.19c-0.08,2.34 0.91,4.57 1.88,6.7s2.55,4.63 4.87,4.33c1.9,-0.25 2.95,-2.27 3.87,-4s2.56,-3.51 4.41,-3c0.82,0.24 1.68,0.94 2.43,0.51a1.75,1.75 0 0 0 0.71,-1.22c0.9,-3.94 -0.39,-8.36 1.52,-11.91c1.47,-2.73 4.46,-4.21 6.89,-6.15a19.7,19.7 0 0 0 2.66,-28.22c-2.59,-3 -6.33,-5.73 -6.54,-9.72c-0.16,-3 1.9,-5.84 1.92,-8.88s-1.88,-5.61 -4,-7.63a26.23,26.23 0 0 0 -23.58,-6.21c-2.18,0.52 -4.37,1.34 -6.6,1.06c-2.58,-0.32 -4.74,-2 -7.06,-3.22c-7.62,-3.85 -17.93,-1.05 -22.54,6.13c-2.67,4.15 -3.71,9.57 -7.69,12.48c-2.62,1.91 -6.36,2.62 -7.81,5.52c-0.87,1.74 -0.62,3.8 -0.36,5.73a13.42,13.42 0 0 0 4.28,8.19c2.28,2.58 4.36,5.2 2.76,8.87z" fill="#464353" id="svg_432"/>
   <g opacity="0.1" id="svg_433">
    <path d="m1027.33,199.42a14.89,14.89 0 0 0 0.6,-2.34a13.86,13.86 0 0 0 -0.6,2.34z" id="svg_434"/>
    <path d="m956.06,224.36a8.41,8.41 0 0 1 0.56,-1.5c1.62,-3.67 -0.46,-6.29 -2.88,-8.76a13.42,13.42 0 0 1 -4.28,-8.19a20.75,20.75 0 0 1 -0.24,-2.61a5.76,5.76 0 0 0 -0.53,0.82c-0.87,1.74 -0.62,3.8 -0.36,5.73a13.42,13.42 0 0 0 4.28,8.19c1.85,1.86 3.5,3.86 3.45,6.32z" id="svg_435"/>
    <path d="m1019.52,257.64c-1.85,-0.54 -3.49,1.28 -4.4,3s-2,3.71 -3.88,4c-2.31,0.3 -3.9,-2.2 -4.87,-4.33s-2,-4.36 -1.88,-6.7c0,-0.28 0,-0.56 0.08,-0.83a15.42,15.42 0 0 0 -1.2,4.77c-0.08,2.34 0.91,4.57 1.88,6.7s2.55,4.63 4.87,4.33c1.9,-0.25 2.95,-2.27 3.87,-4s2.56,-3.51 4.41,-3c0.82,0.24 1.68,0.94 2.43,0.51a1.75,1.75 0 0 0 0.71,-1.22a15,15 0 0 0 0.33,-2.68c-0.7,0.32 -1.52,-0.29 -2.35,-0.55z" id="svg_436"/>
    <path d="m1031.1,238.9c-2.42,1.94 -5.41,3.42 -6.89,6.15a9.93,9.93 0 0 0 -1,3.81c1.5,-2.65 4.42,-4.11 6.81,-6a20,20 0 0 0 7.1,-12a20,20 0 0 1 -6.02,8.04z" id="svg_437"/>
    <path d="m1005.71,248.82a22.77,22.77 0 0 0 1.07,-3.47c0.66,-3.54 -0.5,-7.14 -1.64,-10.55c-0.83,-2.5 -2.44,-5.52 -5,-5.22a5.94,5.94 0 0 1 -1.56,0.18c-1.39,-0.22 -1.68,-2 -1.82,-3.44a15.59,15.59 0 0 0 -12.73,-13.34a3.92,3.92 0 0 0 -2.23,0.14c-1,0.44 -1.51,1.5 -2.38,2.1c-2.87,2 -6.5,-1.8 -10,-1.51c-2.94,0.24 -4.75,3.26 -6,6s-2.74,5.78 -5.63,6.41a1.69,1.69 0 0 1 -1.36,-0.16a1.08,1.08 0 0 1 -0.45,-0.84a6.41,6.41 0 0 1 -0.51,1.72c-0.45,1 -1.08,2.41 -0.17,3.06a1.69,1.69 0 0 0 1.36,0.16c2.89,-0.63 4.42,-3.71 5.63,-6.41s3,-5.72 6,-6c3.47,-0.29 7.1,3.49 10,1.51c0.88,-0.6 1.41,-1.66 2.39,-2.1a3.89,3.89 0 0 1 2.22,-0.14a15.58,15.58 0 0 1 12.73,13.34c0.15,1.4 0.44,3.22 1.83,3.44a5.91,5.91 0 0 0 1.55,-0.18c2.62,-0.3 4.22,2.72 5.06,5.22c1.04,3.26 2.12,6.69 1.64,10.08z" id="svg_438"/>
   </g>
  </g>
  <g opacity="0.9" id="svg_439">
   <path d="m0.03,206.81c0,0.93 0,1.86 0.07,2.8a195.83,195.83 0 0 0 3.52,30.36c5.73,29.8 17.7,59.6 31.86,88c0.23,0.45 0.46,0.9 0.68,1.35c0.34,0.67 0.67,1.34 1,2q1,2.06 2.08,4.08l1.57,3l0,0c0.37,0.72 0.76,1.44 1.14,2.17c0.23,0.44 0.47,0.89 0.72,1.34a249.56,249.56 0 0 0 12.85,21.76l0.53,0.78a135.11,135.11 0 0 0 20.36,24c13.54,12.45 30.74,21.45 49.11,26.59c0.62,0.18 1.24,0.34 1.87,0.51c1.2,0.31 2.42,0.61 3.64,0.9c0.84,0.2 1.68,0.39 2.53,0.56a132.78,132.78 0 0 0 17.77,2.57c3.24,0.25 6.49,0.37 9.72,0.37l1.4,0a118.48,118.48 0 0 0 11.95,-0.7l0.57,-0.07a103.62,103.62 0 0 0 31.16,-8.39q2.37,-1.06 4.65,-2.25l0.78,-0.4l0.38,-0.21l0,0a126.18,126.18 0 0 0 14.66,-9.17c5.45,-3.91 10.59,-8.15 15.56,-12.51a239.41,239.41 0 0 0 21,-20.68l0.3,-0.33q4.23,-4.77 8.07,-9.8l0,-0.06q2.67,-3.51 5.12,-7.15c0.08,-0.1 0.15,-0.21 0.23,-0.33c2.39,-3.57 4.61,-7.23 6.63,-11l0.46,-0.87q2.19,-4.14 4,-8.42c6.92,-16.08 10,-33.49 11.69,-50.94c3.45,-35.26 1.44,-71.59 -7.89,-106.86q-1.89,-7.16 -4.19,-14.25c-0.21,-0.63 -0.41,-1.27 -0.63,-1.9c-0.33,-1 -0.68,-2 -1,-3.05c-0.14,-0.42 -0.29,-0.85 -0.44,-1.27q-2,-5.76 -4.33,-11.45l-0.81,-2c-0.85,-2 -1.72,-4.09 -2.63,-6.12c-0.83,-1.87 -1.69,-3.75 -2.59,-5.61c-0.15,-0.3 -0.29,-0.59 -0.43,-0.89c-7.7,-15.81 -17.8,-31.18 -32.16,-42.77c-1,-0.79 -2,-1.56 -3,-2.31q-2.25,-1.68 -4.65,-3.22l-1.13,-0.72l-0.42,-0.26l-0.3,-0.18l-0.17,-0.1c-0.81,-0.49 -1.64,-1 -2.47,-1.42s-1.7,-0.9 -2.56,-1.33l0,0l-0.12,0l-0.34,-0.16c-0.67,-0.34 -1.35,-0.66 -2,-1l-0.7,-0.31l-0.27,-0.12l-1.13,-0.47a79,79 0 0 0 -15.94,-4.77a73.63,73.63 0 0 0 -9.16,-1.12a60.65,60.65 0 0 0 -13.93,0.75c-0.7,0.12 -1.39,0.25 -2.08,0.4a42.47,42.47 0 0 0 -16.15,7c-6.29,4.56 -10.73,10.67 -14.76,17l-0.41,0.64c-0.68,1.07 -1.34,2.14 -2,3.21c-2.31,3.74 -4.62,7.5 -7.06,11.19c-2.26,3.42 -4.63,6.78 -7.19,10a85.19,85.19 0 0 1 -8.4,9.14c-0.45,0.42 -0.91,0.84 -1.38,1.25a62.47,62.47 0 0 1 -18.91,11.57c-6.28,2.35 -13,3.41 -19.53,2.05l0,0a26.09,26.09 0 0 1 -5.38,-1.72c-3.26,-1.44 -6.45,-2.85 -9.59,-4.1a71,71 0 0 0 -17.53,-5l0,0a39,39 0 0 0 -18.49,2c-1,0.35 -1.95,0.75 -2.94,1.19a41.76,41.76 0 0 0 -11.82,7.91c-0.41,0.39 -0.81,0.79 -1.21,1.19c-8.75,8.94 -13.57,21.31 -16.16,33.41a152,152 0 0 0 -3.25,34.72z" fill="#007bff" opacity="0.1" id="svg_440"/>
   <path d="m127.52,412.72l-2,2.32c0.62,0.18 1.24,0.34 1.87,0.51c1.2,0.31 2.42,0.61 3.64,0.9c0.84,0.2 1.68,0.39 2.53,0.56a132.78,132.78 0 0 0 17.77,2.57c3.24,0.25 6.49,0.37 9.72,0.37a15.28,15.28 0 0 0 1.62,-2.89c1.32,-3.09 6.47,-8.57 12,-13.84c-0.11,0.89 -0.18,1.4 -0.18,1.4l0,0.35l-0.06,14.27l0.57,-0.07a103.62,103.62 0 0 0 31.16,-8.39q2.37,-1.06 4.65,-2.25l0.78,-0.4l0.38,-0.21c0.69,-3.44 1.32,-6.74 1.83,-9.37l0.06,-0.37c0.07,-0.35 0.13,-0.7 0.2,-1s0.11,-0.62 0.17,-0.9s0.07,-0.41 0.11,-0.6c0.34,-1.81 0.53,-2.89 0.53,-2.89a14.11,14.11 0 0 1 0.18,-1.64a0,0 0 0 1 0,0a14.44,14.44 0 0 1 3.87,-8.1a7.59,7.59 0 0 0 1.86,-3.21l0,0c1.1,-3.4 0.91,-7.84 0.75,-9.86c-0.05,-0.67 -0.11,-1.07 -0.11,-1.07s3.81,-2 6.06,-8.21a24.53,24.53 0 0 0 1.09,-4c1.63,-8.79 6.66,-27.33 7.28,-29.61l0,0l0.06,-0.22s0.13,-0.32 0.36,-0.93c0,-0.07 0.05,-0.14 0.07,-0.22l0.09,-0.23a0.08,0.08 0 0 1 0,0c2.26,-6.19 11,-31.28 10.29,-47.94c-0.77,-19.13 1.16,-29.09 1.16,-29.09l2.26,-41.58l0,-0.44l0.13,-2.43l0,-0.69c0.33,0.25 0.63,0.49 0.87,0.69l0.55,0.46l0.19,0.18s0,-0.18 0,-0.48c0.35,0.29 0.55,0.48 0.55,0.48s1,-16.15 0.9,-25.28c0,-1.07 0,-2.06 -0.08,-2.9c6.76,-2.29 17,-6.07 17.63,-8c0.49,-1.59 4.29,-5.09 7.56,-7.89l1.79,-1.5l0.93,-0.77c1.3,-1.06 2.19,-1.75 2.19,-1.75a2,2 0 0 1 -0.71,-0.27c0.36,-0.16 0.75,-0.35 1.15,-0.57c1,-0.52 2,-1.16 3.16,-1.91c4.81,-3.17 10.68,-8.17 13.95,-13c1.82,-2.71 2.83,-5.38 2.39,-7.65a4.28,4.28 0 0 0 -0.16,-0.64l13.82,-19.87l1.61,-2.32a3.78,3.78 0 0 0 -0.34,-4.74l0.06,-0.08l-0.1,-0.07l-0.6,-0.4l0.11,0.1a2,2 0 0 0 -2.6,0.56l-0.24,0.35l-13.33,19.12l-2.35,3.39c-5.2,-1.57 -12.77,2.85 -18.74,7.35c-2.16,1.63 -4.12,3.26 -5.67,4.63l-1,0.91c-0.47,-1 -0.74,-1.7 -0.74,-1.7c-0.29,3.16 -11.45,7.9 -14.05,9.62a9.51,9.51 0 0 1 -3.89,1.31c0.37,-12 -8.92,-24.65 -8.92,-24.65l-18,-22.95l0,0l-1.11,-1.41l-3.56,-4.53a20.85,20.85 0 0 1 -0.32,-4.28a26.53,26.53 0 0 1 1,-6.94c0.11,-0.36 0.23,-0.73 0.35,-1.1a23.61,23.61 0 0 1 1.25,-3c0.19,-0.37 0.38,-0.75 0.59,-1.12l0.1,0c-0.39,1.38 -0.8,2.77 -1.08,4.16c-0.08,0.38 -0.15,0.75 -0.2,1.13l-0.06,0.47a15.22,15.22 0 0 0 -0.08,1.79c0,0.07 0,0.16 0,0.26c0.18,2.41 1.95,11.15 4.37,10.76a1.42,1.42 0 0 0 1.3,-0.63a6.22,6.22 0 0 0 0.72,-1a6.52,6.52 0 0 0 0.41,-0.84a9.41,9.41 0 0 0 0.41,-1.2a24.16,24.16 0 0 0 0.57,-7a20.2,20.2 0 0 1 -0.36,3.26c0.13,-2.53 -0.08,-5.19 -0.16,-7.35c0,-0.47 0,-0.93 0,-1.35s0,-0.91 0,-1.37l0,0c0,-0.46 0,-0.92 0.05,-1.39l0.09,0l0.19,0c0,0.35 0,0.73 0,1.12c0,-0.37 0,-0.75 0,-1.13l0.11,0l0.18,0a30,30 0 0 0 6.63,-2a30.5,30.5 0 0 0 7.24,-4.41a7.59,7.59 0 0 0 1.42,-0.2a7.49,7.49 0 0 0 3.59,-2l0.2,-0.22a5.06,5.06 0 0 1 -0.86,4.58a0.76,0.76 0 0 1 -0.11,0.14l0.14,0c2.87,-0.2 5.32,-2.39 6.51,-5a1.59,1.59 0 0 0 0.12,-0.27a18.31,18.31 0 0 0 0.87,-8.89a60.09,60.09 0 0 1 -0.65,-9c0,-0.73 0.13,-1.46 0.2,-2.19c0,-0.09 0,-0.17 0,-0.26a14.19,14.19 0 0 0 0,-2.44a1.11,1.11 0 0 0 0,-0.17a9.45,9.45 0 0 0 -0.24,-1.31l0.09,0a2.14,2.14 0 0 0 1.65,-0.85l0.18,-0.15a3.47,3.47 0 0 0 0.58,-0.68a5.23,5.23 0 0 0 0.55,-1a16.87,16.87 0 0 0 0.69,-2.45a37.44,37.44 0 0 0 1.17,-10.29c-0.07,1 -0.2,2.1 -0.36,3.15c0.28,-4 -0.28,-7.84 -2.91,-10.72c-1.8,-2 -4.33,-3.15 -6.77,-4.3a5.08,5.08 0 0 1 -2.19,-1.56a6.45,6.45 0 0 1 -0.68,-2.74c-0.85,-5.82 -6.32,-9.85 -11.76,-12.21c-7,-3 -15.43,-4.35 -22.16,-0.73c-3.27,1.75 -5.85,4.51 -8.8,6.76c-3.74,2.83 -8,4.82 -12,7.3s-7.82,5.62 -9.74,9.84s-1.62,9.2 -1.09,14c0.27,2.44 0.6,4.88 0.73,7.28c0,0.2 0,0.4 0,0.59a37.55,37.55 0 0 1 -3,16.1a31.54,31.54 0 0 1 -10.33,13.19a11.66,11.66 0 0 0 -2.92,2.53a3.15,3.15 0 0 0 -0.24,3.61a3.91,3.91 0 0 0 0.81,0.76a6.44,6.44 0 0 1 0.93,0.8a2.8,2.8 0 0 1 0.52,0.88a5.3,5.3 0 0 1 0.08,2.91c0,0.09 0,0.18 -0.05,0.26l-0.12,0.5a28.45,28.45 0 0 1 -7.74,13.09c0.16,1.18 1.6,1.64 2.79,1.82l0,0a64.8,64.8 0 0 0 9.45,0.68l1.36,0c-0.15,0.36 -0.29,0.73 -0.44,1.12c0,0 0,0 0,0c-0.32,0.85 -0.67,1.8 -1,2.8l0,0c-1.44,4.25 -2.78,9.45 -2.18,12.89c1.16,6.7 4.63,37.31 2.9,42.67s2.7,44.58 2.7,44.58s0.12,0.61 0.35,1.68c0.28,1.32 0.73,3.34 1.31,5.81c0,0.1 -0.08,0.21 -0.13,0.31c-2.7,6.35 -5.74,13.3 -7.28,16.12c-2.07,3.79 -2.1,17.83 1.23,30.68c1.71,6.62 4.32,12.92 8,17.34c0,0 3.78,5.33 3.49,8a1.84,1.84 0 0 1 -0.19,0.64c-0.82,1.6 -0.4,4.05 -0.07,5.37c0.14,0.58 0.27,0.94 0.27,0.94l0,1l1.67,36.93a97.58,97.58 0 0 1 -0.8,11.57c-4.61,5.71 -11.72,14 -15.08,15.4c-5.18,2.11 -43.82,49 -43.82,49s0.31,0.56 0.91,1.48l-1.02,1.27z" fill="url(#a631a87a-781e-44c6-95a9-52fd0c67a2fa)" id="svg_441"/>
   <path d="m282.28,159.02a10,10 0 0 1 -3.7,1.4c-4.83,0.15 -8.81,-12.93 -8.81,-12.93s1.38,-1.39 3.57,-3.34c6.47,-5.76 20.05,-16.39 26.42,-10.44c7.14,6.67 -9.16,20.81 -17.48,25.31z" fill="#a1616a" id="svg_442"/>
   <path d="m133.52,417.01a132.78,132.78 0 0 0 17.77,2.57c-2.53,-4.47 -19,-9.78 -19,-9.78l-2.23,2.6l-1.06,1.25l-1.62,1.9c1.2,0.31 2.42,0.61 3.64,0.9c0.82,0.2 1.66,0.39 2.5,0.56z" fill="#a1616a" id="svg_443"/>
   <path d="m282.28,159.02a10,10 0 0 1 -3.7,1.4c-4.83,0.15 -8.81,-12.93 -8.81,-12.93s1.38,-1.39 3.57,-3.34c1.54,3.56 5.9,13.1 8.94,14.87z" opacity="0.1" id="svg_444"/>
   <path d="m251.3,154.31s4,0.29 6.54,-1.42s13.5,-6.39 13.78,-9.52c0,0 6.54,15.92 10.23,16.49c0,0 -11.37,8.95 -12.22,11.79s-23,9.8 -23,9.8l4.67,-27.14z" fill="#ff748e" id="svg_445"/>
   <path d="m251.3,154.31s4,0.29 6.54,-1.42s13.5,-6.39 13.78,-9.52c0,0 6.54,15.92 10.23,16.49c0,0 -11.37,8.95 -12.22,11.79s-23,9.8 -23,9.8l4.67,-27.14z" fill="#5e5a6b" id="svg_446"/>
   <path d="m128.98,413.65c0.49,0.75 1.16,1.71 2,2.8c0.84,0.2 1.68,0.39 2.53,0.56a132.78,132.78 0 0 0 17.77,2.57c-2.53,-4.47 -19,-9.78 -19,-9.78l-2.23,2.6l-1.07,1.25z" opacity="0.1" id="svg_447"/>
   <path d="m129.15,410.9s0.3,0.56 0.89,1.47a42.53,42.53 0 0 0 3.49,4.61a132.78,132.78 0 0 0 17.77,2.57c3.24,0.25 6.49,0.37 9.72,0.37l1.4,0a14.32,14.32 0 0 0 1,-2c1.23,-2.92 5.89,-8 11,-13c0.24,-0.25 0.5,-0.49 0.74,-0.73c7.29,-7.07 15.17,-13.76 15.17,-13.76l0.76,-48.69s-1.73,2.31 -4.19,5.39c-4.52,5.65 -11.51,13.9 -14.79,15.25c-5.07,2.14 -42.96,48.52 -42.96,48.52z" fill="#5e5a6b" id="svg_448"/>
   <path d="m129.15,410.9s0.3,0.56 0.89,1.47a42.53,42.53 0 0 0 3.49,4.61a132.78,132.78 0 0 0 17.77,2.57c3.24,0.25 6.49,0.37 9.72,0.37l1.4,0a14.32,14.32 0 0 0 1,-2c1.23,-2.92 5.89,-8 11,-13c0.24,-0.25 0.5,-0.49 0.74,-0.73c7.29,-7.07 15.17,-13.76 15.17,-13.76l0.76,-48.69s-1.73,2.31 -4.19,5.39c-4.52,5.65 -11.51,13.9 -14.79,15.25c-5.07,2.14 -42.96,48.52 -42.96,48.52z" opacity="0.1" id="svg_449"/>
   <path d="m148.99,403.97a60.35,60.35 0 0 0 12.65,0c7.53,-0.71 1.88,3.84 -12.65,0z" opacity="0.1" id="svg_450"/>
   <path d="m145.58,408.81s9.95,5.68 13.79,2.84s-3.7,2.74 -13.79,-2.84z" opacity="0.1" id="svg_451"/>
   <path d="m185.65,289.18a3.9,3.9 0 0 1 0.16,2.78a6.22,6.22 0 0 0 -0.42,3.23a14,14 0 0 0 0.31,1.9c0.16,0.67 0.31,1.12 0.31,1.12l1.68,37.51a98.12,98.12 0 0 1 -0.78,11.46c-0.54,4 -1.46,8.11 -3,10.52c-3.39,5.2 -7.82,39.2 -8.74,46.54l-0.17,1.39l-0.06,13.54a103.62,103.62 0 0 0 31.16,-8.39q2.37,-1.06 4.65,-2.25l0.78,-0.4l0.38,-0.21l0,0c0.69,-3.52 1.32,-6.83 1.79,-9.35l0.06,-0.37c0.07,-0.36 0.14,-0.7 0.2,-1s0.11,-0.62 0.17,-0.9s0.07,-0.41 0.11,-0.6c0.2,-1.12 0.32,-1.76 0.32,-1.76a17.25,17.25 0 0 1 0.39,-2.77a0,0 0 0 1 0,0a13.64,13.64 0 0 1 3.57,-6.88a8.61,8.61 0 0 0 2.16,-4.43l0,0a32.78,32.78 0 0 0 0.29,-9.57a5.19,5.19 0 0 0 0.55,-0.39c1.16,-0.82 4.27,-3.46 5.95,-9.28a23.92,23.92 0 0 0 0.6,-2.55c1.71,-9.28 7.2,-29.56 7.2,-29.56s0.21,-0.55 0.57,-1.54l0,0c0.13,-0.33 0.27,-0.72 0.42,-1.15c0,-0.07 0.05,-0.14 0.07,-0.22l0.09,-0.23a0.08,0.08 0 0 1 0,0c2.87,-8.21 10.06,-30.49 9.46,-45.68c-0.77,-18.94 1.13,-28.8 1.13,-28.8l2.37,-44l0,-0.69l0,-0.41l0.22,-4.14l-21.8,-0.65l-1.27,0l-5.18,-0.16l-0.16,0l-0.56,0l-7,-0.21l-3.13,-0.09l-5.64,-0.17l-0.91,0l-1.15,0l-4.35,-0.13l-12.68,7.39s-0.49,1.23 -1.3,3.18c-0.17,0.44 -0.37,0.93 -0.59,1.44s-0.43,1.07 -0.68,1.66l-1.8,4.32c-0.21,0.51 -0.42,1 -0.64,1.54c-2.68,6.38 -5.73,13.44 -7.27,16.27c-1.91,3.52 -2,16 0.63,28c1.65,7.41 4.37,14.66 8.41,19.57a28,28 0 0 1 3.12,5.57z" fill="#5e5a6b" id="svg_452"/>
   <path d="m199.86,390.33s7.77,6.13 11,6.11s-11,-6.11 -11,-6.11z" opacity="0.1" id="svg_453"/>
   <path d="m246.61,133.9l0,12.51l-8.26,-3.56l-8.22,-3.55l-17.9,-17.62s-14.17,-9.21 -21.75,-17.59c-4.33,-4.79 -6.51,-9.3 -2.69,-11.68a23.68,23.68 0 0 0 4.95,-4.35a80.91,80.91 0 0 0 9.88,-14.58c0.12,-0.21 0.24,-0.42 0.35,-0.63c3.69,-6.77 6.13,-12.55 6.13,-12.55s10.38,3.33 17.06,8c0.54,0.37 1.05,0.76 1.54,1.16c3.73,3.06 5.57,6.59 2.15,10.12a26.72,26.72 0 0 0 -2.45,2.92l0,0a21.67,21.67 0 0 0 -1.52,2.39c-0.21,0.37 -0.4,0.74 -0.58,1.11a25.55,25.55 0 0 0 -2.28,15.17l23.59,32.73z" fill="#a1616a" id="svg_454"/>
   <path d="m245.1,44.6c0.43,0.74 1,1.39 1.43,2.15c0.84,1.6 0.7,3.5 0.62,5.31a30.37,30.37 0 0 0 0.55,8.46c0.59,2.49 1.68,4.9 1.77,7.46c0.13,3.62 -1.75,7 -3.57,10.09a7.28,7.28 0 0 0 5.2,-2.42a5,5 0 0 1 -1,4.67c3,-0.14 5.51,-2.48 6.65,-5.23a18.39,18.39 0 0 0 0.85,-8.79a59,59 0 0 1 -0.64,-8.89a34.28,34.28 0 0 0 0.26,-4.85c-0.28,-3.22 -2.26,-6 -4.16,-8.62l-3.85,-5.27a2.7,2.7 0 0 0 -1.06,-1c-3.63,-1.55 -4.07,5.15 -3.05,6.93z" fill="#464353" id="svg_455"/>
   <path d="m229.85,79.57a26.72,26.72 0 0 0 -2.45,2.92l0,0a21.67,21.67 0 0 0 -1.52,2.39c-0.21,0.37 -0.4,0.74 -0.58,1.11a29.58,29.58 0 0 1 -14.19,-4.51a29.93,29.93 0 0 1 -8.14,-7.58c-0.12,-0.16 -0.24,-0.33 -0.35,-0.5c0.12,-0.21 0.24,-0.42 0.35,-0.63c3.69,-6.77 6.13,-12.55 6.13,-12.55s10.38,3.33 17.06,8c0.54,0.37 1.05,0.76 1.54,1.16c3.73,3.13 5.57,6.66 2.15,10.19z" opacity="0.1" id="svg_456"/>
   <path d="m256.82,55.07a29.86,29.86 0 0 1 -24.43,29.36a31.1,31.1 0 0 1 -5.41,0.48l-0.13,0c-0.32,0 -0.65,0 -1,0a29.58,29.58 0 0 1 -14.77,-4.54a30,30 0 0 1 -8.14,-7.55a29.82,29.82 0 1 1 53.88,-17.75z" fill="#a1616a" id="svg_457"/>
   <path d="m230.89,128.83s15,8.48 11.18,1.33l-19.61,-29l0,0l22.26,28.61s14.21,19.51 6.44,33c0,0 -1.14,11.18 0.19,13.83s-0.38,30.89 -0.38,30.89s-5.3,-4.93 -8.15,-4s-22.92,2.65 -22.92,2.65l10.99,-77.31z" opacity="0.1" id="svg_458"/>
   <path d="m249.64,201.59l-0.28,5.24c-1.8,-1.31 -4.3,-2.77 -6,-2.22c-2.84,0.95 -22.92,2.66 -22.92,2.66l0.92,-6.52l28.28,0.84z" opacity="0.1" id="svg_459"/>
   <path d="m231.46,128.83s15,8.48 11.17,1.33l-19.61,-29l0,0l22.27,28.61s14.21,19.51 6.44,33c0,0 -1.14,11.18 0.19,13.83s-0.38,30.89 -0.38,30.89s-5.31,-4.93 -8.15,-4s-22.87,2.64 -22.87,2.64l10.94,-77.3z" fill="#464353" id="svg_460"/>
   <path d="m239.52,143.37c-0.88,9.1 -4.63,19.94 -4.63,19.94s-2.64,26.91 -6,34.87s-1.9,18.94 -3.8,39.21c-0.68,7.3 -3,12.31 -6.2,15.7c-5.22,5.57 -12.67,6.73 -18.55,6.38c-0.48,0 -0.94,-0.06 -1.39,-0.1c-9.48,-1 -18.57,-46.61 -18.57,-46.61s-4.35,-38.84 -2.65,-44.14s-1.7,-35.62 -2.84,-42.25c-0.72,-4.2 1.45,-11.07 3.13,-15.54c1,-2.58 1.79,-4.36 1.79,-4.36s3.22,-10.23 8.53,-15.53a7.77,7.77 0 0 1 5.62,-2.36a13.93,13.93 0 0 1 7,2.2l0.24,0.16s34.49,35.24 37.7,43.38c0.84,2.28 0.93,5.58 0.62,9.05z" opacity="0.1" id="svg_461"/>
   <path d="m238.35,142.8c-0.88,9.1 -4.62,19.94 -4.62,19.94s-2.65,26.91 -6.06,34.87s-1.9,18.94 -3.79,39.22c-0.68,7.29 -3,12.31 -6.21,15.69c-5.22,5.57 -12.66,6.73 -18.55,6.39l-1.39,-0.11c-9.47,-0.94 -18.57,-46.61 -18.57,-46.61s-4.35,-38.84 -2.65,-44.14s-1.7,-35.62 -2.84,-42.25c-0.72,-4.2 1.45,-11.07 3.13,-15.54c1,-2.58 1.79,-4.36 1.79,-4.36s3.23,-10.23 8.53,-15.53a7.83,7.83 0 0 1 5.62,-2.36a13.93,13.93 0 0 1 7,2.2l0.25,0.16s34.48,35.24 37.7,43.39c0.91,2.27 1.01,5.53 0.66,9.04z" fill="#5e5a6b" id="svg_462"/>
   <path d="m199.72,281.49s-7.81,7 -10.51,6.68s10.51,-6.68 10.51,-6.68z" opacity="0.1" id="svg_463"/>
   <path d="m201.8,288.18s-8.24,3.82 -10.7,4.39s7.52,-5.38 10.7,-4.39z" opacity="0.1" id="svg_464"/>
   <path d="m233.68,183.58s12.22,0.15 14.07,4s-10.09,-5.56 -14.07,-4z" opacity="0.1" id="svg_465"/>
   <path d="m231.98,190.26s9.38,2 12.22,4.27s-12.22,-4.27 -12.22,-4.27z" opacity="0.1" id="svg_466"/>
   <path d="m216.21,167.1s-1.13,38.51 -5.33,43.48s5.33,-43.48 5.33,-43.48z" opacity="0.1" id="svg_467"/>
   <path d="m205.69,275.95s-7.8,34 7.89,36.09s10.87,-38.65 10.87,-38.65l-18.76,2.56z" opacity="0.1" id="svg_468"/>
   <path d="m205.12,275.38s-7.8,34 7.89,36.09s10.87,-38.65 10.87,-38.65l-18.76,2.56z" fill="#a1616a" id="svg_469"/>
   <path d="m256.63,51.78a10.89,10.89 0 0 1 -1.11,-2.06c-2.09,-4.35 -7.45,-2.23 -11.39,-0.14l-2.11,2.7a17.5,17.5 0 0 0 -2.4,3.7a29.49,29.49 0 0 0 -1,3.32c-0.54,1.92 -1.34,3.76 -2.06,5.63a66.17,66.17 0 0 0 -4.21,19.5a31.1,31.1 0 0 1 -5.41,0.48l-0.13,0l0,-0.14c0.2,-0.75 0.37,-1.51 0.52,-2.27l0,0a39.37,39.37 0 0 0 0.3,-13c0,-0.09 0,-0.19 0,-0.28c-0.15,-1 -0.33,-1.93 -0.42,-2.9c-0.36,0.67 -0.71,1.34 -1.08,2c-2.37,4.46 -4.87,8.83 -9.36,10.78a19.53,19.53 0 0 1 -5.69,1.28a32.51,32.51 0 0 0 -7.11,1.18a4.5,4.5 0 0 0 -2.07,1.25a6.17,6.17 0 0 0 -1,3.11a25.41,25.41 0 0 1 -1.13,4.32a37.88,37.88 0 0 1 -9.25,13.8l-1,1a19.18,19.18 0 0 1 -6.14,4.25a18.54,18.54 0 0 1 -6.51,1c1,-2.58 1.79,-4.36 1.79,-4.36s3.23,-10.23 8.53,-15.53a7.83,7.83 0 0 1 5.62,-2.36a83.25,83.25 0 0 0 10.16,-15.24a29.84,29.84 0 1 1 53.66,-21l0,-0.02z" opacity="0.1" id="svg_470"/>
   <path d="m258.52,28.51c-1.77,-2 -4.25,-3.12 -6.64,-4.25a5,5 0 0 1 -2.15,-1.57a6.69,6.69 0 0 1 -0.67,-2.71c-0.83,-5.77 -6.19,-9.76 -11.53,-12.1c-6.87,-3 -15.12,-4.3 -21.72,-0.72c-3.2,1.74 -5.74,4.47 -8.63,6.69c-3.66,2.81 -7.89,4.77 -11.8,7.23s-7.64,5.55 -9.5,9.78c-2.87,6.52 -0.72,14 -0.35,21.12c0.56,11.21 -4,22.94 -13.06,29.58a11.53,11.53 0 0 0 -2.87,2.51a3.15,3.15 0 0 0 -0.23,3.57c0.45,0.62 1.2,1 1.7,1.55c1,1.18 0.82,3 0.42,4.5a28.22,28.22 0 0 1 -7.58,13c0.15,1.17 1.57,1.63 2.73,1.8a63.91,63.91 0 0 0 9.26,0.68a15.58,15.58 0 0 0 13,-5.23c5.5,-5.19 10.19,-11.68 11.44,-19.14a6.3,6.3 0 0 1 1,-3.12a4.68,4.68 0 0 1 2.07,-1.25c4.12,-1.42 8.8,-0.72 12.8,-2.46c5.18,-2.25 7.7,-7.7 10.44,-12.8c0.09,1 0.27,1.94 0.42,2.9a39.3,39.3 0 0 1 -0.77,15.61c-0.74,2.88 -1.82,5.75 -1.74,8.73c0.06,2.18 2.3,13.75 5.25,10.29s1.86,-11.1 1.87,-15.39a65.92,65.92 0 0 1 4.34,-23.48c0.71,-1.87 1.51,-3.7 2.06,-5.63a26.83,26.83 0 0 1 1,-3.31a17.25,17.25 0 0 1 2.4,-3.7l2.11,-2.71c3.94,-2.08 9.3,-4.21 11.39,0.14c0.81,1.67 1.23,3.51 3.3,1.89c1.24,-1 1.64,-2.85 2,-4.28c1.3,-6.06 2.38,-13.14 -1.76,-17.72z" fill="#464353" id="svg_471"/>
   <path d="m218.52,132.82c-0.81,-20.41 -29.36,-24.63 -36,-5.33c-0.05,0.13 -0.09,0.26 -0.13,0.39c-4.36,13.08 -2.47,46.18 -2.47,46.18s0.57,22.22 2.66,29.61s7.95,28.61 7.95,32s5.45,16.48 7.74,17.43s3.46,8.33 4,9.66s2.25,18.59 2.25,18.59s21.41,-1.33 21.79,-4.74s-4.74,-20.08 -4.74,-20.08s-3.77,-6.82 -4.25,-12.32s-3.51,-8 -2.95,-11.74s-1.7,-5.69 -1.7,-8.15s-1.71,-9.1 -1.71,-9.1s-3.6,-2.84 -3,-6.25s-5.11,-10.23 -3.6,-12.69s1.9,-8.53 1.9,-8.53s1.89,-27.28 3.22,-34.67s9.09,-19.32 9.09,-19.32s0,-0.34 -0.05,-0.94z" opacity="0.1" id="svg_472"/>
   <path d="m217.67,252.52c-5.22,5.57 -12.66,6.73 -18.55,6.39c-0.67,-2.59 -1.67,-5.76 -3.12,-6.36c-2.3,-0.95 -7.74,-14 -7.74,-17.43s-5.87,-24.63 -8,-32s-2.65,-29.61 -2.65,-29.61s-1.9,-33.1 2.46,-46.17c0,-0.14 0.09,-0.27 0.13,-0.4c6.67,-19.3 35.23,-15.08 36,5.33c0,0.6 0,0.94 0,0.94s-7.77,11.93 -9.09,19.32s-3.23,34.67 -3.23,34.67s-0.38,6.07 -1.89,8.53s4.17,9.29 3.6,12.7s3,6.25 3,6.25s1.7,6.63 1.7,9.09s2.28,4.36 1.71,8.15s2.47,6.25 2.95,11.75a30.49,30.49 0 0 0 2.72,8.85z" opacity="0.1" id="svg_473"/>
   <path d="m217.41,132.25c-0.8,-20.41 -29.36,-24.63 -36,-5.33c0,0.13 -0.09,0.26 -0.13,0.4c-4.36,13.07 -2.46,46.17 -2.46,46.17s0.56,22.22 2.65,29.61s8,28.61 8,32s5.44,16.48 7.74,17.43s3.45,8.33 4,9.66s2.27,18.57 2.27,18.57s21.4,-1.33 21.78,-4.74s-4.74,-20.06 -4.74,-20.06s-3.77,-6.82 -4.26,-12.32s-3.51,-7.95 -2.94,-11.74s-1.71,-5.69 -1.71,-8.15s-1.7,-9.09 -1.7,-9.09s-3.6,-2.85 -3,-6.26s-5.12,-10.23 -3.6,-12.69s1.89,-8.53 1.89,-8.53s1.9,-27.28 3.22,-34.67s9.1,-19.32 9.1,-19.32s-0.08,-0.29 -0.11,-0.94z" fill="#5e5a6b" id="svg_474"/>
   <path d="m182.24,184.72c0.57,-0.57 11.37,-12.5 14.78,-8.24s-14.78,8.24 -14.78,8.24z" opacity="0.1" id="svg_475"/>
   <path d="m183.24,193.96c0.42,-0.43 10.8,-0.85 13.36,-6.68s-13.36,6.68 -13.36,6.68z" opacity="0.1" id="svg_476"/>
   <g opacity="0.1" id="svg_477">
    <path d="m171.42,89.19a2.79,2.79 0 0 1 0.57,1a4.45,4.45 0 0 0 -0.57,-3.87c-0.51,-0.58 -1.25,-0.92 -1.71,-1.54l-0.09,-0.16a3,3 0 0 0 0.09,3c0.46,0.64 1.2,0.99 1.71,1.57z" id="svg_478"/>
    <path d="m185.88,52.36c0,-1.08 0,-2.15 0,-3.22c-0.2,-3.87 -0.91,-7.84 -1.08,-11.71c-0.22,4.74 0.84,9.73 1.08,14.55c0,0.12 -0.01,0.25 0,0.38z" id="svg_479"/>
    <path d="m230.16,99.82c-2.63,3.09 -4.69,-5.79 -5.15,-9.29a12.53,12.53 0 0 0 -0.09,1.84c0.06,2.18 2.29,13.75 5.24,10.29c2,-2.34 2.19,-6.33 2.07,-10c-0.1,2.76 -0.58,5.42 -2.07,7.16z" id="svg_480"/>
    <path d="m227.42,68.03a37.62,37.62 0 0 1 0.41,4.5a39.21,39.21 0 0 0 -0.41,-7.34c-0.15,-1 -0.33,-1.93 -0.41,-2.9c-2.74,5.1 -5.27,10.55 -10.44,12.8c-4,1.73 -8.68,1 -12.81,2.46a4.51,4.51 0 0 0 -2.06,1.25a6.17,6.17 0 0 0 -1,3.12c-1.25,7.46 -5.94,14 -11.45,19.14a15.5,15.5 0 0 1 -13,5.22a62.32,62.32 0 0 1 -9.26,-0.67a6.18,6.18 0 0 1 -1.39,-0.36c-0.43,0.48 -0.88,1 -1.35,1.4c0.16,1.17 1.58,1.63 2.74,1.8a63.7,63.7 0 0 0 9.26,0.68a15.54,15.54 0 0 0 13,-5.23c5.51,-5.19 10.2,-11.68 11.45,-19.14a6.21,6.21 0 0 1 1,-3.12a4.59,4.59 0 0 1 2.06,-1.25c4.13,-1.42 8.81,-0.72 12.81,-2.46c5.17,-2.25 7.7,-7.7 10.44,-12.8c0.08,0.97 0.26,1.94 0.41,2.9z" id="svg_481"/>
    <path d="m260.58,43.35c-0.32,1.43 -0.72,3.32 -1.95,4.28c-2.07,1.62 -2.5,-0.22 -3.3,-1.89c-2.09,-4.35 -7.46,-2.23 -11.39,-0.14l-2.11,2.7a17.37,17.37 0 0 0 -2.4,3.7a29.49,29.49 0 0 0 -1,3.32c-0.54,1.92 -1.34,3.76 -2.06,5.63a65.84,65.84 0 0 0 -4.34,23.48c0,0.36 0,0.76 0,1.16a66.16,66.16 0 0 1 4.32,-21.8c0.72,-1.87 1.52,-3.7 2.06,-5.63a28.72,28.72 0 0 1 1,-3.31a16.88,16.88 0 0 1 2.4,-3.7l2.11,-2.71c3.93,-2.08 9.3,-4.21 11.39,0.14c0.8,1.67 1.23,3.51 3.3,1.89c1.23,-1 1.63,-2.85 1.95,-4.28a37,37 0 0 0 1.15,-10.19a47.08,47.08 0 0 1 -1.13,7.35z" id="svg_482"/>
   </g>
   <path d="m286.42,150.9l0.59,0.41a2.34,2.34 0 0 1 -0.6,-3.26l26.33,-38.23a2.35,2.35 0 0 1 3.26,-0.6l-0.58,-0.4a3.76,3.76 0 0 1 1,5.23l-24.76,35.85a3.77,3.77 0 0 1 -5.24,1z" fill="#464353" id="svg_483"/>
   <path d="m448.33,-61.71l0.72,0a0,0 0 0 1 0,0l0,51.11a0,0 0 0 1 0,0l-0.72,0a1.74,1.74 0 0 1 -1.74,-1.74l0,-47.63a1.74,1.74 0 0 1 1.74,-1.74z" transform="rotate(34.560001373291016 107.7500000000001,-189.88999938964847) " fill="#9f9eff" id="svg_484"/>
   <rect x="452.559997" y="-59.800005" width="0.47" height="4.17" rx="0.17" ry="0.17" transform="rotate(34.560001373291016 102.12999725341805,-198.24000549316406) " fill="#464353" id="svg_485"/>
  </g>
  <path d="m814.23,759.57l-8,-25.46s-6.7,-18.07 -5.62,-27.76s-2.25,-20.27 -2.25,-20.27l6.58,-34.25s0.36,-3.73 0.34,-8.65c0,-8.2 -1.16,-19.7 -6.84,-22.69c-9.08,-4.79 -27.69,-45.28 -31.59,-45.28s-16.44,-2.61 -16.44,-7a2.61,2.61 0 0 0 0,-0.48s0,-0.1 0,-0.15s-0.06,-0.23 -0.1,-0.35l-0.06,-0.17l-0.18,-0.4l-0.06,-0.11a10.68,10.68 0 0 0 -1.81,-2.37c16.94,-3.23 33.8,-6.78 50.54,-10.91l-0.62,0l0.62,-0.15a56.7,56.7 0 0 1 -6.65,-0.46l-0.49,0.11c-24.62,-3.36 -46.75,-22.61 -52.77,-47c-6.68,-27 5,-55.18 4.48,-83a95.32,95.32 0 0 0 -15.11,-49.58c-1.28,-2 -2.64,-3.92 -4.06,-5.8a38,38 0 0 0 14.63,-55.82c-0.43,-0.62 -0.88,-1.22 -1.34,-1.81a38.11,38.11 0 0 1 -6.22,47.14a37.77,37.77 0 1 0 -66.53,-35.77c-0.81,-0.36 -1.62,-0.72 -2.43,-1.05a37.76,37.76 0 0 1 33.14,-24.73c-0.75,-0.05 -1.49,-0.07 -2.25,-0.07a37.73,37.73 0 0 0 -34.79,23.26c-11.32,-4.15 -23.13,-5.87 -34.75,-2.92a38.2,38.2 0 0 0 -6.3,2.19l0.52,-0.41a28.11,28.11 0 0 0 -7.87,5c-3.48,3.21 -5.93,7.37 -8.88,11.09a46.84,46.84 0 0 1 -10.55,9.58c0.33,-0.16 0.66,-0.35 1,-0.52c-13.4,9.48 -31.61,12.21 -46.93,6.11c-4.3,-1.72 -8.45,-4.07 -13,-4.7a19.64,19.64 0 0 0 -10.29,1.5c0.14,-0.11 0.27,-0.23 0.42,-0.34a26.91,26.91 0 0 0 -10.8,8.1c-5,6.17 -7.51,14 -9.3,21.71a70.71,70.71 0 0 0 -2,16.72c0.07,7.22 1.69,14.19 6,19.84c6.68,8.66 15.8,11 25.32,12.56c-0.28,1 -0.55,1.92 -0.79,2.9a86,86 0 0 0 59.37,103.66l1.85,3.14l0.6,0.14c4.43,7.49 9.28,15.9 13.78,24c0.24,0.43 0.47,0.86 0.71,1.28l-8.51,4.38l0,0c-2.23,1.15 -7.77,4.16 -10.84,7.12a7.21,7.21 0 0 0 -2,2.83c-1.3,4.36 -8.22,15.68 -13,18.72s-8.66,17.85 -8.22,25.67s-2.6,7 -10.39,7.42s0,11.75 0,11.75l0.2,0.76c-0.36,0.62 -0.77,1.29 -1.22,2c-2,3.07 -4.63,6.47 -6.55,6.29c-3.47,-0.33 -5.63,8.16 -5.41,9.46s-6.06,11.75 -8.44,12.84s-12.55,3.17 -9.74,12.91l-12.34,12.56l-10,9.58s-14.28,-8.06 -37.44,17a20.69,20.69 0 0 1 7.68,0.72l-0.66,0.32c-6.1,2.89 -16.66,7.82 -24.47,11l-41.59,1.29l0,-31s-3.68,-8.7 -8,0l-1.09,31.32l-90.4,2.93l16.94,-18l0,0l0.22,-0.24a14.83,14.83 0 0 0 3.33,-14.67l-70.68,-222.17l0,0l-0.49,-1.56a12.16,12.16 0 0 0 -9.95,-8.38l-98.18,-13.25l-0.68,-0.09l-9.02,2.45a8.84,8.84 0 0 0 -6.16,11c2.32,8 6.13,21.06 11,37.47l-13.56,0l10.39,89.68l6.33,34.5q2.43,13.2 5.67,26.24c5.21,21 15.52,65.79 15.75,91.77l-76,82.86l0,16.83l485.45,0a0.8,0.8 0 0 0 0.08,0.16l236.51,0s-2.59,-4.57 3,-11.1s2.82,-32.43 2.82,-32.43s-3.14,-4.14 0.7,-13.28s-3.27,-35.26 -3.27,-35.26zm-603.19,-19.55l-12.9,0.42l-12,-78.06c8.89,28.52 17.51,55.66 24.9,77.64zm332.18,47.44l-8.37,-17.08a9.31,9.31 0 0 0 5.43,-1.45c5.41,-3.92 8.65,-13.06 8.65,-13.06l14.52,-17.25l1.2,-1.44c2.94,8.21 6.4,14.69 9.17,17.82c6.92,7.84 7.79,30.47 9.92,38.74s0.47,4.79 0,9.58a12.51,12.51 0 0 0 0.29,3.49c-9.57,-10.27 -23.18,-19.61 -40.81,-19.35z" fill="url(#a15ea5fa-8dd7-4ce2-ac3d-c62a3c4696f0)" id="svg_486"/>
  <polygon points="93.83 834.98 179.18 742.47 518.18 731.56 577.36 851.64 93.83 851.64 93.83 834.98" fill="#514e7f" id="svg_487"/>
  <polygon points="93.83 834.98 179.18 742.47 518.18 731.56 577.36 851.64 93.83 851.64 93.83 834.98" opacity="0.2" id="svg_488"/>
  <path d="m535.42,827.26l0,3.2a6.24,6.24 0 0 1 -6.24,6.24l-182.22,0c-3.45,0 0,-6.89 0,-6.89l-2.06,-45.13a7.45,7.45 0 0 1 5.62,-7.56c10.14,-2.56 17.12,1.55 17.12,1.55l112.88,-2.87a36.19,36.19 0 0 1 7,0.33a30.66,30.66 0 0 1 20.69,12.26l25.94,35.17a6.24,6.24 0 0 1 1.27,3.7z" fill="#514e7f" id="svg_489"/>
  <path d="m535.42,830.46l0,0a6.24,6.24 0 0 1 -6.24,6.24l-182.22,0c-3.45,0 0,-6.89 0,-6.89s10.06,-4.88 25,-4l133,-2.88s15.71,0.36 24.9,1.36a6.23,6.23 0 0 1 5.56,6.17z" opacity="0.1" id="svg_490"/>
  <polygon points="483.7 783.55 369.36 783.55 372.52 818.32 504.96 816.02 483.7 783.55" fill="#ffffff" id="svg_491"/>
  <path d="m289.79,807.97l0,12.07l-119.79,4.86s-27.39,-1.87 -30.75,-18.7a15.7,15.7 0 0 1 0.1,-5.3c1.21,-7.09 7.29,-19.47 34.09,-25.19l33,-3.39l73.58,0s9.5,9.51 9.77,35.65z" fill="#514e7f" id="svg_492"/>
  <path d="m289.79,808.35l0,11.69l-119.79,4.86s-27.39,-1.87 -30.75,-18.7a15.7,15.7 0 0 1 0.1,-5.3s16.56,15.66 39,13.36l105.44,-4.59a59.28,59.28 0 0 0 6,-1.32z" opacity="0.1" id="svg_493"/>
  <ellipse cx="156.250002" cy="803.18" rx="36.83" ry="6.32" transform="rotate(-2.950000047683716 -81.09999847412105,-10.78999996185297) " opacity="0.1" id="svg_494"/>
  <path d="m209.52,786.9l-19.38,9.58l-20.62,-4.88l-0.1,-33.61c1.31,-24.53 -10,-73.63 -15.59,-95.88q-3.23,-12.9 -5.65,-26l-6.34,-34.15l-10.32,-88.74l24.56,0l14.44,20.68l39,253z" fill="#514e7f" id="svg_495"/>
  <path d="m209.52,786.9l-19.38,9.58l-12.36,-71.78c0.24,-12.23 -15.09,-70.29 -16.09,-72.68c-12.22,-29.17 -22.69,-138.76 -22.69,-138.76l17.09,0l14.43,20.64l39,253z" fill="#514e7f" id="svg_496"/>
  <path d="m209.52,786.9l-19.38,9.58l-12.36,-71.78c0.24,-12.23 -15.09,-70.29 -16.09,-72.68c-12.22,-29.17 -22.69,-138.76 -22.69,-138.76l17.09,0l14.43,20.64l39,253z" opacity="0.15" id="svg_497"/>
  <path d="m325.05,720.32l-66,69.55l-7.74,0.55l-9.43,0.68a10.63,10.63 0 0 1 -10.48,-6.29c-20,-45 -83.94,-262.59 -97.4,-308.68a8.74,8.74 0 0 1 6.13,-10.9l9,-2.42l0.67,0.08l96.15,12.9a14.65,14.65 0 0 1 12,10.06l70.38,219.93a14.64,14.64 0 0 1 -3.28,14.54z" fill="#514e7f" id="svg_498"/>
  <path d="m325.05,720.32l-66,69.55l-7.74,0.55l-9.43,0.68a10.63,10.63 0 0 1 -10.48,-6.29c-20,-45 -83.94,-262.59 -97.4,-308.68a8.74,8.74 0 0 1 6.13,-10.9l9,-2.42l0.67,0.08l96.15,12.9a14.65,14.65 0 0 1 12,10.06l70.38,219.93a14.64,14.64 0 0 1 -3.28,14.54z" opacity="0.1" id="svg_499"/>
  <path d="m324.82,720.56l-65.77,69.34l-7.74,0.55l-98.7,-316a30.15,30.15 0 0 1 -2.77,-11.55l97.76,13.12a12.08,12.08 0 0 1 9.9,8.3l70.77,221.15a15.2,15.2 0 0 1 -3.45,15.09z" fill="#514e7f" id="svg_500"/>
  <path d="m320,708.9a14.66,14.66 0 0 1 -2.66,3.3l-64.75,60.2l-88.34,-292.79l84.83,8.4a14.87,14.87 0 0 1 12.79,10.53l59.59,198.43a14.93,14.93 0 0 1 -1.46,11.93z" fill="#f9f9f9" id="svg_501"/>
  <path d="m320,708.9l-70.92,-220.89a14.87,14.87 0 0 1 12.79,10.53l59.59,198.43a14.93,14.93 0 0 1 -1.46,11.93z" opacity="0.1" id="svg_502"/>
  <circle cx="700.27" cy="344.15" r="37.55" fill="#945b79" id="svg_503"/>
  <path d="m662.33,338.58a37.55,37.55 0 0 1 35.31,-37.49c-0.74,0 -1.48,-0.07 -2.23,-0.07a37.56,37.56 0 1 0 0,75.11c0.75,0 1.49,0 2.23,-0.07a37.55,37.55 0 0 1 -35.31,-37.48z" fill="#945b79" id="svg_504"/>
  <path d="m667.19,344.15a37.55,37.55 0 0 1 35.33,-37.48c-0.74,0 -1.49,-0.07 -2.24,-0.07a37.56,37.56 0 0 0 0,75.11c0.75,0 1.5,0 2.24,-0.08a37.54,37.54 0 0 1 -35.33,-37.48z" opacity="0.1" id="svg_505"/>
  <path d="m507,765.18a101.83,101.83 0 0 1 -10.82,4.93c-9.66,3.8 -24.38,8.16 -38.09,6.49c-23.05,-2.8 -36.84,4.74 -36.84,4.74l-5.17,-38.35s17,-5 23.91,-6.25c5.18,-1 23.87,-9.61 32.84,-13.84c3,-1.4 4.87,-2.32 4.87,-2.32l17.24,0l12.06,44.6z" fill="#ffc1c7" id="svg_506"/>
  <path d="m507,765.18a101.83,101.83 0 0 1 -10.82,4.93c-1.17,-34.15 -14.27,-44.29 -23.35,-47.21c3,-1.4 4.87,-2.32 4.87,-2.32l17.24,0l12.06,44.6z" opacity="0.1" id="svg_507"/>
  <path d="m570.78,650.56l0,84l-4.51,5.34l-14.45,17.1s-3.23,9 -8.62,12.92s-17.68,-1.29 -17.68,-1.29l-3.45,5.6s-7.75,1.51 -11.41,0s-12.72,4.31 -12.72,4.31c1.3,-61.62 -32.1,-56.66 -32.1,-56.66c23.05,-24.78 37.27,-16.81 37.27,-16.81l9.92,-9.48l12.28,-12.44c-2.8,-9.63 7.32,-11.69 9.69,-12.77s8.62,-11.42 8.41,-12.71s1.93,-9.7 5.38,-9.37c1.92,0.18 4.55,-3.19 6.53,-6.22c1.58,-2.44 2.74,-4.66 2.74,-4.66l12.72,13.14z" fill="#ef3b24" id="svg_508"/>
  <path d="m600.61,566.59l25.4,-13l-1.44,15.23l5,15.3s-4.59,11.85 -5.16,13.14s-11.49,28.3 -11.49,28.3l-8.76,-11.06l-3.55,-47.91z" fill="#ff6584" id="svg_509"/>
  <polyline points="604.17 614.5 600.61 566.59 626.01 553.6" opacity="0.1" id="svg_510"/>
  <path d="m709.75,552.31s-8.44,12.14 -20,27.61c-26.9,36 -70.66,90 -64,50.82c0.22,-1.28 0.39,-2.56 0.54,-3.85c-1.64,1.1 -5.4,0.14 -9.5,-1.81l-0.28,-0.13a48.9,48.9 0 0 1 -5.84,-3.38c-0.21,-0.13 -0.41,-0.27 -0.61,-0.41c-4.55,-3.17 -8.19,-6.88 -8,-9.44c3.23,-56.24 16.32,-29.42 20,-23.18a4.06,4.06 0 0 0 0.84,1.17q-0.24,-0.66 -0.54,-1.38c-2.58,-6.33 -7.51,-15.79 -13.14,-25.9l0,-0.1l-0.75,-1.34c-4.68,-8.35 -9.75,-17.08 -14.31,-24.74l-1.23,-2.06c-7.2,-12.08 -12.8,-21.09 -12.8,-21.09s32.71,-29.92 60.28,-48.1c23,-15.19 42.48,-22.2 36.25,3.28c-4,16.38 -2.83,30.39 0.86,42c0.13,0.43 0.27,0.86 0.42,1.28a67.8,67.8 0 0 0 2.56,6.51a73.94,73.94 0 0 0 4.48,8.5a82.39,82.39 0 0 0 24.77,25.74z" fill="#ffc1c7" id="svg_511"/>
  <path d="m658.9,506.9c-15.51,16.85 -18.81,33 -43.52,33a85,85 0 0 1 -21.31,-2.7c-7.79,-13.1 -14,-23.15 -14,-23.15s110.22,-100.79 96.53,-44.82c-4.18,16.91 -21.71,25.77 -17.7,37.67z" opacity="0.15" id="svg_512"/>
  <path d="m700.27,452.34a84.9,84.9 0 1 1 -84.89,-84.9a84.52,84.52 0 0 1 84.89,84.9z" fill="#ffc1c7" id="svg_513"/>
  <path d="m613.44,599.28s1.51,24.13 16.81,22.19s3.66,51.28 3.66,51.28l-17,15.51l-18.34,5.64s-16.16,-4.74 -15.94,-5.61s6.46,-51.27 6.46,-51.27l9.48,-26.94l14.87,-10.8z" opacity="0.1" id="svg_514"/>
  <path d="m613.44,601s1.51,24.13 16.81,22.2s3.66,51.28 3.66,51.28l-17,15.51l-18.32,5.6s-16.16,-4.74 -15.94,-5.6s6.46,-51.28 6.46,-51.28l9.48,-26.93l14.85,-10.78z" fill="#ffffff" id="svg_515"/>
  <path d="m570.78,650.56l0,84l-4.51,5.34c-4.65,-12.34 -8.19,-29.07 -6,-44.11c2.85,-19.94 -2.83,-45.46 -4.89,-53.73c1.58,-2.44 2.74,-4.66 2.74,-4.66l12.66,13.16z" opacity="0.1" id="svg_516"/>
  <path d="m615.38,603.59a49.27,49.27 0 0 1 -3.65,13.74c-0.56,1.33 -1.13,2.62 -1.7,3.83c-4.55,-3.17 -8.19,-6.88 -8,-9.44c3.23,-56.24 16.32,-29.42 20,-23.18c-1.8,1.36 -5.82,5.36 -6.65,15.05z" opacity="0.1" id="svg_517"/>
  <path d="m622.31,588.33c-2.7,-6.63 -8,-16.7 -13.93,-27.34l0.75,-0.38l13.72,27.38a2.92,2.92 0 0 0 -0.54,0.34z" opacity="0.1" id="svg_518"/>
  <path d="m709.75,552.31s-93.51,134.45 -84,78.43c0.22,-1.28 0.39,-2.56 0.54,-3.85c-1.68,1.12 -5.57,0.1 -9.78,-1.94c0.64,-3.74 1,-6.3 1,-6.3l10.35,-29.28s6,-23.27 5.17,-28l0.28,-0.19l51.46,-34.55l0.05,0l0,0a82.39,82.39 0 0 0 24.93,25.68z" opacity="0.1" id="svg_519"/>
  <path d="m806.71,654.01l-7.33,37.89l-22,159.87l-190.86,0s3.44,-28 3.44,-32.32s-3.87,-10.77 -3.44,-15.51s2.08,-1.3 0,-9.48s-3,-30.6 -9.87,-38.35s-18.13,-36.21 -14.7,-60.3s-5.61,-56.45 -5.61,-56.45s-7.75,-11.21 0,-11.64s10.78,0.39 10.35,-7.34s3.44,-22.39 8.18,-25.41s11.64,-14.22 12.93,-18.53a7.23,7.23 0 0 1 2,-2.81c3.88,-3.72 11.77,-7.53 11.77,-7.53l7.54,-3.77l0,0.1l13.68,27.28s-6.4,3.11 -7.47,15.6a49.17,49.17 0 0 1 -3.65,13.74c-0.36,0.86 -0.72,1.71 -1.09,2.52c-1.1,2.44 -2.22,4.6 -3.17,6.32l0,0c-1.41,2.55 -2.42,4.12 -2.42,4.12s-0.37,2.92 -0.93,7l0,0c-1.15,8.38 -3.09,21.66 -4.24,24.84c-1,2.82 -3,7.67 -4.11,12c-0.7,2.71 -1.1,5.22 -0.73,6.86c0,0.13 0.06,0.26 0.1,0.38c1.29,4 7.75,-13.2 7.75,-13.2s4.74,-14.65 6.9,-14.65c1.65,0 5.36,-20.68 7,-30.22c0.48,-2.85 0.77,-4.7 0.77,-4.7l10.35,-29.29s1.43,-5.53 2.8,-11.75c1.44,-6.54 2.81,-13.83 2.37,-16.26l0.28,-0.19l51.46,-34.55l0.05,0l0.79,-0.53l-0.08,0c-0.36,0 -1.4,-0.64 -3.39,-5.32c-0.51,-1.19 -1.08,-2.63 -1.71,-4.41c0,0 16.46,-6.61 22.33,-1.77a5.23,5.23 0 0 1 1,1.06a4.19,4.19 0 0 1 0.43,0.71c3.88,8 5.6,14 9.48,19.18a16.68,16.68 0 0 0 1.36,1.57c4.69,4.91 14,10.66 12.43,12.22c-1.72,1.72 12.93,9 12.93,9s8.57,4.9 11.26,9a4.1,4.1 0 0 1 0.8,2.18c0,4.31 12.5,6.89 16.38,6.89s22.41,40.08 31.45,44.82s6.44,31.13 6.44,31.13z" fill="#ef3b24" id="svg_520"/>
  <g opacity="0.1" id="svg_521">
   <path d="m613.37,589.71s-6.4,3.11 -7.47,15.6a48.85,48.85 0 0 1 -3.66,13.74a87.82,87.82 0 0 1 -4.25,8.84l0,0c-1.41,2.55 -2.42,4.12 -2.42,4.12s-0.37,2.92 -0.93,7l0,0c-1.12,8.45 -3.12,21.73 -4.25,24.89c-1,2.82 -3,7.67 -4.11,12c-0.7,2.71 -1.1,5.22 -0.73,6.86c0,0.13 0.06,0.26 0.1,0.38c1.29,4 7.75,-13.2 7.75,-13.2s4.74,-14.65 6.9,-14.65c0.61,0 1.51,-2.86 2.48,-6.94c0.49,-3.27 1,-6.54 1.33,-9.28l0,0c0.56,-4.1 0.93,-7 0.93,-7s0.57,-0.88 1.45,-2.4c0.92,-5.27 1.56,-9.25 1.56,-9.25l10.35,-29.29s0.75,-2.92 1.69,-6.89l-11,-21.87l-7.54,3.77l0,0l11.82,23.57z" id="svg_522"/>
   <path d="m800.24,622.98c-9,-4.74 -27.57,-44.82 -31.45,-44.82s-16.38,-2.58 -16.38,-6.89s-12.06,-11.21 -12.06,-11.21s-14.65,-7.32 -12.93,-9c1.55,-1.56 -7.74,-7.31 -12.43,-12.22a18,18 0 0 1 -1.36,-1.57c-3.88,-5.18 -5.6,-11.21 -9.48,-19.18a4.72,4.72 0 0 0 -0.43,-0.72a5.82,5.82 0 0 0 -1,-1.06c-2.64,-2.17 -7.4,-2 -11.86,-1.22a7.15,7.15 0 0 1 2.38,1.22a5.82,5.82 0 0 1 1,1.06a4.72,4.72 0 0 1 0.43,0.72c3.88,8 5.6,14 9.48,19.18a18,18 0 0 0 1.37,1.53c4.69,4.91 14,10.66 12.43,12.22c-1.72,1.72 12.93,9 12.93,9s12.06,6.9 12.06,11.21s12.5,6.89 16.38,6.89s22.41,40.08 31.45,44.82s6.47,31 6.47,31l-7.34,37.96l-22,159.87l9.48,0l22,-159.87l7.33,-37.92s2.58,-26.26 -6.47,-31z" id="svg_523"/>
  </g>
  <path d="m423.92,743.77s-54.81,-15.86 -58.69,8.49s22.41,38.35 39.21,37.92s24.13,-16.38 24.13,-16.38l-4.65,-30.03z" fill="#ffc1c7" id="svg_524"/>
  <path d="m698.76,818.62s-12.28,8.83 -38.35,8.83s-56.45,5.6 -56.45,5.6s-38.78,-91.35 -116.56,-13.15c0,0 -14,18.1 58.6,20c0,0 25.64,-0.86 31.24,11.85l145,0l19.83,-14.85l-43.31,-18.28z" fill="#ffc1c7" id="svg_525"/>
  <path d="m407.03,704.42s-3.66,-8.61 -8,0l-2.35,66.8l5.16,15.73l5.16,-14l0.03,-68.53z" fill="#514e7f" id="svg_526"/>
  <path d="m703.72,517.34c-7.52,2.56 -15.77,8.56 -18.2,10.44c-0.45,0 -2,-1 -5.1,-9.73c-0.01,0 18.6,-7.47 23.3,-0.71z" opacity="0.1" id="svg_527"/>
  <path d="m622.85,589.71s-6.4,3.11 -7.47,15.6a49.17,49.17 0 0 1 -3.65,13.74l-4.21,8.85l0,0l-3.35,11.14l0,0l0.35,22.68l-8.76,14.18l-0.73,6.86l-2.27,21.22l-11.64,-5.6s4.8,-34.22 8.4,-41.15s8.41,-43.63 8.41,-43.63s-0.22,-13.47 1.51,-15.84s-3,-1.94 -3.45,-6.89c-0.26,-2.94 -3.54,-11.1 -6.17,-17.25c3.88,-3.72 11.77,-7.53 11.77,-7.53l7.54,-3.77l13.72,27.39z" fill="#ef3b24" id="svg_528"/>
  <path d="m622.85,587.71s-6.4,3.11 -7.47,15.6a49.17,49.17 0 0 1 -3.65,13.74l-4.21,8.85l0,0l-3.35,11.14l0,0l0.35,22.68l-8.76,14.18l-0.73,6.86l-2.27,21.22l-11.64,-5.6s4.8,-34.22 8.4,-41.15s8.41,-43.63 8.41,-43.63s-0.22,-13.47 1.51,-15.84s-3,-1.94 -3.45,-6.89c-0.26,-2.94 -3.54,-11.1 -6.17,-17.25c3.88,-3.72 11.77,-7.53 11.77,-7.53l7.54,-3.77l13.72,27.39z" opacity="0.1" id="svg_529"/>
  <path d="m714.99,540.53c-9.61,7.86 -35.45,30.16 -38.42,45.32c-3.66,18.69 -14.65,16.88 -14.65,16.88c-13.73,-29.78 -23.18,-37.08 -28.59,-38.11l51.46,-34.56s0,0 0.05,0l0.79,-0.53l-0.11,0c-0.36,0 -1.4,-0.63 -3.39,-5.31l20.62,-6.19a5.23,5.23 0 0 1 1,1.06a4.63,4.63 0 0 1 0.43,0.71c3.88,8 5.6,14 9.48,19.18a18.09,18.09 0 0 0 1.33,1.55z" opacity="0.1" id="svg_530"/>
  <path d="m714.99,538.8c-9.61,7.86 -35.45,30.17 -38.42,45.33c-3.66,18.68 -14.65,16.87 -14.65,16.87c-13.73,-29.77 -23.18,-37.1 -28.59,-38.1l51.46,-34.55l0.05,0l0.79,-0.53l-0.11,0c-0.36,0 -1.4,-0.64 -3.39,-5.32l20.62,-6.18a5.23,5.23 0 0 1 1,1.06a4.19,4.19 0 0 1 0.43,0.71c3.88,8 5.6,14 9.48,19.18a16.68,16.68 0 0 0 1.33,1.53z" fill="#ff6584" id="svg_531"/>
  <path d="m656.75,689.77c0.64,-0.21 34.22,-19.22 30.36,-4.76s-30.36,4.76 -30.36,4.76z" opacity="0.1" id="svg_532"/>
  <path d="m511.52,707.98s17.66,27.47 23.91,26.61s-23.91,-26.61 -23.91,-26.61z" opacity="0.1" id="svg_533"/>
  <path d="m533.52,697.75s1.08,21.33 10.35,22.83s-10.35,-22.83 -10.35,-22.83z" opacity="0.1" id="svg_534"/>
  <path d="m631.52,766.26s21.94,36.5 17.67,49.13l-17.67,-49.13z" opacity="0.1" id="svg_535"/>
  <path d="m656.96,770.57s29.68,39 24.54,42.23s-24.54,-42.23 -24.54,-42.23z" opacity="0.1" id="svg_536"/>
  <path d="m590.23,707.98s-3.05,27.73 8.4,35.79l-8.4,-35.79z" opacity="0.1" id="svg_537"/>
  <path d="m723.33,584.63s-50.81,39.43 -42.67,80.37s16,43.95 16,43.95s3,16.37 8.62,23.27s4.74,11.42 4.74,11.42s5.17,-2.37 6.89,9.48s10.77,20.25 10.77,20.25s3,9.48 -4.74,14.65s-6,10.78 -6,10.78l-31.46,18.31l35.04,34.69l90.5,0s-2.59,-4.52 3,-11s2.81,-32.1 2.81,-32.1s-3.13,-4.1 0.7,-13.15s-3.29,-34.9 -3.29,-34.9l-8,-25.21s-6.68,-17.88 -5.6,-27.47s-2.2,-20.07 -2.2,-20.07l-17.37,-54.8s0.86,-54.72 -57.74,-48.47z" opacity="0.1" id="svg_538"/>
  <path d="m725.05,584.63s-50.85,39.43 -42.66,80.37s15.94,43.95 15.94,43.95s3,16.37 8.62,23.27s4.74,11.42 4.74,11.42s5.17,-2.37 6.9,9.48s10.77,20.25 10.77,20.25s3,9.48 -4.74,14.65s-6,10.78 -6,10.78l-31.46,18.31l35.12,34.69l90.49,0s-2.58,-4.52 3,-11s2.8,-32.1 2.8,-32.1s-3.13,-4.1 0.7,-13.15s-3.29,-34.9 -3.29,-34.9l-8,-25.21s-6.68,-17.88 -5.6,-27.47s-2.22,-20.07 -2.22,-20.07l-17.37,-54.8s0.86,-54.72 -57.74,-48.47z" fill="#ef3b24" id="svg_539"/>
  <path d="m742.07,612.42s36.2,12.28 45.89,18.32s-14.22,-23.92 -45.89,-18.32z" opacity="0.1" id="svg_540"/>
  <path d="m761.03,798.8s51.49,6.46 48.49,16.59s-48.49,-16.59 -48.49,-16.59z" opacity="0.1" id="svg_541"/>
  <path d="m750.94,809.78s37.67,12.07 31,22s-31,-22 -31,-22z" opacity="0.1" id="svg_542"/>
  <path d="m751.61,569.09c-20.55,4 -41.2,7.42 -61.86,10.83l-5.38,0.89c-11.36,1.87 -22.79,3.75 -34.31,3.69c-5.61,0 -11.39,-0.58 -16.37,-3.18a18,18 0 0 1 -3,-2c-3.49,-2.8 -6,-6.87 -5.94,-11.29c0.06,-8.06 7.71,-13.65 14.29,-18.31c9.63,-6.83 19.14,-15.5 22.86,-26.39a30.07,30.07 0 0 0 1.45,-6.3c1.1,-9.25 -2.27,-18.38 -5.86,-27c-3.92,-9.35 -9.3,-19.4 -17.16,-25.08a23.58,23.58 0 0 0 -10.81,-4.37c-12.08,-1.6 -23.51,7 -35.68,6.52c-9.89,-0.43 -18.29,-6.78 -24.24,-14.25c-4.33,-5.44 -7.07,-12.72 -13.59,-15.95c-7.06,-3.51 -15.09,-4.34 -22.94,-5.51a84.9,84.9 0 1 1 144.34,78.87c0.13,0.43 0.27,0.86 0.42,1.28a67.8,67.8 0 0 0 2.56,6.51s16.46,-6.61 22.33,-1.77a5.23,5.23 0 0 1 1,1.06a4.19,4.19 0 0 1 0.43,0.71c3.88,8 5.6,14 9.48,19.18a16.68,16.68 0 0 0 1.36,1.57c4.69,4.91 14,10.66 12.43,12.22c-1.72,1.72 12.93,9 12.93,9s8.57,4.95 11.26,9.07z" opacity="0.1" id="svg_543"/>
  <path d="m508.67,416.09c-7.66,-9.88 -6.83,-23.84 -4,-36c1.78,-7.67 4.31,-15.38 9.27,-21.49s12.77,-10.39 20.58,-9.33c4.57,0.62 8.7,2.95 13,4.65c19.3,7.64 43.24,1.29 56.22,-14.92c2.94,-3.67 5.37,-7.79 8.85,-11a31.42,31.42 0 0 1 13.58,-6.85c21.72,-5.48 44.12,5.31 62.7,17.82c15.86,10.68 30.94,23.15 41.35,39.18a93.88,93.88 0 0 1 15,49.07c0.53,27.6 -11.11,55.44 -4.45,82.22c6.57,26.45 32.4,46.81 59.65,47c-37.42,9.18 -75.48,15.47 -113.49,21.74c-11.37,1.88 -22.79,3.76 -34.31,3.69c-5.61,0 -11.4,-0.58 -16.37,-3.18s-9,-7.65 -9,-13.26c0.06,-8.07 7.72,-13.65 14.29,-18.31c11.42,-8.1 22.67,-18.79 24.32,-32.69c1.1,-9.25 -2.27,-18.39 -5.87,-27c-5.49,-13.1 -13.86,-27.61 -27.94,-29.49c-12.07,-1.61 -23.51,7 -35.68,6.51c-9.88,-0.43 -18.29,-6.78 -24.24,-14.25c-4.33,-5.44 -7.07,-12.72 -13.58,-15.95c-16.09,-7.96 -37.32,-1.97 -49.88,-18.16z" fill="#945b79" id="svg_544"/>
  <path d="m728.75,365.75a37.55,37.55 0 0 0 10.66,-50.38c0.46,0.58 0.9,1.18 1.33,1.79a37.56,37.56 0 1 1 -61.71,42.82c-0.42,-0.62 -0.83,-1.25 -1.21,-1.88a37.55,37.55 0 0 0 50.93,7.65z" fill="#945b79" id="svg_545"/>
  <g opacity="0.1" id="svg_546">
   <path d="m609.76,335.37c2.94,-3.68 5.37,-7.8 8.85,-11a22.51,22.51 0 0 1 1.79,-1.47a27.66,27.66 0 0 0 -7.82,4.91c-3.48,3.18 -5.91,7.3 -8.85,11a46.21,46.21 0 0 1 -10.49,9.54a47.46,47.46 0 0 0 16.52,-12.98z" id="svg_547"/>
   <path d="m692.99,574.61c-11.36,1.87 -22.79,3.75 -34.31,3.68c-5.61,0 -11.39,-0.57 -16.37,-3.17s-9,-7.65 -8.95,-13.27c0.06,-8.06 7.71,-13.64 14.29,-18.31c11.42,-8.1 22.66,-18.79 24.31,-32.69c1.1,-9.24 -2.27,-18.39 -5.87,-27c-5.49,-13.1 -13.85,-27.62 -27.94,-29.49c-12.07,-1.61 -23.5,7 -35.67,6.5c-9.88,-0.42 -18.29,-6.77 -24.24,-14.24c-4.34,-5.44 -7.08,-12.72 -13.59,-15.95c-16.16,-8 -37.39,-2 -50,-18.22c-7.66,-9.88 -6.82,-23.85 -4,-36c1.78,-7.67 4.31,-15.38 9.26,-21.5a28,28 0 0 1 4.72,-4.57a26.84,26.84 0 0 0 -10.75,8c-5,6.11 -7.49,13.83 -9.27,21.49c-2.83,12.18 -3.66,26.15 4,36c12.56,16.19 33.79,10.2 50,18.22c6.51,3.24 9.25,10.52 13.58,16c6,7.46 14.36,13.82 24.24,14.24c12.17,0.52 23.61,-8.12 35.68,-6.51c14.08,1.88 22.45,16.39 27.94,29.5c3.6,8.58 7,17.72 5.87,27c-1.65,13.9 -12.9,24.59 -24.32,32.69c-6.57,4.66 -14.23,10.25 -14.29,18.31c0,5.61 4,10.67 9,13.27s10.76,3.14 16.37,3.17c11.52,0.07 23,-1.81 34.31,-3.69c38,-6.27 76.07,-12.55 113.49,-21.74a56.19,56.19 0 0 1 -6.62,-0.46c-33.34,7.59 -67.13,13.17 -100.87,18.74z" id="svg_548"/>
  </g>
  <ellipse cx="410.72" cy="755.48" rx="16.4" ry="8.96" fill="#ffc1c7" id="svg_549"/>
  <path d="m681.7,89.12c-18.25,-4.87 -36.68,-9.76 -55.56,-10.54s-38.49,2.88 -53.9,13.8c-7.71,5.46 -14.11,12.53 -20.6,19.41a668.22,668.22 0 0 1 -114.66,96.94c-16.81,11.23 -34.78,21.94 -54.81,24.73s-42.66,-4.15 -53,-21.51l6.16,-3.16" fill="none" stroke="#000" stroke-miterlimit="10" stroke-width="0.75" stroke-dasharray="12" opacity="0.3" id="svg_550"/>
  <path d="m842.81,62.84l-129.23,0a9.23,9.23 0 0 1 -9.23,-9.23l0,-18.46a9.23,9.23 0 0 1 9.23,-9.25l129.23,0a9.23,9.23 0 0 1 9.23,9.23l0,18.48a9.23,9.23 0 0 1 -9.23,9.23zm-13.85,-25.38a6.92,6.92 0 1 0 6.93,6.92a6.92,6.92 0 0 0 -6.93,-6.92zm-18.46,0a6.92,6.92 0 1 0 6.92,6.92a6.92,6.92 0 0 0 -6.9,-6.92l-0.02,0zm32.31,71.54l-129.23,0a9.24,9.24 0 0 1 -9.23,-9.24l0,-18.46a9.23,9.23 0 0 1 9.23,-9.23l129.23,0a9.23,9.23 0 0 1 9.23,9.23l0,18.46a9.24,9.24 0 0 1 -9.23,9.24zm-13.85,-25.39a6.93,6.93 0 1 0 6.93,6.92a6.92,6.92 0 0 0 -6.93,-6.92zm-18.46,0a6.93,6.93 0 1 0 6.92,6.92a6.92,6.92 0 0 0 -6.9,-6.92l-0.02,0zm32.31,71.54l-129.23,0a9.23,9.23 0 0 1 -9.23,-9.23l0,-18.46a9.23,9.23 0 0 1 9.23,-9.23l129.23,0a9.23,9.23 0 0 1 9.23,9.23l0,18.44a9.23,9.23 0 0 1 -9.23,9.25zm-13.85,-25.39a6.93,6.93 0 1 0 6.93,6.93a6.92,6.92 0 0 0 -6.93,-6.93zm-18.46,0a6.93,6.93 0 1 0 6.92,6.93a6.92,6.92 0 0 0 -6.9,-6.93l-0.02,0z" fill="#514e7f" id="svg_551"/>
  <path d="m863.73,87.55c8.29,-0.89 17.16,-0.64 24.27,3.73c7.53,4.63 11.88,13.27 13.34,22s0.44,17.65 -0.6,26.43l-5.6,47.36c-0.79,6.63 -1.55,13.53 0.6,19.86s8.1,11.89 14.75,11.3" fill="none" stroke="#000" stroke-miterlimit="10" stroke-width="0.75" stroke-dasharray="12" opacity="0.3" id="svg_552"/>
  <path d="m322.09,489.6c21.35,0.53 45.42,0 60.17,-15.44c11.2,-11.72 13.83,-28.89 17.6,-44.66c6.81,-28.47 19.19,-55.87 38,-78.32s44.2,-39.75 72.62,-46.73c22.84,-5.62 46.86,-4.56 69.82,-9.61s46.54,-18.66 52.89,-41.3" fill="none" stroke="#000" stroke-miterlimit="10" stroke-width="0.75" opacity="0.3" id="svg_553"/>
  <path d="m680,203.95l-57.61,21a1.13,1.13 0 0 0 -0.22,2l8.6,4.77a2.18,2.18 0 0 1 1,1.3l4.93,15.6c0,0.66 1.2,1 1.31,0.36l0.69,-12.2a4.41,4.41 0 0 1 1.33,-2.29l31.66,-23a0.71,0.71 0 0 1 0.63,-0.08a0.64,0.64 0 0 1 0.2,1.06l-28.15,25.67a5.4,5.4 0 0 0 -1.29,2.26l-3,10.19c0,0.92 0.64,1.37 1.34,0.64l6,-5.27a1.09,1.09 0 0 1 1.55,0l11.82,11.6a1.08,1.08 0 0 0 1.78,-0.41l18.71,-51.72a1.09,1.09 0 0 0 -1.38,-1.43l0.1,-0.05z" fill="#f9bb16" opacity="0.5" id="svg_554"/>
 </g>
</svg>