<svg xmlns="http://www.w3.org/2000/svg" xmlns:xlink="http://www.w3.org/1999/xlink" width="86" height="86" viewBox="0 0 86 86"><defs><style>.a,.c{fill:#262626;}.a{stroke:#707070;}.b{clip-path:url(#a);}</style><clipPath id="a"><rect class="a" width="86" height="86" transform="translate(880 4647)"/></clipPath></defs><g class="b" transform="translate(-880 -4647)"><g transform="translate(884.423 4650.997)"><path class="c" d="M60.725,40.473H56.052a1.054,1.054,0,0,1,0-2.108h4.674A6.739,6.739,0,1,0,60.9,24.889a1.054,1.054,0,0,1-.9-1.547,6.251,6.251,0,0,0,.738-2.96,6.649,6.649,0,0,0-6.669-6.615,6.745,6.745,0,0,0-2.307.43,1.054,1.054,0,0,1-1.406-.9A10.15,10.15,0,0,0,31.408,9.3a1.054,1.054,0,0,1-1.5.363,6.768,6.768,0,0,0-3.755-1.149,6.649,6.649,0,0,0-6.668,6.614,6.323,6.323,0,0,0,.316,1.887,1.054,1.054,0,0,1-.92,1.356,10.012,10.012,0,0,0,.843,19.993h1.4a1.054,1.054,0,1,1,0,2.108h-1.4a12.119,12.119,0,0,1-2.234-24.035,7.464,7.464,0,0,1-.117-1.3A8.782,8.782,0,0,1,30.132,7.365,12.263,12.263,0,0,1,52.292,11.86a8.276,8.276,0,0,1,1.792-.2,8.76,8.76,0,0,1,8.777,8.723,8.3,8.3,0,0,1-.4,2.571,8.845,8.845,0,0,1-1.729,17.52Z" transform="translate(0)"/><path class="c" d="M55.413,74.295H20.48a1.054,1.054,0,0,1-1.054-1.054V30.454A1.054,1.054,0,0,1,20.48,29.4H55.413a1.054,1.054,0,0,1,1.054,1.054V73.241A1.054,1.054,0,0,1,55.413,74.295Zm-33.88-2.108H54.359V31.508H21.534Z" transform="translate(0.638 1.476)"/><path class="c" d="M48.887,41.153H26.372a1.054,1.054,0,1,1,0-2.108H48.887a1.054,1.054,0,1,1,0,2.108Z" transform="translate(0.956 1.995)"/><path class="c" d="M48.887,48.257H26.372a1.054,1.054,0,1,1,0-2.108H48.887a1.054,1.054,0,1,1,0,2.108Z" transform="translate(0.956 2.378)"/><path class="c" d="M48.887,55.362H26.372a1.054,1.054,0,0,1,0-2.108H48.887a1.054,1.054,0,0,1,0,2.108Z" transform="translate(0.956 2.761)"/><path class="c" d="M48.887,62.466H26.372a1.054,1.054,0,0,1,0-2.108H48.887a1.054,1.054,0,0,1,0,2.108Z" transform="translate(0.956 3.143)"/></g></g></svg>