<svg xmlns="http://www.w3.org/2000/svg" xmlns:xlink="http://www.w3.org/1999/xlink" width="86" height="86" viewBox="0 0 86 86"><defs><style>.a,.c{fill:#262626;}.a{stroke:#707070;}.b{clip-path:url(#a);}</style><clipPath id="a"><rect class="a" width="86" height="86" transform="translate(795 4504)"/></clipPath></defs><g class="b" transform="translate(-795 -4504)"><g transform="translate(805 4513.411)"><path class="c" d="M10.237,62.376H3.771A1.771,1.771,0,0,1,2,60.6V40.671A1.771,1.771,0,0,1,3.771,38.9h6.466a1.771,1.771,0,0,1,1.771,1.771V60.6A1.771,1.771,0,0,1,10.237,62.376Zm-6.466-21.7V60.6h6.466V40.671Z" transform="translate(0 -3.922)"/><path class="c" d="M41.26,55.408H26.2a.886.886,0,0,1,0-1.771H41.26a2.534,2.534,0,1,0,0-5.068H33.088a.88.88,0,0,1-.6-.236A14.928,14.928,0,0,0,22.31,44.34H12.186a.886.886,0,0,1,0-1.771H22.311A16.69,16.69,0,0,1,33.432,46.8H41.26a4.305,4.305,0,0,1,0,8.611Z" transform="translate(-1.063 -4.341)"/><path class="c" d="M34.032,67.025a17.6,17.6,0,0,1-6.354-1.184L11.87,59.729a.886.886,0,1,1,.639-1.652l15.807,6.111a15.875,15.875,0,0,0,12.872-.639L63.164,52.44A7,7,0,0,0,55.922,50.7L44.285,54.656a.886.886,0,1,1-.57-1.677l11.638-3.955a8.775,8.775,0,0,1,9.132,2.234l.141.147a1.576,1.576,0,0,1-.429,2.5L41.987,65.132a17.642,17.642,0,0,1-7.955,1.893Z" transform="translate(-1.063 -5.026)"/><path class="c" d="M45.813,38.087c-.48,0-.962-.02-1.449-.061A16.828,16.828,0,0,1,43.495,4.6a.886.886,0,0,1,1.007.877V22.588H61.614a.886.886,0,0,1,.878,1.007A16.828,16.828,0,0,1,45.813,38.087ZM42.73,6.527A15.057,15.057,0,1,0,60.562,24.359H43.616a.886.886,0,0,1-.886-.886Z" transform="translate(-3.088 0)"/><path class="c" d="M63.955,19.93H50.386a.886.886,0,0,1-.886-.886V5.476a.886.886,0,0,1,.3-.668.876.876,0,0,1,.7-.21A16.852,16.852,0,0,1,64.832,18.923a.886.886,0,0,1-.878,1.007ZM51.271,18.159H62.9A15.087,15.087,0,0,0,51.271,6.528Z" transform="translate(-5.429 0)"/></g></g></svg>