<svg xmlns="http://www.w3.org/2000/svg" xmlns:xlink="http://www.w3.org/1999/xlink" width="86" height="86" viewBox="0 0 86 86"><defs><style>.a,.c{fill:#262626;}.a{stroke:#707070;}.b{clip-path:url(#a);}</style><clipPath id="a"><rect class="a" width="86" height="86" transform="translate(719 4353)"/></clipPath></defs><g class="b" transform="translate(-719 -4353)"><g transform="translate(728.48 4363.002)"><path class="c" d="M63.354,35.779H50.6a.9.9,0,0,1,0-1.8H63.354a.9.9,0,1,1,0,1.8Z" transform="translate(-4.769 -3.233)"/><path class="c" d="M34.974,63.4a105.136,105.136,0,0,1-18.54-1.629.9.9,0,0,1-.741-.885v-31.7a.9.9,0,0,1,.28-.653.884.884,0,0,1,.667-.245,9.911,9.911,0,0,0,7.428-2.909c3.671-3.479,5.693-9.54,5.693-17.069,0-.589-.018-1.187-.046-1.8A4.332,4.332,0,0,1,32.175,2.5,5.938,5.938,0,0,1,34.719,2a6.832,6.832,0,0,1,4.668,2.059c5.039,4.951,3.979,13.017,3.172,16.623H59.917A5.933,5.933,0,0,1,63.128,31.6a5.726,5.726,0,0,1-1.314,10.339,5.862,5.862,0,0,1-3.8,10.179,5.719,5.719,0,0,1-4.078,9.661A113.843,113.843,0,0,1,34.974,63.4ZM17.491,60.13A107.58,107.58,0,0,0,53.71,60a.931.931,0,0,1,.15-.013,3.931,3.931,0,0,0,0-7.862.9.9,0,0,1,0-1.8h3.991a4.065,4.065,0,1,0,0-8.13.9.9,0,1,1,0-1.8h2.27a3.926,3.926,0,0,0,0-7.853h-.2a.9.9,0,0,1,0-1.8,4.135,4.135,0,0,0,0-8.27h-18.5a.9.9,0,0,1-.872-1.121c.5-1.868,2.645-11.048-2.416-16.02A5.042,5.042,0,0,0,34.691,3.8a3.923,3.923,0,0,0-1.768.336,2.517,2.517,0,0,0-1.409,2.337c.027.6.046,1.224.046,1.84,0,8.026-2.22,14.552-6.254,18.374a11.947,11.947,0,0,1-7.814,3.409Z" transform="translate(-1.332 0)"/><path class="c" d="M61.433,46.515H52.024a.9.9,0,1,1,0-1.8h9.409a.9.9,0,0,1,0,1.8Z" transform="translate(-4.913 -4.318)"/><path class="c" d="M63.354,35.779H50.6a.9.9,0,0,1,0-1.8H63.354a.9.9,0,1,1,0,1.8Z" transform="translate(-4.769 -3.233)"/><path class="c" d="M57.729,57.559H54.867a.9.9,0,1,1,0-1.8h2.862a.9.9,0,0,1,0,1.8Z" transform="translate(-5.201 -5.435)"/><path class="c" d="M61.433,46.515H52.024a.9.9,0,1,1,0-1.8h9.409a.9.9,0,0,1,0,1.8Z" transform="translate(-4.913 -4.318)"/><path class="c" d="M57.729,57.559H54.867a.9.9,0,1,1,0-1.8h2.862a.9.9,0,0,1,0,1.8Z" transform="translate(-5.201 -5.435)"/><path class="c" d="M44.2,24.584a.9.9,0,0,1-.9-.894v-.009a.9.9,0,1,1,.9.9Z" transform="translate(-4.123 -2.101)"/><path class="c" d="M13.908,67.524H4.767A2.254,2.254,0,0,1,2.52,65.277V29.968a2.253,2.253,0,0,1,2.247-2.247h9.141a2.253,2.253,0,0,1,2.247,2.247V65.277a2.254,2.254,0,0,1-2.247,2.247ZM4.767,29.515a.449.449,0,0,0-.449.449V65.277a.449.449,0,0,0,.449.449h9.141a.449.449,0,0,0,.449-.449V29.968a.449.449,0,0,0-.449-.449Z" transform="translate(0 -2.6)"/></g></g></svg>