<svg xmlns="http://www.w3.org/2000/svg" xmlns:xlink="http://www.w3.org/1999/xlink" width="86" height="86" viewBox="0 0 86 86"><defs><style>.a,.c{fill:#262626;}.a{stroke:#707070;}.b{clip-path:url(#a);}</style><clipPath id="a"><rect class="a" width="86" height="86" transform="translate(831 4403)"/></clipPath></defs><g class="b" transform="translate(-831 -4403)"><g transform="translate(841.005 4413.008)"><path class="c" d="M43.856,63.991H15.72a.886.886,0,0,1-.886-.886A22.627,22.627,0,0,0,13.352,55a22.11,22.11,0,0,0-4.273-7.029A27.385,27.385,0,0,1,2.042,27.993,27.85,27.85,0,0,1,27.778,2.053,27.346,27.346,0,0,1,48.391,9.464a27.656,27.656,0,0,1,8.693,20.077v.729l6.772,10.642a.886.886,0,0,1-.75,1.362H57.084v8a4.84,4.84,0,0,1-4.834,4.834H44.842a.1.1,0,0,0-.1.1v7.9A.886.886,0,0,1,43.856,63.991ZM16.591,62.22H42.97V55.21a1.875,1.875,0,0,1,1.872-1.873h7.4a3.067,3.067,0,0,0,3.066-3.063V41.389A.886.886,0,0,1,56.2,40.5h5.3L55.449,31a.886.886,0,0,1-.139-.476v-.987A25.776,25.776,0,0,0,27.888,3.821,26.057,26.057,0,0,0,3.81,28.086a25.626,25.626,0,0,0,6.584,18.7,23.85,23.85,0,0,1,4.614,7.587,24.328,24.328,0,0,1,1.583,7.849Z"/><path class="c" d="M30.712,48.424A17.712,17.712,0,1,1,48.424,30.712,17.712,17.712,0,0,1,30.712,48.424Zm0-33.653A15.941,15.941,0,1,0,46.653,30.712,15.941,15.941,0,0,0,30.712,14.771Z" transform="translate(-1.259 -1.259)"/><path class="c" d="M28.1,42.489a.886.886,0,0,1-.841-1.162l2.5-7.633-3.827-1.707a.886.886,0,0,1-.266-1.44l9.718-9.564a.886.886,0,0,1,1.467.891l-2.366,7.713,3.845,1.7a.886.886,0,0,1,.254,1.448l-9.873,9.5A.886.886,0,0,1,28.1,42.489ZM27.838,30.9l3.371,1.491a.886.886,0,0,1,.482,1.085l-1.644,5.013,6.36-6.12-3.355-1.492a.886.886,0,0,1-.487-1.069l1.57-5.115Z" transform="translate(-2.678 -2.143)"/></g></g></svg>