<svg xmlns="http://www.w3.org/2000/svg" xmlns:xlink="http://www.w3.org/1999/xlink" width="84" height="84" viewBox="0 0 84 84"><defs><style>.a{fill:#e5181e;stroke:#d9d9d9;}.b{clip-path:url(#a);}.c,.d{fill:none;}.d{stroke:#e5181e;stroke-linecap:round;stroke-linejoin:round;stroke-width:3px;}</style><clipPath id="a"><rect class="a" width="84" height="84" rx="4" transform="translate(255 4601)"/></clipPath></defs><g class="b" transform="translate(-255 -4601)"><g transform="translate(271 4617)"><rect class="c" width="52" height="52"/><path class="d" d="M159.417,40A16.28,16.28,0,0,1,170.91,51.493" transform="translate(-127.035 -31.875)"/><path class="d" d="M151.133,70.917a9.768,9.768,0,0,1,6.9,6.9" transform="translate(-120.434 -56.512)"/><path class="d" d="M50.659,51.11a17.133,17.133,0,0,0,7.933,7.9,1.61,1.61,0,0,0,1.59-.12L65.268,55.5a1.625,1.625,0,0,1,1.542-.142l9.514,4.077a1.62,1.62,0,0,1,.975,1.685,9.752,9.752,0,0,1-9.673,8.516A27.625,27.625,0,0,1,40,42.007a9.752,9.752,0,0,1,8.515-9.673,1.62,1.62,0,0,1,1.686.975l4.081,9.522a1.625,1.625,0,0,1-.134,1.53l-3.379,5.163a1.611,1.611,0,0,0-.109,1.586Z" transform="translate(-31.875 -25.757)"/></g></g></svg>