<svg id="Group_1336" data-name="Group 1336" xmlns="http://www.w3.org/2000/svg" width="32" height="32" viewBox="0 0 32 32">
  <rect id="Rectangle_440" data-name="Rectangle 440" width="32" height="32" fill="none"/>
  <path id="Path_2527" data-name="Path 2527" d="M53.994,18h-3V17a1,1,0,1,0-2,0v1h-10V17a1,1,0,1,0-2,0v1h-3a2,2,0,0,0-2,2V40a2,2,0,0,0,2,2h20a2,2,0,0,0,2-2V20A2,2,0,0,0,53.994,18Zm0,6h-20V20h3v1a1,1,0,1,0,2,0V20h10v1a1,1,0,1,0,2,0V20h3Z" transform="translate(-27.995 -13.997)" fill="#e5181e"/>
</svg>
