<svg id="Group_1338" data-name="Group 1338" xmlns="http://www.w3.org/2000/svg" width="32" height="32" viewBox="0 0 32 32">
  <rect id="Rectangle_442" data-name="Rectangle 442" width="32" height="32" fill="none"/>
  <path id="Path_2529" data-name="Path 2529" d="M48,40H26a2,2,0,0,0-2,2V60a2,2,0,0,0,2,2H48a2,2,0,0,0,2-2V42A2,2,0,0,0,48,40ZM43.5,56h-13a1,1,0,0,1,0-2h13a1,1,0,0,1,0,2Zm0-4h-13a1,1,0,0,1,0-2h13a1,1,0,0,1,0,2Zm0-4h-13a1,1,0,0,1,0-2h13a1,1,0,0,1,0,2Z" transform="translate(-21 -35)" fill="#e5181e"/>
</svg>
