<svg xmlns="http://www.w3.org/2000/svg" width="154" height="142" viewBox="0 0 154 142"><defs><style>.a{fill:#c31e23;}.b,.e{fill:#3b3a3c;}.c{fill:#fff;}.d{fill:#2c3b44;}.e{opacity:0.2;}</style></defs><g transform="translate(73.799 57.365)"><g transform="translate(57.731 22.408)"><path class="a" d="M1276.209,799.942c-.045-.021-.084-.042-.125-.063-2.208-1.162-10.086-7.731-15.683-10.931-1.94-1.109-1.51-5.687,7.836-7.519.631-.122,1.3-.234,2.017-.331,0,0,9.378,4.769,11.063,11.339C1282.974,798.885,1278.466,800.968,1276.209,799.942Z" transform="translate(-1259.471 -780.837)"/><g transform="translate(5.169 5.13)"><path class="b" d="M1312,834.033a.262.262,0,0,1-.242-.362,10.423,10.423,0,0,1,2.016-3.246c-2.019-1.865-8.472-5.813-8.539-5.854a.262.262,0,0,1,.273-.446c.286.175,7.026,4.3,8.83,6.117a.261.261,0,0,1-.017.384,9.125,9.125,0,0,0-2.079,3.247A.262.262,0,0,1,1312,834.033Z" transform="translate(-1305.11 -824.086)"/></g><g transform="translate(8.504)"><path class="c" d="M1344.85,799.942a4.6,4.6,0,0,0,3.656-4.829c-.147-7.009-8.809-12.187-11.629-13.683.632-.122,1.3-.234,2.017-.331,0,0,9.378,4.769,11.063,11.339C1351.615,798.885,1347.108,800.968,1344.85,799.942Z" transform="translate(-1336.616 -780.837)"/><path class="b" d="M1344.022,798.406a3.212,3.212,0,0,1-1.331-.276.262.262,0,0,1,.032-.489,4.351,4.351,0,0,0,3.471-4.573c-.144-6.9-8.831-12.046-11.489-13.458a.261.261,0,0,1,.073-.488c.655-.127,1.338-.239,2.031-.334a.258.258,0,0,1,.154.026c.387.2,9.5,4.9,11.2,11.507,1.078,4.193-.44,6.228-1.441,7.067A4.267,4.267,0,0,1,1344.022,798.406Zm-.36-.547a3.7,3.7,0,0,0,2.721-.87c.906-.76,2.277-2.62,1.271-6.536-1.559-6.079-9.989-10.674-10.857-11.133-.4.056-.8.118-1.2.186,3.264,1.831,10.976,6.864,11.116,13.553A4.7,4.7,0,0,1,1343.662,797.859Z" transform="translate(-1334.565 -778.787)"/></g></g><g transform="translate(53.687 27.249)"><path class="c" d="M1226.079,826.2l5.713-2.355a3.318,3.318,0,0,1,1.8,2.719l-5.161,3.474Z" transform="translate(-1225.817 -823.583)"/><path class="b" d="M1226.385,828.25a.263.263,0,0,1-.223-.125l-2.355-3.838a.262.262,0,0,1,.124-.379l5.713-2.355a.265.265,0,0,1,.2,0,3.559,3.559,0,0,1,1.964,2.929.262.262,0,0,1-.114.249l-5.161,3.474A.261.261,0,0,1,1226.385,828.25Zm-1.971-3.974,2.052,3.343,4.8-3.23a3.1,3.1,0,0,0-1.529-2.307Z" transform="translate(-1223.768 -821.534)"/></g><g transform="translate(0 0)"><path class="d" d="M806.77,618.475a57.4,57.4,0,0,1-10.139,6.884,15.2,15.2,0,0,1-6.838,1.954,12.282,12.282,0,0,1-4.358-1.357c-8.5-4.005-23-15.906-28.787-22.367a29.575,29.575,0,0,1-3.6-4.968c-3.89-6.723-4.441-13.847-1.4-16.548,2.512-2.233,5.99-.987,9.828,1.7a83.758,83.758,0,0,1,7.965,6.674c6.748,6.165,24.715,21.167,24.715,21.167l8.024-2.268C808.748,610.74,806.77,618.475,806.77,618.475Z" transform="translate(-749.697 -580.918)"/><path class="e" d="M762.465,589.333l-9.416,9.287c-3.89-6.723-4.441-13.847-1.4-16.548,2.512-2.233,5.99-.987,9.828,1.7Z" transform="translate(-749.697 -580.918)"/><path class="a" d="M1076.444,938.23a15.2,15.2,0,0,1-6.838,1.954,12.281,12.281,0,0,1-4.358-1.357c-.1-2.125,1.821-4.843,5.436-5.062C1075.115,933.493,1076.5,936.406,1076.444,938.23Z" transform="translate(-1029.509 -893.79)"/><g transform="translate(6.37 8.279)"><path class="c" d="M841.7,682.891a.259.259,0,0,1-.107-.023c-11.6-5.192-35.336-28.167-35.575-28.4a.262.262,0,0,1,.365-.375c.237.23,23.785,23.019,35.331,28.254l10.108-3.37a.262.262,0,1,1,.165.5l-10.2,3.4A.265.265,0,0,1,841.7,682.891Z" transform="translate(-805.943 -654.02)"/></g><g transform="translate(51.595 29.648)"><path class="b" d="M1209.039,851.173l-.03,0a.262.262,0,0,1-.23-.289c.748-6.52-3.129-7.611-3.294-7.654a.262.262,0,0,1,.13-.507c.045.011,4.486,1.228,3.684,8.22A.262.262,0,0,1,1209.039,851.173Z" transform="translate(-1205.288 -842.713)"/></g></g></g><g transform="translate(76.608 56.674)"><g transform="translate(26.085 56.315)"><path class="a" d="M1036.594,1065.777c-.523,8.255-3.429,12.849-6.918,12.267a4.143,4.143,0,0,1-1.758-.7c-1.891-1.326-2.208-4.12-2.488-6.4-.349-2.85-2.672-14.332-3.081-16.457s.408-5.066,2.819-5.146a31.465,31.465,0,0,1,6.782,1.169c1.406.36,2.435.663,2.435.663A34.914,34.914,0,0,1,1036.594,1065.777Z" transform="translate(-1022.249 -1049.344)"/><g transform="translate(3.076 3.725)"><path class="b" d="M1049.67,1096.833a.262.262,0,0,1-.052-.518,10.732,10.732,0,0,1,3.689-.052c.341-4.008-.917-13.63-.93-13.729a.261.261,0,0,1,.225-.293.258.258,0,0,1,.293.225c.055.417,1.341,10.252.9,14.135a.262.262,0,0,1-.315.226,10.384,10.384,0,0,0-3.761,0A.272.272,0,0,1,1049.67,1096.833Z" transform="translate(-1049.408 -1082.237)"/></g><g transform="translate(6.576 0.973)"><path class="c" d="M1090.133,1075.443c-.523,8.255-3.43,12.849-6.918,12.267a4.7,4.7,0,0,1-.59-.136c1.518-.321,4.117-1.936,5.258-9.008a35.5,35.5,0,0,0-2.146-18.32c1.277.332,2.188.6,2.188.6A34.914,34.914,0,0,1,1090.133,1075.443Z" transform="translate(-1082.364 -1059.983)"/><path class="b" d="M1081.763,1085.972a3.9,3.9,0,0,1-.639-.054,5.044,5.044,0,0,1-.622-.144.261.261,0,0,1,.021-.506c1.405-.3,3.931-1.835,5.053-8.794a35.135,35.135,0,0,0-2.129-18.178.261.261,0,0,1,.307-.353c1.266.329,2.186.6,2.2.6a.261.261,0,0,1,.166.148,35.525,35.525,0,0,1,2.229,14.718h0c-.355,5.609-1.851,9.851-4.1,11.637A3.936,3.936,0,0,1,1081.763,1085.972Zm-.182-.529a3.377,3.377,0,0,0,2.338-.805c2.135-1.7,3.558-5.8,3.905-11.261a35.2,35.2,0,0,0-2.142-14.365c-.237-.069-.807-.231-1.557-.431a35.733,35.733,0,0,1,1.967,17.976C1085.136,1082.493,1083.124,1084.668,1081.581,1085.443Zm6.5-12.05h0Z" transform="translate(-1080.316 -1057.933)"/></g></g><g transform="translate(20.081 53.195)"><path class="c" d="M978.077,1031.784l-2.644-1.41-3.9-2.079,2.529-4.187,1.322.942,4.435,3.154A2.465,2.465,0,0,1,978.077,1031.784Z" transform="translate(-971.273 -1023.846)"/><path class="b" d="M976.029,1029.994a.261.261,0,0,1-.123-.031l-6.542-3.489a.262.262,0,0,1-.1-.366l2.529-4.187a.261.261,0,0,1,.376-.078l5.756,4.1a.266.266,0,0,1,.082.095,3.014,3.014,0,0,1,.125,2.307,3.045,3.045,0,0,1-2.021,1.639A.27.27,0,0,1,976.029,1029.994Zm-6.175-3.851,6.2,3.305a2.489,2.489,0,0,0,1.6-1.306,2.46,2.46,0,0,0-.083-1.816l-5.47-3.892Z" transform="translate(-969.226 -1021.795)"/><path class="b" d="M975.432,1030.374l-3.9-2.079,2.529-4.187,1.322.942A9.137,9.137,0,0,1,975.432,1030.374Z" transform="translate(-971.273 -1023.846)"/></g><g transform="translate(6.604 11.546)"><path class="c" d="M854.37,660.386a.268.268,0,0,1-.057-.006l-1.962-.436a.262.262,0,0,1-.19-.168l-1.919-5.408a.262.262,0,0,1,.494-.175l1.87,5.271,1.821.4a.262.262,0,0,1-.057.517Z" transform="translate(-850.226 -654.019)"/></g><path class="d" d="M818.705,578.225c-2.7,7.24-10.641,20.323-10.641,20.323l7.763,7.065c1.221,8.461-5.408,10.379-5.408,10.379s-8.5-4.556-13.195-7.616a21.329,21.329,0,0,1-2.592-1.891c-2.107-1.968-3.255-4.445-2.48-8.754a24.924,24.924,0,0,1,.911-3.458c2.181-6.542,9.594-22.5,9.594-22.5s-5.23-13.192-.61-16.4c5.408-3.751,13.781,4.1,15.874,7.588S821.409,570.986,818.705,578.225Z" transform="translate(-791.909 -554.12)"/><g transform="translate(5.88)"><path class="c" d="M856.874,592.04a.262.262,0,0,1-.227-.392c2.681-4.684,6.221-11.187,7.856-15.565,2.808-7.519,1.066-11.986-.765-15.038-1.383-2.306-6.132-7.265-10.84-8.279a5.755,5.755,0,0,0-4.66.771c-4.4,3.053.653,15.956.7,16.086a.262.262,0,0,1-.006.207c-.022.048-2.258,4.863-4.6,10.215a.261.261,0,1,1-.479-.21c2.16-4.928,4.226-9.4,4.561-10.124-.524-1.352-5.041-13.435-.475-16.6a6.258,6.258,0,0,1,5.069-.852c4.863,1.047,9.756,6.149,11.18,8.521,1.891,3.152,3.692,7.762.805,15.49-1.647,4.41-5.2,10.94-7.891,15.642A.262.262,0,0,1,856.874,592.04Z" transform="translate(-843.831 -552.069)"/></g><g transform="translate(10.486 13.682)"><path class="c" d="M884.764,677.118a.262.262,0,0,1-.187-.444,19.25,19.25,0,0,1,6.592-3.768.262.262,0,1,1,.186.489,19.174,19.174,0,0,0-6.4,3.646A.262.262,0,0,1,884.764,677.118Z" transform="translate(-884.502 -672.888)"/></g><path class="a" d="M799.6,932.769a3.739,3.739,0,0,1-2.379,1.5,21.294,21.294,0,0,1-2.592-1.891c-2.107-1.968-3.255-4.445-2.481-8.754a3,3,0,0,1,2.435-1.713C800.085,921.472,802.179,929.409,799.6,932.769Z" transform="translate(-791.909 -880.009)"/><g transform="translate(9.962 5.615)"><path class="c" d="M890.084,648.049a.26.26,0,0,1-.15-.047l-9.943-6.978a.261.261,0,0,1-.094-.309c2.575-6.645,12.064-28.978,12.86-30.849-1.69-2.758-6.56-7.724-6.61-7.774a.262.262,0,0,1,.373-.367c.207.211,5.1,5.2,6.754,7.987a.263.263,0,0,1,.016.236c-.1.238-10.052,23.633-12.831,30.765l9.775,6.86a.262.262,0,0,1-.151.476Z" transform="translate(-879.88 -601.647)"/></g><g transform="translate(17.333 50.49)"><path class="b" d="M945.222,1007.547a.262.262,0,0,1-.1-.5c5.29-2.207,4.387-8.769,4.377-8.835a.262.262,0,0,1,.518-.076c.01.07.967,7.032-4.693,9.394A.261.261,0,0,1,945.222,1007.547Z" transform="translate(-944.96 -997.909)"/></g></g><g transform="translate(4.693 21.757)"><g transform="translate(0 9.368)"><path class="c" d="M215.644,375.579l-4.255,1.276s-11.525-1.517-13.684-1.663-3.228,3.679-.388,4.846,11.351,4.433,13.215,4.475,9.066-1.76,9.066-1.76Z" transform="translate(-195.338 -374.927)"/><path class="b" d="M208.563,382.73h-.069c-1.909-.043-10.423-3.31-13.309-4.495a2.882,2.882,0,0,1-1.8-3.388,2.312,2.312,0,0,1,2.307-1.961c2.089.142,12.676,1.53,13.645,1.657l4.2-1.26a.261.261,0,0,1,.3.124l3.954,7.174a.262.262,0,0,1-.166.38C217.337,381.034,210.537,382.73,208.563,382.73ZM195.552,373.4a1.851,1.851,0,0,0-1.659,1.561,2.346,2.346,0,0,0,1.491,2.785c2.747,1.128,11.309,4.415,13.121,4.456,1.575.041,7.236-1.321,8.666-1.671l-3.687-6.69-4.053,1.215a.254.254,0,0,1-.109.009c-.115-.015-11.542-1.517-13.668-1.661C195.62,373.406,195.586,373.4,195.552,373.4Z" transform="translate(-193.306 -372.882)"/></g><g transform="translate(19.194)"><path class="a" d="M387.5,290.164l-24.707,9.86s.067,10.385,7.27,13.675L389.3,303.676S395.009,295.624,387.5,290.164Z" transform="translate(-362.794 -290.164)"/><g transform="translate(2.126 9.988)"><path class="b" d="M387.45,390.272a.262.262,0,0,1-.135-.038c-5.818-3.526-5.747-11.537-5.746-11.617a.262.262,0,0,1,.523.009c0,.078-.064,7.792,5.494,11.16a.262.262,0,0,1-.136.486Z" transform="translate(-381.569 -378.359)"/></g></g></g><g transform="translate(47.517 19.62)"><path class="a" d="M554.187,287.119,565.21,288.2l15.7-1.177s13.214,17.575,20.977,33.8c0,0-6.367,10.815-18.927,12.473s-17.968-2.53-17.968-2.53-1.4-10.467-5.931-17.619c-3.429-5.407-10.4-13.406-10.861-20.266A5.451,5.451,0,0,1,554.187,287.119Z" transform="translate(-547.926 -286.426)"/><g transform="translate(0 2.551)"><path class="b" d="M549.22,317.02a.261.261,0,0,1-.228-.133,21.093,21.093,0,0,1-3.1-8.7,5.642,5.642,0,0,1,1.155-3.821.262.262,0,0,1,.415.319,5.122,5.122,0,0,0-1.048,3.466,20.61,20.61,0,0,0,3.033,8.482.262.262,0,0,1-.227.391Z" transform="translate(-545.88 -304.26)"/></g><g transform="translate(18.296 33.38)"><path class="b" d="M719.1,588.489a35.079,35.079,0,0,1-11.5-1.846.262.262,0,0,1,.19-.488,35.587,35.587,0,0,0,18.054,1.15c9.321-1.876,15.184-10.615,15.242-10.7a.262.262,0,0,1,.437.288c-.059.09-6.043,9.01-15.576,10.928A34.735,34.735,0,0,1,719.1,588.489Z" transform="translate(-707.433 -576.485)"/></g><g transform="translate(9.968 0)"><path class="c" d="M641.7,284.077c-3.267.355-8.053,4.972-3.809,9.158a15.177,15.177,0,0,1,2.064-2.7,15.57,15.57,0,0,0,1.4,3.4s4-1.919,4.855-5.582S643.709,283.859,641.7,284.077Z" transform="translate(-635.957 -283.783)"/><path class="b" d="M639.291,292.148a.262.262,0,0,1-.226-.13,15.305,15.305,0,0,1-1.294-3.024,15.572,15.572,0,0,0-1.714,2.326.262.262,0,0,1-.192.128.265.265,0,0,1-.218-.073,4.782,4.782,0,0,1-1.488-5.229,7.15,7.15,0,0,1,5.453-4.376h0a5.05,5.05,0,0,1,4.175,1.3,3.512,3.512,0,0,1,.614,3.294c-.876,3.742-4.829,5.678-5,5.759A.263.263,0,0,1,639.291,292.148Zm-1.4-3.925a.262.262,0,0,1,.253.2,15.707,15.707,0,0,0,1.245,3.118c.829-.457,3.792-2.279,4.5-5.292a3.022,3.022,0,0,0-.5-2.828,4.56,4.56,0,0,0-3.727-1.126h0a6.675,6.675,0,0,0-5.015,4.028,4.238,4.238,0,0,0,1.131,4.445,14.937,14.937,0,0,1,1.926-2.464A.262.262,0,0,1,637.9,288.223Z" transform="translate(-633.895 -281.737)"/></g></g><g transform="translate(58.303 13.301)"><g transform="translate(0 0)"><path class="c" d="M651.558,228.256l1.064,3.147,1.82,5.383c-1.332,1.913-3.028,2.687-5.175,2.042l-.665-2.567-1.007-3.888Z" transform="translate(-647.334 -227.994)"/><path class="b" d="M648.644,237.264a5.2,5.2,0,0,1-1.5-.234.262.262,0,0,1-.178-.185l-1.671-6.456a.262.262,0,0,1,.065-.247l3.962-4.117a.262.262,0,0,1,.436.1l2.884,8.53a.262.262,0,0,1-.033.233A4.787,4.787,0,0,1,648.644,237.264Zm-1.208-.695c1.864.509,3.394-.105,4.668-1.874l-2.7-8-3.562,3.7Z" transform="translate(-645.286 -225.945)"/></g><path class="b" d="M650.19,240.81c.493,1.417,2.386,6.164-1.2,8.072l-1.392-5.376Z" transform="translate(-647.334 -239.127)"/></g><g transform="translate(50.171 5.233)"><g transform="translate(0)"><g transform="translate(2.667 2.929)"><path class="c" d="M599.305,188.42c.724,2.59,2.037,5.611,5.115,4.57,3.659-1.237,5.628-4.318,5.041-7.9s-2.587-5.316-6.8-4.162a6.659,6.659,0,0,0-1.046.38,4.765,4.765,0,0,0-2.665,5.723C599.052,187.458,599.168,187.932,599.305,188.42Z" transform="translate(-598.781 -180.571)"/></g><g transform="translate(2.341 2.959)"><path class="b" d="M600.946,193.745a3.023,3.023,0,0,1-1.721-.364c-1.794-.99-2.561-3.64-3.14-6.047a5.194,5.194,0,0,1,3.942-6.493.326.326,0,0,1,.172.628,4.527,4.527,0,0,0-3.481,5.713c.395,1.641,1.129,4.695,2.822,5.629a2.65,2.65,0,0,0,2.229.1,7.652,7.652,0,0,0,3.332-2.131.326.326,0,0,1,.487.433,8.41,8.41,0,0,1-3.61,2.315A4.2,4.2,0,0,1,600.946,193.745Z" transform="translate(-595.908 -180.829)"/></g><path class="b" d="M590.1,162.4a11.253,11.253,0,0,1-.969,1.7l-1.678.435-.527-1.284s-1.554.173-1.947-.6a.485.485,0,0,1-.026-.055,10.706,10.706,0,0,1-.709-3.3,21.727,21.727,0,0,1-4.254,2.239,3.666,3.666,0,0,1-1.941-.143,4.542,4.542,0,0,1-2.81-3.643c0-.009,0-.018,0-.027-.007-2.067,1.281-.858,1.281-.858s.018-1.668,1.01-1.961,1.9,1.089,1.9,1.089a16.185,16.185,0,0,1,5.888-1.278c4.018-.082,3.513,2.783,3.513,2.783S591.864,157.913,590.1,162.4Z" transform="translate(-575.236 -154.704)"/></g><g transform="translate(11.71 5.949)"><path class="c" d="M681.025,213.181a2.887,2.887,0,0,1,2-3.553,2.588,2.588,0,0,1,.936-.065c1.974.228,2.138,4.721-2.555,5.079Z" transform="translate(-680.668 -209.285)"/><path class="b" d="M679.379,212.856a.262.262,0,0,1-.02-.523c2.633-.2,3.595-1.712,3.619-2.946a1.446,1.446,0,0,0-1.073-1.613,2.328,2.328,0,0,0-.842.058,2.594,2.594,0,0,0-1.9,2.433.258.258,0,0,1-.272.251.262.262,0,0,1-.251-.272,3.121,3.121,0,0,1,2.3-2.919,2.844,2.844,0,0,1,1.03-.071A1.95,1.95,0,0,1,683.5,209.4c-.03,1.567-1.31,3.244-4.1,3.457Z" transform="translate(-678.637 -207.236)"/></g></g><g transform="translate(1.927 33.385)"><g transform="translate(76.45 60.823)"><path class="c" d="M870.049,932.853s8.247-1.014,8.295-11.836-7.826-11.3-7.826-11.3l-24.252-.1s7.488,19.034,12.367,21.063S870.049,932.853,870.049,932.853Z" transform="translate(-846.004 -909.354)"/><path class="b" d="M868,931.065h-.006c-.066,0-6.642-.169-11.511-2.194-4.925-2.048-12.2-20.428-12.51-21.21a.262.262,0,0,1,.244-.357h0l24.252.1c.1.005,8.136.625,8.087,11.567-.049,10.926-8.44,12.084-8.525,12.095Zm-23.4-23.236c1.061,2.625,7.723,18.746,12.081,20.559,4.646,1.932,10.9,2.142,11.3,2.153.529-.072,8-1.273,8.047-11.575.047-10.435-7.27-11.023-7.581-11.043Z" transform="translate(-843.954 -907.304)"/><g transform="translate(15.411 6.232)"><path class="c" d="M982.348,964.647l11.45.338a9.589,9.589,0,0,1-.628,9.517l-10.629-.05Z" transform="translate(-982.086 -964.385)"/><path class="b" d="M991.12,972.716h0l-10.629-.05a.262.262,0,0,1-.26-.256l-.193-9.805a.262.262,0,0,1,.078-.191.273.273,0,0,1,.192-.076l11.45.338a.261.261,0,0,1,.223.138c.027.05,2.646,5.076-.644,9.791A.263.263,0,0,1,991.12,972.716Zm-10.372-.572,10.235.048a9.364,9.364,0,0,0,.6-9l-11.017-.325Z" transform="translate(-980.036 -962.337)"/></g><g transform="translate(0)"><path class="c" d="M870.518,909.713a9.782,9.782,0,0,0-4.4,8.841c.387,6.039,6.377,7.15,6.377,7.15l-20.484-.1-5.749-15.991Z" transform="translate(-846.004 -909.354)"/><path class="b" d="M870.45,923.915h0l-20.484-.1a.262.262,0,0,1-.245-.173l-5.749-15.991a.262.262,0,0,1,.246-.35h0l24.252.1a.262.262,0,0,1,.132.487,9.6,9.6,0,0,0-4.268,8.6c.369,5.759,5.928,6.865,6.164,6.91a.262.262,0,0,1-.048.519Zm-20.3-.619,18.657.088a7.824,7.824,0,0,1-5-6.864,10.066,10.066,0,0,1,3.848-8.6l-23.069-.092Z" transform="translate(-843.956 -907.304)"/></g></g><g transform="translate(40.019 2.029)"><path class="c" d="M531.98,390.454a11.091,11.091,0,0,1,5.722,9.179,12.941,12.941,0,0,1-3.97,10.435l-9.034-.483S522.305,393.546,531.98,390.454Z" transform="translate(-524.19 -390.192)"/><path class="b" d="M531.8,408.281h-.014l-9.034-.483a.262.262,0,0,1-.245-.223c-.024-.163-2.312-16.3,7.461-19.419a.261.261,0,0,1,.191.012,11.455,11.455,0,0,1,5.872,9.4,13.327,13.327,0,0,1-4.063,10.654A.261.261,0,0,1,531.8,408.281Zm-8.8-.994,8.709.466a12.839,12.839,0,0,0,3.8-10.149,10.934,10.934,0,0,0-5.483-8.915C521.388,391.562,522.771,405.4,523,407.287Z" transform="translate(-522.263 -388.144)"/></g><g transform="translate(39.106 12.657)"><path class="c" d="M523.032,484.739s.58,5.411,3.672,8.551l-9.034-.483-1.16-8.5Z" transform="translate(-516.248 -484.042)"/><path class="b" d="M524.655,491.5h-.014l-9.034-.483a.262.262,0,0,1-.245-.226l-1.159-8.5a.262.262,0,0,1,.277-.3l6.522.435a.262.262,0,0,1,.243.233c.006.053.608,5.359,3.6,8.4a.262.262,0,0,1-.186.445Zm-8.8-.994,8.178.437a16.812,16.812,0,0,1-3.278-8.009l-5.987-.4Z" transform="translate(-514.2 -481.993)"/></g><g transform="translate(0)"><path class="c" d="M271.547,456.6H222.015a28.859,28.859,0,0,1-16.041-16.328c-4.638-12.368-17.583-24.157-24.349-30.725s-15.942-23.673-5.748-37.007l42.984,2.029s-8.479,5.771-5.252,17.137c2.4,8.458,9.566,14.844,18.937,22.285s15.748,14.977,19.131,24.154C254.842,446.736,262.921,456,271.547,456.6Z" transform="translate(-171.052 -372.276)"/><path class="b" d="M269.379,454.812H219.847a.251.251,0,0,1-.086-.015,29.372,29.372,0,0,1-16.2-16.483c-4.254-11.346-15.733-22.394-22.591-28.995-.6-.576-1.165-1.121-1.694-1.635-6.427-6.245-16.295-23.593-5.774-37.354a.268.268,0,0,1,.22-.1l42.984,2.029a.262.262,0,0,1,.135.477c-.083.057-8.283,5.806-5.148,16.849,2.434,8.578,9.976,15.107,18.848,22.151,9.9,7.864,16.009,15.575,19.214,24.268,3.1,8.422,11.04,17.693,19.643,18.285a.262.262,0,0,1-.018.523Zm-49.486-.523H266.43c-7.647-2.188-14.362-10.487-17.167-18.1-3.17-8.6-9.222-16.238-19.048-24.04-8.944-7.1-16.549-13.69-19.026-22.418-2.741-9.657,2.928-15.4,4.792-16.98l-42.146-1.99c-10.173,13.464-.5,30.428,5.805,36.551.529.513,1.1,1.059,1.693,1.633,6.89,6.632,18.423,17.731,22.719,29.188A28.837,28.837,0,0,0,219.893,454.289Z" transform="translate(-168.883 -370.228)"/></g><g transform="translate(5.512 9.326)"><path class="a" d="M218.351,452.585c-.577.056-1.039,3.406-.652,5.628s.918,2.9,1.111,3.092,7.923.531,8.309.483-.193-2.464-.242-4.106.193-3.913.193-4.251S219.1,452.513,218.351,452.585Z" transform="translate(-217.557 -452.579)"/><path class="d" d="M341.9,492.859h0a1.115,1.115,0,0,0,1.049,1.089l15.382.92a1.218,1.218,0,0,0,1.289-1.287h0a1.218,1.218,0,0,0-1.16-1.145l-15.393-.715A1.116,1.116,0,0,0,341.9,492.859Z" transform="translate(-327.818 -487.287)"/><path class="a" d="M255.315,588.937c-.554.09.272,2.965,1.511,4.821a7.713,7.713,0,0,0,2.3,2.539c.267.149,8.1-.139,8.472-.209s-1.139-2.075-1.818-3.464-1.31-3.332-1.44-3.619S256.034,588.82,255.315,588.937Z" transform="translate(-250.884 -573.391)"/><path class="d" d="M394.418,614.248h0a1.116,1.116,0,0,0,1.049,1.089l15.382.92a1.218,1.218,0,0,0,1.289-1.287h0a1.218,1.218,0,0,0-1.16-1.145l-15.393-.715A1.116,1.116,0,0,0,394.418,614.248Z" transform="translate(-374.389 -594.929)"/><path class="a" d="M344.021,702.72c-.554.09.272,2.965,1.511,4.821a7.711,7.711,0,0,0,2.3,2.539c.267.149,8.105-.139,8.472-.209s-1.139-2.075-1.818-3.464-1.31-3.333-1.44-3.619S344.74,702.6,344.021,702.72Z" transform="translate(-329.544 -674.288)"/><path class="d" d="M483.109,727.682h0a1.116,1.116,0,0,0,1.092,1.047l15.407.3a1.218,1.218,0,0,0,1.236-1.338h0a1.218,1.218,0,0,0-1.2-1.1l-15.41-.1A1.116,1.116,0,0,0,483.109,727.682Z" transform="translate(-453.034 -695.476)"/><path class="a" d="M447.061,820.282c-.55.113.395,2.951,1.71,4.754a7.712,7.712,0,0,0,2.4,2.441c.273.138,8.092-.475,8.456-.56s-1.224-2.026-1.96-3.385-1.447-3.275-1.589-3.556S447.774,820.135,447.061,820.282Z" transform="translate(-420.928 -778.287)"/><path class="d" d="M587.256,830.788h0a1.116,1.116,0,0,0,1.134,1l15.406-.336a1.218,1.218,0,0,0,1.18-1.388h0a1.218,1.218,0,0,0-1.249-1.047l-15.4.541A1.116,1.116,0,0,0,587.256,830.788Z" transform="translate(-545.383 -786.386)"/><path class="a" d="M522.563,930.184c-.55.113.395,2.951,1.709,4.754a7.71,7.71,0,0,0,2.4,2.442c.273.138,8.092-.475,8.456-.56s-1.224-2.026-1.96-3.385-1.447-3.275-1.589-3.556S523.276,930.037,522.563,930.184Z" transform="translate(-487.88 -875.743)"/><path class="d" d="M662.758,940.69h0a1.116,1.116,0,0,0,1.134,1l15.406-.337a1.218,1.218,0,0,0,1.18-1.388h0a1.218,1.218,0,0,0-1.249-1.047l-15.4.541A1.116,1.116,0,0,0,662.758,940.69Z" transform="translate(-612.334 -883.841)"/><path class="a" d="M603.238,1027.843c-.55.113.395,2.952,1.709,4.754a7.712,7.712,0,0,0,2.4,2.442c.273.138,8.092-.475,8.456-.56s-1.224-2.026-1.96-3.385-1.447-3.275-1.589-3.556S603.951,1027.7,603.238,1027.843Z" transform="translate(-559.419 -962.343)"/><path class="d" d="M743.432,1038.35h0a1.116,1.116,0,0,0,1.134,1l15.406-.336a1.218,1.218,0,0,0,1.18-1.388h0a1.218,1.218,0,0,0-1.249-1.047l-15.4.541A1.116,1.116,0,0,0,743.432,1038.35Z" transform="translate(-683.873 -970.442)"/></g></g><g transform="translate(51.187 20.183)"><g transform="translate(22.024)"><path class="a" d="M797.79,308.858s-.872,4.71-8.461,4.8c-4.961.056-7.313-2.606-8.345-4.459-.548-.98-5.174-11.939-5.523-15.079s.785-7.85,6.932-7.372c5.69.447,14.245,19.489,15.292,21.868a.272.272,0,0,0,.024.056.2.2,0,0,1,.014.028c.035.087.059.143.063.157Z" transform="translate(-775.147 -286.712)"/><g transform="translate(0 1.067)"><path class="b" d="M787.16,322.27c-5.1,0-7.462-2.871-8.423-4.594-.536-.959-5.2-11.962-5.554-15.177-.109-.979-.283-4.325,2.036-6.305a.262.262,0,0,1,.34.4c-2.123,1.813-1.957,4.936-1.855,5.849.341,3.066,4.968,14.043,5.491,14.98,1.1,1.98,3.38,4.326,7.961,4.326h.153c4.175-.048,6.246-1.522,7.248-2.75a.262.262,0,1,1,.406.331c-1.073,1.315-3.271,2.892-7.648,2.943Z" transform="translate(-773.128 -296.131)"/></g><g transform="translate(5.92 16.447)"><path class="b" d="M825.663,435.725a.262.262,0,0,1-.188-.443,12.979,12.979,0,0,1,13.759-2.33.262.262,0,1,1-.189.488,12.454,12.454,0,0,0-13.193,2.206A.261.261,0,0,1,825.663,435.725Z" transform="translate(-825.402 -431.945)"/></g><path class="a" d="M841.48,453.045s-.708,3.831-6.413,4.647a16.393,16.393,0,0,1-2.048.15c-4.961.056-7.313-2.606-8.345-4.459a10.451,10.451,0,0,1,4.277-3.143,13.013,13.013,0,0,1,4.476-.918,14.821,14.821,0,0,1,1.49.021c4.553.286,6.078,2.679,6.458,3.457a.264.264,0,0,0,.025.056.232.232,0,0,1,.014.028,1.277,1.277,0,0,1,.063.157Z" transform="translate(-818.837 -430.899)"/><g transform="translate(5.576 18.153)"><path class="b" d="M830.819,456.057c-5.1,0-7.463-2.871-8.424-4.594a.262.262,0,0,1,.023-.29,10.66,10.66,0,0,1,4.384-3.223,13.327,13.327,0,0,1,4.565-.937,15.091,15.091,0,0,1,1.517.022,8.945,8.945,0,0,1,5.184,1.789.262.262,0,1,1-.33.406,8.442,8.442,0,0,0-4.888-1.674c-.454-.031-.947-.038-1.465-.021a12.8,12.8,0,0,0-4.386.9,10.179,10.179,0,0,0-4.06,2.926c1.148,1.968,3.454,4.213,8.026,4.172a16.209,16.209,0,0,0,2.015-.148,7.88,7.88,0,0,0,5.234-2.6.262.262,0,0,1,.405.331,8.388,8.388,0,0,1-5.566,2.789,16.741,16.741,0,0,1-2.081.153Z" transform="translate(-822.363 -447.004)"/></g></g><g transform="translate(0 12.495)"><g transform="translate(7.611 5.658)"><path class="c" d="M678.923,456.583a2.8,2.8,0,0,1-.37,1.109c-1.061,1.846-4.378,3.374-10.226,2.435-4.755-.764-12.351-3.907-16.733-5.847-2.069-.914-3.423-1.56-3.423-1.56l.855-3.032s.2,0,.558,0c3.07.032,17.95.192,22.852.548a13.013,13.013,0,0,1,4.476-.918,14.817,14.817,0,0,1,1.49.021l.2,2.466.3,3.691.01.112A4.338,4.338,0,0,1,678.923,456.583Z" transform="translate(-647.91 -449.052)"/><path class="b" d="M669.629,458.627a21.479,21.479,0,0,1-3.393-.289c-4.842-.778-12.6-4.01-16.8-5.866-2.048-.905-3.415-1.556-3.429-1.563a.262.262,0,0,1-.139-.307l.855-3.032a.262.262,0,0,1,.252-.191s.2,0,.561,0c5.335.055,18.2.216,22.808.544a13.349,13.349,0,0,1,4.509-.914,15.1,15.1,0,0,1,1.517.022.262.262,0,0,1,.243.24l.505,6.266a4.551,4.551,0,0,1,.014,1.022h0a3.056,3.056,0,0,1-.4,1.213C675.871,457.27,673.591,458.627,669.629,458.627Zm-23.194-8.1c.449.211,1.626.76,3.216,1.462,4.172,1.847,11.885,5.06,16.669,5.828,5.827.936,8.964-.579,9.957-2.307a2.538,2.538,0,0,0,.337-1.006h0a4.062,4.062,0,0,0-.014-.911l-.011-.119-.477-5.935c-.39-.019-.8-.022-1.239-.007a12.8,12.8,0,0,0-4.386.9.248.248,0,0,1-.117.019c-4.668-.339-18.659-.5-22.836-.547l-.358,0Z" transform="translate(-645.861 -447.004)"/><path class="b" d="M651.595,457.222c-2.069-.914-3.423-1.56-3.423-1.56l.855-3.032s.2,0,.558,0Z" transform="translate(-647.91 -451.994)"/><path class="b" d="M868.611,451.81a25.659,25.659,0,0,0-6.165-1.57,13.015,13.015,0,0,1,4.476-.918,14.816,14.816,0,0,1,1.49.021Z" transform="translate(-837.918 -449.052)"/></g><path class="c" d="M585.092,401.953s-3.648.554-4.063-.357,1.187-2.27,4.793-2.243,2.975,2.105,2.975,2.105,1.6,1.172,1.235,4.391-1.3,4.594-5.6,4.289-3.5-5.869-3.127-6.82S585.092,401.953,585.092,401.953Z" transform="translate(-580.703 -399.091)"/><path class="b" d="M583.47,408.395c-.342,0-.708-.014-1.1-.042a3.526,3.526,0,0,1-2.9-1.637c-1.229-1.943-.708-4.881-.451-5.539a1.95,1.95,0,0,1,1.143-.868c-.674-.07-1.237-.255-1.417-.65a1.062,1.062,0,0,1,.118-1.042c.5-.774,2.056-1.588,4.915-1.572,1.468.011,2.463.355,2.955,1.024a1.693,1.693,0,0,1,.3,1.244c.4.373,1.53,1.7,1.209,4.52C587.9,406.861,587.056,408.394,583.47,408.395Zm-.813-8.171c-1.313.2-2.957.643-3.152,1.143-.218.557-.684,3.347.405,5.069a3.029,3.029,0,0,0,2.5,1.4c4.148.294,4.966-.956,5.318-4.058.342-3.01-1.07-4.106-1.131-4.151a.264.264,0,0,1-.095-.286,1.168,1.168,0,0,0-.195-.964,3.163,3.163,0,0,0-2.532-.8c-2.65-.026-4.066.706-4.473,1.334a.545.545,0,0,0-.08.54c.188.414,1.819.455,3.37.264.185-.028.333-.047.424-.058a.262.262,0,0,1,.071.519C582.971,400.182,582.825,400.2,582.657,400.224Z" transform="translate(-578.656 -397.044)"/></g></g><g transform="translate(0 27.184)"><path class="c" d="M162.08,342.684s2.159,2.992,3.1,2.65.789-2.437-1.755-4.992-3.587-.649-3.587-.649-1.958-.322-4,2.194-2.369,4.145.858,7,6.639-1.613,7.058-2.544S162.08,342.684,162.08,342.684Z" transform="translate(-154.014 -338.748)"/><path class="b" d="M156.822,348.039a3.64,3.64,0,0,1-2.445-1.007c-3.4-3-2.992-4.767-.888-7.36,1.788-2.2,3.526-2.327,4.073-2.3a1.693,1.693,0,0,1,1.1-.654c.823-.117,1.764.351,2.8,1.392,2.017,2.026,2.521,3.71,2.32,4.61a1.063,1.063,0,0,1-.661.813c-.409.147-.935-.125-1.457-.556a1.949,1.949,0,0,1,.181,1.424c-.29.644-2.022,3.074-4.27,3.557A3.594,3.594,0,0,1,156.822,348.039Zm.624-10.149c-.527,0-1.993.193-3.551,2.112-1.967,2.424-2.287,3.882.828,6.638a3.032,3.032,0,0,0,2.743.8c1.993-.429,3.657-2.715,3.9-3.261.22-.489-.617-1.971-1.392-3.051-.1-.135-.19-.254-.257-.346a.262.262,0,0,1,.42-.313c.056.073.145.19.254.341.95,1.241,2.123,2.38,2.55,2.223a.545.545,0,0,0,.329-.435c.163-.73-.311-2.248-2.18-4.126a3.165,3.165,0,0,0-2.347-1.245,1.169,1.169,0,0,0-.825.538.262.262,0,0,1-.271.131A1.427,1.427,0,0,0,157.446,337.89Z" transform="translate(-151.866 -336.699)"/></g><g transform="translate(1.243 0)"><path class="d" d="M1247.662,567.856h0a4.2,4.2,0,0,0-4.2,4.2h0a4.2,4.2,0,0,0-4.205-4.2h0a4.205,4.205,0,0,0,4.205-4.2h0a4.2,4.2,0,0,0,4.2,4.2Z" transform="translate(-1109.794 -518.432)"/><path class="d" d="M1186.383,693.261h0a1.7,1.7,0,0,0-1.7,1.7h0a1.7,1.7,0,0,0-1.7-1.7h0a1.7,1.7,0,0,0,1.7-1.7h0a1.7,1.7,0,0,0,1.7,1.7Z" transform="translate(-1061.365 -625.534)"/><path class="d" d="M421.212,126.687h0a3.155,3.155,0,0,0-3.155,3.155h0a3.155,3.155,0,0,0-3.155-3.155h0a3.155,3.155,0,0,0,3.155-3.155h0a3.155,3.155,0,0,0,3.155,3.155Z" transform="translate(-374.857 -123.532)"/><path class="d" d="M264.493,879.485h0a3.848,3.848,0,0,0-3.848,3.848h0a3.848,3.848,0,0,0-3.848-3.848h0a3.848,3.848,0,0,0,3.848-3.848h0a3.848,3.848,0,0,0,3.848,3.848Z" transform="translate(-253.221 -795.329)"/><ellipse class="a" cx="1.833" cy="1.833" rx="1.833" ry="1.833" transform="translate(100.025 31.932)"/><ellipse class="a" cx="1.047" cy="1.047" rx="1.047" ry="1.047" transform="translate(145.993 72.105)"/><circle class="a" cx="1.57" cy="1.57" r="1.57" transform="translate(0 97.788)"/><circle class="a" cx="2.006" cy="2.006" r="2.006" transform="translate(6.863 11.879)"/><ellipse class="a" cx="1.047" cy="1.047" rx="1.047" ry="1.047" transform="translate(30.015 20.175)"/></g></svg>