<svg id="Jenkins" xmlns="http://www.w3.org/2000/svg" xmlns:xlink="http://www.w3.org/1999/xlink" width="48" height="48" viewBox="0 0 48 48">
  <defs>
    <clipPath id="clip-path">
      <rect id="Rectangle_236" data-name="Rectangle 236" width="48" height="48" transform="translate(-4016 6460)" fill="#fff" stroke="#707070" stroke-width="1"/>
    </clipPath>
  </defs>
  <g id="Mask_Group_70" data-name="Mask Group 70" transform="translate(4016 -6460)" clip-path="url(#clip-path)">
    <g id="file_type_jenkins_icon_130515" transform="translate(-4012.307 6462.999)">
      <path id="Path_2259" data-name="Path 2259" d="M19.589,25.177a1.812,1.812,0,0,1-.276-.014C19.4,25.171,19.5,25.177,19.589,25.177Z" transform="translate(6.069 8.782)" fill="none"/>
      <path id="Path_2260" data-name="Path 2260" d="M18.919,25.087a2.662,2.662,0,0,0,.541.1A2.662,2.662,0,0,1,18.919,25.087Z" transform="translate(5.92 8.754)" fill="none"/>
      <path id="Path_2261" data-name="Path 2261" d="M20.115,27.629c-.029-.167-.059-.3-.088-.428h0C20.056,27.324,20.086,27.462,20.115,27.629Z" transform="translate(6.34 9.555)" fill="none"/>
      <path id="Path_2262" data-name="Path 2262" d="M7.436,14.257a1.147,1.147,0,0,1,.226-.157.8.8,0,0,0-.226.157Z" transform="translate(1.566 4.588)" fill="#f0d6b7"/>
      <path id="Path_2263" data-name="Path 2263" d="M11.746,23.621c.083.581.331,5.743,3.815,8.62a21.331,21.331,0,0,0,2.136.223c.386-.828,1.809-.764,2.738-.552a9.169,9.169,0,0,1-3-2.452A6.159,6.159,0,0,1,15.4,25.8c1.859,2.579,3.4,4.827,6.776,5.966,2.558.858,5.546-.393,7.511-1.774a8.631,8.631,0,0,0,1.883-2.317,19.642,19.642,0,0,0,2.958-11.89,13.2,13.2,0,0,0-.69-4.753c-.625-1.252-2.736-2.372-3.972-1.241a1.476,1.476,0,0,1-.022-.339c-.2.185-.317.32-.317.32a1.667,1.667,0,0,1-.168-.672,2.139,2.139,0,0,1,2.069-2.069,11.963,11.963,0,0,0-2.04-2.156,14.468,14.468,0,0,0-8.34-.306,11.116,11.116,0,0,0-8.241,7.448,19.426,19.426,0,0,0-.535,3.121c-.043,1.219.574,2.283.621,3.609-.33.543-1.336.611-2.033.574-.051-.258-.113-.523-.188-.781a7.114,7.114,0,0,0-1.745-.69,2.371,2.371,0,0,1,1.392,2.811c-.514-.294-.637-1.586-1.241-1.623-.863-.052-.706,1.677-.7,2.689a3.16,3.16,0,0,1-.262-3.052c-.392-.192-.612.084-.828.3C6.984,20.4,6.536,21.556,7.376,23a2.391,2.391,0,0,0,1.95.828c.782-.077.974-.861,1.826-.852a.708.708,0,0,1,.594.645Zm8.894,2.685-.414-.084s-.433-1.517-.225-1.8c.11-.148.717-.37,1.567.039C21.563,24.461,20.556,24.629,20.641,26.306Zm7.87,1.849a7.268,7.268,0,0,1-4.725-.019,6.464,6.464,0,0,1-1.769-1.968c-.214-.276-1.279-.976-.017-.978h0c.989,2.483,4.386,2.2,7.25,2.128a1.532,1.532,0,0,1-.739.839Zm.414-2.207a5.539,5.539,0,0,1,0-1.466,11.776,11.776,0,0,0,4.082-1.634h0a4.724,4.724,0,0,1-4.084,3.1Zm3.8-11.134c-.252.084-1.889,1.051-1.763-.168a1.859,1.859,0,0,1,1.415-1.485,4.188,4.188,0,0,1,0-.552h.109A23.647,23.647,0,0,0,34.1,15.768c-.437,1.018-3.31,1.917-3.263.091.621-.276,1.692-.055,2.243-.4-.13-.354-.276-.69-.414-1.043Zm-7.154,6.551a.992.992,0,0,1,.063.138c.126-.7.357-1.517.756-1.4a.943.943,0,0,1,.69.88A9.527,9.527,0,0,0,25.773,22c.09.414.2.828.721.921,1.525.261,3.3-.934,4.4-1.35.68-1.147-.059-1.57-.672-2.307-1.255-1.517-2.938-3.387-2.877-5.655.508-.368.552.561.623.731a20.7,20.7,0,0,0,3.507,4.808c.3.323.782.633.836.847.156.622-.405,1.367-.341,1.779h0a9.085,9.085,0,0,1-6.159,1.931,1.823,1.823,0,0,1-.241-2.347Zm2.7,3.2a6.8,6.8,0,0,1,.1,1.463c-2.5.124-5.451-.494-6.106-2.247a14.185,14.185,0,0,0,6,.779ZM22.4,12.64a9.591,9.591,0,0,0,1.347,2.523c.314.306.924.679.622,1.53a1.939,1.939,0,0,1-.885.736c-1.09.321-3.629.066-2.769-1.292.9.041,2.113.585,2.786-.069-.131-.21-.288-.47-.444-.76-.69.436-2.585.455-2.585-.661,0-1.175,1.847-1.426,1.847-1.426l.014.033a1.531,1.531,0,0,1,.066-.618ZM17.955,8.6c1.648-1.124,2.483-.483,2.9.259A.783.783,0,0,1,21.23,10c-2.287-.532-3.423.957-4.117,2.5-.178.323-.188.094-.29-.188a.541.541,0,0,1-.084-.188.76.76,0,0,0-.127-.167C16.281,11.622,16.109,9.861,17.955,8.6Z" transform="translate(1.36 0.794)" fill="#f0d6b7"/>
      <path id="Path_2264" data-name="Path 2264" d="M6.448,30.893H18.519c-.055-.186-.109-.37-.163-.543a16.777,16.777,0,0,1-.656-2.687,29.072,29.072,0,0,1-4.258-2.283,3.245,3.245,0,0,1-.331-.354L5.849,28.271S6.11,29.311,6.448,30.893Z" transform="translate(0.964 8.73)" fill="#335061"/>
      <path id="Path_2265" data-name="Path 2265" d="M9.433,7.94a2.931,2.931,0,0,1,.644-.121,5.264,5.264,0,0,0,1.03.04c.681-.17,1.258-1.7,1.772-2.267a15.631,15.631,0,0,1,1.3-1.07A10.131,10.131,0,0,0,9.433,7.94Z" transform="translate(2.323 0.955)" fill="#6d6b6d"/>
      <path id="Path_2266" data-name="Path 2266" d="M7.207,14.3a2.961,2.961,0,0,1,4.338,2.409c.957-.025.357-1.194.185-1.949-.509-2.218.672-4.606.265-6.7C6.662,8.856,6.963,12.951,7.207,14.3Z" transform="translate(1.438 2.297)" fill="#6d6b6d"/>
      <path id="Path_2267" data-name="Path 2267" d="M15.107,3.853c-2.51.712-5.726,2.535-6.758,4.79a10.191,10.191,0,0,0,1.5-.447,10.131,10.131,0,0,1,4.744-3.419,2.272,2.272,0,0,0,.219-.229c.265-.128.656-.119.672-.517C15.365,3.909,15.243,3.815,15.107,3.853Z" transform="translate(1.912 0.699)" fill="#dcd9d8"/>
      <path id="Path_2268" data-name="Path 2268" d="M7.736,9.523c-1.1,1.221-.877,3.506-.742,5.132a3.2,3.2,0,0,1,.3-.165c-.248-1.35-.543-5.446,4.787-6.244a3.875,3.875,0,0,0-.2-.68,6.081,6.081,0,0,0-4.15,1.957Z" transform="translate(1.354 2.11)" fill="#dcd9d8"/>
      <path id="Path_2269" data-name="Path 2269" d="M10.8,18.43a.708.708,0,0,0-.579-.645c.462.921-.712,1.211-.828,1.869A5.292,5.292,0,0,0,9.564,20.8a15.655,15.655,0,0,0,1.993,4.641,4.387,4.387,0,0,0,3.062,1.608C11.13,24.175,10.882,19.011,10.8,18.43Z" transform="translate(2.307 5.985)" fill="#f7e4cd"/>
      <path id="Path_2270" data-name="Path 2270" d="M21.922,16.583a.943.943,0,0,0-.69-.88c-.4-.113-.63.7-.756,1.4a3.277,3.277,0,0,1,.138.5,9.528,9.528,0,0,1,1.307-1.018Z" transform="translate(6.511 5.191)" fill="#f7e4cd"/>
      <path id="Path_2271" data-name="Path 2271" d="M24.346,12.152c-.127,1.219,1.517.252,1.763.168l-.059-.394a4.462,4.462,0,0,1-.288-1.259,1.859,1.859,0,0,0-1.415,1.485Z" transform="translate(7.975 3.286)" fill="#f7e4cd"/>
      <path id="Path_2272" data-name="Path 2272" d="M16.739,12.136c0,1.116,1.891,1.1,2.585.661a5.59,5.59,0,0,1-.724-2.054l-.014-.033S16.739,10.961,16.739,12.136Z" transform="translate(5.093 3.302)" fill="#f7e4cd"/>
      <path id="Path_2273" data-name="Path 2273" d="M7.553,15.515a1.1,1.1,0,0,1-.172.15,1.684,1.684,0,0,1,.51-1.077.8.8,0,0,1,.225-.156,1.35,1.35,0,0,1,1.079-.044,7.114,7.114,0,0,1,1.745.69c-.266-.916-.723-1.742-1.666-1.845A2.805,2.805,0,0,0,6.239,15.94a5.321,5.321,0,0,0,1.4,3.6C6.8,18.1,7.247,16.944,7.553,15.515Z" transform="translate(1.112 4.255)" fill="#f7e4cd"/>
      <path id="Path_2274" data-name="Path 2274" d="M19.479,4.986a14.468,14.468,0,0,1,8.34.306,5.692,5.692,0,0,0-.676-.454c-2.605-1.47-7.014-2.575-9.792-1.194-2.236,1.114-5.259,2.96-6.289,5.3a5.667,5.667,0,0,1,.17,3.492,11.116,11.116,0,0,1,8.247-7.448Z" transform="translate(2.941 0.383)" fill="#f7e4cd"/>
      <path id="Path_2275" data-name="Path 2275" d="M23.188,8.3a1.667,1.667,0,0,0,.168.672s.12-.138.317-.32c.043-1.012,1.193-1.589,2.527-1.194-.306-.394-.616-.812-.939-1.226A2.139,2.139,0,0,0,23.188,8.3Z" transform="translate(7.539 1.603)" fill="#f7e4cd"/>
      <path id="Path_2276" data-name="Path 2276" d="M14.092,10.058c.1.276.113.51.29.188a.48.48,0,0,1-.29-.188Z" transform="translate(4.09 3.055)" fill="#f7e4cd"/>
      <path id="Path_2277" data-name="Path 2277" d="M14.124,11.059a2.049,2.049,0,0,1,.157-1.045,3.884,3.884,0,0,1,3.407-2.42,1.585,1.585,0,0,1,.552.2c-.414-.742-1.241-1.379-2.9-.259C13.5,8.79,13.665,10.551,14,10.888a.76.76,0,0,1,.123.171Z" transform="translate(3.975 1.867)" fill="#f7e4cd"/>
      <path id="Path_2278" data-name="Path 2278" d="M6.434,28.748,13.7,25.5c-.532-.618-1.488-1.793-1.655-1.734a33.209,33.209,0,0,0-7.737,4.806A27.909,27.909,0,0,1,5.422,31.37H7.033C6.7,29.788,6.434,28.748,6.434,28.748Z" transform="translate(0.379 8.253)" fill="#49728b"/>
      <path id="Path_2279" data-name="Path 2279" d="M27.827,31.187a28.737,28.737,0,0,0,.756-2.838c.05-.25.146-.655.215-1.043l-3.98-2.957A7.066,7.066,0,0,1,25,29.728c.138.513.626.71.828,1.172-.047.083-.094.164-.138.247h2.036a.205.205,0,0,1,.1.04Z" transform="translate(8.157 8.474)" fill="#335061"/>
      <path id="Path_2280" data-name="Path 2280" d="M24.441,28.218a1.491,1.491,0,0,0,.237-.525A1.491,1.491,0,0,1,24.441,28.218Z" transform="translate(8.014 9.742)" fill="#335061"/>
      <path id="Path_2281" data-name="Path 2281" d="M23.617,24.053a1.307,1.307,0,0,1,.709-.146L24,23.663a2.009,2.009,0,0,0-.381.39Z" transform="translate(7.701 8.214)" fill="#335061"/>
      <path id="Path_2282" data-name="Path 2282" d="M29.221,27.013c-.1-.741-1.1-1.29-1.616-1.746-.943-.845-1.534-1.59-2.514-2.38a6.056,6.056,0,0,1-1.2,1.07l.328.244a1.285,1.285,0,0,1,.946.7l3.978,2.956A3.226,3.226,0,0,0,29.221,27.013Z" transform="translate(7.806 7.919)" fill="#49728b"/>
      <path id="Path_2283" data-name="Path 2283" d="M20.572,29.418a.6.6,0,0,0,.012.1h.661a.459.459,0,0,1,.919,0h1.067v-.041c-.378-.2-1.2-.628-1.655-.818C20.991,28.418,20.572,29.418,20.572,29.418Z" transform="translate(6.547 10.095)" fill="#fff"/>
      <path id="Path_2284" data-name="Path 2284" d="M20.932,29.664s.414-1.007,1.007-.756c.444.19,1.27.619,1.655.818.014-.3.028-.607.047-.91-.852.054-1.325-.771-1.923-.834-.521-.057-.965.6-1.641.316-.156.171-.3.357-.455.525a8.706,8.706,0,0,1,.674.945h.656A.6.6,0,0,1,20.932,29.664Z" transform="translate(6.186 9.85)" fill="#dcd9d8"/>
      <path id="Path_2285" data-name="Path 2285" d="M15.4,25.321a9.293,9.293,0,0,1-3.129-.552.389.389,0,0,0,.023.581,10.56,10.56,0,0,0,2.951.8,2.411,2.411,0,0,0,.154-.826Z" transform="translate(3.355 8.633)" fill="#fff"/>
      <path id="Path_2286" data-name="Path 2286" d="M15.153,26.4a1.7,1.7,0,0,1,.057-.414,10.56,10.56,0,0,1-2.951-.8A5.844,5.844,0,0,0,15.153,26.4Z" transform="translate(3.394 8.793)" fill="#dcd9d8"/>
      <path id="Path_2287" data-name="Path 2287" d="M25.662,28.554a4.087,4.087,0,0,0,.1-1.2,9.733,9.733,0,0,0-.276-1.9,4.138,4.138,0,0,0-1.392.068c-.414.084-.84.168-.923.672s.168.756-.084,1.175-.672.168-1.091.414c-.285.171-.1.614.04.88a16.741,16.741,0,0,0,3.391.414A1.491,1.491,0,0,0,25.662,28.554Z" transform="translate(7.03 8.881)" fill="#d33833"/>
      <path id="Path_2288" data-name="Path 2288" d="M15.562,29.219c.022.059.046.121.065.177s.04.128.058.192l-.012-.161Z" transform="translate(4.647 10.32)" fill="#d33833"/>
      <path id="Path_2289" data-name="Path 2289" d="M21.131,28.691q.014-.364.029-.727a1.805,1.805,0,0,1-1.324-.1c-1.292-.7-.069-.5-.527-1.432a4.463,4.463,0,0,0-1.688-.5c-1.694,0-2.345-.341-2.163,1.612.1,1.048.181,2.095.263,3.145.138.259.262.492.361.69a6.667,6.667,0,0,0,2.528-.771,28.971,28.971,0,0,0,2.52-1.912Z" transform="translate(4.596 9.064)" fill="#d33833"/>
      <path id="Path_2290" data-name="Path 2290" d="M20.027,27.579c.029.123.059.261.088.428h0a.965.965,0,1,0,.59-1.807A1.314,1.314,0,0,1,20.027,27.579Z" transform="translate(6.34 9.176)" fill="#d33833"/>
      <path id="Path_2291" data-name="Path 2291" d="M22.158,28.059c.414-.252.84,0,1.091-.414s0-.672.084-1.175.5-.588.923-.672a4.138,4.138,0,0,1,1.392-.068,1.552,1.552,0,0,0-.48-.9c-1.03-.6-2.836,1.138-3.676,1.507l-.079.032a2.336,2.336,0,0,1,.241.77,2.034,2.034,0,0,1,.568-.058,2.429,2.429,0,0,1,.381.046c.062.012.123.028.183.044a2.018,2.018,0,0,1,.335.127,5.806,5.806,0,0,0-1.044.138.966.966,0,0,0-.276.131,11.886,11.886,0,0,0-.048,1.241q.218.062.444.116C22.053,28.672,21.872,28.23,22.158,28.059Z" transform="translate(6.866 8.609)" fill="#ef3d3a"/>
      <path id="Path_2292" data-name="Path 2292" d="M15.654,29.529c.07.252.131.48.349.531-.1-.2-.225-.432-.361-.69Z" transform="translate(4.677 10.378)" fill="#ef3d3a"/>
      <path id="Path_2293" data-name="Path 2293" d="M15.622,27.893c-.178-1.953.469-1.612,2.163-1.612a4.463,4.463,0,0,1,1.688.5c.458.935-.765.727.527,1.432a1.805,1.805,0,0,0,1.324.1v-.087a4.191,4.191,0,0,0-1.263-.4,4.825,4.825,0,0,0-.512-.05,2.144,2.144,0,0,1,.4-.146,4.53,4.53,0,0,0,1.25-.388c0-.109.008-.218.012-.325a2.6,2.6,0,0,1-.276-.037,2.158,2.158,0,0,1-.244-.061,2.186,2.186,0,0,1-.405-.175c-.245-.138-.457-.3-.724-.444a12.519,12.519,0,0,0-3.321-1.215c-1.27-.243-1.281,1.524-1.227,2.826,0,.138.011.265.018.386a9.082,9.082,0,0,0,.75,2.62l.109.207C15.8,29.99,15.717,28.942,15.622,27.893Z" transform="translate(4.433 8.708)" fill="#ef3d3a"/>
      <path id="Path_2294" data-name="Path 2294" d="M20.744,26.2a1.392,1.392,0,0,0-.8.276,2.345,2.345,0,0,0,.01.568c.015.109.039.214.066.328l.043.181v.023h0a1.314,1.314,0,0,0,.684-1.376Z" transform="translate(6.303 9.176)" fill="#ef3d3a"/>
      <path id="Path_2295" data-name="Path 2295" d="M14.193,9.829a2.049,2.049,0,0,0-.157,1.045.541.541,0,0,0,.084.188.48.48,0,0,0,.29.188c.69-1.545,1.83-3.034,4.117-2.5a.783.783,0,0,0-.378-1.142,1.585,1.585,0,0,0-.552-.2,3.884,3.884,0,0,0-3.4,2.42Z" transform="translate(4.063 2.051)" fill="#231f20"/>
      <path id="Path_2296" data-name="Path 2296" d="M24.252,13.52c-.044,1.826,2.826.927,3.263-.091A23.647,23.647,0,0,1,25.9,10.271H25.79a4.187,4.187,0,0,0,0,.552,4.462,4.462,0,0,0,.288,1.259c.131.353.283.69.414,1.043C25.944,13.465,24.87,13.249,24.252,13.52Z" transform="translate(7.942 3.136)" fill="#231f20"/>
      <path id="Path_2297" data-name="Path 2297" d="M19.748,13.715c-.673.654-1.885.11-2.786.069-.859,1.358,1.68,1.614,2.769,1.292a1.939,1.939,0,0,0,.885-.736c.3-.851-.308-1.223-.622-1.53a9.591,9.591,0,0,1-1.347-2.523,1.531,1.531,0,0,0-.068.614,5.59,5.59,0,0,0,.724,2.054C19.461,13.245,19.617,13.506,19.748,13.715Z" transform="translate(5.112 3.142)" fill="#231f20"/>
      <path id="Path_2298" data-name="Path 2298" d="M20.758,21.114a9.085,9.085,0,0,0,6.159-1.931h0c-.065-.414.5-1.159.341-1.779-.054-.214-.541-.524-.836-.847a20.7,20.7,0,0,1-3.507-4.808c-.073-.17-.117-1.1-.623-.731-.061,2.265,1.622,4.138,2.877,5.655.612.738,1.352,1.16.672,2.307-1.1.414-2.873,1.612-4.4,1.35-.523-.09-.632-.5-.721-.921a3.277,3.277,0,0,0-.138-.5.992.992,0,0,0-.063-.138,1.823,1.823,0,0,0,.239,2.343Z" transform="translate(6.406 3.386)" fill="#231f20"/>
      <path id="Path_2299" data-name="Path 2299" d="M7.8,14.137a1.147,1.147,0,0,0-.219.153,1.684,1.684,0,0,0-.51,1.077,1.1,1.1,0,0,0,.172-.15c.211-.215.432-.492.828-.3a3.16,3.16,0,0,0,.262,3.052c0-1.011-.161-2.74.7-2.689.6.037.727,1.33,1.241,1.623a2.371,2.371,0,0,0-1.4-2.808,1.35,1.35,0,0,0-1.073.041Z" transform="translate(1.427 4.551)" fill="#231f20"/>
      <path id="Path_2300" data-name="Path 2300" d="M22.881,19.325a5.539,5.539,0,0,0,0,1.466,4.724,4.724,0,0,0,4.085-3.1h0a11.775,11.775,0,0,1-4.085,1.636Z" transform="translate(7.404 5.948)" fill="#231f20"/>
      <path id="Path_2301" data-name="Path 2301" d="M24.149,20.617a6.8,6.8,0,0,0-.106-1.47,14.185,14.185,0,0,1-6-.775C18.7,20.126,21.651,20.744,24.149,20.617Z" transform="translate(5.588 6.207)" fill="#231f20"/>
      <path id="Path_2302" data-name="Path 2302" d="M18.013,19.39h0c-1.262,0-.2.7.017.978A6.464,6.464,0,0,0,19.8,22.337a7.268,7.268,0,0,0,4.725.019,1.532,1.532,0,0,0,.739-.84C22.4,21.586,19,21.871,18.013,19.39Z" transform="translate(5.346 6.593)" fill="#231f20"/>
      <path id="Path_2303" data-name="Path 2303" d="M25.715,29.576a2.357,2.357,0,0,0-1.437-1.039,1.976,1.976,0,0,0-1.266.166c-.011.276-.025.572-.043.872Z" transform="translate(7.456 10.047)" fill="#81b0c4"/>
      <path id="Path_2304" data-name="Path 2304" d="M23.23,24.749c-.946.084-2.059.514-3.106.578-.1,0-.19.008-.284.008a1.812,1.812,0,0,1-.276-.014,2.662,2.662,0,0,1-.541-.1,2.3,2.3,0,0,1-.259-.1c0,.072-.1.046-.113.1.117.091.23.174.341.247s.219.138.328.2a3.059,3.059,0,0,0,.655.262,4.209,4.209,0,0,0,1.125.124c.138,0,.292,0,.451-.012C22.124,25.625,22.631,25.138,23.23,24.749Z" transform="translate(5.818 8.625)" fill="#f0d6b7"/>
      <path id="Path_2305" data-name="Path 2305" d="M19.219,29.048l-.484.321h.727Q19.343,29.205,19.219,29.048Z" transform="translate(5.85 10.256)" fill="#81b0c4"/>
      <path id="Path_2306" data-name="Path 2306" d="M5.2,40.3v-.462a.211.211,0,0,1,.211-.211H5.8a27.909,27.909,0,0,0-1.117-2.794,33.209,33.209,0,0,1,7.737-4.806c.163-.065,1.119,1.116,1.655,1.734a3.246,3.246,0,0,0,.331.354,29.072,29.072,0,0,0,4.258,2.283,16.777,16.777,0,0,0,.656,2.687c.054.174.108.359.163.543h.223a.211.211,0,0,1,.211.211v.218h.192a.211.211,0,0,1,.211.211v.352h2.332v-.352a.211.211,0,0,1,.211-.211h1.076v-.218a.211.211,0,0,1,.211-.211h.437l.484-.321q.124.157.243.321H26.48a8.707,8.707,0,0,0-.674-.945c.159-.168.3-.353.455-.525.679.284,1.12-.372,1.641-.316.6.063,1.07.888,1.923.834-.019.3-.033.607-.047.91v.041h.654c.017-.3.032-.592.043-.872a1.976,1.976,0,0,1,1.266-.166,2.357,2.357,0,0,1,1.437,1.039h.663c.047-.083.1-.164.138-.247-.2-.462-.683-.658-.828-1.172a7.066,7.066,0,0,0-.179-5.379,1.285,1.285,0,0,0-.946-.7,1.307,1.307,0,0,0-.709.146,2.009,2.009,0,0,1,.379-.39,6.056,6.056,0,0,0,1.2-1.07c.982.79,1.574,1.534,2.516,2.379.51.458,1.517,1.007,1.616,1.746a3.226,3.226,0,0,1-.074.847c-.07.388-.166.793-.215,1.043a28.736,28.736,0,0,1-.753,2.836.207.207,0,0,1,.1.175v.781h.508c.356-1.114.7-2.255,1.056-3.433a8.56,8.56,0,0,0,.659-3.016c-.108-.851-1.434-1.745-2.134-2.419-.388-.374-2.2-1.747-2.3-2.262s.738-1.625,1.008-2.187a16.093,16.093,0,0,0,.856-2.466c1.423-5,1.568-11.876-.468-15.987a17.3,17.3,0,0,0-4.275-4.728c-3.172-2.4-9.052-2.669-12.88-1.259a18.593,18.593,0,0,0-3.034,1.3c-2.507,1.47-5.169,2.455-5.913,5.417-1.832.828-2.385,3.172-2.292,5.886a8.58,8.58,0,0,1,.205,1.692c-.051.254-.394.578-.463.742a7.31,7.31,0,0,0,.84,6.333,4.448,4.448,0,0,0,2.969,1.91,6.3,6.3,0,0,0,.616,2.306c.234.514,1.11,1.438.788,2.095a9.636,9.636,0,0,1-2.062,1.332c-1.6.959-2.758,1.545-4.229,2.607-.954.69-2.445.775-2.207,2.358A24.646,24.646,0,0,0,4.446,40.3c.034.108.073.214.11.32H5.2ZM16.72,5.248a2.271,2.271,0,0,1-.219.229,15.63,15.63,0,0,0-1.3,1.07c-.514.57-1.09,2.1-1.772,2.267a5.264,5.264,0,0,1-1.03-.04,2.931,2.931,0,0,0-.644.121,10.191,10.191,0,0,1-1.5.448c1.032-2.255,4.248-4.078,6.758-4.79.138-.039.259.055.374.178C17.378,5.128,16.984,5.119,16.72,5.248Zm-3.289,5.1c.414,2.1-.774,4.488-.265,6.7.172.753.772,1.923-.185,1.949a2.961,2.961,0,0,0-4.338-2.409,3.2,3.2,0,0,0-.3.166c-.138-1.626-.367-3.911.742-5.132a6.081,6.081,0,0,1,4.15-1.957,3.875,3.875,0,0,1,.2.685Zm-4.68,13.44A5.321,5.321,0,0,1,7.341,20.2,2.805,2.805,0,0,1,10.375,17.5c.943.1,1.4.93,1.666,1.845.074.258.138.523.188.781.7.037,1.7-.03,2.033-.574-.047-1.327-.663-2.39-.621-3.609a19.426,19.426,0,0,1,.535-3.121,5.667,5.667,0,0,0-.17-3.492c1.03-2.338,4.053-4.182,6.289-5.3,2.771-1.379,7.181-.276,9.792,1.194a5.692,5.692,0,0,1,.676.454A11.963,11.963,0,0,1,32.8,7.833c.323.414.633.828.939,1.226-1.334-.4-2.483.182-2.527,1.194a1.476,1.476,0,0,0,.022.339c1.241-1.132,3.347-.012,3.972,1.241a13.2,13.2,0,0,1,.69,4.753,19.642,19.642,0,0,1-2.958,11.89,8.631,8.631,0,0,1-1.883,2.317c-1.965,1.379-4.953,2.631-7.511,1.774-3.38-1.135-4.917-3.387-6.776-5.966a6.159,6.159,0,0,0,2.03,3.663,9.169,9.169,0,0,0,3,2.452c-.928-.218-2.345-.287-2.738.552a21.329,21.329,0,0,1-2.136-.223,4.387,4.387,0,0,1-3.062-1.608A15.655,15.655,0,0,1,11.875,26.8a5.292,5.292,0,0,1-.172-1.147c.121-.659,1.3-.947.828-1.869-.852-.008-1.044.775-1.826.852a2.391,2.391,0,0,1-1.953-.841ZM26.363,36.727l-.043-.181c-.028-.114-.05-.219-.066-.328a2.345,2.345,0,0,1-.01-.568,1.392,1.392,0,0,1,.8-.276.965.965,0,1,1-.59,1.807c-.029-.167-.059-.3-.088-.428ZM15.63,33.391a9.293,9.293,0,0,0,3.129.552,2.411,2.411,0,0,1-.154.828,1.7,1.7,0,0,0-.057.414,5.844,5.844,0,0,1-2.9-1.216.389.389,0,0,1-.022-.57Zm10.16,1.157a3.059,3.059,0,0,1-.655-.262c-.108-.058-.217-.124-.328-.2s-.223-.156-.341-.247c.015-.059.109-.033.113-.1a2.3,2.3,0,0,0,.259.1,2.662,2.662,0,0,0,.541.1c.092.008.185.012.276.014a2.827,2.827,0,0,0,.284-.008c1.047-.063,2.16-.494,3.106-.578-.6.39-1.1.877-1.68,1.294q-.238.012-.451.012a4.21,4.21,0,0,1-1.124-.117Zm-2.582,5.111a6.667,6.667,0,0,1-2.528.771c-.218-.051-.276-.276-.349-.531-.018-.063-.036-.127-.058-.192s-.041-.117-.065-.177a9.082,9.082,0,0,1-.75-2.62c0-.121-.012-.251-.018-.386-.054-1.3-.043-3.069,1.227-2.826a12.519,12.519,0,0,1,3.321,1.215c.268.146.479.31.724.444a2.186,2.186,0,0,0,.405.175,2.159,2.159,0,0,0,.244.061,2.6,2.6,0,0,0,.276.037c0,.108-.008.217-.012.325a4.531,4.531,0,0,1-1.25.388,2.145,2.145,0,0,0-.4.146,4.828,4.828,0,0,1,.512.05,4.191,4.191,0,0,1,1.263.4v.087q-.014.364-.029.727a28.972,28.972,0,0,1-2.513,1.913Zm5.855-2.118q-.226-.054-.444-.116a11.888,11.888,0,0,1,.048-1.241.965.965,0,0,1,.276-.131,5.8,5.8,0,0,1,1.044-.138,2.018,2.018,0,0,0-.335-.127c-.059-.017-.121-.032-.183-.044a2.429,2.429,0,0,0-.381-.052,2.034,2.034,0,0,0-.561.052,2.336,2.336,0,0,0-.241-.77l.079-.032c.84-.37,2.645-2.109,3.675-1.507a1.552,1.552,0,0,1,.48.9,9.733,9.733,0,0,1,.276,1.9,4.087,4.087,0,0,1-.1,1.2,1.491,1.491,0,0,1-.237.525h0a16.74,16.74,0,0,1-3.394-.414Z" transform="translate(0 0)" fill="#231f20"/>
      <path id="Path_2307" data-name="Path 2307" d="M17.976,18.927c-.85-.414-1.456-.186-1.567-.039-.21.276.225,1.8.225,1.8l.414.084C16.97,19.095,17.976,18.927,17.976,18.927Z" transform="translate(4.947 6.328)" fill="#f7e4cd"/>
      <path id="Path_2308" data-name="Path 2308" d="M21.519,28.961a.461.461,0,0,0-.459.44h.919a.461.461,0,0,0-.459-.44Z" transform="translate(6.732 10.223)" fill="#1d1919"/>
      <path id="Path_2309" data-name="Path 2309" d="M19.8,29.8a.211.211,0,0,0-.211-.211H19.4v.244a.211.211,0,0,1-.211.211H4.892a.211.211,0,0,1-.211-.211v.319H19.8Z" transform="translate(0.521 10.462)" fill="#231f20"/>
      <path id="Path_2310" data-name="Path 2310" d="M30.553,30.047H18.83a.211.211,0,0,1-.211-.211v-.244H17.543a.211.211,0,0,0-.211.211v.352H30.761v-.319a.211.211,0,0,1-.208.211Z" transform="translate(5.318 10.462)" fill="#231f20"/>
      <path id="Path_2311" data-name="Path 2311" d="M4.892,30.165h14.3a.211.211,0,0,0,.211-.211v-.462a.211.211,0,0,0-.211-.211H4.892a.211.211,0,0,0-.211.211v.462A.211.211,0,0,0,4.892,30.165Z" transform="translate(0.521 10.344)" fill="#231f20"/>
      <path id="Path_2312" data-name="Path 2312" d="M18.266,29.954a.211.211,0,0,0,.211.211H30.2a.211.211,0,0,0,.211-.211v-.462a.22.22,0,0,0-.211-.211H18.477a.211.211,0,0,0-.211.211Z" transform="translate(5.672 10.344)" fill="#231f20"/>
    </g>
  </g>
</svg>
