<svg id="React" xmlns="http://www.w3.org/2000/svg" xmlns:xlink="http://www.w3.org/1999/xlink" width="48" height="48" viewBox="0 0 48 48">
  <defs>
    <clipPath id="clip-path">
      <rect id="Rectangle_222" data-name="Rectangle 222" width="48" height="48" transform="translate(4298 3328)" fill="#9be7fc" stroke="#707070" stroke-width="1"/>
    </clipPath>
  </defs>
  <g id="Mask_Group_59" data-name="Mask Group 59" transform="translate(-4298 -3328)" clip-path="url(#clip-path)">
    <g id="Group_1042" data-name="Group 1042" transform="translate(4279.833 3333.99)">
      <g id="Group_1039" data-name="Group 1039" transform="translate(26.404)">
        <g id="Group_1038" data-name="Group 1038" transform="translate(0)">
          <path id="Path_2203" data-name="Path 2203" d="M53.523,18.007a26,26,0,0,0,1.995-2.281c2.308-3.016,2.989-5.617,1.92-7.325-.517-.824-1.688-1.8-4.323-1.8a18.293,18.293,0,0,0-5.147.885C46.694,2.907,44.564,0,42.167,0s-4.527,2.941-5.8,7.489a18.292,18.292,0,0,0-5.147-.878c-2.641,0-3.806.98-4.323,1.8-1.069,1.7-.388,4.3,1.92,7.319a26,26,0,0,0,1.995,2.281,26,26,0,0,0-1.995,2.281C26.509,23.3,25.828,25.9,26.9,27.613c.517.824,1.688,1.8,4.323,1.8a18.245,18.245,0,0,0,5.147-.878c1.273,4.582,3.4,7.489,5.8,7.489s4.527-2.941,5.8-7.489a18.246,18.246,0,0,0,5.147.878c2.635,0,3.806-.98,4.323-1.8,1.069-1.709.388-4.316-1.92-7.325A26,26,0,0,0,53.523,18.007ZM31.22,28.049c-1.117,0-2.567-.2-3.173-1.164-.742-1.178-.068-3.281,1.852-5.773a24.4,24.4,0,0,1,1.886-2.151,39.858,39.858,0,0,0,3.438,2.873A38.231,38.231,0,0,0,36.04,27.2,17.019,17.019,0,0,1,31.22,28.049Zm3.887-8c-.837-.681-1.627-1.362-2.356-2.042.728-.681,1.518-1.362,2.356-2.042,0,.681-.041,1.362-.041,2.042S35.08,19.369,35.107,20.049Zm.116-5.875-.007.014a40.232,40.232,0,0,0-3.438,2.873A24.506,24.506,0,0,1,29.913,14.9c-1.913-2.492-2.587-4.6-1.852-5.773.606-.96,2.042-1.164,3.173-1.164a16.98,16.98,0,0,1,4.806.844A38.186,38.186,0,0,0,35.223,14.174Zm12.39-1.055q-.827-.572-1.7-1.123c-.762-.477-1.525-.926-2.287-1.362a36.282,36.282,0,0,1,3.35-1.4A35.682,35.682,0,0,1,47.614,13.119ZM42.167,1.328c1.634,0,3.4,2.478,4.507,6.583a38.076,38.076,0,0,0-4.507,1.927A38.087,38.087,0,0,0,37.66,7.89C38.763,3.806,40.533,1.328,42.167,1.328Zm-4.84,7.918a36.282,36.282,0,0,1,3.35,1.4c-.762.422-1.525.871-2.287,1.362q-.868.551-1.7,1.123A35.7,35.7,0,0,1,37.327,9.245ZM36.721,22.9q.827.572,1.7,1.123c.762.483,1.525.926,2.287,1.362-1.144.545-2.267,1.014-3.35,1.4A35.81,35.81,0,0,1,36.721,22.9Zm5.446,11.791c-1.634,0-3.4-2.478-4.507-6.583a38.311,38.311,0,0,0,4.507-1.927,38.321,38.321,0,0,0,4.507,1.947C45.571,32.208,43.8,34.687,42.167,34.687Zm4.84-7.918c-1.082-.388-2.206-.858-3.35-1.4.762-.422,1.525-.871,2.287-1.362q.868-.551,1.7-1.123A35.809,35.809,0,0,1,47.008,26.769Zm.8-5.651q-1.236.9-2.58,1.75c-1.014.64-2.042,1.225-3.057,1.756q-1.532-.807-3.057-1.756c-.892-.565-1.756-1.151-2.58-1.75-.068-1-.109-2.042-.109-3.111s.041-2.11.109-3.111q1.236-.9,2.58-1.75c1.014-.64,2.042-1.225,3.057-1.756q1.532.807,3.057,1.756c.892.565,1.756,1.151,2.58,1.75.068,1,.109,2.042.109,3.111s-.048,2.11-.116,3.111H47.8Zm5.3-13.16c1.117,0,2.567.2,3.173,1.164.742,1.178.068,3.281-1.852,5.773a24.507,24.507,0,0,1-1.865,2.158V17.04a40.232,40.232,0,0,0-3.438-2.873,38.187,38.187,0,0,0-.824-5.358A16.981,16.981,0,0,1,53.1,7.959Zm-3.874,8.006c.837.681,1.627,1.362,2.356,2.042-.728.681-1.518,1.362-2.356,2.042,0-.681.041-1.362.041-2.042S49.254,16.645,49.227,15.965Zm7.067,10.927c-.606.96-2.042,1.164-3.173,1.164a17.02,17.02,0,0,1-4.827-.851,38.216,38.216,0,0,0,.81-5.365,39.857,39.857,0,0,0,3.438-2.873,24.415,24.415,0,0,1,1.879,2.145l.02.007C56.355,23.61,57.029,25.714,56.294,26.891Z" transform="translate(-26.404 0)" fill="#9be7fc"/>
        </g>
      </g>
      <g id="Group_1041" data-name="Group 1041" transform="translate(38.954 14.794)">
        <g id="Group_1040" data-name="Group 1040" transform="translate(0)">
          <path id="Path_2204" data-name="Path 2204" d="M177.093,173.84a3.213,3.213,0,1,0,3.213,3.213A3.213,3.213,0,0,0,177.093,173.84Zm0,5.065h0a1.852,1.852,0,1,1,1.852-1.852A1.852,1.852,0,0,1,177.093,178.905Z" transform="translate(-173.88 -173.84)" fill="#9be7fc"/>
        </g>
      </g>
    </g>
  </g>
</svg>
