<svg id="Group_1253" data-name="Group 1253" xmlns="http://www.w3.org/2000/svg" width="32" height="32" viewBox="0 0 32 32">
  <rect id="Rectangle_365" data-name="Rectangle 365" width="32" height="32" fill="none"/>
  <path id="Path_2420" data-name="Path 2420" d="M44.561,164.77c-1.414,4.243-7.071,4.243-7.071,4.243s0-5.657,4.243-7.071" transform="translate(-32.804 -141.699)" fill="none" stroke="#bfbfbf" stroke-linecap="round" stroke-linejoin="round" stroke-width="2"/>
  <path id="Path_2421" data-name="Path 2421" d="M96.887,44.392,88.4,52.877,82.745,47.22l8.485-8.485c3.213-3.213,6.426-3.182,7.8-2.977a1,1,0,0,1,.838.838C100.069,37.966,100.1,41.179,96.887,44.392Z" transform="translate(-72.402 -31.22)" fill="none" stroke="#bfbfbf" stroke-linecap="round" stroke-linejoin="round" stroke-width="2"/>
  <path id="Path_2422" data-name="Path 2422" d="M135.071,116.686v8.071a1,1,0,0,1-.293.707l-4.043,4.043a1,1,0,0,1-1.688-.511L128,123.757" transform="translate(-112 -102.1)" fill="none" stroke="#bfbfbf" stroke-linecap="round" stroke-linejoin="round" stroke-width="2"/>
  <path id="Path_2423" data-name="Path 2423" d="M47.517,71.432H39.446a1,1,0,0,0-.707.293L34.7,75.767a1,1,0,0,0,.511,1.688L40.446,78.5" transform="translate(-30.103 -62.503)" fill="none" stroke="#bfbfbf" stroke-linecap="round" stroke-linejoin="round" stroke-width="2"/>
</svg>
