<svg id="Group_1263" data-name="Group 1263" xmlns="http://www.w3.org/2000/svg" width="32" height="32" viewBox="0 0 32 32">
  <rect id="Rectangle_377" data-name="Rectangle 377" width="32" height="32" fill="none"/>
  <rect id="Rectangle_378" data-name="Rectangle 378" width="24" height="6" rx="3" transform="translate(4 10)" fill="none" stroke="#bfbfbf" stroke-linecap="round" stroke-linejoin="round" stroke-width="2"/>
  <path id="Path_2442" data-name="Path 2442" d="M68,128v9a1,1,0,0,1-1,1H49a1,1,0,0,1-1-1v-9" transform="translate(-42 -112)" fill="none" stroke="#bfbfbf" stroke-linecap="round" stroke-linejoin="round" stroke-width="2"/>
  <line id="Line_56" data-name="Line 56" y2="16" transform="translate(16 10)" fill="none" stroke="#bfbfbf" stroke-linecap="round" stroke-linejoin="round" stroke-width="2"/>
  <path id="Path_2443" data-name="Path 2443" d="M133.657,32.837C132.243,34.251,128,34.251,128,34.251s0-4.243,1.414-5.657a3,3,0,1,1,4.243,4.243Z" transform="translate(-112 -24.251)" fill="none" stroke="#bfbfbf" stroke-linecap="round" stroke-linejoin="round" stroke-width="2"/>
  <path id="Path_2444" data-name="Path 2444" d="M76.594,32.837c1.414,1.414,5.657,1.414,5.657,1.414s0-4.243-1.414-5.657a3,3,0,0,0-4.243,4.243Z" transform="translate(-66.251 -24.251)" fill="none" stroke="#bfbfbf" stroke-linecap="round" stroke-linejoin="round" stroke-width="2"/>
</svg>
