<svg id="AWS_Cloud" data-name="AWS Cloud" xmlns="http://www.w3.org/2000/svg" xmlns:xlink="http://www.w3.org/1999/xlink" width="48" height="48" viewBox="0 0 48 48">
  <defs>
    <clipPath id="clip-path">
      <rect id="Rectangle_269" data-name="Rectangle 269" width="48" height="48" transform="translate(5063 3526)" fill="#fff" stroke="#707070" stroke-width="1"/>
    </clipPath>
  </defs>
  <g id="Mask_Group_91" data-name="Mask Group 91" transform="translate(-5063 -3526)" clip-path="url(#clip-path)">
    <g id="Group_1091" data-name="Group 1091" transform="translate(4790.275 3906.528)">
      <path id="Path_2369" data-name="Path 2369" d="M311.586-356.7a6.71,6.71,0,0,0-2.167-3.72,7.106,7.106,0,0,0-8.225-.761,9.986,9.986,0,0,0-1.159-2.083,10.287,10.287,0,0,0-2.266-2.277,10.544,10.544,0,0,0-6.274-2.036,10.52,10.52,0,0,0-7.374,2.964,9.9,9.9,0,0,0-3.053,7.153,10.071,10.071,0,0,0,.055,1.048,6.246,6.246,0,0,0-2.879,1.952,5.956,5.956,0,0,0-1.368,3.786,6.146,6.146,0,0,0,6.23,6.048h27.966a6.146,6.146,0,0,0,6.23-6.048A6.153,6.153,0,0,0,311.586-356.7Zm-12.248,2.819c0-.122.048-.18.133-.18a.406.406,0,0,1,.1.017c.034.01.088.034.145.058a3.155,3.155,0,0,0,.635.2,3.367,3.367,0,0,0,.689.068,1.582,1.582,0,0,0,.845-.19.633.633,0,0,0,.3-.55.56.56,0,0,0-.156-.4,1.521,1.521,0,0,0-.584-.3l-.839-.262a1.766,1.766,0,0,1-.923-.588,1.37,1.37,0,0,1-.29-.839,1.32,1.32,0,0,1,.156-.642,1.51,1.51,0,0,1,.417-.475,1.885,1.885,0,0,1,.6-.3,2.583,2.583,0,0,1,.729-.1,2.959,2.959,0,0,1,.387.024c.133.017.254.041.377.065a2.546,2.546,0,0,1,.33.092,1.068,1.068,0,0,1,.244.105.48.48,0,0,1,.173.145.316.316,0,0,1,.051.19v.272c0,.122-.048.187-.133.187a.7.7,0,0,1-.217-.068,2.649,2.649,0,0,0-1.11-.224,1.48,1.48,0,0,0-.771.163.555.555,0,0,0-.272.513.544.544,0,0,0,.173.411,1.749,1.749,0,0,0,.635.319l.821.258a1.764,1.764,0,0,1,.9.556,1.3,1.3,0,0,1,.265.808,1.493,1.493,0,0,1-.149.672,1.6,1.6,0,0,1-.421.507,1.84,1.84,0,0,1-.642.322,2.827,2.827,0,0,1-.835.126h0a3.711,3.711,0,0,1-.889-.105,2.7,2.7,0,0,1-.665-.231.408.408,0,0,1-.18-.163.38.38,0,0,1-.034-.163Zm-7.3-4.323a.123.123,0,0,1,.028,0h.567a.317.317,0,0,1,.224.058.452.452,0,0,1,.115.227l.971,3.826.9-3.826a.454.454,0,0,1,.109-.227.368.368,0,0,1,.231-.058h.465a.343.343,0,0,1,.231.056.383.383,0,0,1,.109.227l.913,3.873,1-3.873a.511.511,0,0,1,.115-.227.354.354,0,0,1,.224-.058h.535a.131.131,0,0,1,.145.116.133.133,0,0,1,0,.029.46.46,0,0,1-.014.092,1.026,1.026,0,0,1-.041.145l-1.391,4.467a.422.422,0,0,1-.122.224.385.385,0,0,1-.217.058h-.5a.35.35,0,0,1-.231-.058.429.429,0,0,1-.109-.231l-.9-3.728-.89,3.724a.484.484,0,0,1-.109.231.362.362,0,0,1-.231.058h-.5a.325.325,0,0,1-.217-.058.451.451,0,0,1-.122-.224l-1.358-4.467a.906.906,0,0,1-.051-.231A.129.129,0,0,1,292.041-358.205Zm-1.882.918a1.32,1.32,0,0,0-.942-.265,2.687,2.687,0,0,0-.624.072,4.453,4.453,0,0,0-.624.2,1.319,1.319,0,0,1-.2.072.43.43,0,0,1-.091.017c-.081,0-.122-.058-.122-.18v-.282a.362.362,0,0,1,.041-.2.448.448,0,0,1,.163-.122,3.4,3.4,0,0,1,.724-.261,3.518,3.518,0,0,1,.9-.109,2.106,2.106,0,0,1,1.514.469,1.905,1.905,0,0,1,.479,1.423v1.874h.008a1.712,1.712,0,0,0,.065.513,3.06,3.06,0,0,0,.187.417.232.232,0,0,1,.04.133.227.227,0,0,1-.109.173l-.362.241a.264.264,0,0,1-.149.051.271.271,0,0,1-.173-.081,1.8,1.8,0,0,1-.207-.272c-.064-.112-.125-.224-.18-.34a2.135,2.135,0,0,1-1.7.8,1.586,1.586,0,0,1-1.154-.414,1.632,1.632,0,0,1,.1-2.3,2.1,2.1,0,0,1,1.415-.451,4.267,4.267,0,0,1,.611.048,6.6,6.6,0,0,1,.665.129v-.421A1.271,1.271,0,0,0,290.16-357.287Zm12.04,7.17h0a12.46,12.46,0,0,1-7.039,2.148,12.73,12.73,0,0,1-8.6-3.279c-.18-.163-.017-.38.2-.254a17.338,17.338,0,0,0,8.6,2.285,17.15,17.15,0,0,0,6.562-1.341C302.24-350.7,302.512-350.349,302.2-350.117Zm.526,1.38c-.156.132-.306.064-.238-.109.231-.575.747-1.865.5-2.171h0c-.244-.312-1.609-.149-2.227-.072-.183.024-.217-.139-.044-.262a3.439,3.439,0,0,1,3.082-.29A3.391,3.391,0,0,1,302.725-348.737Z" transform="translate(0 0)" fill="#f8981d"/>
      <path id="Path_2370" data-name="Path 2370" d="M397.264-239.8a1.335,1.335,0,0,0-.862.231.809.809,0,0,0-.282.665.745.745,0,0,0,.656.825.754.754,0,0,0,.165,0h0a1.815,1.815,0,0,0,.594-.105,1.284,1.284,0,0,0,.55-.37.909.909,0,0,0,.2-.37,2.111,2.111,0,0,0,.058-.5v-.241a4.747,4.747,0,0,0-.533-.1A4.168,4.168,0,0,0,397.264-239.8Z" transform="translate(-107.903 -115.628)" fill="#f8981d"/>
    </g>
  </g>
</svg>
