<svg id="AWS" xmlns="http://www.w3.org/2000/svg" xmlns:xlink="http://www.w3.org/1999/xlink" width="48" height="48" viewBox="0 0 48 48">
  <defs>
    <clipPath id="clip-path">
      <rect id="Rectangle_227" data-name="Rectangle 227" width="48" height="48" transform="translate(4260 3818)" fill="#f8981d" stroke="#707070" stroke-width="1"/>
    </clipPath>
  </defs>
  <g id="Mask_Group_63" data-name="Mask Group 63" transform="translate(-4260 -3818)" clip-path="url(#clip-path)">
    <g id="Group_1066" data-name="Group 1066" transform="translate(-115.061 -66.194)">
      <g id="Icon" transform="translate(4382.062 3898.024)">
        <g id="Group_1065" data-name="Group 1065" transform="translate(0 0)">
          <path id="Path_2225" data-name="Path 2225" d="M265.605,375.1a3.353,3.353,0,0,0,.126,1,6.019,6.019,0,0,0,.365.817.452.452,0,0,1,.08.259.445.445,0,0,1-.213.339l-.71.472a.516.516,0,0,1-.292.1.532.532,0,0,1-.339-.159,3.511,3.511,0,0,1-.4-.531c-.126-.219-.246-.438-.352-.664a4.176,4.176,0,0,1-3.327,1.56,3.1,3.1,0,0,1-2.258-.81,3.192,3.192,0,0,1,.193-4.5,4.1,4.1,0,0,1,2.769-.883,8.347,8.347,0,0,1,1.2.093c.418.06.85.146,1.3.252v-.823a2.487,2.487,0,0,0-.531-1.806,2.582,2.582,0,0,0-1.839-.518,5.246,5.246,0,0,0-1.222.146,8.692,8.692,0,0,0-1.222.385,2.592,2.592,0,0,1-.4.146.847.847,0,0,1-.179.033c-.159,0-.239-.113-.239-.352V369.1a.7.7,0,0,1,.08-.4.877.877,0,0,1,.319-.239,6.645,6.645,0,0,1,1.421-.511,6.876,6.876,0,0,1,1.766-.212,4.12,4.12,0,0,1,2.962.916,3.727,3.727,0,0,1,.936,2.782V375.1Zm-4.588,1.72a3.548,3.548,0,0,0,1.162-.206,2.513,2.513,0,0,0,1.076-.724,1.778,1.778,0,0,0,.385-.724,4.13,4.13,0,0,0,.113-.983v-.471a9.317,9.317,0,0,0-1.043-.193,8.145,8.145,0,0,0-1.062-.066,2.61,2.61,0,0,0-1.687.452,1.581,1.581,0,0,0-.551,1.3,1.459,1.459,0,0,0,1.607,1.614Zm9.077,1.222a.635.635,0,0,1-.432-.113.882.882,0,0,1-.239-.438l-2.656-8.739a1.77,1.77,0,0,1-.1-.452.252.252,0,0,1,.272-.286h1.109a.621.621,0,0,1,.438.113.882.882,0,0,1,.226.445l1.9,7.484,1.766-7.484a.887.887,0,0,1,.213-.445.721.721,0,0,1,.451-.113h.91a.672.672,0,0,1,.452.113.749.749,0,0,1,.212.445l1.786,7.577,1.959-7.577a1,1,0,0,1,.226-.445.693.693,0,0,1,.438-.113h1.056a.256.256,0,0,1,.286.286.9.9,0,0,1-.027.179,2.012,2.012,0,0,1-.08.286l-2.723,8.738a.823.823,0,0,1-.239.438.753.753,0,0,1-.432.113h-.976a.684.684,0,0,1-.452-.113.84.84,0,0,1-.212-.452l-1.753-7.291-1.74,7.284a.948.948,0,0,1-.212.452.708.708,0,0,1-.452.113Zm14.529.305a7.252,7.252,0,0,1-1.74-.206,5.273,5.273,0,0,1-1.3-.451.8.8,0,0,1-.352-.319.742.742,0,0,1-.066-.319v-.578c0-.239.093-.352.259-.352a.784.784,0,0,1,.206.033c.066.02.173.066.286.113a6.173,6.173,0,0,0,1.242.4,6.579,6.579,0,0,0,1.348.133,3.1,3.1,0,0,0,1.653-.372,1.238,1.238,0,0,0,.591-1.076,1.1,1.1,0,0,0-.305-.79,2.97,2.97,0,0,0-1.142-.591l-1.64-.511a3.456,3.456,0,0,1-1.806-1.149,2.682,2.682,0,0,1-.564-1.64,2.581,2.581,0,0,1,.305-1.255,2.952,2.952,0,0,1,.817-.93,3.688,3.688,0,0,1,1.175-.591,5.042,5.042,0,0,1,1.428-.193,5.8,5.8,0,0,1,.757.046c.259.033.5.08.737.126s.445.113.644.179a2.09,2.09,0,0,1,.478.206.941.941,0,0,1,.339.286.617.617,0,0,1,.1.372v.531c0,.239-.093.365-.259.365a1.36,1.36,0,0,1-.432-.133,5.185,5.185,0,0,0-2.171-.438,2.893,2.893,0,0,0-1.507.319,1.086,1.086,0,0,0-.531,1,1.064,1.064,0,0,0,.339.8,3.417,3.417,0,0,0,1.242.624l1.607.5a3.451,3.451,0,0,1,1.753,1.089,2.55,2.55,0,0,1,.518,1.58,2.921,2.921,0,0,1-.292,1.315,3.137,3.137,0,0,1-.823,1,3.6,3.6,0,0,1-1.255.631A5.522,5.522,0,0,1,284.623,378.344Zm2.138,5.492a24.369,24.369,0,0,1-13.772,4.2,24.9,24.9,0,0,1-16.813-6.414c-.352-.319-.033-.744.385-.5a33.912,33.912,0,0,0,16.826,4.469,33.544,33.544,0,0,0,12.836-2.623C286.841,382.694,287.372,383.384,286.761,383.836Zm1.547-1.76c-.478-.611-3.147-.292-4.356-.146-.359.047-.418-.272-.086-.511,2.125-1.494,5.618-1.062,6.029-.564s-.113,4-2.1,5.677c-.305.259-.6.126-.465-.212C287.777,385.2,288.786,382.674,288.308,382.076Z" transform="translate(-256.025 -367.7)" fill="#f8981d"/>
        </g>
      </g>
    </g>
  </g>
</svg>
