<svg id="BDD_Framework" data-name="BDD Framework" xmlns="http://www.w3.org/2000/svg" xmlns:xlink="http://www.w3.org/1999/xlink" width="48" height="48" viewBox="0 0 48 48">
  <defs>
    <clipPath id="clip-path">
      <rect id="Rectangle_256" data-name="Rectangle 256" width="48" height="48" transform="translate(-3968 6575)" fill="#fff" stroke="#707070" stroke-width="1"/>
    </clipPath>
  </defs>
  <g id="Mask_Group_80" data-name="Mask Group 80" transform="translate(3968 -6575)" clip-path="url(#clip-path)">
    <g id="Group_1083" data-name="Group 1083" transform="translate(-4623.317 5985.698)">
      <path id="Path_2325" data-name="Path 2325" d="M713.586,645.048a1.672,1.672,0,0,1-.859,1.65c-.774.368-1.507.574-1.421-.748a6.063,6.063,0,0,1,.018-1.056c.145-.573-.537-1.582.681-1.621C713.144,643.237,713.589,643.984,713.586,645.048Z" transform="translate(-34.085 -32.71)" fill="#cfd0d0"/>
      <path id="Path_2326" data-name="Path 2326" d="M695.121,651.942c-.435.034-.418-.384-.426-.8-.009-.448.057-.8.638-.752.5.042.9.219.888.787S695.79,651.908,695.121,651.942Z" transform="translate(-22.547 -37.663)" fill="#cfd0d0"/>
      <path id="Path_2327" data-name="Path 2327" d="M696.144,643.5c-.02.515-.386.673-.789.753-.437.087-.65-.122-.647-.573,0-.369.011-.74.5-.748A.835.835,0,0,1,696.144,643.5Z" transform="translate(-22.557 -32.476)" fill="#cfd0d0"/>
      <path id="Path_2328" data-name="Path 2328" d="M667.682,630.493a15.107,15.107,0,0,1-.969-19.54c.166-.209.362-.7.644-.714a4.142,4.142,0,0,0,.641.491.8.8,0,0,0,.418.221h0a.3.3,0,0,0,.062,0,.29.29,0,0,0,.141-.059.462.462,0,0,0,.037-.031l.015-.013a.578.578,0,0,0,.138-.224l.005-.015a4.229,4.229,0,0,0,.144-.407l.165-.471c.387-1.027.73-2.078,1.132-3.235-1.5.231-2.783.427-4.067.629a2.252,2.252,0,0,0-.221.046c-.009,0-.564.1-.429.395h0a.648.648,0,0,0,.137.3c.086.178.212.423.375.7a1.712,1.712,0,0,1-.5,1,16.067,16.067,0,0,0-2.811,13.465,14.194,14.194,0,0,0,6.158,9.086C668.791,631.331,668.147,630.978,667.682,630.493Z" transform="translate(0 -7.095)" fill="#498f35"/>
      <path id="Path_2329" data-name="Path 2329" d="M717.634,610.241c.423-1.312,1.4-5.141,1.4-5.141l-1.789.482a3.615,3.615,0,0,1-.347-.608c-3.678-6.366-9.208-9.231-16.506-8.583a10.542,10.542,0,0,0-5.454,1.89,2.455,2.455,0,0,0,1.767-.311,15.129,15.129,0,0,1,17.952,6.576c.347.583.7,1.142.583,1.575l-1.27.342.3.318,1.118,1.15.741.763Z" transform="translate(-22.72 0)" fill="#498f35"/>
      <path id="Path_2330" data-name="Path 2330" d="M716.1,657.808c-.5.143-.406.5-.475.775a15.152,15.152,0,0,1-15.531,11.563c-.744-.046-1.579.051-1.871-.426l.484-1.53-5.232,1.121,3.291,3.883,0-.008.26.306.515-1.625a1.658,1.658,0,0,1,1.088-.166,16.092,16.092,0,0,0,17.24-11.672C716.052,659.351,716.536,658.6,716.1,657.808Z" transform="translate(-21.697 -42.833)" fill="#498f35"/>
      <path id="Path_2331" data-name="Path 2331" d="M691.675,613.544a10.689,10.689,0,0,0-10.8,10.864,10.849,10.849,0,0,0,21.7-.07A10.839,10.839,0,0,0,691.675,613.544Z" transform="translate(-12.925 -12.007)" fill="#cfd0d0"/>
      <g id="Group_1082" data-name="Group 1082" transform="translate(672.311 609.568)">
        <path id="Path_2332" data-name="Path 2332" d="M695.234,640.11a7.057,7.057,0,0,1,1.32-.112,2.355,2.355,0,0,1,1.46.352,1.161,1.161,0,0,1,.5.993,1.238,1.238,0,0,1-.865,1.164v.022a1.34,1.34,0,0,1,1.052,1.328,1.432,1.432,0,0,1-.476,1.094,2.709,2.709,0,0,1-1.88.5,8.217,8.217,0,0,1-1.112-.067Zm.935,2.133h.427c.606,0,.976-.329.976-.795,0-.485-.329-.749-.921-.749a2.091,2.091,0,0,0-.483.041Zm0,2.469a2.474,2.474,0,0,0,.444.026c.6,0,1.1-.258,1.1-.906,0-.626-.515-.9-1.132-.9h-.415Z" transform="translate(-695.234 -639.998)" fill="#498f35"/>
        <path id="Path_2333" data-name="Path 2333" d="M709.38,640.11a7.951,7.951,0,0,1,1.381-.112,2.873,2.873,0,0,1,1.949.568,2.5,2.5,0,0,1,.8,2.034,2.851,2.851,0,0,1-.8,2.177,3.143,3.143,0,0,1-2.174.676,8.977,8.977,0,0,1-1.163-.067Zm.94,4.567a2.838,2.838,0,0,0,.445.023c1.066,0,1.757-.637,1.757-2.08,0-1.194-.577-1.883-1.661-1.883a2.551,2.551,0,0,0-.542.048Z" transform="translate(-705.085 -639.998)" fill="#498f35"/>
        <path id="Path_2334" data-name="Path 2334" d="M725.624,640.11a7.954,7.954,0,0,1,1.381-.112,2.873,2.873,0,0,1,1.949.568,2.5,2.5,0,0,1,.8,2.034,2.851,2.851,0,0,1-.8,2.177,3.142,3.142,0,0,1-2.174.676,8.986,8.986,0,0,1-1.163-.067Zm.94,4.567a2.838,2.838,0,0,0,.445.023c1.066,0,1.758-.637,1.758-2.08,0-1.194-.578-1.883-1.661-1.883a2.551,2.551,0,0,0-.542.048Z" transform="translate(-716.397 -639.998)" fill="#498f35"/>
      </g>
    </g>
  </g>
</svg>
