<svg id="C_CPP" data-name="C/CPP" xmlns="http://www.w3.org/2000/svg" xmlns:xlink="http://www.w3.org/1999/xlink" width="48" height="48" viewBox="0 0 48 48">
  <defs>
    <clipPath id="clip-path">
      <rect id="Rectangle_265" data-name="Rectangle 265" width="48" height="48" transform="translate(-4535 6716)" fill="#fff" stroke="#707070" stroke-width="1"/>
    </clipPath>
  </defs>
  <g id="Mask_Group_87" data-name="Mask Group 87" transform="translate(4535 -6716)" clip-path="url(#clip-path)">
    <g id="Group_1088" data-name="Group 1088" transform="translate(91.146 6.796)">
      <path id="Union_4" data-name="Union 4" d="M7.9,19.282.749,15.155A1.639,1.639,0,0,1,0,13.858V5.6a1.661,1.661,0,0,1,.749-1.3L7.9.179a1.659,1.659,0,0,1,1.5,0l7.149,4.127a1.7,1.7,0,0,1,.749,1.3v8.255a1.608,1.608,0,0,1-.749,1.3L9.4,19.282a1.659,1.659,0,0,1-1.5,0ZM2.882,9.73a5.767,5.767,0,0,0,10.757,2.884l-2.495-1.443a2.883,2.883,0,1,1,0-2.881l2.495-1.444A5.768,5.768,0,0,0,2.882,9.73Z" transform="translate(-4620.146 6723.205)" fill="#669ad3"/>
      <path id="c_icon_132529" d="M16.544,4.306,9.4.178a1.661,1.661,0,0,0-1.5,0L.749,4.306A1.661,1.661,0,0,0,0,5.6v8.255a1.639,1.639,0,0,0,.749,1.3L7.9,19.282a1.661,1.661,0,0,0,1.5,0l7.149-4.127a1.608,1.608,0,0,0,.749-1.3V5.6A1.7,1.7,0,0,0,16.544,4.306ZM2.882,9.73A5.771,5.771,0,0,1,13.638,6.846L11.144,8.29a2.883,2.883,0,1,0,0,2.881l2.495,1.443A5.767,5.767,0,0,1,2.882,9.73Zm11.529.32H13.77v.641h-.64V10.05h-.641V9.41h.641v-.64h.64v.64h.641Zm2.4,0h-.641v.641h-.64V10.05h-.641V9.41h.641v-.64h.64v.64h.641Z" transform="translate(-4601.481 6723.205)" fill="#669ad3"/>
    </g>
  </g>
</svg>
