<svg id="Cypress" xmlns="http://www.w3.org/2000/svg" xmlns:xlink="http://www.w3.org/1999/xlink" width="48" height="48" viewBox="0 0 48 48">
  <defs>
    <clipPath id="clip-path">
      <rect id="Rectangle_482" data-name="Rectangle 482" width="48" height="48" transform="translate(3988 3953)" fill="#fff" stroke="#707070" stroke-width="1"/>
    </clipPath>
  </defs>
  <g id="Cypress-2" data-name="Cypress" transform="translate(-3988 -3953)" clip-path="url(#clip-path)">
    <g id="_16414264681536211770" data-name="16414264681536211770" transform="translate(3990 3955)">
      <g id="Group_1413" data-name="Group 1413" transform="translate(3 3)">
        <path id="Path_2555" data-name="Path 2555" d="M22,3A19,19,0,1,1,3,22,18.989,18.989,0,0,1,22,3Z" transform="translate(-3 -3)"/>
        <path id="Path_2556" data-name="Path 2556" d="M22,3A19,19,0,1,1,3,22,18.989,18.989,0,0,1,22,3Z" transform="translate(-3 -3)" fill="#fff"/>
      </g>
      <path id="Path_2557" data-name="Path 2557" d="M25.732,7.386A18.346,18.346,0,1,1,7.386,25.732,18.335,18.335,0,0,1,25.732,7.386Z" transform="translate(-3.732 -3.732)" fill="#5c5c5e"/>
      <path id="Path_2558" data-name="Path 2558" d="M60.137,88.155A9.438,9.438,0,0,1,57.053,92.8a10.247,10.247,0,0,1-5.632,1.9l-.47-3.011a7.724,7.724,0,0,0,3.42-1.047,8.584,8.584,0,0,0,.8-.785L49.61,72.449h4.627l3.218,13.023,3.42-13.023h4.493Zm-16.16-16.3a7.824,7.824,0,0,1,2.883.458,8.713,8.713,0,0,1,2.481,1.44l-1.878,2.487a7.4,7.4,0,0,0-1.542-.851,4.369,4.369,0,0,0-1.609-.262c-2.28,0-3.42,1.7-3.42,5.17a5.91,5.91,0,0,0,.872,3.73,2.927,2.927,0,0,0,2.548,1.113,4.02,4.02,0,0,0,1.542-.262,13.867,13.867,0,0,0,1.676-.851l1.878,2.618a8.132,8.132,0,0,1-5.3,1.832,8.461,8.461,0,0,1-4.157-.982,6.65,6.65,0,0,1-2.682-2.88,9.871,9.871,0,0,1-.939-4.385,10.077,10.077,0,0,1,.939-4.385,6.986,6.986,0,0,1,2.682-3.01A8.671,8.671,0,0,1,43.977,71.86Z" transform="translate(-28.36 -57.888)" fill="#fff"/>
    </g>
  </g>
</svg>
