<svg id="Java" xmlns="http://www.w3.org/2000/svg" xmlns:xlink="http://www.w3.org/1999/xlink" width="48" height="48" viewBox="0 0 48 48">
  <defs>
    <clipPath id="clip-path">
      <rect id="Rectangle_264" data-name="Rectangle 264" width="48" height="48" transform="translate(-3985 6455)" fill="#fff" stroke="#707070" stroke-width="1"/>
    </clipPath>
  </defs>
  <g id="Mask_Group_86" data-name="Mask Group 86" transform="translate(3985 -6455)" clip-path="url(#clip-path)">
    <g id="java_original_wordmark_logo_icon_146459" transform="translate(-4001.296 6458.687)">
      <path id="Path_2347" data-name="Path 2347" d="M47.923,61.257s-1,.579.71.775a14.929,14.929,0,0,0,5.4-.228,9.475,9.475,0,0,0,1.436.7C50.363,64.691,43.914,62.377,47.923,61.257ZM47.3,58.4s-1.117.827.59,1a21.066,21.066,0,0,0,6.968-.334,3.075,3.075,0,0,0,1.072.654C49.757,61.531,42.884,59.868,47.3,58.4Z" transform="translate(-10.87 -39.779)" fill="#0074bd"/>
      <path id="Path_2348" data-name="Path 2348" d="M65.215,26.02a1.91,1.91,0,0,1-.33,2.751s3.194-1.649,1.727-3.714c-1.37-1.925-2.42-2.881,3.266-6.179C69.878,18.879,60.952,21.108,65.215,26.02Z" transform="translate(-23.527 -12.24)" fill="#ea2d2e"/>
      <path id="Path_2349" data-name="Path 2349" d="M49.736,55.993s.737.608-.812,1.078c-2.946.892-12.263,1.162-14.851.035-.93-.4.815-.966,1.363-1.084a3.553,3.553,0,0,1,.9-.1c-1.035-.729-6.687,1.431-2.871,2.05C43.871,59.658,52.435,57.212,49.736,55.993ZM38.829,48.069S34.09,49.195,37.151,49.6a35.617,35.617,0,0,0,6.269-.068c1.962-.165,3.93-.517,3.93-.517a8.373,8.373,0,0,0-1.192.638c-4.813,1.266-14.11.676-11.433-.618A8.955,8.955,0,0,1,38.829,48.069Zm8.5,4.751c4.892-2.542,2.63-4.984,1.051-4.655a3.716,3.716,0,0,0-.559.15.89.89,0,0,1,.418-.322c3.124-1.1,5.526,3.239-1.007,4.956a.432.432,0,0,0,.1-.129Z" transform="translate(-1.296 -32.404)" fill="#0074bd"/>
      <path id="Path_2350" data-name="Path 2350" d="M58.622,1.313s2.709,2.71-2.57,6.878c-4.233,3.344-.965,5.25,0,7.428-2.471-2.23-4.284-4.193-3.068-6.019,1.786-2.681,6.733-3.982,5.64-8.286Z" transform="translate(-15.537)" fill="#ea2d2e"/>
      <path id="Path_2351" data-name="Path 2351" d="M47.277,81.55c4.695.3,11.907-.167,12.078-2.389,0,0-.328.842-3.881,1.51a38.588,38.588,0,0,1-11.883.183S44.191,81.351,47.277,81.55Z" transform="translate(-9.264 -54.243)" fill="#0074bd"/>
      <path id="Path_2352" data-name="Path 2352" d="M49.875,95.1h-.143v-.08h.385v.08h-.143v.4h-.1v-.4Zm.769.02h0L50.5,95.5h-.065l-.141-.379h0V95.5H50.2v-.479h.139l.131.339.131-.339h.138V95.5h-.092Zm-13.4,4.485a2.133,2.133,0,0,1-1.331.6.849.849,0,0,1-.923-.935c0-.623.347-1.079,1.74-1.079h.515v1.415Zm1.222,1.379V96.717c0-1.091-.623-1.811-2.122-1.811a5.6,5.6,0,0,0-2.266.492l.18.756a5.264,5.264,0,0,1,1.75-.348c.864,0,1.236.348,1.236,1.068v.539h-.432c-2.1,0-3.045.814-3.045,2.039,0,1.055.624,1.654,1.8,1.654a2.713,2.713,0,0,0,1.846-.768l.1.648h.959Zm4.079,0H41.021l-1.835-5.97h1.331l1.139,3.669.253,1.1a22.985,22.985,0,0,0,1.186-4.77h1.3a24.23,24.23,0,0,1-1.846,5.97Zm5.848-1.379a2.14,2.14,0,0,1-1.332.6.849.849,0,0,1-.924-.935c0-.623.348-1.079,1.739-1.079h.516v1.415Zm1.223,1.379V96.717c0-1.091-.624-1.811-2.122-1.811a5.6,5.6,0,0,0-2.267.492l.18.756a5.269,5.269,0,0,1,1.751-.348c.863,0,1.235.348,1.235,1.068v.539h-.432c-2.1,0-3.046.814-3.046,2.039,0,1.055.623,1.654,1.8,1.654a2.717,2.717,0,0,0,1.847-.768l.1.648h.959ZM32.426,102a3.2,3.2,0,0,1-1.527,1.139l-.6-.711a2.533,2.533,0,0,0,1.058-.991,3.834,3.834,0,0,0,.228-1.729V92.891h1.3v6.723A3.884,3.884,0,0,1,32.426,102Z" transform="translate(0 -63.81)" fill="#ea2d2e"/>
    </g>
  </g>
</svg>
