<svg id="JavaScript_TypeScript" data-name="JavaScript/TypeScript" xmlns="http://www.w3.org/2000/svg" xmlns:xlink="http://www.w3.org/1999/xlink" width="48" height="48" viewBox="0 0 48 48">
  <defs>
    <clipPath id="clip-path">
      <rect id="Rectangle_262" data-name="Rectangle 262" width="48" height="48" transform="translate(-4535 6455)" fill="#fff" stroke="#707070" stroke-width="1"/>
    </clipPath>
  </defs>
  <g id="Mask_Group_84" data-name="Mask Group 84" transform="translate(4535 -6455)" clip-path="url(#clip-path)">
    <g id="Group_1086" data-name="Group 1086" transform="translate(27.712 -71.288)">
      <path id="Subtraction_17" data-name="Subtraction 17" d="M32,32H0V0H32V32Zm-9.166-5.513a2.515,2.515,0,0,0,1,1.929,3.792,3.792,0,0,0,2.334.691,3.54,3.54,0,0,0,1.6-.334,2.4,2.4,0,0,0,1-.893,2.33,2.33,0,0,0,.34-1.226,2.242,2.242,0,0,0-.369-1.334,2.549,2.549,0,0,0-.881-.78A9.451,9.451,0,0,0,26.537,24c-.372-.134-.661-.247-.857-.334a1.509,1.509,0,0,1-.494-.339.717.717,0,0,1-.2-.506.7.7,0,0,1,.22-.559.853.853,0,0,1,.577-.191.9.9,0,0,1,.661.244,1.133,1.133,0,0,1,.3.66h2.2a2.557,2.557,0,0,0-.935-1.834,3.472,3.472,0,0,0-2.232-.666,3.862,3.862,0,0,0-1.542.291,2.441,2.441,0,0,0-1.054.84,2.482,2.482,0,0,0-.017,2.613,2.408,2.408,0,0,0,.869.762,10.572,10.572,0,0,0,1.3.53c.376.131.657.238.857.328a1.648,1.648,0,0,1,.518.351.743.743,0,0,1,.208.536.756.756,0,0,1-.226.572.868.868,0,0,1-.62.214,1.051,1.051,0,0,1-.744-.274,1.149,1.149,0,0,1-.339-.75ZM16,26.081a2.984,2.984,0,0,0,.81,2.244,3.035,3.035,0,0,0,2.191.78,2.72,2.72,0,0,0,1.994-.715,2.753,2.753,0,0,0,.721-2.036V20.6H19.679v5.751c0,.6-.26.9-.774.9-.592,0-.893-.4-.893-1.179ZM9.725,10.115a2.514,2.514,0,0,0,1,1.929,3.789,3.789,0,0,0,2.334.691,3.548,3.548,0,0,0,1.6-.333,2.407,2.407,0,0,0,1-.893A2.331,2.331,0,0,0,16,10.281a2.239,2.239,0,0,0-.369-1.333,2.535,2.535,0,0,0-.881-.78,9.365,9.365,0,0,0-1.321-.542c-.384-.139-.664-.249-.857-.334a1.494,1.494,0,0,1-.494-.34.714.714,0,0,1-.2-.506.7.7,0,0,1,.22-.56.854.854,0,0,1,.577-.19.894.894,0,0,1,.66.244,1.136,1.136,0,0,1,.3.661h2.2a2.556,2.556,0,0,0-.935-1.834A3.471,3.471,0,0,0,12.678,4.1a3.863,3.863,0,0,0-1.542.292,2.435,2.435,0,0,0-1.054.839,2.227,2.227,0,0,0-.381,1.3,2.216,2.216,0,0,0,.364,1.316,2.4,2.4,0,0,0,.869.762,10.517,10.517,0,0,0,1.3.53c.369.129.658.239.857.328a1.634,1.634,0,0,1,.518.352.739.739,0,0,1,.208.536.753.753,0,0,1-.226.571.869.869,0,0,1-.62.214,1.049,1.049,0,0,1-.744-.274,1.151,1.151,0,0,1-.34-.75ZM2.5,4.233V5.852H4.76v6.8H6.807v-6.8H9.094V4.233Z" transform="translate(-4554.711 6534.288)" fill="#f7df1e"/>
      <path id="Subtraction_16" data-name="Subtraction 16" d="M32,32H0L32,0V32Zm-9.166-5.513a2.515,2.515,0,0,0,1,1.929,3.792,3.792,0,0,0,2.334.691,3.539,3.539,0,0,0,1.6-.334,2.4,2.4,0,0,0,1-.893,2.33,2.33,0,0,0,.34-1.226,2.242,2.242,0,0,0-.369-1.334,2.549,2.549,0,0,0-.881-.78A9.451,9.451,0,0,0,26.537,24c-.373-.134-.661-.247-.857-.334a1.509,1.509,0,0,1-.494-.339.717.717,0,0,1-.2-.506.7.7,0,0,1,.22-.559.853.853,0,0,1,.577-.191.9.9,0,0,1,.661.244,1.132,1.132,0,0,1,.3.66h2.2a2.557,2.557,0,0,0-.935-1.834,3.472,3.472,0,0,0-2.232-.666,3.862,3.862,0,0,0-1.542.291,2.441,2.441,0,0,0-1.054.84,2.482,2.482,0,0,0-.017,2.613,2.408,2.408,0,0,0,.869.762,10.571,10.571,0,0,0,1.3.53c.376.131.657.238.857.328a1.648,1.648,0,0,1,.518.351.743.743,0,0,1,.208.536.756.756,0,0,1-.226.572.868.868,0,0,1-.62.214,1.051,1.051,0,0,1-.744-.274,1.149,1.149,0,0,1-.339-.75ZM16,26.081a2.984,2.984,0,0,0,.81,2.244,3.035,3.035,0,0,0,2.191.78,2.72,2.72,0,0,0,1.994-.715,2.753,2.753,0,0,0,.721-2.036V20.6H19.679v5.751c0,.6-.26.9-.774.9-.592,0-.893-.4-.893-1.179Z" transform="translate(-4554.711 6534.288)" fill="#007acc"/>
    </g>
  </g>
</svg>
