<svg id="My_SQL" data-name="My SQL" xmlns="http://www.w3.org/2000/svg" xmlns:xlink="http://www.w3.org/1999/xlink" width="48" height="48" viewBox="0 0 48 48">
  <defs>
    <clipPath id="clip-path">
      <rect id="Rectangle_234" data-name="Rectangle 234" width="48" height="48" transform="translate(-3706 6448)" fill="#fff" stroke="#707070" stroke-width="1"/>
    </clipPath>
  </defs>
  <g id="Mask_Group_68" data-name="Mask Group 68" transform="translate(3706 -6448)" clip-path="url(#clip-path)">
    <path id="mysql" d="M2,50.944H3.341V45.649l2.076,4.616a1.142,1.142,0,0,0,1.238.756,1.127,1.127,0,0,0,1.225-.756l2.076-4.616v5.295H11.3V45.658a.805.805,0,0,0-.632-.894c-1.019-.318-1.7-.043-2.011.645L6.615,49.964,4.643,45.408c-.3-.687-.993-.962-2.011-.645A.806.806,0,0,0,2,45.657v5.286Zm10.41-4.31h1.34v2.917c-.012.158.051.53.785.542.375.006,2.892,0,2.916,0V46.619H18.8c.006,0,0,4.737,0,4.756.007,1.168-1.449,1.422-2.121,1.442H12.44v-.9c.007,0,4.231,0,4.241,0,.863-.091.761-.52.761-.664V50.9h-2.85c-1.326-.012-2.17-.591-2.181-1.257,0-.061.029-2.979,0-3.009Zm7.419,4.31h3.855a2.976,2.976,0,0,0,1.238-.258,1.216,1.216,0,0,0,.864-1.1v-.98c0-.387-.322-.748-.954-.988a3.293,3.293,0,0,0-1.148-.2H22.06c-.541,0-.8-.163-.864-.524a.389.389,0,0,1-.013-.12v-.61a.361.361,0,0,1,.013-.112c.064-.275.206-.352.683-.4l.129-.008h3.829v-.894H22.073a3.614,3.614,0,0,0-1.083.112c-.8.249-1.148.645-1.148,1.332v.782c0,.6.684,1.117,1.831,1.238.129.008.258.017.387.017h1.393a.758.758,0,0,1,.142.008c.426.034.606.112.735.266a.32.32,0,0,1,.1.241v.782a.448.448,0,0,1-.193.318.951.951,0,0,1-.567.189l-.142.008h-3.7v.894Zm14.321-1.555c0,.919.683,1.435,2.063,1.538.129.008.258.017.387.017h3.494V50.05h-3.52c-.787,0-1.083-.2-1.083-.671V44.755H34.151v4.633Zm-7.509.046V46.247c0-.809.569-1.3,1.693-1.456a2.546,2.546,0,0,1,.362-.026h2.545a2.72,2.72,0,0,1,.374.026c1.124.155,1.693.646,1.693,1.456v3.187a1.163,1.163,0,0,1-.8,1.238l1.321,1.192H32.274L31.206,50.9l-1.076.068H28.7a2.962,2.962,0,0,1-.788-.112c-.853-.232-1.266-.68-1.266-1.421Zm1.447-.077a.583.583,0,0,0,.026.138c.077.37.427.577.956.577h1.218l-1.119-1.01h1.557l.976.881a.636.636,0,0,0,.34-.431.446.446,0,0,0,.013-.129V46.326a.42.42,0,0,0-.013-.121c-.078-.345-.427-.542-.943-.542H29.071c-.594,0-.982.258-.982.663v3.031Zm13.185-6.085a4.719,4.719,0,0,0-1.992.281c-.153.065-.4.066-.422.258.084.088.1.22.164.328a2.585,2.585,0,0,0,.539.633c.211.16.429.331.656.469.4.246.853.386,1.242.633.229.146.456.328.679.492.111.081.184.207.328.257V46.6c-.075-.1-.095-.228-.164-.328l-.3-.3a4.989,4.989,0,0,0-1.078-1.031c-.32-.23-1.038-.541-1.172-.914L39.727,44a5.181,5.181,0,0,0,.7-.164c.352-.095.667-.07,1.031-.164l.492-.141v-.093c-.184-.189-.315-.439-.516-.609A15.088,15.088,0,0,0,39.75,41.56c-.327-.206-.731-.34-1.078-.515-.116-.059-.321-.089-.4-.188a4.94,4.94,0,0,1-.422-.8c-.294-.566-.583-1.185-.844-1.781a9.567,9.567,0,0,0-.515-1.172,10.35,10.35,0,0,0-3.984-3.844,4.772,4.772,0,0,0-1.312-.422l-.773-.047a4.139,4.139,0,0,1-.469-.351c-.588-.371-2.1-1.179-2.531-.117-.275.67.411,1.324.656,1.664a5.044,5.044,0,0,1,.516.773c.081.176.095.353.164.539a12.342,12.342,0,0,0,.539,1.382,4.893,4.893,0,0,0,.375.633c.086.117.234.17.258.351a2.866,2.866,0,0,0-.234.773,4.489,4.489,0,0,0,.3,3.445c.164.263.549.825,1.078.609.463-.189.36-.773.492-1.289.03-.117.011-.2.07-.281v.023l.422.844A5.743,5.743,0,0,0,33.4,43.178c.243.184.435.5.75.609v-.024h-.023c-.061-.095-.156-.134-.235-.211a5.326,5.326,0,0,1-.539-.609A14.251,14.251,0,0,1,32.2,41.069c-.164-.315-.307-.663-.445-.984-.054-.124-.053-.311-.164-.375a4.655,4.655,0,0,0-.492.7,6.029,6.029,0,0,0-.281,1.547l-.047.023c-.327-.079-.441-.415-.563-.7a4.428,4.428,0,0,1-.094-2.742c.07-.217.385-.9.258-1.1-.061-.2-.262-.316-.375-.469a3.663,3.663,0,0,1-.375-.656c-.251-.568-.368-1.206-.633-1.781a5.207,5.207,0,0,0-.516-.8,4.688,4.688,0,0,1-.563-.8c-.054-.116-.126-.3-.047-.422a.186.186,0,0,1,.141-.141c.136-.1.514.035.656.094a5.736,5.736,0,0,1,1.008.516c.153.1.307.3.492.351h.211c.33.076.7.023,1.008.117a6.094,6.094,0,0,1,1.476.7,9.145,9.145,0,0,1,3.211,3.516c.121.233.174.456.281.7.216.5.488,1.012.7,1.5a7,7,0,0,0,.727,1.383c.159.213.775.327,1.054.445a6.261,6.261,0,0,1,.7.281c.355.214.7.469,1.031.7.166.118.678.375.7.587ZM30.8,34.343a1.672,1.672,0,0,0-.422.047v.023H30.4a3.171,3.171,0,0,0,.328.422l.235.492.023-.023a.572.572,0,0,0,.211-.516c-.058-.061-.067-.138-.117-.211C31.012,34.48,30.882,34.425,30.8,34.343Z" transform="translate(-3704 6429.201)" fill="#00618a"/>
  </g>
</svg>
