<svg id="PhoneGap" xmlns="http://www.w3.org/2000/svg" xmlns:xlink="http://www.w3.org/1999/xlink" width="48" height="48" viewBox="0 0 48 48">
  <defs>
    <clipPath id="clip-path">
      <rect id="Rectangle_481" data-name="Rectangle 481" width="48" height="48" transform="translate(4079 3703)" fill="#fff" stroke="#707070" stroke-width="1"/>
    </clipPath>
  </defs>
  <g id="PhoneGap-2" data-name="PhoneGap" transform="translate(-4079 -3703)" clip-path="url(#clip-path)">
    <g id="_18296456921553750209" data-name="18296456921553750209" transform="translate(4089.427 3710.281)">
      <g id="Group_1070" data-name="Group 1070" transform="translate(0 0)">
        <path id="Path_2232" data-name="Path 2232" d="M247.981,151.373a3.063,3.063,0,0,0-2.25-2.937s-7.422-1.14-10.7-1.549a2.515,2.515,0,0,0-3.054,2.761s.731,23.056.8,25.891a2.734,2.734,0,0,0,3.273,2.864l11.221-1.943c2.016-.409,2.133-2.937,2.133-2.937s-1.315-19.462-1.432-22.15c-.117-2.425.117,2.688,0,0Zm-2.5,19.564-8.343.877s-2.426.365-2.5-2.572c-.044-2.177-.511-14.64-.511-14.64a1.93,1.93,0,0,1,2.323-2.089c2.571.19,8.65.658,8.65.658a2.377,2.377,0,0,1,1.695,2.25c.073,2.016.774,13.281.774,13.281s.219,1.87-2.089,2.235Z" transform="translate(-220.512 -146.851)" fill="#262626"/>
        <path id="Path_2233" data-name="Path 2233" d="M158.054,206.717l-1.549.117a1.366,1.366,0,0,1-1.578-1.476c-.044-1.257-.19-8.343-.19-8.343s-.117-1.33,1.476-1.213c.409.044.994.073,1.622.117-.044-1.183-.044-2.206-.073-3.01-.877-.073-1.695-.146-2.279-.219-2.089-.219-1.987,1.549-1.987,1.549s.263,13.062.292,14.64c.073,1.914,2.089,1.622,2.089,1.622l2.206-.219c0-1.023-.029-2.206-.029-3.565Z" transform="translate(-153.494 -185.976)" fill="#262626"/>
        <path id="Path_2234" data-name="Path 2234" d="M207.717,203.915a1.506,1.506,0,0,0-.073-.438c-.658-.073-2.352-.511-2.908.073-.336.365-.219,1.14-.19,1.549l1.213.073a1.458,1.458,0,0,1,1.11,1.286c.044,1.184.044,7.729.044,7.729s.117,1.067-1.359,1.286l-.774.073v.555c.044,1.87,2.016,1.286,3.273,1.14.117-1.987-.073-4-.117-5.991-.073-2.44-.117-4.909-.219-7.335,0-.19.073,1.476,0,0Z" transform="translate(-197.05 -195.01)" fill="#262626"/>
        <path id="Path_2235" data-name="Path 2235" d="M194.182,187.55l-2.25.219a1.88,1.88,0,0,1-2.133-2.089c-.044-1.8-.263-11.923-.263-11.923s-.146-1.87,1.987-1.724c.555.044,1.33.117,2.133.19-.073-1.943-.117-3.463-.146-4.266-1.14-.117-2.206-.219-2.981-.336-2.835-.336-2.645,2.206-2.645,2.206s.336,18.542.409,20.777c.073,2.718,2.835,2.279,2.835,2.279l3.156-.409c.015-1.023-.029-2.791-.1-4.924Z" transform="translate(-182.857 -164.56)" fill="#262626"/>
        <path id="Path_2236" data-name="Path 2236" d="M253.491,190.815a1.478,1.478,0,0,0-1.183.292,1.545,1.545,0,0,0-.292,1.213c1.14.117,1.943.19,1.943.19a2,2,0,0,1,1.476,1.841c.073,1.651.482,10.666.482,10.666s.146,1.5-1.841,1.841l-1.5.146c.219,2.353,3.273,1.359,4.822,1.213-.19-3.565-.658-14.567-.775-17.139-1.169-.117-2.323-.19-3.127-.263-.073,0,.8.073,0,0Z" transform="translate(-237.608 -184.379)" fill="#262626"/>
      </g>
    </g>
  </g>
</svg>
