<svg id="PHP" xmlns="http://www.w3.org/2000/svg" xmlns:xlink="http://www.w3.org/1999/xlink" width="48" height="48" viewBox="0 0 48 48">
  <defs>
    <clipPath id="clip-path">
      <rect id="Rectangle_266" data-name="Rectangle 266" width="48" height="48" transform="translate(-4283 6716)" fill="#fff" stroke="#707070" stroke-width="1"/>
    </clipPath>
  </defs>
  <g id="Mask_Group_88" data-name="Mask Group 88" transform="translate(4283 -6716)" clip-path="url(#clip-path)">
    <path id="php_plain_logo_icon_146397" d="M20.65,33.039c-9.8,0-17.744,4.026-17.744,8.992s7.945,8.992,17.744,8.992S38.394,47,38.394,42.031,30.449,33.039,20.65,33.039ZM16.033,43.783a3.469,3.469,0,0,1-1.412.728,6.951,6.951,0,0,1-1.978.134H10.827l-.5,2.9H8.2L10.1,37.675h4.078a3.4,3.4,0,0,1,2.684,1,3.064,3.064,0,0,1,.507,2.712,4.271,4.271,0,0,1-1.332,2.4Zm6.189.862.837-4.188a1.242,1.242,0,0,0-.1-1.032,1.46,1.46,0,0,0-1.056-.3H20.217l-1.084,5.518h-2.1l1.892-9.584h2.1l-.5,2.614H22.4a3.631,3.631,0,0,1,2.44.648,1.847,1.847,0,0,1,.4,1.9l-.88,4.427ZM33.915,41.4a4.231,4.231,0,0,1-1.331,2.384,3.471,3.471,0,0,1-1.412.728,6.952,6.952,0,0,1-1.978.134H27.378l-.5,2.9h-2.12l1.892-9.875h4.078a3.4,3.4,0,0,1,2.684,1A3.1,3.1,0,0,1,33.915,41.4ZM29.92,39.127H28.468l-.792,4.066h1.29a3.149,3.149,0,0,0,1.91-.407,2.458,2.458,0,0,0,.847-1.574,1.893,1.893,0,0,0-.192-1.585A2.154,2.154,0,0,0,29.92,39.127Zm-16.55,0H11.917l-.792,4.066h1.29a3.15,3.15,0,0,0,1.91-.407,2.458,2.458,0,0,0,.847-1.574,1.893,1.893,0,0,0-.192-1.585A2.151,2.151,0,0,0,13.37,39.127Z" transform="translate(-4279.906 6697.961)" fill="#6181b6"/>
  </g>
</svg>
