<svg id="Postgres" xmlns="http://www.w3.org/2000/svg" xmlns:xlink="http://www.w3.org/1999/xlink" width="48" height="48" viewBox="0 0 48 48">
  <defs>
    <clipPath id="clip-path">
      <rect id="Rectangle_235" data-name="Rectangle 235" width="48" height="48" transform="translate(-3656 6442)" fill="#fff" stroke="#707070" stroke-width="1"/>
    </clipPath>
  </defs>
  <g id="Mask_Group_69" data-name="Mask Group 69" transform="translate(3656 -6442)" clip-path="url(#clip-path)">
    <g id="Group_1078" data-name="Group 1078" transform="translate(1.369 -8.687)">
      <path id="Subtraction_7" data-name="Subtraction 7" d="M17.612,29.9h0a2.264,2.264,0,0,1-1.5-.5,3.566,3.566,0,0,1-.913-1.43,11.94,11.94,0,0,1-.331-2.821c-.069-1.517-.079-3.377-.03-5.237V19.88c0-.04,0-.08,0-.12a.46.46,0,0,0-.02-.148,1.992,1.992,0,0,0-.1-.4,2.029,2.029,0,0,0-.7-.949,1.52,1.52,0,0,0-.295-.165.154.154,0,0,0-.025-.01,1.556,1.556,0,0,0-.621-.147c-.037,0-.073,0-.108,0a1.233,1.233,0,0,0-.2.033,11.53,11.53,0,0,1,.39-1.184l.016-.044c.037-.1.055-.145.056-.147s-.011.032-.024.068l-.012.032-.018.05-.018.051.089-.24,0-.008a.147.147,0,0,0,.01-.029c.07-.185.162-.389.259-.605l.01-.023,0,0c.6-1.325,1.337-2.974.5-6.851a2.326,2.326,0,0,0-1.606-1.89,3.094,3.094,0,0,0-.92-.13,4.42,4.42,0,0,0-.649.05A6.621,6.621,0,0,0,9.376,7.5a5.532,5.532,0,0,0-.819.419C8.736,5.646,9.724.362,15.01.362h.13a8.908,8.908,0,0,1,5.334,1.8,10.567,10.567,0,0,1,2.838,3.327,9.049,9.049,0,0,1,.62,1.358l.026.077a8.6,8.6,0,0,0-.885-.049c-1.806,0-2.835.7-3.056,2.092a6.577,6.577,0,0,0,.624,3.32,26.447,26.447,0,0,0,1.466,2.943c.2.359.335.6.383.716a6.5,6.5,0,0,0,1.032,1.66c.106.131.189.237.251.326-.52.148-1.487.423-1.4,2.252-.036.479-.205,1.967-.393,3.463-.164,1.322-.321,2.438-.429,3.062a3.775,3.775,0,0,1-.874,2.079A4.106,4.106,0,0,1,18.5,29.8,4.269,4.269,0,0,1,17.612,29.9Zm-6.736-8.21A5.214,5.214,0,0,1,9.6,21.523a1.962,1.962,0,0,1-.631-.272,3.158,3.158,0,0,1,.672-.2c1.781-.367,1.955-.589,2.533-1.323.144-.182.3-.378.484-.585a.685.685,0,0,1,.391-.266h.023a.792.792,0,0,1,.27.073l.023.01a.52.52,0,0,1,.111.062,1.058,1.058,0,0,1,.357.5.8.8,0,0,1,.015.561.707.707,0,0,1-.054.1,3.4,3.4,0,0,1-2.244,1.451A4.083,4.083,0,0,1,10.876,21.69Zm-5.408-.456a1.669,1.669,0,0,1-1.157-.678,10.316,10.316,0,0,1-1.621-2.819,40.354,40.354,0,0,1-1.9-6.1,30.62,30.62,0,0,1-.77-4.28A9.914,9.914,0,0,1,.334,4.079,5.085,5.085,0,0,1,1.5,1.988,5.673,5.673,0,0,1,5.789.442a15.14,15.14,0,0,1,4.465.785C7.611,3.822,7.579,8.368,7.584,8.878a.261.261,0,0,0,0,.026c0,.108.006.248.021.481v.02a19.169,19.169,0,0,1-.1,3.846,5.035,5.035,0,0,0-.026,1.2,4.887,4.887,0,0,0,1.236,2.808,4.644,4.644,0,0,0,.413.4c-.386.412-1.4,1.514-2.521,2.857a2.107,2.107,0,0,1-.843.667A.876.876,0,0,1,5.467,21.234Zm19.059-.876a4.329,4.329,0,0,1-.827-.069,1.015,1.015,0,0,1-.4-.129c-.054-1.112.455-1.255.791-1.35l.05-.014h0c.064-.018.124-.034.181-.053a3.345,3.345,0,0,0,2.031.515,10.7,10.7,0,0,0,2.127-.248L28.517,19a5.291,5.291,0,0,1-1.344.866,6.7,6.7,0,0,1-2.237.478C24.795,20.355,24.657,20.358,24.526,20.358Zm-12.66-2.6h0a4.079,4.079,0,0,1-.434-.026,3.409,3.409,0,0,1-2.03-1.1,3.941,3.941,0,0,1-1-2.265,4.213,4.213,0,0,1,.023-.983,20.1,20.1,0,0,0,.1-4.047v0c-.01-.154-.015-.26-.018-.334a.465.465,0,0,0,.008-.1v0c.077-.051.578-.276,1.2-.531a5.735,5.735,0,0,1,1.272-.362,3.462,3.462,0,0,1,.516-.041,2.153,2.153,0,0,1,.637.088,1.449,1.449,0,0,1,.97,1.195,11.533,11.533,0,0,1,.271,4.034,7.707,7.707,0,0,1-.708,2.237l-.045.1c-.086.194-.168.376-.244.581l-.016.039c-.1.28-.117.317-.117.318l.013-.035a11.294,11.294,0,0,0-.406,1.232Zm-.248-9.27a1.383,1.383,0,0,0-.313.033c-.209.051-.334.156-.354.3v.005a.688.688,0,0,0,.222.471,1.017,1.017,0,0,0,.584.318h0a.8.8,0,0,0,.111.008.925.925,0,0,0,.514-.165.683.683,0,0,0,.305-.4c.02-.14-.075-.279-.261-.383a1.611,1.611,0,0,0-.548-.171h-.008A1.957,1.957,0,0,0,11.618,8.488Zm12.743,8.678h0l-.113-.14-.013-.016v0l-.034-.043a6.5,6.5,0,0,0,.609-4.555,10.841,10.841,0,0,1-.119-1.621,11.454,11.454,0,0,1,.158-1.445A8.874,8.874,0,0,0,25,7.57c.005-.02.009-.041.013-.063a2.542,2.542,0,0,0-.194-.97,10.08,10.08,0,0,0-.683-1.5A11.008,11.008,0,0,0,19.08.259l.05-.01.09-.018A12.258,12.258,0,0,1,21.563,0a9.313,9.313,0,0,1,3.408.6A7.565,7.565,0,0,1,28.2,3.024a3.658,3.658,0,0,1,.418,2.288,18.081,18.081,0,0,1-.682,3.828,30.617,30.617,0,0,1-3.579,8.027ZM23.6,16.1h0a4.779,4.779,0,0,1-.248-.509c-.071-.174-.237-.472-.429-.817l-.011-.019a27.267,27.267,0,0,1-1.368-2.722,5.822,5.822,0,0,1-.6-2.922,1.329,1.329,0,0,1,.586-.938A2.862,2.862,0,0,1,23.1,7.811a7.818,7.818,0,0,1,.958.065,9.568,9.568,0,0,1-.142,1.331v0a11.888,11.888,0,0,0-.165,1.553,11.329,11.329,0,0,0,.121,1.759A6.287,6.287,0,0,1,23.6,16.1ZM22.594,8.256a1.845,1.845,0,0,0-.25.017,1.522,1.522,0,0,0-.52.16c-.158.089-.237.2-.222.305a.607.607,0,0,0,.272.341.856.856,0,0,0,.473.151.742.742,0,0,0,.1-.006h0a.938.938,0,0,0,.54-.295.618.618,0,0,0,.2-.411c-.015-.11-.12-.192-.3-.233A1.335,1.335,0,0,0,22.594,8.256Z" transform="translate(-3647.369 6459.688)" fill="#336791"/>
    </g>
  </g>
</svg>
