<svg id="Protractor" xmlns="http://www.w3.org/2000/svg" xmlns:xlink="http://www.w3.org/1999/xlink" width="48" height="48" viewBox="0 0 48 48">
  <defs>
    <clipPath id="clip-path">
      <rect id="Rectangle_243" data-name="Rectangle 243" width="48" height="48" transform="translate(416 6248)" fill="#fff" stroke="#707070" stroke-width="1"/>
    </clipPath>
  </defs>
  <g id="Mask_Group_75" data-name="Mask Group 75" transform="translate(-416 -6248)" clip-path="url(#clip-path)">
    <path id="protractor_plain_logo_icon_146387" d="M23.229,13.486a7.988,7.988,0,0,1,2.2,5.352H10a8.116,8.116,0,0,1,2.474-5.629,7.807,7.807,0,0,1,5.251-2.1A7.886,7.886,0,0,1,23.229,13.486Zm10.047,4.165A15.638,15.638,0,1,1,17.651,2,15.621,15.621,0,0,1,33.276,17.651Zm-3.837,4.115a16.58,16.58,0,0,0,0-2.524v-.025H27.193v-.808h2.171a12.985,12.985,0,0,0-2.852-7.573c-.05-.076-.126-.126-.177-.2L24.618,12.35l-.581-.581,1.717-1.717a12.406,12.406,0,0,0-7.649-3.181V9.22H17.3V6.847A12.026,12.026,0,0,0,9.6,10.1l1.641,1.641-.555.606L9.043,10.709a13.229,13.229,0,0,0-3.054,7.7h2.1v.808H5.913v.1a15.585,15.585,0,0,0,0,2.449H29.439Z" transform="translate(422.362 6254)" fill="#b7111d"/>
  </g>
</svg>
