<svg id="Python" xmlns="http://www.w3.org/2000/svg" xmlns:xlink="http://www.w3.org/1999/xlink" width="48" height="48" viewBox="0 0 48 48">
  <defs>
    <clipPath id="clip-path">
      <rect id="Rectangle_263" data-name="Rectangle 263" width="48" height="48" transform="translate(-4283 6455)" fill="#fff" stroke="#707070" stroke-width="1"/>
    </clipPath>
  </defs>
  <g id="Mask_Group_85" data-name="Mask Group 85" transform="translate(4283 -6455)" clip-path="url(#clip-path)">
    <g id="Group_1087" data-name="Group 1087" transform="translate(13.811 -75.195)">
      <path id="path61" d="M76.066,59.971a22.868,22.868,0,0,0-3.759.318c-3.328.584-3.934,1.8-3.934,4.045V67.3H76.24v.988H65.422a4.9,4.9,0,0,0-4.915,3.943,14.332,14.332,0,0,0,0,7.9c.557,2.3,1.89,3.943,4.177,3.943H67V80.142a4.962,4.962,0,0,1,4.92-4.814h8.235a4.233,4.233,0,0,0,4.257-3.954V64.351c0-2.108-2.118-3.695-4.257-4.045a24.748,24.748,0,0,0-4.09-.318m-4.252,2.367a1.484,1.484,0,1,1-1.481,1.492,1.486,1.486,0,0,1,1.481-1.492m0,0" transform="translate(-4348.763 6478.224)" fill="#4586b9"/>
      <path id="path65" d="M107.217,90.556v3.456a4.749,4.749,0,0,1-4.915,4.613H93.671a4.286,4.286,0,0,0-3.934,4.274v7.41c0,2.108,1.852,3.344,3.934,3.949a14.372,14.372,0,0,0,8.18,0c1.98-.568,3.934-1.709,3.934-3.949v-2.968H97.929v-.988h11.795c2.283,0,3.138-1.582,3.934-3.943a13.243,13.243,0,0,0,0-7.9c-.568-2.256-1.646-3.943-3.934-3.943m-7.373,18.759a1.484,1.484,0,0,1,0,2.968,1.484,1.484,0,0,1,0-2.968m0,0" transform="translate(-4370.449 6455.955)" fill="#ffe634"/>
    </g>
  </g>
</svg>
