<svg id="Ruby_on_rails" data-name="Ruby on rails" xmlns="http://www.w3.org/2000/svg" xmlns:xlink="http://www.w3.org/1999/xlink" width="48" height="48" viewBox="0 0 48 48">
  <defs>
    <clipPath id="clip-path">
      <rect id="Rectangle_220" data-name="Rectangle 220" width="48" height="48" transform="translate(4005 3328)" fill="#c00" stroke="#707070" stroke-width="1"/>
    </clipPath>
  </defs>
  <g id="Mask_Group_57" data-name="Mask Group 57" transform="translate(-4005 -3328)" clip-path="url(#clip-path)">
    <g id="Group_1037" data-name="Group 1037" transform="translate(2993.578 3116.088)">
      <path id="Path_2151" data-name="Path 2151" d="M1035.49,265.026h-6.326c-.459,0-.46,0-.389-.443a30.368,30.368,0,0,1,8.9-16.59,20.1,20.1,0,0,1,7.862-4.682,13.19,13.19,0,0,1,4.894-.406c4.995.434,9.239,2.656,13.183,5.572a28.576,28.576,0,0,1,2.609,2.177c.155.146.173.214-.014.352-.415.3-.4.313-.815.02a22.378,22.378,0,0,0-7.519-3.721,12.308,12.308,0,0,0-12.375,3.266,11.917,11.917,0,0,0-3.082,5.913,20.493,20.493,0,0,0-.37,6.875,11.668,11.668,0,0,0,.2,1.351c.059.264-.027.323-.289.322C1039.8,265.021,1037.644,265.026,1035.49,265.026Z" transform="translate(-11.537 -16.849)" fill="#c00"/>
      <path id="Path_2157" data-name="Path 2157" d="M1018.791,387.517c-.271.644-.536,1.288-.817,1.925-.04.091-.146.012-.216-.013-.517-.187-1.031-.38-1.549-.562-.164-.058-.213-.128-.137-.3.238-.544.465-1.094.692-1.643.057-.137.118-.2.283-.132.522.2,1.052.386,1.578.581C1018.692,387.4,1018.786,387.409,1018.791,387.517Z" transform="translate(0 -147.561)" fill="#c00"/>
      <path id="Path_2158" data-name="Path 2158" d="M1184.023,450.208c-.678-.242-1.289-.462-1.9-.676a.267.267,0,0,1-.184-.257c-.07-.566-.131-1.132-.16-1.7-.012-.239.073-.235.255-.166.459.174.923.332,1.384.5.091.033.206.045.223.18C1183.722,448.776,1183.864,449.455,1184.023,450.208Z" transform="translate(-150.521 -202.596)" fill="#c00"/>
      <path id="Path_2159" data-name="Path 2159" d="M1078.736,300.824l-.142.166c-.282.328-.573.65-.844.988-.118.147-.2.18-.347.039-.309-.287-.632-.559-.959-.826-.136-.111-.159-.188-.021-.32q.48-.462.936-.95c.128-.136.221-.149.362-.017.283.264.581.513.872.77C1078.642,300.717,1078.684,300.768,1078.736,300.824Z" transform="translate(-54.758 -68.59)" fill="#c00"/>
      <path id="Path_2160" data-name="Path 2160" d="M1184.665,381.185a14.365,14.365,0,0,1,.446-1.663c.05-.15.129-.081.2-.021.314.249.625.5.943.746a.249.249,0,0,1,.094.3,11.6,11.6,0,0,0-.288,1.584c-.016.157-.059.217-.206.1-.358-.286-.719-.568-1.078-.851C1184.7,381.317,1184.64,381.252,1184.665,381.185Z" transform="translate(-153.14 -140.899)" fill="#c00"/>
      <path id="Path_2161" data-name="Path 2161" d="M1212.777,329.779c-.261-.391-.489-.744-.731-1.088a.2.2,0,0,1,.03-.3c.256-.275.514-.55.764-.83.12-.134.2-.149.307.022.165.273.344.538.527.8.083.118.108.2-.011.32A8.388,8.388,0,0,0,1212.777,329.779Z" transform="translate(-177.966 -93.698)" fill="#c00"/>
      <path id="Path_2162" data-name="Path 2162" d="M1151.7,244.78c-.1-.01-.126-.079-.162-.134-.189-.285-.37-.576-.568-.855-.1-.142-.068-.211.075-.286.323-.169.646-.342.958-.531.163-.1.238-.046.323.1.193.322.572.652.546.95-.024.28-.569.368-.863.576C1151.9,244.667,1151.792,244.724,1151.7,244.78Z" transform="translate(-122.488 -16.924)" fill="#c00"/>
      <path id="Path_2163" data-name="Path 2163" d="M1260.552,299.763c.042.138-.072.143-.151.175-.37.15-.747.287-1.11.453-.167.076-.221.026-.262-.123s-.1-.3-.149-.456c-.175-.535-.176-.537.37-.742.246-.092.5-.17.741-.265.162-.064.249-.037.3.144.068.253.161.5.244.749C1260.539,299.719,1260.545,299.741,1260.552,299.763Z" transform="translate(-220.451 -67.647)" fill="#c00"/>
      <path id="Path_2164" data-name="Path 2164" d="M1318.008,236.607c.039-.6.039-.6.627-.418.088.027.174.057.26.087.894.316.892.32.764,1.267-.025.185-.085.2-.24.137-.307-.125-.618-.239-.93-.351C1317.974,237.145,1317.973,237.147,1318.008,236.607Z" transform="translate(-274.233 -10.711)" fill="#c00"/>
      <path id="Path_2165" data-name="Path 2165" d="M1319.051,294.708c-.023.6-.022.594-.572.513-.293-.043-.59-.068-.885-.1-.045,0-.105.014-.134-.009-.283-.22-.073-.51-.092-.766-.008-.116-.067-.331.192-.309a8.251,8.251,0,0,1,1.356.185C1319.238,294.305,1318.969,294.572,1319.051,294.708Z" transform="translate(-273.611 -63.344)" fill="#c00"/>
      <path id="Path_2166" data-name="Path 2166" d="M1230.865,225.346l-.112.008c-.82.049-.838.03-1.009-.782-.034-.162.012-.2.16-.208q.6-.029,1.2-.074c.157-.012.262.025.3.2.063.275.33.609.2.789S1231.069,225.318,1230.865,225.346Z" transform="translate(-194.075 0)" fill="#c00"/>
    </g>
  </g>
</svg>
