<svg id="Selenium" xmlns="http://www.w3.org/2000/svg" xmlns:xlink="http://www.w3.org/1999/xlink" width="48" height="48" viewBox="0 0 48 48">
  <defs>
    <clipPath id="clip-path">
      <rect id="Rectangle_244" data-name="Rectangle 244" width="48" height="48" transform="translate(350 6248)" fill="#fff" stroke="#707070" stroke-width="1"/>
    </clipPath>
  </defs>
  <g id="Mask_Group_74" data-name="Mask Group 74" transform="translate(-350 -6248)" clip-path="url(#clip-path)">
    <path id="icons8-selenium" d="M36.277,2,24.823,14.4l-5.96-5.544-2.631,2.773,8.745,8.315L39.064,4.618ZM8.077,3.631A4.09,4.09,0,0,0,4,7.708V33.8A4.09,4.09,0,0,0,8.077,37.88H34.172A4.09,4.09,0,0,0,38.249,33.8V7.912L36.618,9.681V33.8a2.434,2.434,0,0,1-2.446,2.446H8.077A2.434,2.434,0,0,1,5.631,33.8V7.708A2.434,2.434,0,0,1,8.077,5.262H31.041l1.508-1.631H8.077Zm4.6,14.678c-3.039,0-5.042,1.639-5.042,4.1,0,2.012,1.187,3.277,3.633,3.873l1.781.448c1.854.447,2.594,1.043,2.594,2.161,0,1.266-1.26,2.16-2.966,2.16-1.854,0-3.112-.8-3.335-2.139H7.262c.148,2.459,2.224,4.077,5.264,4.077,3.262,0,5.337-1.639,5.337-4.321,0-2.086-1.186-3.279-4-3.95L12.3,24.344c-1.779-.447-2.52-.969-2.52-2.012,0-1.266,1.112-2.085,2.817-2.085a2.7,2.7,0,0,1,2.964,2.085H17.64C17.566,19.948,15.491,18.309,12.674,18.309Zm12.6,4.077c-3.058,0-4.966,2.087-4.966,5.332s1.908,5.269,4.966,5.269c2.446,0,4.208-1.084,4.665-2.953H27.876a2.6,2.6,0,0,1-2.52,1.222,2.963,2.963,0,0,1-2.911-3.06V28.05h7.65v-.541C30.094,24.336,28.26,22.386,25.275,22.386Zm0,1.672a2.491,2.491,0,0,1,2.65,2.4H22.552A2.611,2.611,0,0,1,25.275,24.059Z" transform="translate(352.468 6252)" fill="#00b400"/>
  </g>
</svg>
