<svg id="Serverless_Architecture" data-name="Serverless Architecture" xmlns="http://www.w3.org/2000/svg" xmlns:xlink="http://www.w3.org/1999/xlink" width="48" height="48" viewBox="0 0 48 48">
  <defs>
    <clipPath id="clip-path">
      <rect id="Rectangle_215" data-name="Rectangle 215" width="48" height="48" transform="translate(3805 3430)" fill="#262626" stroke="#707070" stroke-width="1"/>
    </clipPath>
  </defs>
  <g id="Mask_Group_54" data-name="Mask Group 54" transform="translate(-3805 -3430)" clip-path="url(#clip-path)">
    <path id="Subtraction_3" data-name="Subtraction 3" d="M112.809,104.358H86.627a2.893,2.893,0,0,1-1-.175l2.825-2.825a.728.728,0,0,0,1.08-.637v-.443l1.454-1.454v1.9a.727.727,0,1,0,1.455,0V97.813a.729.729,0,0,0-.091-.352l3.284-3.284h17.17a2.912,2.912,0,0,1,2.909,2.909v4.364A2.912,2.912,0,0,1,112.809,104.358ZM94.627,97.085a.728.728,0,0,0-.727.727v2.909a.727.727,0,0,0,1.455,0V97.813A.728.728,0,0,0,94.627,97.085Zm15.273.727a1.454,1.454,0,1,0,1.454,1.454A1.456,1.456,0,0,0,109.9,97.813Zm-4.364,0a1.454,1.454,0,1,0,1.454,1.454A1.456,1.456,0,0,0,105.536,97.813Zm-21.058,5.6h0a2.9,2.9,0,0,1-.76-1.959V97.085a2.912,2.912,0,0,1,2.909-2.909H93.71L89.536,98.35v-.538a.727.727,0,0,0-1.455,0V99.8Zm9.959-9.959h-7.81a2.912,2.912,0,0,1-2.909-2.909V86.176a2.912,2.912,0,0,1,2.909-2.909h17.992L94.437,93.449Zm.19-7.273a.728.728,0,0,0-.727.727v2.909a.727.727,0,1,0,1.455,0V86.9A.728.728,0,0,0,94.627,86.176Zm-2.909,0a.728.728,0,0,0-.727.727v2.909a.727.727,0,1,0,1.455,0V86.9A.728.728,0,0,0,91.718,86.176Zm-2.909,0a.728.728,0,0,0-.727.727v2.909a.727.727,0,1,0,1.454,0V86.9A.728.728,0,0,0,88.809,86.176Zm24,7.273H96.366l10.182-10.182h6.261a2.912,2.912,0,0,1,2.909,2.909V90.54A2.912,2.912,0,0,1,112.809,93.449ZM109.9,86.9a1.454,1.454,0,1,0,1.454,1.454A1.456,1.456,0,0,0,109.9,86.9Zm-4.364,0a1.454,1.454,0,1,0,1.454,1.454A1.456,1.456,0,0,0,105.536,86.9Zm-.19-4.364H86.627a2.912,2.912,0,0,1-2.909-2.909V75.267a2.912,2.912,0,0,1,2.909-2.909h26.182a2.9,2.9,0,0,1,1.959.76l-3.607,3.607a1.454,1.454,0,1,0-1.985,1.985l-3.83,3.83ZM94.627,75.267a.728.728,0,0,0-.727.727V78.9a.727.727,0,0,0,1.455,0V75.995A.728.728,0,0,0,94.627,75.267Zm-2.909,0a.728.728,0,0,0-.727.727V78.9a.727.727,0,0,0,1.455,0V75.995A.728.728,0,0,0,91.718,75.267Zm-2.909,0a.728.728,0,0,0-.727.727V78.9a.727.727,0,1,0,1.454,0V75.995A.728.728,0,0,0,88.809,75.267Zm16.727.727a1.455,1.455,0,1,0,1.454,1.455A1.456,1.456,0,0,0,105.536,75.995Zm7.273,6.546h-5.534l8.268-8.268a2.894,2.894,0,0,1,.175,1v4.364A2.912,2.912,0,0,1,112.809,82.54Z" transform="translate(3729.282 3365.642)" fill="#262626"/>
  </g>
</svg>
