<svg id="SoapUI" xmlns="http://www.w3.org/2000/svg" xmlns:xlink="http://www.w3.org/1999/xlink" width="48" height="48" viewBox="0 0 48 48">
  <defs>
    <clipPath id="clip-path">
      <rect id="Rectangle_248" data-name="Rectangle 248" width="48" height="48" transform="translate(-4030 6458)" fill="#fff" stroke="#707070" stroke-width="1"/>
    </clipPath>
  </defs>
  <g id="Mask_Group_79" data-name="Mask Group 79" transform="translate(4030 -6458)" clip-path="url(#clip-path)">
    <g id="soapui_93772" transform="translate(-4025.127 6461.867)">
      <rect id="Rectangle_239" data-name="Rectangle 239" width="26.134" height="26.134" rx="2.103" transform="translate(19.615 39.331) rotate(-135)" opacity="0.2"/>
      <rect id="Rectangle_240" data-name="Rectangle 240" width="26.134" height="26.134" rx="2.103" transform="translate(19.606 38.091) rotate(-135)" fill="#66b744"/>
      <path id="Path_2319" data-name="Path 2319" d="M18.135,6a17.537,17.537,0,0,0-5.6.789L7.581,11.745a10.228,10.228,0,0,0-.3,3.262c.538,4.307,5.055,7.149,10.855,7.149,4.143,0,6.211,2.13,6.294,2.794.042.332.077,1.777-.687,2.3a11.475,11.475,0,0,1-5.607,1.119c-3.4,0-7.467-2.158-7.467-2.158A2.473,2.473,0,0,0,7.205,27.22L12.3,32.315a18.624,18.624,0,0,0,5.835,1.027,17.538,17.538,0,0,0,5.6-.789L28.689,27.6a10.228,10.228,0,0,0,.3-3.262c-.538-4.307-5.055-7.149-10.855-7.149-4.143,0-6.087-2.13-6.17-2.794-.042-.332-.078-1.777.687-2.3a10.882,10.882,0,0,1,5.483-1.119c3.4,0,7.467,2.158,7.467,2.158a2.473,2.473,0,0,0,3.464-1.007l-5.1-5.095A18.625,18.625,0,0,0,18.135,6Z" transform="translate(1.476 1.182)" fill-rule="evenodd" opacity="0.2"/>
      <path id="Path_2320" data-name="Path 2320" d="M18.135,5a17.537,17.537,0,0,0-5.6.789L7.581,10.746a10.227,10.227,0,0,0-.3,3.262c.538,4.307,5.055,7.149,10.855,7.149,4.143,0,6.211,2.13,6.294,2.794.042.332.077,1.777-.687,2.3a11.475,11.475,0,0,1-5.607,1.119c-3.4,0-7.467-2.158-7.467-2.158A2.473,2.473,0,0,0,7.205,26.22l5.1,5.095a18.624,18.624,0,0,0,5.835,1.027,17.537,17.537,0,0,0,5.6-.789L28.69,26.6a10.231,10.231,0,0,0,.3-3.262c-.538-4.307-5.055-7.149-10.855-7.149-4.143,0-6.087-2.13-6.17-2.794-.042-.332-.078-1.777.687-2.3a10.882,10.882,0,0,1,5.483-1.119c3.4,0,7.466,2.158,7.466,2.158a2.473,2.473,0,0,0,3.464-1.007L23.971,6.027A18.625,18.625,0,0,0,18.135,5Z" transform="translate(1.476 0.939)" fill="#fff" fill-rule="evenodd"/>
      <path id="Path_2321" data-name="Path 2321" d="M19.4,2a2.6,2.6,0,0,0-1.847.767L2.766,17.552a2.6,2.6,0,0,0-.682,2.469,2.593,2.593,0,0,1,.682-1.226L17.55,4.01a2.606,2.606,0,0,1,3.694,0L36.03,18.795a2.592,2.592,0,0,1,.682,1.226,2.6,2.6,0,0,0-.682-2.469L21.245,2.767A2.6,2.6,0,0,0,19.4,2Z" transform="translate(0.213 0.211)" fill="#fff" opacity="0.2"/>
    </g>
  </g>
</svg>
