<svg id="Spring_Boot" data-name="Spring Boot" xmlns="http://www.w3.org/2000/svg" xmlns:xlink="http://www.w3.org/1999/xlink" width="48" height="48" viewBox="0 0 48 48">
  <defs>
    <clipPath id="clip-path">
      <rect id="Rectangle_231" data-name="Rectangle 231" width="48" height="48" transform="translate(596 1305)" fill="#fff" stroke="#707070" stroke-width="1"/>
    </clipPath>
  </defs>
  <g id="Mask_Group_66" data-name="Mask Group 66" transform="translate(-596 -1305)" clip-path="url(#clip-path)">
    <path id="Path_2239" data-name="Path 2239" d="M1499.1,903.728q-3.471-6.1-6.971-12.187a4.268,4.268,0,0,0-3.932-2.268q-3.464,0-6.927,0c-2.309,0-4.618,0-6.927,0a4.319,4.319,0,0,0-4.009,2.306q-3.469,6.047-6.922,12.1a4.457,4.457,0,0,0,.02,4.721q3.447,6,6.873,12.019a4.339,4.339,0,0,0,3.983,2.36q6.976.021,13.952,0a4.286,4.286,0,0,0,3.912-2.312q3.462-6.051,6.921-12.1A4.4,4.4,0,0,0,1499.1,903.728Zm-19.415-7.193a1.559,1.559,0,0,1,1.484-1.709,1.522,1.522,0,0,1,1.461,1.709c.008.731.008,1.461.008,2.192s0,1.461,0,2.192c0,1.4.009,2.792,0,4.189-.009,1.066-.553,1.724-1.414,1.749-.9.026-1.527-.66-1.532-1.749Q1479.662,900.821,1479.682,896.535Zm3.294,18.916a10.081,10.081,0,0,1-11.748-8.155,9.948,9.948,0,0,1,3.467-9.806c.861-.764,1.677-.779,2.212-.11.5.629.336,1.383-.482,2.1a7.343,7.343,0,0,0-2.51,7.808,7.267,7.267,0,0,0,5.821,5.531,3.421,3.421,0,0,0,.576.091c.292.016.585,0,.877,0a7.43,7.43,0,0,0,7-4.825,7.724,7.724,0,0,0-2.021-8.392c-.169-.152-.358-.281-.524-.436a1.337,1.337,0,0,1-.247-1.9,1.3,1.3,0,0,1,1.909-.125,9.9,9.9,0,0,1,3.87,6.549A10.225,10.225,0,0,1,1482.976,915.45Z" transform="translate(-861.243 422.969)" fill="#6cb13e"/>
  </g>
</svg>
