<svg id="SpringMVC_SpringBoot" data-name="SpringMVC/SpringBoot" xmlns="http://www.w3.org/2000/svg" xmlns:xlink="http://www.w3.org/1999/xlink" width="48" height="48" viewBox="0 0 48 48">
  <defs>
    <clipPath id="clip-path">
      <rect id="Rectangle_219" data-name="Rectangle 219" width="48" height="48" transform="translate(3896 3327)" fill="#6cb13e" stroke="#707070" stroke-width="1"/>
    </clipPath>
  </defs>
  <g id="Mask_Group_56" data-name="Mask Group 56" transform="translate(-3896 -3327)" clip-path="url(#clip-path)">
    <path id="Subtraction_4" data-name="Subtraction 4" d="M17.7,35.766a17.791,17.791,0,0,1-3.568-.361,17.582,17.582,0,0,1-6.33-2.671A17.771,17.771,0,0,1,10.813,1.661,17.582,17.582,0,0,1,14.136.627,17.791,17.791,0,0,1,17.7.266a17.543,17.543,0,0,1,9.032,2.493,17.931,17.931,0,0,1,2.487,1.795c.14-.237.247-.433.336-.619L31.445,0l1.388,4.137c.441,1.313.829,2.6,1.155,3.812s.6,2.4.811,3.526.369,2.215.468,3.246a26.907,26.907,0,0,1,.125,2.971c0,.051,0,.1.008.151s.008.115.008.173a17.927,17.927,0,0,1-.36,3.577A17.68,17.68,0,0,1,17.7,35.766Zm-8.4-7.1a1.333,1.333,0,1,0,.833.3A1.308,1.308,0,0,0,9.3,28.666Zm20.52-15.052h0a15.02,15.02,0,0,1-1.3,3.957,19.674,19.674,0,0,1-2.289,3.636,20.308,20.308,0,0,1-6.258,5.33,24.144,24.144,0,0,1-4.619,1.719c-1.154.346-2.461.738-4.015,1.3h7.718c.475.008.893.012,1.276.012,4.219,0,8.471-.479,10.987-3.955,1.828-2.524,2.579-6.018,2.231-10.382A46.481,46.481,0,0,0,31.233,4.7a11.158,11.158,0,0,1-1.709,2.6,14.873,14.873,0,0,1-2.36,2.171,15.88,15.88,0,0,1-5.518,2.666,22.351,22.351,0,0,1-4.308.518,15.866,15.866,0,0,0-5.3.9A9.029,9.029,0,0,0,6.2,21.562c-.115,2.635.946,4.91,2.7,5.8l.236.129c.014,0,1.481-.305,3.323-.755a53.538,53.538,0,0,0,5.748-1.682C22.533,23.4,28.006,19.11,29.819,13.614Z" transform="translate(3902 3333)" fill="#6cb13e"/>
  </g>
</svg>
