<svg id="SQL" xmlns="http://www.w3.org/2000/svg" xmlns:xlink="http://www.w3.org/1999/xlink" width="48" height="48" viewBox="0 0 48 48">
  <defs>
    <clipPath id="clip-path">
      <rect id="Rectangle_223" data-name="Rectangle 223" width="48" height="48" transform="translate(4335 3322)" fill="#336791" stroke="#707070" stroke-width="1"/>
    </clipPath>
  </defs>
  <g id="Mask_Group_60" data-name="Mask Group 60" transform="translate(-4335 -3322)" clip-path="url(#clip-path)">
    <g id="Group_1043" data-name="Group 1043" transform="translate(4264 3295)">
      <ellipse id="Ellipse_202" data-name="Ellipse 202" cx="5.212" cy="0.684" rx="5.212" ry="0.684" transform="translate(89.843 40.212)" fill="#336791"/>
      <path id="Path_2207" data-name="Path 2207" d="M355.422,49.189h2.454L352,43.313v2.454A3.426,3.426,0,0,0,355.422,49.189Z" transform="translate(-248.733 -10.345)" fill="#336791"/>
      <path id="Path_2208" data-name="Path 2208" d="M197.475,152.643a21.753,21.753,0,0,1-4.5-.417,8.137,8.137,0,0,1-.971-.271v2.6c.415.305,2.329.824,5.475.824s5.06-.519,5.475-.824v-2.6a8.145,8.145,0,0,1-.971.271A21.754,21.754,0,0,1,197.475,152.643Z" transform="translate(-102.419 -109.694)" fill="#336791"/>
      <path id="Path_2209" data-name="Path 2209" d="M197.475,248.643a21.76,21.76,0,0,1-4.5-.417,8.154,8.154,0,0,1-.971-.271v2.6c.417.305,2.332.823,5.475.823s5.058-.518,5.475-.823v-2.6a8.16,8.16,0,0,1-.971.271A21.761,21.761,0,0,1,197.475,248.643Z" transform="translate(-102.419 -197.482)" fill="#336791"/>
      <path id="Path_2210" data-name="Path 2210" d="M197.475,200.643a21.757,21.757,0,0,1-4.5-.417,8.134,8.134,0,0,1-.971-.271v2.6c.415.305,2.329.824,5.475.824s5.06-.519,5.475-.824v-2.6a8.14,8.14,0,0,1-.971.271A21.757,21.757,0,0,1,197.475,200.643Z" transform="translate(-102.419 -153.588)" fill="#336791"/>
      <path id="Path_2211" data-name="Path 2211" d="M101.9,35.422V32H83.422A3.426,3.426,0,0,0,80,35.422V59.373h30.11V40.212h-3.422A4.8,4.8,0,0,1,101.9,35.422Zm0,17.793c0,1-1.335,1.413-2.34,1.636a24.515,24.515,0,0,1-9.007,0c-1-.223-2.34-.636-2.34-1.636V40.9c0-1,1.335-1.413,2.34-1.636a24.516,24.516,0,0,1,9.007,0c1,.223,2.34.636,2.34,1.636Z" transform="translate(0 0)" fill="#336791"/>
      <path id="Subtraction_8" data-name="Subtraction 8" d="M3628-6385h-24a3,3,0,0,1-3-3v-6h30v6A3,3,0,0,1,3628-6385Zm-6.95-3.005h0l.46.625h1.025l-.791-.936a1.719,1.719,0,0,0,.518-.625,1.883,1.883,0,0,0,.188-.841,1.851,1.851,0,0,0-.236-.932,1.7,1.7,0,0,0-.642-.645,1.807,1.807,0,0,0-.908-.233,1.786,1.786,0,0,0-.9.233,1.731,1.731,0,0,0-.645.645,1.833,1.833,0,0,0-.238.932,1.855,1.855,0,0,0,.238.936,1.715,1.715,0,0,0,.645.647,1.79,1.79,0,0,0,.9.232,1.9,1.9,0,0,0,.384-.04Zm-5.175-1.059a1.061,1.061,0,0,0,.42.811,1.6,1.6,0,0,0,.98.289,1.491,1.491,0,0,0,.672-.14,1,1,0,0,0,.419-.375.967.967,0,0,0,.143-.515.948.948,0,0,0-.154-.56,1.069,1.069,0,0,0-.371-.327,3.9,3.9,0,0,0-.555-.227c-.182-.067-.286-.108-.359-.141a.6.6,0,0,1-.207-.143.291.291,0,0,1-.083-.212.292.292,0,0,1,.093-.234.351.351,0,0,1,.242-.08.374.374,0,0,1,.278.1.463.463,0,0,1,.127.276h.926a1.07,1.07,0,0,0-.393-.769,1.45,1.45,0,0,0-.937-.281,1.615,1.615,0,0,0-.647.124,1,1,0,0,0-.443.352.931.931,0,0,0-.16.545.93.93,0,0,0,.152.552,1.009,1.009,0,0,0,.366.321,4.632,4.632,0,0,0,.547.222c.148.051.269.1.359.138a.68.68,0,0,1,.218.148.308.308,0,0,1,.087.225.322.322,0,0,1-.095.241.365.365,0,0,1-.26.09.441.441,0,0,1-.313-.116.485.485,0,0,1-.143-.314Zm-2.169-2.526a1.786,1.786,0,0,0-.9.233,1.71,1.71,0,0,0-.645.645,1.833,1.833,0,0,0-.238.932,1.855,1.855,0,0,0,.238.936,1.7,1.7,0,0,0,.645.647,1.79,1.79,0,0,0,.9.232,1.79,1.79,0,0,0,.9-.232,1.7,1.7,0,0,0,.645-.647,1.855,1.855,0,0,0,.238-.936,1.849,1.849,0,0,0-.234-.932,1.714,1.714,0,0,0-.642-.645A1.807,1.807,0,0,0,3613.705-6391.59Zm9.225.055V-6388h1.995v-.655h-1.139v-2.88Zm-14.635,0V-6388h.854v-2.169l0,0,1.43,2.167h.854v-3.535h-.854v2.19l-1.431-2.19Zm12.369,2.771a.855.855,0,0,1-.667-.276,1.072,1.072,0,0,1-.247-.74,1.077,1.077,0,0,1,.247-.743.862.862,0,0,1,.667-.271.858.858,0,0,1,.667.274,1.068,1.068,0,0,1,.249.74,1.059,1.059,0,0,1-.25.74A.858.858,0,0,1,3620.665-6388.765Zm-6.959,0a.855.855,0,0,1-.667-.276,1.065,1.065,0,0,1-.247-.74,1.07,1.07,0,0,1,.247-.743.862.862,0,0,1,.667-.271.858.858,0,0,1,.667.274,1.067,1.067,0,0,1,.247.74,1.059,1.059,0,0,1-.25.74A.851.851,0,0,1,3613.705-6388.765Z" transform="translate(-3521 6454)" fill="#336791"/>
    </g>
  </g>
</svg>
