<svg id="Swift" xmlns="http://www.w3.org/2000/svg" xmlns:xlink="http://www.w3.org/1999/xlink" width="48" height="48" viewBox="0 0 48 48">
  <defs>
    <clipPath id="clip-path">
      <rect id="Rectangle_224" data-name="Rectangle 224" width="48" height="48" transform="translate(4030 3915)" fill="#f05138" stroke="#707070" stroke-width="1"/>
    </clipPath>
  </defs>
  <g id="Mask_Group_61" data-name="Mask Group 61" transform="translate(-4030 -3915)" clip-path="url(#clip-path)">
    <path id="Path_2222" data-name="Path 2222" d="M24.474,32.005c17.456,11.649,11.8,24.449,11.8,24.449s4.958,5.487,2.966,10.294c0,0-2.057-3.358-5.472-3.358-3.3,0-5.254,3.358-11.917,3.358C7.026,66.748,0,54.6,0,54.6c13.356,8.636,22.481,2.516,22.481,2.516-6.03-3.42-18.821-19.8-18.821-19.8,11.15,9.309,15.962,11.753,15.962,11.753C16.729,46.753,8.666,35.37,8.666,35.37c6.452,6.4,19.277,15.324,19.277,15.324C31.621,40.832,24.474,32.005,24.474,32.005Z" transform="translate(4034 3889.624)" fill="#f05138"/>
  </g>
</svg>
