<svg id="TestShell_Studio" data-name="TestShell Studio" xmlns="http://www.w3.org/2000/svg" xmlns:xlink="http://www.w3.org/1999/xlink" width="48" height="48" viewBox="0 0 48 48">
  <defs>
    <clipPath id="clip-path">
      <rect id="Rectangle_257" data-name="Rectangle 257" width="48" height="48" transform="translate(-4258 6584)" fill="#fff" stroke="#707070" stroke-width="1"/>
    </clipPath>
  </defs>
  <g id="Mask_Group_81" data-name="Mask Group 81" transform="translate(4258 -6584)" clip-path="url(#clip-path)">
    <g id="Group_1081" data-name="Group 1081" transform="translate(-4950.394 6173.189)">
      <circle id="Ellipse_282" data-name="Ellipse 282" cx="10.728" cy="10.728" r="10.728" transform="translate(704.691 423.81)" fill="#90d0f8"/>
      <path id="Path_2324" data-name="Path 2324" d="M700.394,445.2a9.52,9.52,0,0,0,3.856,4.136,8.135,8.135,0,0,0,3.053.865,9.749,9.749,0,0,0,5.42-1.232,33.712,33.712,0,0,0,5.365-3.635,13.585,13.585,0,0,1,5.138-2.736,6.287,6.287,0,0,1,5.787,1.4,10.152,10.152,0,0,1,1.313,1.439.38.38,0,0,0,.291.187c.386.016.772.041,1.158.048.21,0,.345-.079.206-.311a10.176,10.176,0,0,0-3.059-3.422,8.035,8.035,0,0,0-3.725-1.26,9.768,9.768,0,0,0-5.952,1.62,56.234,56.234,0,0,0-4.741,3.4,14.543,14.543,0,0,1-5.519,2.682,5.9,5.9,0,0,1-3.709-.4,6.91,6.91,0,0,1-3.086-2.582.41.41,0,0,0-.348-.2C701.382,445.2,700.92,445.2,700.394,445.2Z" transform="translate(0 -11.702)" fill="#173070"/>
    </g>
  </g>
</svg>
