<svg id="Xamarin" xmlns="http://www.w3.org/2000/svg" xmlns:xlink="http://www.w3.org/1999/xlink" width="48" height="48" viewBox="0 0 48 48">
  <defs>
    <clipPath id="clip-path">
      <rect id="Rectangle_480" data-name="Rectangle 480" width="48" height="48" transform="translate(3965 3704)" fill="#fff" stroke="#707070" stroke-width="1"/>
    </clipPath>
  </defs>
  <g id="Xamarin-2" data-name="Xamarin" transform="translate(-3965 -3704)" clip-path="url(#clip-path)">
    <path id="xamarin-3" data-name="xamarin" d="M9.979,0A2.744,2.744,0,0,0,7.66,1.341L.347,14.045a2.763,2.763,0,0,0,0,2.682L7.66,29.43a2.744,2.744,0,0,0,2.318,1.341H24.6a2.744,2.744,0,0,0,2.318-1.341l7.313-12.7a2.763,2.763,0,0,0,0-2.682l-7.313-12.7A2.743,2.743,0,0,0,24.6,0Zm.133,7.432a.31.31,0,0,1,.061,0H12.7a.333.333,0,0,1,.276.164l4.28,7.626a.325.325,0,0,1,.041.123.331.331,0,0,1,.041-.123L21.6,7.6a.334.334,0,0,1,.286-.164H24.41a.345.345,0,0,1,.286.481l-4.177,7.473L24.7,22.848a.345.345,0,0,1-.286.491H21.888a.334.334,0,0,1-.286-.174l-4.269-7.626a.327.327,0,0,1-.041-.123.328.328,0,0,1-.041.123l-4.28,7.626a.333.333,0,0,1-.276.174H10.173a.345.345,0,0,1-.286-.491l4.177-7.463L9.887,7.913a.344.344,0,0,1,.225-.481Z" transform="translate(3972 3712)" fill="#262626"/>
  </g>
</svg>
